<svg width="748" height="296" viewBox="0 0 748 296" fill="none" xmlns="http://www.w3.org/2000/svg">
<path fill-rule="evenodd" clip-rule="evenodd" d="M365.095 0C522.86 0 650.875 127.723 650.875 285.168H79.5352C79.5352 127.723 207.311 0 365.095 0Z" fill="#191825"/>
<path fill-rule="evenodd" clip-rule="evenodd" d="M137.545 147.899C213.604 147.899 275.33 209.273 275.33 285.168H0C0 209.254 61.487 147.899 137.545 147.899Z" fill="#191825"/>
<path fill-rule="evenodd" clip-rule="evenodd" d="M610.217 147.899C686.276 147.899 748.002 209.273 748.002 285.168H472.672C472.672 209.254 534.38 147.899 610.217 147.899Z" fill="#191825"/>
<path fill-rule="evenodd" clip-rule="evenodd" d="M483.1 46.6315C485.713 46.6315 487.884 48.7979 487.884 51.4048C487.884 54.0118 485.713 56.1781 483.1 56.1781C480.487 56.1781 478.316 54.0118 478.316 51.4048C478.316 48.7979 480.487 46.6315 483.1 46.6315Z" fill="white"/>
<path fill-rule="evenodd" clip-rule="evenodd" d="M573.272 124.032C575.885 124.032 578.056 126.199 578.056 128.806C578.056 131.413 575.885 133.579 573.272 133.579C570.659 133.579 568.488 131.413 568.488 128.806C568.488 126.199 570.678 124.032 573.272 124.032Z" fill="white"/>
<path fill-rule="evenodd" clip-rule="evenodd" d="M468.307 139.215C470.92 139.215 473.091 141.382 473.091 143.989C473.091 146.816 470.92 148.762 468.307 148.762C465.695 148.762 463.523 146.816 463.523 143.989C463.523 141.382 465.713 139.215 468.307 139.215Z" fill="white"/>
<path fill-rule="evenodd" clip-rule="evenodd" d="M250.127 38.5903C252.74 38.5903 254.911 40.5364 254.911 43.3636C254.911 45.9706 252.74 47.9166 250.127 47.9166C247.515 47.9166 245.344 45.9706 245.344 43.3636C245.344 40.5547 247.515 38.5903 250.127 38.5903Z" fill="white"/>
<path fill-rule="evenodd" clip-rule="evenodd" d="M150.163 201.232C152.775 201.232 154.946 203.178 154.946 205.785C154.946 208.612 152.775 210.558 150.163 210.558C147.55 210.558 145.379 208.612 145.379 205.785C145.379 203.196 147.55 201.232 150.163 201.232Z" fill="white"/>
<path fill-rule="evenodd" clip-rule="evenodd" d="M708.462 213.605C711.295 213.605 713.245 215.551 713.245 218.158C713.245 220.986 711.295 222.932 708.462 222.932C705.849 222.932 703.899 220.986 703.899 218.158C703.88 215.551 705.849 213.605 708.462 213.605Z" fill="white"/>
<path fill-rule="evenodd" clip-rule="evenodd" d="M686.939 198.423C688.245 198.423 689.331 199.506 689.331 200.809C689.331 202.113 688.245 203.196 686.939 203.196C685.632 203.196 684.547 202.113 684.547 200.809C684.547 199.506 685.632 198.423 686.939 198.423Z" fill="white"/>
<path fill-rule="evenodd" clip-rule="evenodd" d="M684.548 250.69C685.854 250.69 686.94 251.773 686.94 253.077C686.94 254.38 685.854 255.464 684.548 255.464C683.242 255.464 682.156 254.38 682.156 253.077C682.156 251.773 683.242 250.69 684.548 250.69Z" fill="white"/>
<path fill-rule="evenodd" clip-rule="evenodd" d="M731.275 249.809C732.581 249.809 733.667 250.892 733.667 252.196C733.667 253.499 732.581 254.582 731.275 254.582C729.968 254.582 728.883 253.499 728.883 252.196C728.883 250.892 729.968 249.809 731.275 249.809Z" fill="white"/>
<path fill-rule="evenodd" clip-rule="evenodd" d="M552.204 152.232C553.511 152.232 554.596 153.315 554.596 154.618C554.596 155.922 553.511 157.005 552.204 157.005C550.898 157.005 549.812 155.922 549.812 154.618C549.812 153.315 550.898 152.232 552.204 152.232Z" fill="white"/>
<path fill-rule="evenodd" clip-rule="evenodd" d="M549.814 104.737C551.12 104.737 552.206 105.821 552.206 107.124C552.206 108.427 551.12 109.511 549.814 109.511C548.507 109.511 547.422 108.427 547.422 107.124C547.422 105.821 548.507 104.737 549.814 104.737Z" fill="white"/>
<path fill-rule="evenodd" clip-rule="evenodd" d="M436.372 37.3052C437.679 37.3052 438.764 38.1681 438.764 39.6919C438.764 40.9954 437.679 42.0785 436.372 42.0785C435.066 42.0785 433.98 40.9954 433.98 39.6919C433.98 38.1681 435.066 37.3052 436.372 37.3052Z" fill="white"/>
<path fill-rule="evenodd" clip-rule="evenodd" d="M246.65 119.057C247.956 119.057 249.042 120.14 249.042 121.444C249.042 122.747 247.956 123.831 246.65 123.831C245.343 123.831 244.258 122.747 244.258 121.444C244.258 120.14 245.343 119.057 246.65 119.057Z" fill="white"/>
<path fill-rule="evenodd" clip-rule="evenodd" d="M217.099 72.4258C218.405 72.4258 219.491 73.5089 219.491 74.8124C219.491 76.1159 218.405 77.199 217.099 77.199C215.793 77.199 214.707 76.1159 214.707 74.8124C214.707 73.5089 215.793 72.4258 217.099 72.4258Z" fill="white"/>
<path fill-rule="evenodd" clip-rule="evenodd" d="M64.7473 200.809C66.0537 200.809 67.1392 201.892 67.1392 203.196C67.1392 204.499 66.0537 205.583 64.7473 205.583C63.441 205.583 62.3555 204.499 62.3555 203.196C62.3555 201.892 63.4594 200.809 64.7473 200.809Z" fill="white"/>
<path fill-rule="evenodd" clip-rule="evenodd" d="M163.853 250.25C165.159 250.25 166.245 251.333 166.245 252.636C166.245 253.94 165.159 255.023 163.853 255.023C162.546 255.023 161.461 253.94 161.461 252.636C161.461 251.333 162.546 250.25 163.853 250.25Z" fill="white"/>
<path fill-rule="evenodd" clip-rule="evenodd" d="M190.366 219.884C191.894 219.884 192.758 220.747 192.758 222.271C192.758 223.574 191.894 224.657 190.366 224.657C189.06 224.657 188.195 223.574 188.195 222.271C188.195 220.765 189.06 219.884 190.366 219.884Z" fill="white"/>
<path d="M371.387 176.741L403.768 203.637L436.37 230.734C449.838 241.786 451.806 261.742 440.491 275.181C434.181 282.763 425.276 286.674 416.15 286.674H350.744H285.541C267.934 286.674 253.602 272.574 253.602 255.005C253.602 244.155 259.029 234.626 267.511 228.77L297.941 203.618L330.543 176.521C342.704 166.552 359.87 166.974 371.387 176.741Z" fill="#666666"/>
<path fill-rule="evenodd" clip-rule="evenodd" d="M413.556 211.641L436.37 230.716H264.898C265.763 230.073 266.628 229.412 267.511 228.77L288.154 211.641H413.556Z" fill="#333333"/>
<path fill-rule="evenodd" clip-rule="evenodd" d="M385.518 183.46L380.734 189.317L368.996 179.55L373.78 173.693L385.518 183.46ZM369.658 170.664L365.74 177.163H365.519V176.943H365.298L365.077 176.722H364.856L364.636 176.502L364.415 176.282H364.194L363.973 176.062H363.753L363.532 175.841H363.311H363.09V175.621H362.869H362.649V175.401H362.428L362.207 175.18H361.986H361.765L361.545 174.96H361.324H361.103V174.74H360.882H360.662L360.441 174.519H360.22H359.999V174.299H359.778H359.558H359.337L359.116 174.079H358.895H358.675L358.454 173.858H358.233H358.012H357.791V173.638H357.571H357.35H357.129H356.908V173.418H356.688H356.467H356.246H356.025L355.804 173.198H355.584H355.363H355.142H354.921H354.701H354.48V172.977H354.259H354.038H353.817H353.597H353.376H353.155H352.934L353.376 165.395H353.597H353.817H354.038H354.259H354.48H354.701H354.921H355.142L355.363 165.615H355.584H355.804H356.025H356.246H356.467L356.688 165.836H356.908H357.129H357.35H357.571H357.791L358.012 166.056H358.233H358.454H358.675L358.895 166.276H359.116H359.337H359.558L359.778 166.497H359.999H360.22H360.441L360.662 166.717H360.882H361.103L361.324 166.937H361.545H361.765H361.986V167.157H362.207H362.428L362.649 167.378H362.869H363.09L363.311 167.598H363.532H363.753L363.973 167.818H364.194L364.415 168.039H364.636H364.856L365.077 168.259H365.298L365.519 168.479H365.74L365.96 168.7H366.181L366.402 168.92H366.623H366.843V169.14H367.064L367.285 169.361H367.506L367.727 169.581H367.947L368.168 169.801H368.389L368.61 170.021L368.83 170.242H369.051L369.272 170.462H369.493L369.658 170.664ZM345.097 165.67L346.403 173.253H346.182H345.961H345.741V173.473H345.52H345.299H345.078H344.857L344.637 173.693H344.416H344.195H343.974H343.754V173.914H343.533H343.312H343.091H342.87V174.134H342.65H342.429H342.208L341.987 174.354H341.767H341.546V174.574H341.325H341.104L340.883 174.795H340.663H340.442V175.015H340.221H340L339.78 175.235H339.559L339.338 175.456H339.117H338.896L338.676 175.676H338.455L338.234 175.896H338.013V176.117H337.793H337.572V176.337H337.351H337.13V176.557H336.909L336.689 176.778H336.468L336.247 176.998H336.026V177.218H335.806L335.585 177.438H335.364V177.659H335.143L334.922 177.879H334.702V178.099H334.481L334.26 178.32H334.039V178.54L329.477 172.463L329.697 172.243L329.918 172.023L330.139 171.802H330.36V171.582H330.58L330.801 171.362H331.022V171.141H331.243L331.464 170.921H331.684L331.905 170.701L332.126 170.48H332.347L332.567 170.26L332.788 170.04H333.009H333.23L333.451 169.82L333.671 169.599H333.892L334.113 169.379H334.334L334.554 169.159H334.775L334.996 168.938H335.217V168.718H335.438H335.658L335.879 168.498H336.1H336.321V168.277H336.541L336.762 168.057H336.983H337.204L337.425 167.837H337.645L337.866 167.616H338.087H338.308L338.528 167.396H338.749H338.97L339.191 167.176H339.412H339.632V166.956H339.853H340.074H340.295L340.515 166.735H340.736H340.957L341.178 166.515H341.399H341.619H341.84L342.061 166.295H342.282H342.502H342.723L342.944 166.074H343.165H343.386H343.606L343.827 165.854H344.048H344.269H344.49H344.71H344.931L345.097 165.67ZM323.589 177.383L328.373 183.24L316.635 193.007L311.851 187.15L323.589 177.383ZM305.982 191.924L310.765 197.78L300.334 206.445L299.027 207.529L294.244 201.672L295.55 200.589L305.982 191.924ZM288.375 206.445L293.158 212.302L281.641 222.069L276.637 216.212L288.375 206.445ZM270.768 221.188L275.772 227.044L269.903 231.817H269.682V232.038H269.461L269.241 232.258H269.02V232.478H268.799V232.699H268.578L268.357 232.919H268.137V233.139H267.916V233.36H267.695V233.58H267.474L267.254 233.8H267.033V234.02H266.812V234.241H266.591V234.461H266.37V234.681H266.15V234.902H265.929V235.122H265.708V235.342H265.487V235.563H265.34V235.783H265.119V236.003H264.899V236.224H264.678V236.444H264.457L258.809 231.45L259.03 231.23L259.25 231.01L259.471 230.789L259.692 230.569V230.349H259.913V230.128H260.133L260.354 229.908V229.688H260.575V229.467H260.796L261.017 229.247V229.027H261.237L261.458 228.807L261.679 228.586L261.9 228.366H262.12V228.146L262.341 227.925H262.562V227.705H262.783L263.004 227.485L263.224 227.264H263.445V227.044H263.666V226.824H263.887V226.603H264.107L264.328 226.383H264.549V226.163H264.77V225.943H264.991L265.211 225.722L270.768 221.188ZM254.044 238.316L260.777 242.007L260.557 242.227V242.447H260.336V242.667V242.888H260.115V243.108V243.328L259.894 243.549V243.769L259.673 243.989V244.21V244.43H259.453V244.65V244.871L259.232 245.091V245.311V245.531L259.011 245.752V245.972V246.192H258.79V246.413V246.633V246.853L258.57 247.074V247.294V247.514L258.349 247.735V247.955V248.083V248.304L258.128 248.524V248.744V248.965V249.185V249.405L257.907 249.625V249.846V250.066V250.286V250.507L257.686 250.727V250.947V251.168V251.388V251.608V251.829V252.049V252.269L257.466 252.489V252.71V252.93V253.15V253.371V253.591V253.811V254.032V254.252V254.472V254.693V254.913H249.867V254.693V254.472V254.252V254.032V253.811V253.591V253.371V253.15V252.93V252.71V252.489V252.269V252.049V251.829H250.088V251.608V251.388V251.168V250.947V250.727V250.507V250.286V250.066L250.309 249.846V249.625V249.405V249.185V248.965V248.744L250.53 248.524V248.304V248.083V247.863V247.643L250.75 247.422V247.202V246.982V246.762V246.541L250.971 246.321V246.101V245.88V245.66H251.192V245.44V245.219V244.999L251.413 244.779V244.558V244.338L251.633 244.118V243.898V243.677V243.457H251.854V243.237V243.016L252.075 242.796V242.576V242.355L252.296 242.135V241.915L252.517 241.694V241.474V241.254L252.737 241.034V240.813V240.593H252.958V240.373V240.152H253.179V239.932V239.712L253.4 239.491V239.271H253.62V239.051V238.83L253.841 238.61V238.39L254.044 238.316ZM250.787 263.266L258.183 261.54H258.404V261.761V261.981V262.201L258.625 262.422V262.642V262.862L258.846 263.083V263.303V263.523V263.743L259.066 263.964V264.184V264.404L259.287 264.625V264.845L259.508 265.065V265.286V265.506L259.729 265.726V265.947L259.949 266.167V266.387V266.607H260.17V266.828V267.048H260.391V267.268V267.489L260.612 267.709V267.929L260.833 268.15V268.37L261.053 268.59L261.274 268.811V269.031L261.495 269.251V269.471H261.716V269.692V269.912H261.936V270.132L262.157 270.353L262.378 270.573V270.793L262.599 271.014V271.234H262.82V271.454H263.04V271.675L263.261 271.895V272.115L263.482 272.335L263.703 272.556L263.923 272.776V272.996H264.144V273.217H264.365V273.437L258.717 278.431L258.496 278.21V277.99H258.275L258.054 277.77V277.549L257.834 277.329H257.613V277.109L257.392 276.888V276.668L257.171 276.448H256.951V276.227L256.73 276.007V275.622H256.509V275.401L256.288 275.181L256.067 274.961V274.74L255.847 274.52L255.626 274.3V274.08L255.405 273.859V273.639L255.184 273.419L254.964 273.198V272.978L254.743 272.758V272.537L254.522 272.317L254.301 272.097V271.876L254.08 271.656V271.436L253.86 271.216V270.995L253.639 270.775L253.418 270.555V270.334V270.114L253.197 269.894V269.673L252.976 269.453V269.233V269.012L252.756 268.792V268.572H252.535V268.352V268.131L252.314 267.911V267.691V267.47L252.093 267.25V267.03L251.873 266.809V266.589V266.369L251.652 266.148V265.928V265.708V265.488L251.431 265.267V265.047V264.827L251.21 264.606V264.386V264.166L250.989 263.945V263.725V263.505V263.284L250.787 263.266ZM264.899 283.865L269.241 277.788H269.461V278.008H269.682H269.903V278.229H270.124L270.344 278.449L270.565 278.669H270.786L271.007 278.89H271.228V279.11H271.448H271.669V279.33H271.89H272.111V279.55H272.331L272.552 279.771H272.773L272.994 279.991H273.215L273.435 280.211H273.656L273.877 280.432H274.098L274.319 280.652H274.539H274.76V280.872H274.981H275.202L275.422 281.093H275.643H275.864V281.313H276.085H276.306H276.526V281.533H276.747H276.968H277.189V281.754H277.409H277.63H277.851V281.974H278.072H278.293H278.513H278.734V282.194H278.955H279.176H279.396H279.617L279.838 282.414H280.059H280.28H280.5H280.721L280.942 282.635H281.163H281.383H281.604H281.825L280.739 290.217H280.519H280.298L280.077 289.997H279.856H279.636H279.415H279.194H278.973L278.752 289.776H278.532H278.311H278.09H277.869L277.649 289.556H277.428H277.207H276.986L276.765 289.336H276.545H276.324H276.103L275.882 289.115H275.662H275.441L275.22 288.895H274.999H274.778L274.558 288.675H274.337H274.116H273.895L273.675 288.454H273.454H273.233L273.012 288.234H272.791V288.014H272.571H272.35L272.129 287.794H271.908H271.688L271.467 287.573H271.246L271.025 287.353H270.804H270.584L270.363 287.133L270.142 286.912H269.921L269.701 286.692H269.48H269.259L269.038 286.472H268.817L268.597 286.251L268.376 286.031H268.155L267.934 285.811H267.714L267.493 285.591H267.272V285.37H267.051L266.83 285.15H266.61L266.389 284.93H266.168V284.709H265.947L265.727 284.489H265.506L265.285 284.269L265.064 284.048L264.899 283.865ZM288.816 290.364V282.782H304.032V290.364H288.816ZM311.63 290.364V282.782H326.846V290.364H311.63ZM334.444 290.364V282.782H349.659V290.364H334.444ZM357.258 290.364V282.782H372.694V290.364H357.258ZM380.293 290.364V282.782H395.508V290.364H380.293ZM403.125 290.364V282.782H412.471H416.169V286.251V286.472V286.692V289.942V290.382H416.39L418.34 288.436L420.07 286.71V290.401H416.151H403.125V290.364ZM412.471 282.782H416.169H416.39H416.611H416.831H417.052H417.273H417.494H417.715H417.935L418.377 286.472M420.07 286.472V286.692V286.472ZM420.07 286.472H416.151H420.07ZM426.803 288.638L424.632 281.478H424.853V281.258H425.074H425.295H425.515V281.038H425.736H425.957H426.178V280.817H426.399H426.619V280.597H426.84H427.061L427.282 280.377H427.503H427.723V280.156H427.944H428.165L428.386 279.936H428.606V279.716H428.827H429.048V279.495H429.269H429.49V279.275H429.71H429.931V279.055H430.152L430.373 278.834H430.593L430.814 278.614H431.035V278.394H431.256H431.477V278.174H431.697V277.953H431.918H432.139V277.733H432.36V277.513H432.58L432.801 277.292H433.022V277.072H433.243V276.852H433.464L433.684 276.631L433.905 276.411H434.126V276.191H434.347V275.97H434.567L434.788 275.75L435.009 275.53L435.23 275.31H435.451V275.089H435.671V274.869H435.892V274.649H436.113V274.428L441.54 279.844L441.32 280.065H441.099V280.285L440.878 280.505H440.657V280.725H440.437V280.946H440.216V281.166H439.995V281.386H439.774V281.607H439.553L439.333 281.827L439.112 282.047L438.891 282.268H438.67V282.488H438.449L438.229 282.708V282.929H438.008L437.787 283.149H437.566V283.369H437.346L437.125 283.589L436.904 283.81H436.683V284.03H436.462L436.242 284.25H436.021L435.8 284.471L435.579 284.691H435.359V284.911H435.138H434.917V285.132H434.696L434.475 285.352H434.255V285.572H434.034H433.813V285.792H433.592H433.372V286.013H433.151V286.233H432.93H432.709V286.453H432.488H432.268V286.674H432.047H431.826V286.894H431.605H431.385V287.114H431.164H430.943L430.722 287.335H430.501L430.281 287.555H430.06H429.839L429.618 287.775H429.398H429.177V287.996H428.956H428.735L428.514 288.216H428.294H428.073V288.436H427.852H427.631H427.41V288.656H427.245H427.024H426.803V288.638ZM446.582 273.235L440.069 269.325L440.289 269.104V268.884L440.51 268.664V268.443L440.731 268.223V268.003L440.952 267.782V267.562L441.172 267.342L441.393 267.121V266.901V266.681H441.614V266.461V266.24H441.835V266.02V265.8L442.056 265.579V265.359V265.139L442.276 264.918V264.698L442.497 264.478V264.258V264.037L442.718 263.817V263.597V263.376L442.939 263.156V262.936V262.715V262.495H443.159V262.275V262.054V261.834L443.38 261.614V261.394V261.173V260.953L443.601 260.733V260.512V260.292V260.072V259.851L443.822 259.631V259.411V259.19V258.97V258.75V258.53V258.309H444.043V258.089V257.869V257.648V257.428V257.208V256.987V256.767V256.547L451.641 256.987V257.208V257.428V257.648V257.869V258.089V258.309V258.53V258.75L451.42 258.97V259.19V259.411V259.631V259.851V260.072V260.292L451.199 260.512V260.733V260.953V261.173V261.394V261.614L450.979 261.834V262.054V262.275V262.495L450.758 262.715V262.936V263.156V263.376L450.537 263.597V263.817V264.037V264.258L450.316 264.478V264.698V264.918V265.139L450.096 265.359V265.579V265.8L449.875 266.02V266.24V266.461L449.654 266.681V266.901L449.433 267.121V267.342V267.562L449.212 267.782V268.003V268.223L448.992 268.443V268.664L448.771 268.884V269.104V269.325L448.55 269.545V269.765H448.329V269.985V270.206L448.109 270.426V270.646L447.888 270.867V271.087L447.667 271.307V271.528L447.446 271.748V271.968H447.225V272.189L447.005 272.409V272.629L446.784 272.849V273.07L446.582 273.235ZM451.144 248.726L443.546 250.029V249.809V249.589V249.368V249.148L443.325 248.928V248.708V248.487V248.267V248.083H443.104V247.863V247.643V247.422L442.883 247.202V246.982V246.762L442.663 246.541V246.321V246.101V245.88L442.442 245.66V245.44L442.221 245.219V244.999V244.779L442 244.558V244.338L441.78 244.118V243.898V243.677L441.559 243.457V243.237L441.338 243.016V242.796L441.117 242.576V242.355L440.896 242.135V241.915L440.676 241.694V241.474L440.455 241.254V241.034L440.234 240.813L440.013 240.593V240.373L439.793 240.152V239.932H439.572V239.712L439.351 239.491V239.271L439.13 239.051L438.909 238.83V238.61H438.689V238.39L438.468 238.17L438.247 237.949V237.729L444.116 233.176H444.337V233.396L444.558 233.617L444.778 233.837L444.999 234.057V234.278L445.22 234.498L445.441 234.718V234.938H445.662V235.159L445.882 235.379V235.599L446.103 235.82V236.04H446.324V236.26L446.545 236.481L446.765 236.701V236.921L446.986 237.141V237.362H447.207V237.582V237.802L447.428 238.023V238.243L447.649 238.463V238.684L447.869 238.904L448.09 239.124V239.345L448.311 239.565V239.785V240.005L448.532 240.226V240.446L448.753 240.666V240.887L448.973 241.107V241.327L449.194 241.548V241.768V241.988L449.415 242.209V242.429V242.649L449.636 242.869V243.09V243.31H449.856V243.53V243.751L450.077 243.971V244.191V244.412V244.632L450.298 244.852V245.072V245.293L450.519 245.513V245.733V245.954V246.174L450.739 246.394V246.615V246.835V247.055L450.96 247.276V247.496V247.716V247.937L451.181 248.157V248.377V248.597V248.726H451.144ZM438.321 227.264L433.537 233.121L421.799 223.354L426.583 217.497L438.321 227.264ZM420.714 212.724L415.93 218.581L404.192 208.814L408.975 202.957L420.714 212.724ZM403.125 197.982L398.341 203.838L386.603 194.292L391.387 188.435L403.125 197.982Z" fill="#FF8F1F"/>
<path d="M282.062 211.641H292.714L293.156 212.284L281.639 222.051L276.634 216.194L282.062 211.641ZM407.685 211.641H419.644L420.73 212.724L415.946 218.581L407.685 211.641ZM435.503 230.734H430.499L421.815 223.354L426.599 217.497L438.337 227.264L435.503 230.734ZM271.207 230.734H259.469L259.69 230.514V230.294H259.91V230.073H260.131L260.352 229.853V229.633H260.573V229.412H260.793L261.014 229.192V228.972H261.235L261.456 228.751L261.677 228.531L261.897 228.311H262.118V228.091L262.339 227.87H262.56V227.65H262.78L263.001 227.43L263.222 227.209H263.443V226.989H263.664V226.769H263.884V226.548H264.105L264.326 226.328H264.547V226.108H264.767V225.888H264.988L265.209 225.667L270.857 221.114L275.862 226.971L271.207 230.734Z" fill="#666666"/>
<path fill-rule="evenodd" clip-rule="evenodd" d="M405.296 275.842H416.169C422.48 275.842 428.128 273.015 432.249 268.26C439.425 259.594 438.339 246.358 429.416 238.977L364.433 184.984C356.614 178.485 345.317 178.265 337.48 184.764L274.024 237.454L273.583 237.894C267.934 241.805 264.457 248.083 264.457 255.023C264.457 266.516 273.803 275.842 285.541 275.842H405.296Z" fill="#333333"/>
<path fill-rule="evenodd" clip-rule="evenodd" d="M419.424 230.734L396.592 211.641H305.116L282.062 230.734H419.424Z" fill="#191825"/>
<path fill-rule="evenodd" clip-rule="evenodd" d="M350.745 179.99C345.961 179.99 341.399 181.514 337.48 184.764L274.024 237.454L273.583 237.894C267.934 241.805 264.457 248.083 264.457 255.023C264.457 266.516 273.803 275.842 285.541 275.842H350.745V179.99Z" fill="#1A1A1A"/>
<path fill-rule="evenodd" clip-rule="evenodd" d="M305.116 211.641L282.062 230.734H350.743V211.641H305.116Z" fill="#191825"/>
<path fill-rule="evenodd" clip-rule="evenodd" d="M412.894 234.626C423.546 234.626 432.01 243.292 432.01 253.701C432.01 264.331 423.528 272.776 412.894 272.776C402.462 272.776 393.98 264.313 393.98 253.701C393.999 243.31 402.462 234.626 412.894 234.626Z" fill="#999999"/>
<path fill-rule="evenodd" clip-rule="evenodd" d="M288.596 234.626C299.028 234.626 307.51 243.292 307.51 253.701C307.51 264.331 299.028 272.776 288.596 272.776C277.944 272.776 269.48 264.313 269.48 253.701C269.462 243.31 277.944 234.626 288.596 234.626Z" fill="#999999"/>
<path fill-rule="evenodd" clip-rule="evenodd" d="M412.894 234.626C423.546 234.626 432.01 243.292 432.01 253.701V253.921H393.98V253.701C393.999 243.31 402.462 234.626 412.894 234.626Z" fill="#FF8F1F"/>
<path fill-rule="evenodd" clip-rule="evenodd" d="M288.596 234.626C299.028 234.626 307.51 243.292 307.51 253.701V253.921H269.48V253.701C269.462 243.31 277.944 234.626 288.596 234.626Z" fill="#FF8F1F"/>
<path fill-rule="evenodd" clip-rule="evenodd" d="M350.745 184.103C361.177 184.103 369.861 192.566 369.861 202.976C369.861 213.605 361.177 222.051 350.745 222.051C340.313 222.051 331.629 213.587 331.629 202.976C331.629 192.566 340.313 184.103 350.745 184.103Z" fill="#FF8F1F"/>
<path fill-rule="evenodd" clip-rule="evenodd" d="M350.743 21.4615C390.723 21.4615 423.545 53.9935 423.545 94.1076V200.148H277.941V94.1076C277.941 53.9935 310.764 21.4615 350.743 21.4615Z" fill="#FF8F1F"/>
<path fill-rule="evenodd" clip-rule="evenodd" d="M413.555 200.148H277.941V94.1076C277.941 57.0227 306.201 26.0145 342.262 21.9022C381.597 22.765 413.537 55.0766 413.537 94.5482V200.148H413.555Z" fill="#FF8F1F"/>
<path fill-rule="evenodd" clip-rule="evenodd" d="M304.676 146.375C322.283 110.814 379.649 110.814 397.256 146.375H304.676Z" fill="#E0E0E0"/>
<path fill-rule="evenodd" clip-rule="evenodd" d="M272.938 152.874H428.532C437.658 152.874 445.274 160.255 445.274 169.361V206.445C445.274 215.551 437.676 223.152 428.532 223.152H272.938C263.812 223.152 256.195 215.57 256.195 206.445V169.361C256.214 160.255 263.812 152.874 272.938 152.874Z" fill="#3D72FC"/>
<path fill-rule="evenodd" clip-rule="evenodd" d="M272.938 152.874H428.532C437.658 152.874 445.274 160.255 445.274 169.361V190.18C441.356 194.512 435.486 197.119 428.753 197.119H272.717C265.983 197.119 260.114 194.512 256.195 190.18V169.361C256.214 160.255 263.812 152.874 272.938 152.874Z" fill="#FF8F1F"/>
<path d="M254.042 168.277H265.118C267.951 168.277 270.122 170.664 270.122 173.271V202.553C270.122 205.381 267.951 207.547 265.118 207.547H254.042C251.429 207.547 249.258 205.381 249.258 202.553V173.271C249.258 170.664 251.429 168.277 254.042 168.277Z" fill="#666666"/>
<path fill-rule="evenodd" clip-rule="evenodd" d="M251.65 168.277H257.077C258.605 168.277 259.69 169.581 259.69 170.884V204.922C259.69 206.445 258.605 207.529 257.077 207.529H251.65C250.343 207.529 249.258 206.445 249.258 204.922V170.884C249.258 169.581 250.343 168.277 251.65 168.277Z" fill="#333333"/>
<path d="M249.038 193.007H252.736C253.601 193.007 254.466 193.87 254.466 194.732V201.892C254.466 202.755 253.601 203.416 252.736 203.416H249.038C247.953 203.416 247.309 202.774 247.309 201.892V194.732C247.309 193.87 247.953 193.007 249.038 193.007Z" fill="#666666"/>
<path d="M249.038 172.39H252.736C253.601 172.39 254.466 173.032 254.466 173.914V181.074C254.466 182.157 253.601 182.799 252.736 182.799H249.038C247.953 182.799 247.309 182.157 247.309 181.074V173.914C247.309 173.051 247.953 172.39 249.038 172.39Z" fill="#666666"/>
<path fill-rule="evenodd" clip-rule="evenodd" d="M276.633 146.375H424.849C425.714 146.375 426.376 147.238 426.376 147.899V151.369C426.376 152.232 425.732 152.893 424.849 152.893H276.633C275.768 152.893 275.105 152.25 275.105 151.369V147.899C275.105 147.238 275.768 146.375 276.633 146.375Z" fill="#3D72FC"/>
<path fill-rule="evenodd" clip-rule="evenodd" d="M302.058 71.5629C299.224 86.966 299.224 113.201 304.449 119.48C321.836 141.161 379.864 141.161 397.471 119.48C402.475 113.182 402.475 86.9476 399.642 71.5629C395.944 52.4697 305.756 52.4697 302.058 71.5629Z" fill="white"/>
<path fill-rule="evenodd" clip-rule="evenodd" d="M302.058 71.5629C299.224 86.966 299.224 113.201 304.449 119.48C313.133 130.33 332.047 135.745 350.96 135.745V57.243C327.484 57.243 304.008 62.0163 302.058 71.5629Z" fill="white"/>
<path fill-rule="evenodd" clip-rule="evenodd" d="M335.104 90.8581C337.496 90.8581 339.225 92.8041 339.225 95.1907C339.225 97.5774 337.496 99.5234 335.104 99.5234C332.712 99.5234 330.762 97.5774 330.762 95.1907C330.743 92.8041 332.712 90.8581 335.104 90.8581Z" fill="#191825"/>
<path fill-rule="evenodd" clip-rule="evenodd" d="M366.827 90.8581C369.218 90.8581 370.948 92.8041 370.948 95.1907C370.948 97.5774 369.218 99.5234 366.827 99.5234C364.435 99.5234 362.484 97.5774 362.484 95.1907C362.484 92.8041 364.435 90.8581 366.827 90.8581Z" fill="#191825"/>
<path fill-rule="evenodd" clip-rule="evenodd" d="M312.709 105.398C318.137 105.398 322.498 109.731 322.498 115.165C322.498 120.581 318.156 124.932 312.709 124.932C307.282 124.932 302.719 120.599 302.719 115.165C302.719 109.731 307.282 105.398 312.709 105.398Z" fill="#FF8F1F"/>
<path fill-rule="evenodd" clip-rule="evenodd" d="M389.213 105.398C394.641 105.398 399.002 109.731 399.002 115.165C399.002 120.581 394.659 124.932 389.213 124.932C383.786 124.932 379.223 120.599 379.223 115.165C379.204 109.731 383.767 105.398 389.213 105.398Z" fill="#FF8F1F"/>
<path fill-rule="evenodd" clip-rule="evenodd" d="M355.529 110.594C361.177 110.594 365.74 115.147 365.74 120.783H345.52C345.538 115.147 350.101 110.594 355.529 110.594Z" fill="#191825"/>
<path fill-rule="evenodd" clip-rule="evenodd" d="M330.098 40.1141C332.711 40.1141 334.661 42.2805 334.661 44.8875C334.661 47.2741 332.711 49.4404 330.098 49.4404C327.485 49.4404 325.535 47.2741 325.535 44.8875C325.535 42.2805 327.485 40.1141 330.098 40.1141Z" fill="white"/>
<path fill-rule="evenodd" clip-rule="evenodd" d="M329.013 45.9706H330.099H331.184L332.049 67.0099H330.099H328.148L329.013 45.9706Z" fill="white"/>
<path fill-rule="evenodd" clip-rule="evenodd" d="M371.831 40.1141C374.223 40.1141 376.394 42.2805 376.394 44.8875C376.394 47.2741 374.223 49.4404 371.831 49.4404C369.218 49.4404 367.047 47.2741 367.047 44.8875C367.047 42.2805 369.218 40.1141 371.831 40.1141Z" fill="white"/>
<path fill-rule="evenodd" clip-rule="evenodd" d="M370.742 45.9706H371.827H372.692L373.778 67.0099H371.827H369.656L370.742 45.9706Z" fill="white"/>
<path fill-rule="evenodd" clip-rule="evenodd" d="M303.588 126.86C305.759 126.86 307.71 128.806 307.71 130.972V139.638C307.71 142.024 305.759 143.75 303.588 143.75C301.196 143.75 299.246 142.024 299.246 139.638V130.972C299.246 128.806 301.196 126.86 303.588 126.86Z" fill="#A43737"/>
<path fill-rule="evenodd" clip-rule="evenodd" d="M397.674 126.86C399.845 126.86 401.796 128.806 401.796 130.972V139.638C401.796 142.024 399.845 143.75 397.674 143.75C395.282 143.75 393.332 142.024 393.332 139.638V130.972C393.332 128.806 395.282 126.86 397.674 126.86Z" fill="#A43737"/>
<path fill-rule="evenodd" clip-rule="evenodd" d="M303.592 130.972C309.02 130.972 313.583 135.525 313.583 140.941C313.583 146.577 309.02 150.91 303.592 150.91C297.944 150.91 293.602 146.577 293.602 140.941C293.583 135.525 297.944 130.972 303.592 130.972Z" fill="white"/>
<path fill-rule="evenodd" clip-rule="evenodd" d="M397.682 130.972C403.11 130.972 407.673 135.525 407.673 140.941C407.673 146.577 403.11 150.91 397.682 150.91C392.034 150.91 387.691 146.577 387.691 140.941C387.691 135.525 392.034 130.972 397.682 130.972Z" fill="white"/>
<path fill-rule="evenodd" clip-rule="evenodd" d="M397.679 45.9706C402.021 45.9706 405.499 49.6607 405.499 53.9934C405.499 58.3261 402.021 61.796 397.679 61.796C393.337 61.796 389.859 58.3261 389.859 53.9934C389.859 49.6607 393.337 45.9706 397.679 45.9706Z" fill="white"/>
<path d="M291.41 243.31H285.762V264.772H291.41V243.31Z" fill="#E6E6E6"/>
<path d="M423.751 251.113H402.242V256.749H423.751V251.113Z" fill="#E6E6E6"/>
<path fill-rule="evenodd" clip-rule="evenodd" d="M428.77 160.475H431.603C434.436 160.475 436.81 162.862 436.81 165.67C436.81 168.498 434.418 170.866 431.603 170.866H428.77C425.936 170.866 423.563 168.479 423.563 165.67C423.544 162.862 425.936 160.475 428.77 160.475Z" fill="white"/>
<path fill-rule="evenodd" clip-rule="evenodd" d="M371.386 160.475H403.767C406.601 160.475 408.974 162.862 408.974 165.67C408.974 168.498 406.582 170.866 403.767 170.866H371.386C368.553 170.866 366.18 168.479 366.18 165.67C366.18 162.862 368.571 160.475 371.386 160.475Z" fill="white"/>
<path d="M420.073 282.782H410.727V290.364H420.073V282.782Z" fill="#FF8F1F"/>
<path d="M679.981 275.181H50.4102V296H679.981V275.181Z" fill="#74757B"/>
<path d="M679.981 275.181H50.4102V285.15H679.981V275.181Z" fill="#FF8F1F"/>
<path fill-rule="evenodd" clip-rule="evenodd" d="M610.216 254.362C605.211 259.778 593.694 271.711 579.582 275.181C561.975 279.293 616.968 281.038 616.968 282.984C616.968 283.846 621.31 283.846 626.535 283.424C631.742 283.865 635.881 283.865 635.881 282.984C635.881 281.038 690.855 279.293 673.266 275.181C659.357 271.711 647.619 259.778 642.836 254.362H610.216Z" fill="#FF8F1F"/>
<path fill-rule="evenodd" clip-rule="evenodd" d="M551.766 263.468C550.036 267.158 545.455 275.401 540.028 277.788C533.294 280.615 554.581 281.9 554.581 283.204C554.581 283.846 556.108 283.846 558.058 283.424C560.229 283.865 561.756 283.865 561.756 283.204C561.756 281.9 583.061 280.597 576.309 277.788C570.881 275.401 566.319 267.158 564.571 263.468H551.766Z" fill="#FF8F1F"/>
<path fill-rule="evenodd" clip-rule="evenodd" d="M192.978 263.468C191.028 267.158 186.667 275.401 181.24 277.788C174.285 280.615 195.793 281.9 195.793 283.204C195.793 283.846 197.32 283.846 199.27 283.424C201.441 283.865 202.968 283.865 202.968 283.204C202.968 281.9 224.274 280.597 217.521 277.788C212.094 275.401 207.531 267.158 205.562 263.468H192.978Z" fill="#FF8F1F"/>
<path fill-rule="evenodd" clip-rule="evenodd" d="M104.741 253.279C101.907 258.915 95.1736 271.271 86.9127 274.74C76.7017 279.073 108.862 280.817 108.862 282.984C108.862 283.846 111.254 283.846 114.289 283.424C117.325 283.865 119.717 283.865 119.717 282.984C119.717 280.817 151.656 279.073 141.445 274.74C133.405 271.271 126.671 258.915 123.838 253.279H104.741Z" fill="#FF8F1F"/>
<path fill-rule="evenodd" clip-rule="evenodd" d="M84.5247 53.1306C111.901 25.8126 156.241 25.8126 183.618 53.1306C210.994 80.4485 210.994 124.693 183.618 152.011C156.241 179.329 111.901 179.329 84.5247 152.011C57.148 124.693 57.148 80.4485 84.5247 53.1306Z" fill="#3D72FC"/>
<path fill-rule="evenodd" clip-rule="evenodd" d="M84.5273 53.1306C111.904 25.8126 156.244 25.8126 183.62 53.1306C210.997 80.4485 210.997 124.693 183.62 152.011L84.5273 53.1306Z" fill="#6C93FA"/>
<path fill-rule="evenodd" clip-rule="evenodd" d="M117.989 52.9103C126.029 45.1078 138.853 45.1078 146.672 52.9103C154.492 60.9331 154.492 73.7292 146.672 81.5317C138.853 89.3342 126.029 89.3342 117.989 81.5317C110.17 73.7292 110.17 60.9331 117.989 52.9103Z" fill="white"/>
<path fill-rule="evenodd" clip-rule="evenodd" d="M103.658 147.899C106.694 144.87 111.477 144.87 114.532 147.899C117.568 150.928 117.568 155.702 114.532 158.749C111.496 161.778 106.712 161.778 103.658 158.749C100.604 155.72 100.604 150.928 103.658 147.899Z" fill="#6C93FA"/>
<path fill-rule="evenodd" clip-rule="evenodd" d="M97.7908 50.9642C99.9619 49.0182 103.439 49.0182 105.39 50.9642C107.561 53.1306 107.561 56.6004 105.39 58.5464C103.439 60.7128 99.9619 60.7128 97.7908 58.5464C95.8406 56.6004 95.8406 53.1306 97.7908 50.9642Z" fill="white"/>
<path fill-rule="evenodd" clip-rule="evenodd" d="M170.813 74.8124C175.155 70.2594 182.551 70.2594 187.114 74.8124C191.457 79.3654 191.457 86.5253 187.114 91.0783C182.551 95.6313 175.155 95.6313 170.813 91.0783C166.25 86.5253 166.25 79.3654 170.813 74.8124Z" fill="white"/>
<path d="M530.455 226.824H518.938V275.181H530.455V226.824Z" fill="#3F3F25"/>
<path d="M627.174 226.824H615.656V275.181H627.174V226.824Z" fill="#3F3F25"/>
<path fill-rule="evenodd" clip-rule="evenodd" d="M492.225 162.641H653.909C657.386 162.641 660.219 165.468 660.219 168.938V251.351C660.219 254.821 657.386 257.648 653.909 257.648H492.225C488.747 257.648 485.914 254.821 485.914 251.351V168.938C485.914 165.45 488.747 162.641 492.225 162.641Z" fill="white"/>
<path fill-rule="evenodd" clip-rule="evenodd" d="M500.266 166.552H645.87C651.518 166.552 656.302 171.325 656.302 176.961V243.31C656.302 248.946 651.518 253.72 645.87 253.72H500.266C494.397 253.72 489.613 248.946 489.613 243.31V176.961C489.613 171.307 494.397 166.552 500.266 166.552Z" fill="#3D72FC"/>
<path d="M518.739 212.724L522.216 206.427C523.302 204.261 524.166 202.094 525.252 199.708H525.473C525.252 202.315 525.031 206.005 525.031 208.593V212.706H518.739V212.724ZM538.296 212.724H534.378V191.685H521.995L509.172 213.367V220.306H525.031V228.549H534.378V220.306H538.296V212.724ZM555.462 229.21C563.723 229.21 569.371 222.711 569.371 209.915C569.371 197.339 563.723 190.84 555.462 190.84C547.201 190.84 541.774 197.339 541.774 209.915C541.774 222.711 547.201 229.21 555.462 229.21ZM555.462 221.628C553.07 221.628 551.12 219.682 551.12 209.915C551.12 200.148 553.07 198.643 555.462 198.643C557.854 198.643 559.804 200.167 559.804 209.915C559.804 219.664 557.854 221.628 555.462 221.628ZM581.974 212.724L585.23 206.427C586.316 204.261 587.401 202.094 588.266 199.708H588.487C588.487 202.315 588.266 206.005 588.266 208.593V212.706H581.974V212.724ZM601.531 212.724H597.612V191.685H585.01L572.407 213.367V220.306H588.266V228.549H597.612V220.306H601.531V212.724ZM606.315 223.354C606.315 226.603 608.707 229.21 612.184 229.21C615.661 229.21 618.053 226.603 618.053 223.354C618.053 219.884 615.661 217.277 612.184 217.277C608.707 217.277 606.315 219.884 606.315 223.354ZM625.007 223.354C625.007 226.603 627.62 229.21 630.876 229.21C634.354 229.21 636.745 226.603 636.745 223.354C636.745 219.884 634.354 217.277 630.876 217.277C627.602 217.296 625.007 219.884 625.007 223.354Z" fill="white"/>
</svg>
