<svg width="100" height="100" viewBox="0 0 100 100" fill="none" xmlns="http://www.w3.org/2000/svg">
<path d="M15.8783 84.9382C15.8783 84.9382 15.744 84.8509 15.4861 84.6865C15.239 84.517 14.8575 84.2755 14.4062 83.9467C14.1805 83.7823 13.9226 83.6077 13.654 83.4022C13.3854 83.1916 13.106 82.9552 12.7997 82.7035C12.4989 82.4467 12.1765 82.1744 11.838 81.8867C11.5103 81.5939 11.1879 81.2651 10.8387 80.9261C10.4948 80.587 10.1348 80.2325 9.78023 79.8524C9.43637 79.462 9.08178 79.0613 8.72181 78.6452C8.34571 78.2342 8.00722 77.7821 7.65799 77.3249C7.30339 76.8677 6.94879 76.3899 6.60493 75.9019C5.94408 74.9002 5.2456 73.8676 4.65997 72.7528C4.01524 71.6637 3.51021 70.4925 2.96219 69.3417C2.50013 68.155 2.00046 66.9786 1.65123 65.7765C1.2429 64.595 0.985007 63.3877 0.710996 62.2319C0.598168 61.6514 0.496086 61.076 0.410122 60.5109C0.318785 59.9458 0.227446 59.3961 0.189836 58.8567C0.141481 58.3173 0.0984937 57.7933 0.0501387 57.2848C0.017902 56.7762 0.0179092 56.283 0.0071637 55.8104C0.0071637 55.3378 -0.00895463 54.8857 0.0071637 54.4593C0.0340276 54.0278 0.0608882 53.622 0.0877521 53.2418C0.119989 52.8616 0.141471 52.5021 0.17908 52.1733C0.216689 51.8445 0.270417 51.5414 0.313399 51.2691C0.388618 50.7246 0.48533 50.3033 0.533685 50.0157C0.592786 49.728 0.62503 49.5739 0.62503 49.5739C0.62503 49.5739 0.662634 49.728 0.737853 50.0157C0.802327 50.3033 0.920527 50.7194 1.02261 51.2486C1.11932 51.7777 1.29126 52.4147 1.46856 53.1442C1.55452 53.5089 1.64048 53.8942 1.73182 54.3001C1.83928 54.7008 1.94673 55.1271 2.06493 55.5689C2.18313 56.0107 2.27984 56.468 2.41953 56.9406C2.55385 57.4081 2.69355 57.8961 2.83861 58.3893C2.90846 58.6358 2.97829 58.8876 3.04814 59.1444C3.12873 59.3961 3.20934 59.653 3.2953 59.9099C3.45648 60.4236 3.62303 60.9527 3.78959 61.487C4.17105 62.5452 4.52029 63.6446 4.95011 64.7388C5.34769 65.8433 5.82586 66.9375 6.27181 68.042C6.77147 69.126 7.23353 70.2253 7.76544 71.2784C8.25973 72.347 8.82925 73.359 9.33429 74.371C9.60831 74.8642 9.88232 75.3471 10.1456 75.8248C10.2745 76.0663 10.4088 76.3026 10.5378 76.5338C10.6775 76.765 10.8118 76.9858 10.9461 77.2119C11.2094 77.664 11.4727 78.1006 11.7198 78.5219C11.967 78.9483 12.241 79.3387 12.4774 79.7291C12.7191 80.1195 12.9555 80.4945 13.1758 80.8541C13.4069 81.2035 13.6271 81.5323 13.8367 81.8456C14.245 82.4775 14.5942 83.0426 14.922 83.4895C15.2443 83.9365 15.47 84.3115 15.6366 84.5581C15.7977 84.8046 15.8783 84.9382 15.8783 84.9382Z" fill="#3D72FC"/>
<path d="M71.406 93.5584C71.406 93.5584 71.234 93.6714 70.9063 93.882C70.5785 94.0875 70.1004 94.4009 69.4825 94.7656C69.1709 94.9454 68.8378 95.1663 68.4509 95.3718C68.0641 95.5773 67.6289 95.7725 67.1668 95.9986C66.6994 96.2195 66.2051 96.4558 65.684 96.7075C65.1574 96.9387 64.5879 97.1339 63.9969 97.365C63.4059 97.5808 62.788 97.8274 62.1325 98.0329C61.4717 98.2178 60.7894 98.413 60.0909 98.6082C59.7363 98.7059 59.3817 98.8086 59.0163 98.8908C58.651 98.9627 58.2749 99.0398 57.8988 99.1117C57.1466 99.2607 56.3729 99.4148 55.5831 99.5381C53.9928 99.7179 52.3487 99.949 50.6617 99.9593C48.9746 100.067 47.2661 99.9336 45.5522 99.872C43.8544 99.6614 42.1404 99.5227 40.4964 99.1425C38.8362 98.8651 37.2512 98.3668 35.7146 97.9353C34.9571 97.6835 34.221 97.4061 33.5064 97.139C33.1464 97.0054 32.7972 96.8719 32.448 96.7383C32.1041 96.5945 31.771 96.4352 31.4379 96.2811C30.7824 95.9729 30.143 95.6698 29.5305 95.377C28.9234 95.0687 28.3646 94.7245 27.8166 94.4112C27.2793 94.0875 26.7474 93.7998 26.2746 93.4813C25.8126 93.1474 25.372 92.8341 24.9583 92.5361C24.55 92.2381 24.1578 91.971 23.8139 91.7039C23.4701 91.4316 23.1799 91.1542 22.9005 90.923C22.3525 90.4504 21.9442 90.06 21.6594 89.8031C21.38 89.5411 21.2296 89.3973 21.2296 89.3973C21.2296 89.3973 21.423 89.4846 21.7776 89.6439C22.1269 89.8134 22.6534 90.0394 23.2981 90.3579C23.6205 90.512 23.9697 90.697 24.3673 90.8665C24.7756 91.0258 25.1947 91.2158 25.6568 91.4059C26.1135 91.6011 26.597 91.8066 27.1074 92.0224C27.6232 92.2227 28.1766 92.4179 28.7461 92.6286C29.3156 92.8289 29.8905 93.0806 30.5138 93.2759C31.1316 93.4711 31.7764 93.6714 32.4372 93.8769C32.765 93.9745 33.0927 94.0927 33.4312 94.1903C33.775 94.2776 34.1189 94.3649 34.4735 94.4574C35.1773 94.6269 35.8812 94.8427 36.6065 95.0122C37.3426 95.1561 38.0894 95.3153 38.8416 95.4746C39.5884 95.6544 40.3674 95.7366 41.1411 95.8701C42.6831 96.1527 44.2788 96.2708 45.8584 96.4558C47.4488 96.5277 49.0391 96.6715 50.6133 96.6407C51.3977 96.6304 52.1822 96.6818 52.9505 96.6202C53.7188 96.5842 54.4817 96.5482 55.2339 96.5225C55.9807 96.4763 56.7168 96.3787 57.4367 96.3222C57.7967 96.2914 58.1567 96.2606 58.5113 96.2297C58.8605 96.1886 59.2044 96.127 59.5482 96.0807C60.236 95.9883 60.9022 95.8958 61.5523 95.8033C62.2024 95.7109 62.8095 95.5619 63.4113 95.4592C64.013 95.3461 64.5879 95.2383 65.1306 95.1355C65.6678 95.0071 66.1782 94.8889 66.6618 94.7759C67.1454 94.6629 67.5967 94.5499 68.0265 94.4625C68.4509 94.3598 68.8378 94.2365 69.187 94.1389C69.8855 93.9334 70.4442 93.7947 70.8203 93.692C71.2072 93.6098 71.406 93.5584 71.406 93.5584Z" fill="#3D72FC"/>
<path d="M97.8346 37.522C97.8346 37.522 97.9045 37.7429 98.0334 38.159C98.157 38.5751 98.3558 39.1864 98.5653 39.9673C98.6674 40.3577 98.8071 40.7841 98.9092 41.267C99.0167 41.7447 99.1026 42.2739 99.2101 42.8338C99.3122 43.3989 99.425 44 99.5432 44.6318C99.6291 45.2637 99.6829 45.9315 99.7635 46.6302C99.8226 47.3288 99.9193 48.0583 99.9461 48.8135C99.9623 49.5738 99.973 50.3547 99.9891 51.1612C99.9945 51.567 100.011 51.9729 99.9891 52.389C99.9623 52.7999 99.9408 53.2212 99.9139 53.6424C99.8602 54.4901 99.8172 55.3583 99.7259 56.2367C99.4733 57.9834 99.2692 59.8071 98.8017 61.6153C98.4471 63.4493 97.8185 65.2422 97.2598 67.0608C96.5398 68.8228 95.9058 70.6208 94.9978 72.2801C94.208 73.9857 93.1818 75.5474 92.2308 77.068C91.7312 77.8129 91.1778 78.5167 90.6566 79.2102C90.3934 79.5544 90.1355 79.8934 89.8776 80.2325C89.6197 80.5664 89.3188 80.8695 89.0448 81.1777C88.486 81.7891 87.938 82.3798 87.4115 82.9501C86.8742 83.51 86.2832 83.998 85.7513 84.4861C85.2033 84.9587 84.7036 85.4365 84.1878 85.8423C83.6505 86.2276 83.1401 86.5975 82.6619 86.9416C82.1838 87.2807 81.7432 87.6095 81.3241 87.892C80.8996 88.1694 80.4752 88.3801 80.1099 88.5958C79.3792 89.0171 78.7882 89.3202 78.3959 89.5359C77.9984 89.7414 77.7888 89.8544 77.7888 89.8544C77.7888 89.8544 77.9607 89.69 78.2777 89.3767C78.6001 89.0736 79.0622 88.6112 79.6693 88.0615C79.9648 87.779 80.314 87.4913 80.6525 87.1369C80.9802 86.767 81.351 86.3868 81.7378 85.9759C82.1247 85.5649 82.533 85.1334 82.9682 84.671C83.3765 84.1933 83.7848 83.6744 84.2254 83.1453C84.6499 82.6059 85.1388 82.087 85.5686 81.486C85.9931 80.89 86.4336 80.2684 86.8903 79.6314C87.1106 79.3078 87.3631 79.0047 87.5726 78.6656C87.7822 78.3266 87.9917 77.9824 88.2066 77.6331C88.6203 76.9293 89.0985 76.2512 89.5068 75.5166C89.8937 74.7665 90.3074 74.0165 90.7157 73.2562L91.0273 72.686C91.124 72.4908 91.21 72.2904 91.3013 72.0901C91.484 71.6945 91.6667 71.2938 91.8547 70.8931C92.6392 69.3108 93.2194 67.6207 93.8803 65.9614C94.4176 64.261 95.0301 62.576 95.433 60.8602C95.6479 60.0074 95.9166 59.17 96.067 58.3224C96.2389 57.4748 96.4109 56.6426 96.5989 55.8206C96.7547 54.9935 96.8514 54.1767 96.9911 53.3753C97.0556 52.9746 97.1201 52.579 97.1845 52.1886C97.2436 51.7982 97.2651 51.4078 97.3135 51.0225C97.3994 50.2519 97.48 49.5019 97.5606 48.7775C97.6466 48.0532 97.6466 47.3494 97.7057 46.6713C97.7487 45.9932 97.7917 45.3408 97.8346 44.7243C97.8454 44.1078 97.8561 43.5222 97.8615 42.9674C97.8722 42.4126 97.8722 41.8937 97.8937 41.4108C97.9099 40.9279 97.8722 40.4758 97.8669 40.0751C97.8346 39.2686 97.8454 38.6316 97.8346 38.1949C97.8346 37.7531 97.8346 37.522 97.8346 37.522Z" fill="#3D72FC"/>
<path d="M89.5499 18.9305C89.5499 18.9305 89.609 18.9511 89.7164 18.9871C89.8185 19.0281 89.9797 19.0795 90.157 19.1669C90.5277 19.3312 91.0166 19.583 91.5432 19.9323C91.8064 20.107 92.0804 20.3073 92.3545 20.5231C92.6285 20.7337 92.8864 21.0265 93.1443 21.3142C93.6654 21.8947 94.1543 22.5677 94.5895 23.2663C94.9603 23.9804 95.2719 24.7253 95.4922 25.4496C95.5996 25.8144 95.7124 26.1586 95.7554 26.513C95.8038 26.8623 95.8306 27.2014 95.8468 27.5148C95.8736 28.1415 95.8306 28.6809 95.7662 29.0611C95.7447 29.246 95.7017 29.4053 95.6802 29.508C95.6587 29.6107 95.6372 29.6672 95.6372 29.6672C95.6372 29.6672 95.5835 29.6364 95.4868 29.5748C95.3955 29.5131 95.2504 29.4258 95.0946 29.3025C94.7722 29.0662 94.3478 28.7169 93.9233 28.2751C93.7084 28.0542 93.4935 27.8127 93.284 27.5559C93.0852 27.2939 92.8273 27.037 92.6177 26.7493C92.1718 26.1842 91.7796 25.5575 91.4357 24.8948C91.0596 24.2732 90.7319 23.6311 90.4901 22.9735C90.3558 22.6499 90.2806 22.3159 90.1516 21.9974C90.0334 21.6738 89.9313 21.3656 89.8508 21.0676C89.6896 20.4768 89.609 19.9477 89.5767 19.5573C89.5499 19.3723 89.5606 19.2028 89.5499 19.1001C89.5499 18.9871 89.5499 18.9305 89.5499 18.9305Z" fill="#3D72FC"/>
<path d="M27.1612 8.014C27.1612 8.014 27.3439 7.88557 27.6931 7.64412C28.0423 7.41295 28.5474 7.05335 29.2082 6.62696C29.853 6.18003 30.6911 5.71255 31.6743 5.18855C32.1686 4.93169 32.679 4.61832 33.2486 4.3666C33.8181 4.10974 34.4198 3.84261 35.0431 3.56007C35.3547 3.42136 35.677 3.27752 36.0102 3.14396C36.3486 3.02066 36.6925 2.89737 37.0417 2.76894C37.7402 2.51722 38.4709 2.26036 39.2231 2.01378C40.7543 1.59766 42.3661 1.11477 44.0854 0.832225C44.5153 0.75003 44.9451 0.667835 45.3803 0.58564C45.8155 0.503445 46.2614 0.472622 46.7074 0.410976C47.5992 0.31337 48.5019 0.169527 49.4152 0.12843C50.3286 0.0873321 51.2527 0.0359614 52.1822 0.00513828L52.3541 0L52.5905 0.00513828L52.929 0.0154129L53.606 0.0359621L54.9599 0.0770585L56.3085 0.133568C56.7544 0.148979 57.2434 0.226037 57.7054 0.272272C58.6457 0.375015 59.5752 0.498307 60.4993 0.616462C61.4126 0.760303 62.2938 0.981202 63.1749 1.16614C63.6155 1.26375 64.0507 1.36135 64.4805 1.45382C64.9157 1.54115 65.3294 1.70554 65.7431 1.82884C66.5759 2.09597 67.3925 2.34769 68.1877 2.61482C68.5907 2.73298 68.9614 2.92306 69.3375 3.07717C69.7136 3.23642 70.0843 3.40081 70.4496 3.55493C70.815 3.71418 71.1696 3.87343 71.5242 4.02755C71.8788 4.18166 72.2227 4.33064 72.545 4.52586C73.1898 4.8906 73.8184 5.23992 74.4148 5.57898C75.6344 6.21599 76.6122 7.01225 77.5148 7.64412C77.9554 7.9729 78.3906 8.25545 78.7506 8.55854C79.1052 8.87705 79.4276 9.16473 79.7231 9.43186C80.3141 9.95072 80.7493 10.3822 81.0555 10.6648C81.3564 10.9525 81.5176 11.1066 81.5176 11.1066C81.5176 11.1066 81.3134 11.009 80.9319 10.8189C80.5558 10.6237 79.9917 10.3566 79.3093 9.98668C78.9655 9.80688 78.584 9.60139 78.1703 9.38563C77.7405 9.19042 77.2784 8.97979 76.7895 8.75889C76.3006 8.53799 75.7794 8.30169 75.2261 8.0551C74.6888 7.78797 74.087 7.57734 73.4691 7.35131C72.8566 7.115 72.2173 6.87355 71.5564 6.62183C71.2341 6.48826 70.8902 6.38038 70.5356 6.27763C70.1864 6.17489 69.8318 6.06701 69.4718 5.95913C68.7465 5.75878 68.0319 5.48137 67.269 5.30671C66.5007 5.14232 65.7216 4.95224 64.9264 4.7673C64.5289 4.67997 64.1366 4.56695 63.7283 4.50017C63.32 4.43339 62.9063 4.3666 62.4926 4.30496C62.0789 4.23817 61.6652 4.17139 61.2461 4.10461C60.827 4.04296 60.4079 3.94022 59.9889 3.90426C59.1507 3.8272 58.3072 3.75528 57.4583 3.66281C57.0285 3.62685 56.6255 3.55493 56.1742 3.54466L54.8202 3.50356L53.4717 3.44705L52.7947 3.42136L52.4562 3.40595L52.3703 3.40081H52.3273H52.3058C52.2843 3.40081 52.4186 3.40081 52.3541 3.40081L52.193 3.40595C51.3279 3.43164 50.4629 3.43164 49.6033 3.44705C49.1735 3.43677 48.749 3.48815 48.3246 3.51383C47.9001 3.53952 47.4757 3.5652 47.0566 3.59089C46.2131 3.62171 45.391 3.72959 44.5744 3.82206C42.941 3.9659 41.3829 4.27414 39.8893 4.50017C39.1479 4.65429 38.4333 4.8084 37.7348 4.95738C37.3856 5.0293 37.0417 5.10122 36.7032 5.168C36.3701 5.25534 36.0424 5.34267 35.7254 5.42486C35.0807 5.58925 34.4628 5.74851 33.8772 5.89748C33.2808 6.03619 32.7489 6.2314 32.2277 6.38038C31.2015 6.70916 30.2667 6.94547 29.5306 7.22801C28.7891 7.49515 28.1874 7.68009 27.7844 7.81365C27.3761 7.94208 27.1612 8.014 27.1612 8.014Z" fill="#3D72FC"/>
</svg>
