<svg width="142" height="101" viewBox="0 0 142 101" fill="none" xmlns="http://www.w3.org/2000/svg">
<path d="M1.45075 94.4433C2.20471 90.4438 4.00563 84.7476 7.29175 78.0652C8.92533 74.7222 10.887 71.0877 13.1144 67.2874C15.3531 63.4794 17.8912 59.4824 20.9755 55.608C22.5099 53.6595 24.1848 51.7473 26.0275 49.9355C27.8547 48.101 29.8731 46.4008 32.0643 44.8803C34.2478 43.3485 36.612 42.0078 39.1366 41.0212C41.6493 39.9931 44.2958 39.3043 47.0235 38.9742C47.1744 38.9535 47.3217 38.9519 47.4726 38.9312C47.4335 39.0907 47.3755 39.2466 47.3476 39.3984C46.6085 42.4094 46.3811 45.5168 46.6709 48.5843C46.953 51.6405 47.6506 54.6769 48.9157 57.5061C50.2033 60.3199 51.9945 62.9539 54.3607 65.127C56.7226 67.2698 59.6412 68.9973 62.9339 69.7551C64.5397 70.1951 66.2855 70.4062 68.0948 70.3251C69.8964 70.2328 71.8287 69.8019 73.5828 68.8468C77.1358 66.9057 79.2583 63.4095 80.025 59.9817C80.8315 56.4436 80.0547 52.931 78.6155 50.0886C77.1643 47.2047 75.0821 44.8202 72.7562 42.8019C70.4113 40.78 67.7364 39.1671 64.8979 37.9649C61.3514 36.4527 57.5468 35.5985 53.7143 35.3769C54.0916 34.604 54.5067 33.8382 54.9942 33.1057C57.7486 28.6784 61.658 25.1165 65.8649 22.4448C70.0829 19.7654 74.5941 17.946 78.9567 16.7757C83.3158 15.6244 87.5143 15.0808 91.3352 15.045C95.1751 15.0128 98.7537 15.4417 101.991 16.0222C108.502 17.1411 113.732 18.9901 117.977 20.7026C122.201 22.4797 125.481 24.1578 127.981 25.7083C130.519 27.2168 132.356 28.4758 133.736 29.4522C134.924 30.2452 135.724 30.8571 136.35 31.2892C135.969 31.286 135.606 31.2863 135.235 31.2754C132.044 31.2434 129.168 31.2609 126.743 31.3338C121.892 31.4798 118.866 31.8321 118.806 32.3705C118.746 32.9088 121.655 33.5157 126.426 34.0712C128.808 34.3433 131.651 34.614 134.815 34.8469C135.212 34.8727 135.609 34.8985 136.014 34.9356C136.461 34.9608 136.956 34.9855 137.556 34.9219C137.858 34.8806 138.179 34.8429 138.532 34.7328C138.905 34.6264 139.329 34.4512 139.685 34.2237C140.415 33.7724 140.993 33.0767 141.317 32.2741C141.865 30.7874 141.699 29.8238 141.742 28.9979C141.755 28.1268 141.76 27.2446 141.769 26.3433C141.859 12.0221 141.051 0.456217 139.94 0.521815C138.838 0.598694 137.871 12.2718 137.781 26.593C137.784 27.2215 137.778 27.8388 137.78 28.4673C137.342 27.9725 136.796 27.4182 136.061 26.7791C134.772 25.5745 132.957 24.0843 130.386 22.3339C127.84 20.5491 124.454 18.645 120.046 16.6466C115.616 14.7128 110.145 12.681 103.2 11.4118C99.7391 10.7695 95.9175 10.2752 91.6579 10.297C87.3871 10.3265 82.8076 10.9161 77.9854 12.1863C73.1709 13.4677 68.1603 15.4972 63.4072 18.5273C58.6654 21.5496 54.1412 25.6827 50.938 30.8988C50.0226 32.3064 49.2568 33.8599 48.6168 35.4764C48.0091 35.5287 47.4203 35.5846 46.8168 35.6672C43.7769 36.0955 40.8001 36.9282 38.0294 38.1334C35.2467 39.2971 32.6736 40.8143 30.3493 42.5257C27.9982 44.2221 25.8882 46.1014 23.9952 48.0805C22.0754 50.0447 20.3762 52.0897 18.8321 54.1443C15.7327 58.2612 13.2348 62.4129 11.0925 66.3372C8.95786 70.2728 7.11071 73.9779 5.56222 77.4449C2.47646 84.3711 0.917292 90.2994 0.46739 94.4052C0.227352 96.4601 0.191611 98.0433 0.21975 99.1183C0.278063 100.189 0.343397 100.741 0.43392 100.729C0.66758 100.685 0.670109 98.4278 1.45075 94.4433ZM51.9893 40.1257C52.1031 39.6663 52.2324 39.2294 52.3728 38.7848C56.095 38.9659 59.7859 39.7987 63.166 41.309C65.6669 42.4279 67.9956 43.8971 70.0194 45.6917C72.032 47.4939 73.7923 49.6019 74.929 51.9555C76.058 54.2978 76.5297 56.9089 75.9365 59.3389C75.3699 61.7838 73.7995 64.0886 71.7185 65.1686C69.6642 66.2634 66.8975 66.2721 64.3614 65.5588C61.77 64.9331 59.4954 63.5428 57.6086 61.8035C55.7174 60.034 54.2546 57.8545 53.1929 55.4659C52.1425 53.0697 51.5802 50.471 51.3696 47.8797C51.1211 45.2813 51.352 42.6358 51.9893 40.1257Z" fill="#FF8F1F"/>
</svg>
