<svg width="60" height="60" viewBox="0 0 60 60" fill="none" xmlns="http://www.w3.org/2000/svg">
<path d="M29.0861 2.05822C29.4378 1.266 30.5622 1.266 30.9139 2.05822L37.2345 16.2923C37.4106 16.6889 37.8225 16.9266 38.254 16.8808L53.7413 15.2376C54.6033 15.1462 55.1655 16.1198 54.6553 16.8206L45.4885 29.4114C45.2331 29.7622 45.2331 30.2378 45.4885 30.5886L54.6553 43.1794C55.1655 43.8802 54.6033 44.8538 53.7413 44.7624L38.254 43.1192C37.8225 43.0734 37.4106 43.3111 37.2345 43.7077L30.9139 57.9418C30.5622 58.734 29.4378 58.734 29.0861 57.9418L22.7655 43.7077C22.5894 43.3111 22.1775 43.0734 21.746 43.1192L6.25868 44.7624C5.39671 44.8538 4.83454 43.8802 5.34473 43.1794L14.5115 30.5886C14.7669 30.2378 14.7669 29.7622 14.5115 29.4114L5.34473 16.8206C4.83454 16.1198 5.39671 15.1462 6.25868 15.2376L21.746 16.8808C22.1775 16.9266 22.5894 16.6889 22.7655 16.2923L29.0861 2.05822Z" fill="#6EADDF"/>
<circle cx="30" cy="30" r="6" fill="white"/>
</svg>
