<svg width="84" height="80" viewBox="0 0 84 80" fill="none" xmlns="http://www.w3.org/2000/svg">
<path d="M41.9965 56.9762C44.4517 56.9762 46.7741 56.3855 48.8533 55.3223C47.2534 59.4424 46.8626 63.7471 46.7889 64.8769C45.2332 65.1722 43.6333 65.3347 41.9965 65.3347C40.3597 65.3347 38.7598 65.1722 37.2041 64.8769C37.123 63.7471 36.7396 59.4424 35.1396 55.3223C37.2188 56.3781 39.5413 56.9762 41.9965 56.9762ZM44.6065 62.802C44.7392 61.7757 44.9383 60.4835 45.2627 59.0511C44.1936 59.2504 43.1024 59.3538 41.9965 59.3538C40.8905 59.3538 39.7993 59.2504 38.7303 59.0511C39.0547 60.4761 39.2537 61.7757 39.3865 62.802C40.2565 62.9054 41.1338 62.9497 41.9965 62.9497C42.8665 62.9497 43.7365 62.898 44.6065 62.802Z" fill="#FF8F1F"/>
<path d="M41.9966 56.5109C39.7479 56.5109 37.5802 55.9792 35.5527 54.9234C34.0191 50.8771 31.8293 48.2337 29.0571 47.0818C28.7769 46.9637 28.4968 46.8603 28.224 46.7569C27.3097 44.5566 26.8452 42.2011 26.8452 39.7645C26.8452 37.2319 27.3466 34.8026 28.3272 32.5358C32.95 31.5611 37.5507 31.0664 41.9966 31.0664C46.4499 31.0664 51.0506 31.5611 55.6661 32.5358C56.6467 34.8026 57.148 37.2319 57.148 39.7645C57.148 42.2085 56.6835 44.5566 55.7619 46.7569C55.4891 46.8603 55.2089 46.9637 54.9288 47.0818C52.1492 48.2411 49.9668 50.8771 48.4332 54.9234C46.4204 55.9719 44.2527 56.5109 41.9966 56.5109ZM41.9966 33.9092C38.841 33.9092 36.2826 36.4713 36.2826 39.6316C36.2826 42.7918 38.841 45.354 41.9966 45.354C45.1522 45.354 47.7106 42.7918 47.7106 39.6316C47.718 36.4713 45.1596 33.9092 41.9966 33.9092Z" fill="#FF8F1F"/>
<path d="M16.9875 39.9866C16.9875 46.1742 19.2363 51.8375 22.967 56.2161L19.2215 59.9671C14.5471 54.6286 11.7085 47.6362 11.7085 39.9866C11.7085 33.703 13.6255 27.855 16.9064 23.0039L21.1016 26.238C18.5063 30.1883 16.9875 34.9139 16.9875 39.9866Z" fill="#FF8F1F"/>
<path d="M41.9966 14.6375C50.5787 14.6375 58.1507 18.9127 62.7293 25.4547L66.4453 22.5898C61.0114 14.9402 52.0901 9.94141 41.9966 9.94141C31.903 9.94141 22.9891 14.9402 17.5479 22.5898L21.2638 25.4547C25.8424 18.9201 33.4218 14.6375 41.9966 14.6375Z" fill="#FF8F1F"/>
<path d="M41.9966 65.3344C34.55 65.3344 27.8479 62.1077 23.2177 56.9834L19.8999 60.3061C25.3854 66.2869 33.2523 70.0305 41.9966 70.0305C50.7409 70.0305 58.6079 66.2796 64.0934 60.3061L60.7755 56.9834C56.1453 62.1077 49.4507 65.3344 41.9966 65.3344Z" fill="#FF8F1F"/>
<path d="M67.0058 39.9866C67.0058 46.1742 64.7571 51.8375 61.0264 56.2161L64.7718 59.9671C69.4463 54.6286 72.2849 47.6362 72.2849 39.9866C72.2849 33.703 70.3679 27.855 67.0869 23.0039L62.8917 26.238C65.4944 30.1883 67.0058 34.9139 67.0058 39.9866Z" fill="#FF8F1F"/>
<path d="M56.4402 47.1706C57.3987 44.9851 57.9296 42.5558 57.9296 39.9862C57.9296 37.3207 57.3545 34.7954 56.3223 32.5508C61.5128 33.6214 65.2362 34.9505 66.6002 35.4748C66.8656 36.9441 67.013 38.4504 67.013 39.9936C67.013 42.2752 66.7034 44.4903 66.1283 46.5947C65.1624 46.2403 61.734 45.3026 56.4402 47.1706ZM62.5229 43.6634C63.1865 43.6634 63.7837 43.7003 64.3145 43.7667C64.521 42.5189 64.6316 41.2562 64.6316 39.9936C64.6316 39.0707 64.5726 38.1477 64.462 37.2321C63.3634 36.8481 61.8151 36.3534 59.8908 35.8439C60.1709 37.1952 60.311 38.5833 60.311 40.001C60.311 41.3153 60.1931 42.6001 59.9498 43.8627C60.8198 43.7224 61.6824 43.6634 62.5229 43.6634Z" fill="#FF8F1F"/>
<path d="M17.8721 46.5869C17.297 44.4825 16.9873 42.2674 16.9873 39.9858C16.9873 38.4426 17.1274 36.9363 17.4002 35.4669C18.7568 34.9427 22.4802 33.6136 27.6781 32.543C26.6532 34.7876 26.0708 37.3129 26.0708 39.9784C26.0708 42.548 26.609 44.9846 27.5601 47.1628C22.2664 45.3021 18.8306 46.2399 17.8721 46.5869ZM23.6893 39.9858C23.6893 38.5755 23.8294 37.1874 24.1096 35.8287C22.1852 36.3382 20.6296 36.8403 19.5384 37.2169C19.4278 38.1325 19.3688 39.0555 19.3688 39.9784C19.3688 41.2484 19.472 42.5111 19.6858 43.7515C20.2167 43.6925 20.8213 43.6482 21.4774 43.6482C22.318 43.6482 23.1806 43.7146 24.0506 43.8328C23.8073 42.5849 23.6893 41.3001 23.6893 39.9858Z" fill="#FF8F1F"/>
<path d="M37.1152 23.2106C37.1152 24.045 36.7613 24.68 34.9697 26.2601H37.2406L37.0784 27.3972H33.2666V26.3487C35.154 24.5175 35.5817 24.0081 35.5817 23.3657C35.5817 22.9448 35.331 22.6937 34.9181 22.6937C34.52 22.6937 34.2398 22.8783 33.9227 23.2771L33.0527 22.5756C33.5099 21.9701 34.1808 21.5566 35.0729 21.5566C36.4148 21.5566 37.1152 22.3246 37.1152 23.2106Z" fill="#191825"/>
<path d="M42.1729 24.5539C42.1729 26.4737 41.3914 27.5518 39.9537 27.5518C38.516 27.5518 37.7271 26.4737 37.7271 24.5539C37.7271 22.6268 38.516 21.5635 39.9537 21.5635C41.3914 21.5561 42.1729 22.6268 42.1729 24.5539ZM39.2533 24.5539C39.2533 26.0233 39.4376 26.4589 39.9537 26.4589C40.4551 26.4589 40.6468 26.0602 40.6468 24.5539C40.6468 23.0403 40.4624 22.6563 39.9537 22.6563C39.4376 22.6563 39.2533 23.092 39.2533 24.5539Z" fill="#191825"/>
<path d="M44.2744 27.3972V23.122L43.08 23.853L42.4312 22.8636L44.3997 21.6748H45.7269V27.3898H44.2744V27.3972Z" fill="#191825"/>
<path d="M48.2483 22.7454V23.8013C48.5285 23.6758 48.8087 23.6167 49.0667 23.6167C50.0031 23.6167 50.7183 24.296 50.7183 25.4922C50.7183 26.7253 49.8114 27.5523 48.3958 27.5523C47.4889 27.5523 46.8622 27.1757 46.4346 26.6515L47.2677 25.8836C47.5405 26.2306 47.8797 26.4373 48.3294 26.4373C48.8676 26.4373 49.1847 26.1198 49.1847 25.507C49.1847 24.8498 48.8898 24.6209 48.4548 24.6209C48.241 24.6209 48.0566 24.6726 47.806 24.8203H46.8106V21.6748H50.4307L50.2685 22.7381H48.2483V22.7454Z" fill="#191825"/>
<path d="M11.7819 24.2523L6.66504 21.4021L7.42447 20.0361L12.5413 22.8863L11.7819 24.2523Z" fill="#191825"/>
<path d="M14.3181 20.1687L9.86487 18.8323C10.3589 19.0907 11.074 19.4377 11.9588 20.0654L13.5735 21.2098L12.7772 22.3396L7.99951 18.9578L9.10545 17.3851L13.5956 18.6846C13.0647 18.4262 12.4085 18.1013 11.5975 17.5253L9.86487 16.2996L10.6611 15.1699L15.4388 18.5517L14.3181 20.1687Z" fill="#191825"/>
<path d="M14.1854 13.0728L17.5917 16.2626L16.53 17.3997L13.1237 14.2099L12.121 15.2805L11.251 14.4683L14.3697 11.1309L15.1292 12.0612L14.1854 13.0728Z" fill="#191825"/>
<path d="M16.8763 10.4507L17.68 11.4032L19.0145 10.2809L19.7002 11.1005L18.3657 12.2228L19.2209 13.2418L20.8504 11.8684L21.5582 12.7175L18.7343 15.0877L14.9741 10.5984L17.8201 8.20605L18.4099 9.15118L16.8763 10.4507Z" fill="#191825"/>
<path d="M21.9715 9.85346L23.1291 11.6699L21.8167 12.5116L18.6685 7.57926L20.379 6.48646C21.7503 5.60779 22.7531 5.64471 23.424 6.69321C23.8295 7.3356 23.7853 7.89676 23.3724 8.61298L25.9161 9.88299L24.4562 10.8207L22.3328 9.62457L21.9715 9.85346ZM21.8388 8.67944C22.2886 8.39148 22.3844 8.02967 22.0821 7.55711C21.8093 7.12885 21.4333 7.10669 20.9393 7.42419L20.5707 7.66048L21.4038 8.96741L21.8388 8.67944Z" fill="#191825"/>
<path d="M28.3045 8.84153L25.1415 5.43023C25.4364 5.9028 25.8788 6.56734 26.3211 7.55676L27.1322 9.36579L25.8714 9.93434L23.4604 4.59587L25.2078 3.80581L28.4224 7.20973C28.098 6.71501 27.6925 6.10216 27.287 5.20134L26.417 3.2668L27.6778 2.69824L30.0887 8.0367L28.3045 8.84153Z" fill="#191825"/>
<path d="M31.4531 6.3754L31.5342 7.60111L29.9785 8.05152L30.0228 1.93776L31.8218 1.4209L35.1101 6.56739L33.5249 7.02518L32.9424 5.94714L31.4531 6.3754ZM31.2172 2.74997L31.3794 5.23831L32.3968 4.94295L31.2172 2.74997Z" fill="#191825"/>
<path d="M36.5034 1.68624L37.2481 6.30109L35.7072 6.55214L34.9625 1.93728L33.5174 2.17356L33.3257 0.999541L37.8306 0.268555L37.8601 1.4721L36.5034 1.68624Z" fill="#191825"/>
<path d="M38.944 6.10268L38.5605 0.25474L40.1163 0.151367L40.4996 5.99931L38.944 6.10268Z" fill="#191825"/>
<path d="M46.3534 3.20057C46.2723 5.10559 45.2327 6.24269 43.5295 6.16885C41.8264 6.09501 40.9048 4.91361 40.9859 2.9643C41.067 1.05929 42.0992 -0.0704278 43.795 0.00340992C45.5055 0.0772476 46.4419 1.25126 46.3534 3.20057ZM42.6079 3.03075C42.5416 4.44843 42.8734 5.0096 43.5812 5.03914C44.3111 5.06867 44.665 4.53703 44.7313 3.11935C44.7903 1.70167 44.4807 1.14789 43.7581 1.11836C43.043 1.0962 42.6743 1.61307 42.6079 3.03075Z" fill="#191825"/>
<path d="M49.0666 6.70827L48.4768 2.09341C48.4399 2.65458 48.4104 3.44465 48.1966 4.5153L47.8058 6.45722L46.4492 6.18403L47.5994 0.439453L49.4795 0.816021L50.1136 5.46042C50.1357 4.86972 50.1652 4.13872 50.3569 3.16407L50.7771 1.08184L52.1338 1.35503L50.9836 7.09962L49.0666 6.70827Z" fill="#191825"/>
<path d="M53.0481 6.53823L52.3993 7.57934L50.873 7.04033L54.4637 2.10059L56.2258 2.7282L55.9088 8.8272L54.3531 8.27342L54.5079 7.05509L53.0481 6.53823ZM54.965 3.45182L53.6526 5.57096L54.6554 5.92537L54.965 3.45182Z" fill="#191825"/>
<path d="M59.7722 9.49119L59.0717 10.4954L55.8276 8.8488L58.4671 3.62109L59.8606 4.32255L57.7667 8.47222L59.7722 9.49119Z" fill="#191825"/>
<path d="M63.4147 10.8209L62.1097 12.5414L60.8711 11.5962L64.4027 6.92969L66.0174 8.1554C67.315 9.14482 67.6321 10.0973 66.88 11.0941C66.4229 11.6996 65.8773 11.8473 65.0589 11.7144L64.7419 14.5424L63.3632 13.4939L63.7539 11.0794L63.4147 10.8209ZM64.4765 10.2893C64.8967 10.6068 65.2727 10.5773 65.6119 10.1269C65.9142 9.72075 65.811 9.35895 65.3465 9.00453L64.9999 8.73871L64.0636 9.97181L64.4765 10.2893Z" fill="#191825"/>
<path d="M66.4226 14.6011L65.3904 15.2656L64.2476 14.1211L69.6151 11.2119L70.9348 12.541L68.0151 17.9164L66.8502 16.7497L67.5138 15.716L66.4226 14.6011ZM69.4824 12.637L67.3811 13.9808L68.1331 14.734L69.4824 12.637Z" fill="#191825"/>
<path d="M74.6512 17.8426L73.4863 17.7835C73.5158 17.3922 73.442 17.0525 73.1914 16.7276C72.7637 16.1738 72.0117 16.1591 70.95 16.9787C69.903 17.7909 69.7261 18.5219 70.1758 19.1052C70.4412 19.4522 70.8246 19.5704 71.2449 19.6885L70.9647 20.7739C70.3823 20.7001 69.6892 20.4047 69.1878 19.7623C68.1778 18.4554 68.3621 16.9344 69.9546 15.7013C71.503 14.5051 73.066 14.7192 74.0245 15.9597C74.5332 16.5947 74.6733 17.1928 74.6512 17.8426Z" fill="#191825"/>
<path d="M75.3956 20.2277L74.3191 20.8627L75.2039 22.369L74.2823 22.9154L73.3975 21.4091L72.2473 22.0884L73.3312 23.927L72.38 24.4881L70.5073 21.3057L75.5504 18.3301L77.4379 21.5346L76.4057 21.9555L75.3956 20.2277Z" fill="#191825"/>
<path d="M11.9956 57.3159L10.8675 57.0279C10.9707 56.6513 10.9707 56.2969 10.7864 55.9351C10.4768 55.3075 9.73945 55.145 8.53766 55.7431C7.35061 56.3265 7.03357 57.0131 7.35798 57.6703C7.54968 58.0616 7.90359 58.2536 8.28698 58.453L7.80036 59.4646C7.24739 59.28 6.62069 58.8517 6.25942 58.1207C5.5295 56.6366 6.00875 55.182 7.81512 54.2885C9.56989 53.4172 11.0666 53.9415 11.7596 55.3444C12.1209 56.068 12.143 56.6809 11.9956 57.3159Z" fill="#191825"/>
<path d="M10.5801 60.4176L8.57465 61.7983L7.69727 60.5136L12.5192 57.1982L13.3965 58.483L11.5681 59.7383L12.4454 61.0157L14.2739 59.7604L15.1513 61.0452L10.3294 64.3605L9.45203 63.0757L11.4575 61.695L10.5801 60.4176Z" fill="#191825"/>
<path d="M12.9097 65.5121L11.8553 66.125L10.7642 64.9362L16.2423 62.2559L17.503 63.6366L14.3695 68.8791L13.2562 67.6608L13.9566 66.6566L12.9097 65.5121ZM16.0432 63.6883L13.8903 64.9436L14.6055 65.7262L16.0432 63.6883Z" fill="#191825"/>
<path d="M18.4174 72.1878L19.715 70.4305C20.1795 69.8029 20.6661 69.1605 21.2191 68.5698L18.1298 71.1836L16.9797 70.268L18.7787 66.6278C18.2699 67.3957 17.8644 67.9348 17.3483 68.5476L15.9401 70.2163L14.7383 69.2638L18.7123 64.9443L20.2311 66.1479L18.4321 69.6773L21.3961 67.0709L22.9223 68.2818L19.6265 73.1403L18.4174 72.1878Z" fill="#191825"/>
<path d="M25.2375 69.5959C26.5794 70.3564 27.0881 71.3754 26.4541 72.5051C25.7831 73.6939 24.6256 73.8046 23.4238 73.1327L22.9003 72.8374L21.9787 74.4839L20.6221 73.716L23.4901 68.6064L25.2375 69.5959ZM23.844 72.0916C24.338 72.3722 24.7435 72.2983 25.0606 71.7298C25.3334 71.2425 25.2228 70.8437 24.6772 70.5336L24.3085 70.3269L23.4459 71.8627L23.844 72.0916Z" fill="#191825"/>
<path d="M25.3921 76.2558L27.7219 70.873L29.1523 71.4933L26.8224 76.8761L25.3921 76.2558Z" fill="#191825"/>
<path d="M33.7238 76.0934C33.1709 77.9172 31.8806 78.7589 30.2512 78.2568C28.6218 77.7621 28.0246 76.3813 28.5923 74.5206C29.1452 72.6968 30.4281 71.8625 32.0502 72.3646C33.6796 72.8593 34.2916 74.2253 33.7238 76.0934ZM30.1332 74.9932C29.7203 76.3518 29.8973 76.9794 30.5756 77.1862C31.276 77.4003 31.7479 76.972 32.1682 75.6134C32.581 74.2548 32.4188 73.642 31.7258 73.4278C31.0401 73.2211 30.5535 73.6346 30.1332 74.9932Z" fill="#191825"/>
<path d="M36.6063 79.4976L35.7657 74.9197C35.7584 75.4808 35.7731 76.2783 35.6183 77.3563L35.3381 79.3204L33.9741 79.121L34.8073 73.3174L36.7095 73.5906L37.5942 78.1907C37.5869 77.6 37.5721 76.869 37.7122 75.8796L38.0145 73.7752L39.3785 73.9745L38.5454 79.7782L36.6063 79.4976Z" fill="#191825"/>
<path d="M44.0088 74.6536L43.2863 75.4658C42.8955 75.1409 42.4974 74.9711 42.0329 74.9637C41.5757 74.9563 41.3251 75.1262 41.3177 75.451C41.3103 75.7907 41.5315 75.9088 42.4015 76.2116C43.5517 76.5955 44.1194 77.0976 44.1047 78.1609C44.0899 79.2684 43.183 80.029 41.6863 79.9994C40.6173 79.9847 39.8947 79.5859 39.4229 79.1134L40.2117 78.2643C40.6173 78.6334 41.0891 78.8623 41.6495 78.8697C42.1877 78.8771 42.4826 78.6334 42.49 78.2495C42.4974 77.8581 42.2983 77.6883 41.4946 77.4299C40.138 76.9795 39.7104 76.4035 39.7251 75.547C39.7399 74.4764 40.6836 73.8192 41.9444 73.8414C42.8439 73.8635 43.4927 74.1515 44.0088 74.6536Z" fill="#191825"/>
<path d="M46.3682 77.1709L46.7 79.5854L45.159 79.7996L44.3701 73.9885L45.9111 73.7744L46.2134 75.9748L47.7469 75.768L47.4446 73.5677L48.9856 73.3535L49.7745 79.1646L48.2335 79.3713L47.9018 76.9568L46.3682 77.1709Z" fill="#191825"/>
<path d="M50.9615 78.855L49.5459 73.1695L51.0574 72.793L52.473 78.4785L50.9615 78.855Z" fill="#191825"/>
<path d="M53.5496 71.9871C55.0021 71.4628 56.1006 71.7434 56.543 72.9617C57.0075 74.2465 56.3292 75.199 55.0389 75.6715L54.4786 75.8783L55.12 77.6578L53.6528 78.1894L51.6621 72.6737L53.5496 71.9871ZM54.5302 74.6747C55.061 74.4828 55.2748 74.1283 55.0536 73.5155C54.862 72.9912 54.4859 72.814 53.9035 73.0281L53.5053 73.1684L54.1026 74.8298L54.5302 74.6747Z" fill="#191825"/>
<path d="M61.5199 68.6873L61.3356 69.758C60.8343 69.6841 60.3993 69.7506 60.0011 69.9869C59.6103 70.2231 59.485 70.5037 59.6472 70.7769C59.8168 71.0649 60.0675 71.0575 60.967 70.8582C62.1466 70.5776 62.8987 70.7105 63.4369 71.6261C63.9972 72.5786 63.6286 73.7009 62.3383 74.4688C61.4167 75.0152 60.5909 75.0521 59.9421 74.9045L60.1707 73.7673C60.7089 73.8707 61.225 73.819 61.7116 73.5311C62.1761 73.2579 62.3015 72.8887 62.1098 72.5638C61.9107 72.2315 61.6526 72.1872 60.8342 72.394C59.4408 72.7189 58.7772 72.4604 58.3422 71.722C57.7966 70.7991 58.2537 69.7432 59.3375 69.1008C60.1117 68.6209 60.8195 68.5249 61.5199 68.6873Z" fill="#191825"/>
<path d="M63.4217 67.8234L64.1885 68.8055L65.5673 67.7348L66.2235 68.5839L64.8447 69.6546L65.6631 70.7031L67.3442 69.3962L68.0225 70.2674L65.1102 72.5343L61.5195 67.9047L64.454 65.623L65.0069 66.5903L63.4217 67.8234Z" fill="#191825"/>
<path d="M68.4206 66.9227L69.9468 68.4438L68.8482 69.5513L64.6973 65.4238L66.1276 63.9839C67.2778 62.8247 68.2658 62.6401 69.1505 63.5188C69.6887 64.0504 69.7625 64.6116 69.5192 65.409L72.2767 66.0957L71.0527 67.3288L68.7155 66.62L68.4206 66.9227ZM68.0372 65.8004C68.4132 65.4238 68.428 65.0472 68.0298 64.6485C67.6686 64.2941 67.2999 64.3458 66.8797 64.7666L66.57 65.0768L67.6686 66.1696L68.0372 65.8004Z" fill="#191825"/>
<path d="M72.6527 65.5277L68.0962 61.858L69.0694 60.6396L73.6259 64.3094L72.6527 65.5277Z" fill="#191825"/>
<path d="M71.252 59.4579L72.2916 60.152L73.2575 58.6974L74.1496 59.2881L73.1837 60.7427L74.2897 61.481L75.4693 59.7016L76.391 60.3144L74.3487 63.3934L69.4678 60.152L71.5248 57.0508L72.358 57.7965L71.252 59.4579Z" fill="#191825"/>
<path d="M74.083 53.3584L74.5106 54.3626C74.0461 54.5767 73.7217 54.8647 73.5227 55.2782C73.3236 55.6843 73.3678 55.987 73.6554 56.1347C73.9577 56.2824 74.1567 56.1421 74.8055 55.4849C75.6461 54.6136 76.3465 54.3109 77.2976 54.7835C78.2856 55.2782 78.5805 56.4227 77.9169 57.7665C77.4377 58.7264 76.7667 59.2063 76.14 59.4352L75.7124 58.3572C76.2212 58.1505 76.6267 57.8256 76.8773 57.3161C77.1206 56.8362 77.0248 56.4596 76.6856 56.2898C76.3391 56.1199 76.0958 56.2233 75.5207 56.8361C74.5327 57.8699 73.8323 58.0102 73.0582 57.6262C72.0997 57.1463 71.9153 56.0092 72.4683 54.8868C72.8664 54.0746 73.4047 53.6094 74.083 53.3584Z" fill="#191825"/>
<path d="M4.96198 34.9131L6.1343 38.5237H9.92398L6.85683 40.761L8.02913 44.3717L4.96198 42.1344L1.89485 44.3717L3.06715 40.761L0 38.5237H3.78968L4.96198 34.9131Z" fill="#3D72FC"/>
<path d="M79.0382 34.9131L77.8659 38.5237H74.0762L77.1433 40.761L75.971 44.3717L79.0382 42.1344L82.1053 44.3717L80.933 40.761L84.0002 38.5237H80.2104L79.0382 34.9131Z" fill="#3D72FC"/>
</svg>
