<svg width="110" height="80" viewBox="0 0 110 80" fill="none" xmlns="http://www.w3.org/2000/svg">
<path d="M58.1489 9.25098C57.2996 11.0288 55.7611 13.1122 55.0079 13.1122C54.2547 13.1122 52.7082 11.0288 51.8669 9.25098C51.0656 9.45208 50.6489 9.66123 50.6489 9.66123C50.6489 9.66123 53.7579 15.7266 55.0079 15.7266C56.2579 15.7266 59.3669 9.66123 59.3669 9.66123C59.3669 9.66123 58.9502 9.45208 58.1489 9.25098Z" fill="#FF8F1F"/>
<path d="M48.6059 11.1408C49.7197 12.7657 50.7454 15.1468 50.3688 15.8064C49.9922 16.4661 47.42 16.7637 45.4649 16.6109C45.2405 17.4072 45.2085 17.8738 45.2085 17.8738C45.2085 17.8738 51.9954 18.2036 52.6204 17.1176C53.2454 16.0317 49.5675 10.2881 49.5675 10.2881C49.5675 10.2881 49.1748 10.5455 48.6059 11.1408Z" fill="#FF8F1F"/>
<path d="M45.4566 20.3755C47.4117 20.2226 49.9839 20.5203 50.3605 21.1799C50.7371 21.8395 49.7114 24.2206 48.5976 25.8456C49.1746 26.4408 49.5592 26.6982 49.5592 26.6982C49.5592 26.6982 53.2371 20.9627 52.6121 19.8687C51.9871 18.7827 45.2002 19.1125 45.2002 19.1125C45.2002 19.1125 45.2322 19.5791 45.4566 20.3755Z" fill="#FF8F1F"/>
<path d="M51.8591 27.7364C52.7084 25.9586 54.2469 23.8751 55.0001 23.8751C55.7533 23.8751 57.2998 25.9586 58.1411 27.7364C58.9424 27.5353 59.3591 27.3261 59.3591 27.3261C59.3591 27.3261 56.2501 21.2607 55.0001 21.2607C53.7501 21.2607 50.6411 27.3261 50.6411 27.3261C50.6411 27.3261 51.0578 27.5353 51.8591 27.7364Z" fill="#FF8F1F"/>
<path d="M61.4023 25.8456C60.2886 24.2206 59.2629 21.8395 59.6395 21.1799C60.0161 20.5203 62.5882 20.2226 64.5434 20.3755C64.7677 19.5791 64.7998 19.1125 64.7998 19.1125C64.7998 19.1125 58.0129 18.7827 57.3879 19.8687C56.7629 20.9547 60.4408 26.6982 60.4408 26.6982C60.4408 26.6982 60.8254 26.4408 61.4023 25.8456Z" fill="#FF8F1F"/>
<path d="M64.5434 16.6109C62.5882 16.7637 60.0161 16.4661 59.6395 15.8064C59.2629 15.1468 60.2886 12.7657 61.4023 11.1408C60.8254 10.5455 60.4408 10.2881 60.4408 10.2881C60.4408 10.2881 56.7629 16.0236 57.3879 17.1176C58.0129 18.2036 64.7998 17.8738 64.7998 17.8738C64.7998 17.8738 64.7757 17.4072 64.5434 16.6109Z" fill="#FF8F1F"/>
<path d="M55 6.35547C48.3254 6.35547 42.9087 11.7934 42.9087 18.4942C42.9087 25.1951 48.3173 30.633 55 30.633C61.6827 30.633 67.0914 25.1951 67.0914 18.4942C67.0914 11.7934 61.6827 6.35547 55 6.35547ZM64.5593 18.4942C64.5593 23.7954 60.2805 28.091 55 28.091C49.7196 28.091 45.4407 23.7954 45.4407 18.4942C45.4407 13.1931 49.7196 8.89745 55 8.89745C60.2805 8.89745 64.5593 13.1931 64.5593 18.4942Z" fill="#FF8F1F"/>
<path d="M54.9999 4.44043C47.2675 4.44043 41.0015 10.731 41.0015 18.4937C41.0015 26.2564 47.2675 32.547 54.9999 32.547C62.7322 32.547 68.9983 26.2564 68.9983 18.4937C69.0063 10.731 62.7322 4.44043 54.9999 4.44043ZM68.3412 18.4937C68.3412 25.8864 62.3717 31.8874 54.9999 31.8874C47.6361 31.8874 41.6585 25.8944 41.6585 18.4937C41.6585 11.093 47.6281 5.10006 54.9999 5.10006C62.3717 5.10006 68.3412 11.1011 68.3412 18.4937Z" fill="#FF8F1F"/>
<path d="M59.2311 18.4935C59.2311 20.8343 57.34 22.7408 55.0003 22.7408C52.6606 22.7408 50.7695 20.8424 50.7695 18.4935C50.7695 16.1445 52.6606 14.2461 55.0003 14.2461C57.34 14.2461 59.2311 16.1526 59.2311 18.4935ZM55.0003 16.8122C54.0708 16.8122 53.3256 17.5684 53.3256 18.4935C53.3256 19.4185 54.0788 20.1747 55.0003 20.1747C55.9298 20.1747 56.675 19.4185 56.675 18.4935C56.675 17.5684 55.9298 16.8122 55.0003 16.8122Z" fill="#FF8F1F"/>
<path d="M55.3687 4.46387H53.9985L54.1267 3.98926H55.2405L55.3687 4.46387Z" fill="#FF8F1F"/>
<path d="M53.9022 4.49637L52.54 4.64117L52.6202 4.15852L53.7259 4.0459L53.9022 4.49637Z" fill="#FF8F1F"/>
<path d="M52.4519 4.68927L51.1138 4.97887L51.1458 4.48817L52.2276 4.25488L52.4519 4.68927Z" fill="#FF8F1F"/>
<path d="M51.0337 5.03526L49.7277 5.4616L49.7036 4.9709L50.7613 4.625L51.0337 5.03526Z" fill="#FF8F1F"/>
<path d="M49.6553 5.52652L48.3973 6.08157L48.3252 5.59891L49.3428 5.14844L49.6553 5.52652Z" fill="#FF8F1F"/>
<path d="M48.3331 6.15329L47.1472 6.84509L47.019 6.37048L47.9886 5.81543L48.3331 6.15329Z" fill="#FF8F1F"/>
<path d="M47.0833 6.9258L45.9776 7.73022L45.8013 7.27974L46.7067 6.62012L47.0833 6.9258Z" fill="#FF8F1F"/>
<path d="M45.9215 7.81917L44.9038 8.73622L44.6875 8.30183L45.5128 7.55371L45.9215 7.81917Z" fill="#FF8F1F"/>
<path d="M44.8636 8.83145L43.9422 9.85307L43.6777 9.44282L44.4229 8.61426L44.8636 8.83145Z" fill="#FF8F1F"/>
<path d="M43.91 9.95041L43.1007 11.0605L42.8042 10.6824L43.4532 9.77344L43.91 9.95041Z" fill="#FF8F1F"/>
<path d="M43.0769 11.1568L42.3958 12.3473L42.0513 12.0014L42.6122 11.0361L43.0769 11.1568Z" fill="#FF8F1F"/>
<path d="M42.3797 12.4523L41.8268 13.7072L41.4502 13.3935L41.8989 12.3799L42.3797 12.4523Z" fill="#FF8F1F"/>
<path d="M41.819 13.8042L41.4023 15.1154L40.9937 14.8499L41.3382 13.7881L41.819 13.8042Z" fill="#FF8F1F"/>
<path d="M41.4021 15.2188L41.1217 16.5621L40.689 16.3369L40.9213 15.2429L41.4021 15.2188Z" fill="#FF8F1F"/>
<path d="M41.1379 16.6592L40.9936 18.0267L40.5449 17.8497L40.6571 16.7396L41.1379 16.6592Z" fill="#FF8F1F"/>
<path d="M41.0255 18.123V19.4986L40.5527 19.3699V18.2518L41.0255 18.123Z" fill="#FF8F1F"/>
<path d="M41.0656 19.5957L41.2018 20.9632L40.7291 20.8828L40.6089 19.7727L41.0656 19.5957Z" fill="#FF8F1F"/>
<path d="M41.2499 21.0508L41.5383 22.3942L41.0496 22.37L40.8252 21.276L41.2499 21.0508Z" fill="#FF8F1F"/>
<path d="M41.5947 22.4834L42.0194 23.7866L41.5306 23.8107L41.186 22.7489L41.5947 22.4834Z" fill="#FF8F1F"/>
<path d="M42.0831 23.8662L42.644 25.1211L42.1633 25.1935L41.7065 24.1719L42.0831 23.8662Z" fill="#FF8F1F"/>
<path d="M42.7161 25.1943L43.3972 26.3849L42.9245 26.5055L42.3716 25.5402L42.7161 25.1943Z" fill="#FF8F1F"/>
<path d="M43.4778 26.4404L44.2871 27.5586L43.8304 27.7275L43.1733 26.8266L43.4778 26.4404Z" fill="#FF8F1F"/>
<path d="M44.3668 27.6074L45.2882 28.629L44.8475 28.8462L44.1104 28.0177L44.3668 27.6074Z" fill="#FF8F1F"/>
<path d="M45.3765 28.6777L46.3941 29.5948L45.9855 29.8602L45.1602 29.1121L45.3765 28.6777Z" fill="#FF8F1F"/>
<path d="M46.4905 29.626L47.5963 30.4384L47.2197 30.7441L46.3223 30.0845L46.4905 29.626Z" fill="#FF8F1F"/>
<path d="M47.6925 30.4629L48.8784 31.1467L48.5338 31.4926L47.5723 30.9375L47.6925 30.4629Z" fill="#FF8F1F"/>
<path d="M48.9823 31.1631L50.2323 31.7262L49.9278 32.0962L48.9102 31.6457L48.9823 31.1631Z" fill="#FF8F1F"/>
<path d="M50.3365 31.7266L51.6346 32.1529L51.3702 32.5551L50.3125 32.2173L50.3365 31.7266Z" fill="#FF8F1F"/>
<path d="M51.7388 32.1445L53.0769 32.4261L52.8526 32.8605L51.7628 32.6272L51.7388 32.1445Z" fill="#FF8F1F"/>
<path d="M53.1729 32.4102L54.535 32.555L54.3587 33.0054L53.253 32.8928L53.1729 32.4102Z" fill="#FF8F1F"/>
<path d="M54.6392 32.5225H56.0013L55.8731 32.9971H54.7674L54.6392 32.5225Z" fill="#FF8F1F"/>
<path d="M56.0977 32.4905L57.4598 32.3457L57.3797 32.8284L56.2739 32.941L56.0977 32.4905Z" fill="#FF8F1F"/>
<path d="M57.5479 32.2974L58.886 32.0078L58.862 32.4985L57.7722 32.7318L57.5479 32.2974Z" fill="#FF8F1F"/>
<path d="M58.9741 31.9517L60.2722 31.5254L60.2962 32.0161L59.2385 32.362L58.9741 31.9517Z" fill="#FF8F1F"/>
<path d="M60.3525 31.4603L61.6025 30.9053L61.6747 31.3879L60.657 31.8384L60.3525 31.4603Z" fill="#FF8F1F"/>
<path d="M61.6748 30.8324L62.8607 30.1406L62.9809 30.6152L62.0194 31.1703L61.6748 30.8324Z" fill="#FF8F1F"/>
<path d="M62.9248 30.0613L64.0306 29.2568L64.1988 29.7073L63.3014 30.3669L62.9248 30.0613Z" fill="#FF8F1F"/>
<path d="M64.0864 29.168L65.1041 28.251L65.3204 28.6854L64.4951 29.4335L64.0864 29.168Z" fill="#FF8F1F"/>
<path d="M65.144 28.1544L66.0575 27.1328L66.3219 27.5431L65.5767 28.3716L65.144 28.1544Z" fill="#FF8F1F"/>
<path d="M66.0977 27.0369L66.8989 25.9268L67.2034 26.3048L66.5464 27.2138L66.0977 27.0369Z" fill="#FF8F1F"/>
<path d="M66.9233 25.8292L67.6124 24.6387L67.949 24.9846L67.3961 25.9499L66.9233 25.8292Z" fill="#FF8F1F"/>
<path d="M67.6201 24.5342L68.181 23.2793L68.5576 23.593L68.1009 24.6066L67.6201 24.5342Z" fill="#FF8F1F"/>
<path d="M68.1812 23.1833L68.6058 21.8721L69.0145 22.1375L68.6699 23.1994L68.1812 23.1833Z" fill="#FF8F1F"/>
<path d="M68.5977 21.7672L68.8861 20.4238L69.3108 20.6491L69.0864 21.7431L68.5977 21.7672Z" fill="#FF8F1F"/>
<path d="M68.8623 20.3275L69.0065 18.96L69.4633 19.1369L69.3431 20.247L68.8623 20.3275Z" fill="#FF8F1F"/>
<path d="M68.9824 18.8629V17.4873L69.4472 17.616V18.7342L68.9824 18.8629Z" fill="#FF8F1F"/>
<path d="M68.9421 17.391L68.7979 16.0234L69.2786 16.1039L69.3908 17.214L68.9421 17.391Z" fill="#FF8F1F"/>
<path d="M68.7502 15.9352L68.4697 14.5918L68.9505 14.6159L69.1829 15.7099L68.7502 15.9352Z" fill="#FF8F1F"/>
<path d="M68.4134 14.5031L67.9888 13.1999L68.4695 13.1758L68.8141 14.2376L68.4134 14.5031Z" fill="#FF8F1F"/>
<path d="M67.9247 13.1193L67.3638 11.8644L67.8445 11.792L68.2933 12.8136L67.9247 13.1193Z" fill="#FF8F1F"/>
<path d="M67.2916 11.7927L66.6025 10.6021L67.0753 10.4814L67.6362 11.4468L67.2916 11.7927Z" fill="#FF8F1F"/>
<path d="M66.5225 10.5449L65.7212 9.42674L66.1779 9.25781L66.827 10.1588L66.5225 10.5449Z" fill="#FF8F1F"/>
<path d="M65.6332 9.37944L64.7197 8.35782L65.1524 8.14062L65.8976 8.96918L65.6332 9.37944Z" fill="#FF8F1F"/>
<path d="M64.6314 8.30946L63.6138 7.39241L64.0224 7.12695L64.8477 7.87507L64.6314 8.30946Z" fill="#FF8F1F"/>
<path d="M63.5176 7.35936L62.4038 6.54689L62.7884 6.24121L63.6859 6.90084L63.5176 7.35936Z" fill="#FF8F1F"/>
<path d="M62.308 6.5238L61.1221 5.84004L61.4666 5.49414L62.4282 6.05724L62.308 6.5238Z" fill="#FF8F1F"/>
<path d="M61.0254 5.82376L59.7754 5.26066L60.0799 4.89062L61.0975 5.3411L61.0254 5.82376Z" fill="#FF8F1F"/>
<path d="M59.6713 5.2602L58.3652 4.83385L58.6377 4.43164L59.6954 4.77754L59.6713 5.2602Z" fill="#FF8F1F"/>
<path d="M58.2693 4.84191L56.9312 4.56037L57.1475 4.12598L58.2372 4.35926L58.2693 4.84191Z" fill="#FF8F1F"/>
<path d="M56.827 4.57672L55.4648 4.43192L55.6411 3.98145L56.7469 4.09406L56.827 4.57672Z" fill="#FF8F1F"/>
<path d="M34.0626 59.8492L33.7822 61.5063C33.6299 61.4581 33.4857 61.4259 33.3174 61.4259C32.7004 61.4259 32.46 61.8925 32.3078 62.6165V65.0539H30.6011V59.9136H32.0915L32.2437 60.8869C32.452 60.2032 32.9729 59.7607 33.5418 59.7607C33.7341 59.7688 33.8783 59.7929 34.0626 59.8492Z" fill="#191825"/>
<path d="M38.5496 63.4774C38.5496 63.8635 38.6458 64.0083 38.8781 64.0968L38.5336 65.2069C37.9006 65.1587 37.4839 64.9736 37.2275 64.4829C36.8589 65.046 36.282 65.2391 35.681 65.2391C34.6634 65.2391 34.0063 64.5714 34.0063 63.6303C34.0063 62.5041 34.8637 61.8766 36.4342 61.8766H36.8749V61.6996C36.8749 61.1365 36.6666 60.9837 36.0737 60.9837C35.7531 60.9837 35.2483 61.0802 34.7355 61.2572L34.3589 60.1471C34.9919 59.8897 35.7531 59.7529 36.3301 59.7529C37.8846 59.7529 38.5416 60.3804 38.5416 61.6112V63.4774H38.5496ZM36.883 63.6142V62.7856H36.5945C35.9775 62.7856 35.689 63.0108 35.689 63.4613C35.689 63.8072 35.8733 64.0325 36.2019 64.0325C36.4903 64.0325 36.7307 63.8635 36.883 63.6142Z" fill="#191825"/>
<path d="M41.258 63.5016C41.258 63.7912 41.3542 63.8877 41.4984 63.8877C41.5625 63.8877 41.6586 63.8716 41.7308 63.8475L42.0513 65.0622C41.7949 65.1667 41.3862 65.2391 41.0016 65.2391C40.0881 65.2391 39.5513 64.7002 39.5513 63.6946V57.8947L41.266 57.7178V63.5016H41.258Z" fill="#191825"/>
<path d="M44.135 63.5016C44.135 63.7912 44.2311 63.8877 44.3753 63.8877C44.4394 63.8877 44.5356 63.8716 44.6077 63.8475L44.9282 65.0622C44.6718 65.1667 44.2632 65.2391 43.8785 65.2391C42.9651 65.2391 42.4282 64.7002 42.4282 63.6946V57.8947L44.143 57.7178V63.5016H44.135Z" fill="#191825"/>
<path d="M48.3975 65.0621C47.9808 66.4216 47.0273 67.1617 45.3687 67.2341L45.1844 66.0435C46.1779 65.939 46.5626 65.6735 46.827 65.0621H46.2421L44.7437 59.9219H46.5626L47.3398 63.9923L48.2372 59.9219H49.9921L48.3975 65.0621Z" fill="#191825"/>
<path d="M56.7148 60.4042L55.9937 61.4178C55.6892 61.1604 55.3847 61.0478 55.0642 61.0478C54.4552 61.0478 54.1107 61.4339 54.1107 62.5199C54.1107 63.6139 54.4953 63.8954 55.0402 63.8954C55.3767 63.8954 55.6171 63.7828 55.9536 63.5254L56.7148 64.6033C56.2501 64.9894 55.6892 65.2227 54.96 65.2227C53.3254 65.2227 52.3398 64.1368 52.3398 62.5199C52.3398 60.8869 53.3414 59.7285 54.912 59.7285C55.6652 59.7446 56.2341 59.9779 56.7148 60.4042Z" fill="#191825"/>
<path d="M59.0386 58.0957C59.0386 58.6266 58.638 59.0449 58.0611 59.0449C57.4841 59.0449 57.0835 58.6266 57.0835 58.0957C57.0835 57.5648 57.4841 57.1465 58.0611 57.1465C58.63 57.1545 59.0386 57.5648 59.0386 58.0957ZM57.1957 65.062V59.9217H58.9024V65.062H57.1957Z" fill="#191825"/>
<path d="M63.3736 59.8492L63.0932 61.5063C62.941 61.4581 62.7967 61.4259 62.6285 61.4259C62.0115 61.4259 61.7711 61.8925 61.6188 62.6165V65.0539H59.9121V59.9136H61.4025L61.5547 60.8869C61.7631 60.2032 62.2839 59.7607 62.8528 59.7607C63.0451 59.7688 63.1894 59.7929 63.3736 59.8492Z" fill="#191825"/>
<path d="M67.8286 60.4042L67.1075 61.4178C66.803 61.1604 66.4985 61.0478 66.178 61.0478C65.569 61.0478 65.2245 61.4339 65.2245 62.5199C65.2245 63.6139 65.6091 63.8954 66.1539 63.8954C66.4905 63.8954 66.7309 63.7828 67.0674 63.5254L67.8286 64.6033C67.3639 64.9894 66.803 65.2227 66.0738 65.2227C64.4392 65.2227 63.4536 64.1368 63.4536 62.5199C63.4536 60.8869 64.4552 59.7285 66.0257 59.7285C66.787 59.7446 67.3478 59.9779 67.8286 60.4042Z" fill="#191825"/>
<path d="M71.2901 65.0621L71.226 64.4508C70.8574 64.9817 70.3526 65.2311 69.6955 65.2311C68.718 65.2311 68.2612 64.5956 68.2612 63.6142V59.9219H69.968V63.397C69.968 63.8636 70.1202 63.9842 70.3686 63.9842C70.609 63.9842 70.8574 63.8072 71.0577 63.4694V59.9219H72.7644V65.0621H71.2901Z" fill="#191825"/>
<path d="M75.6172 58.0957C75.6172 58.6266 75.2166 59.0449 74.6397 59.0449C74.0628 59.0449 73.6621 58.6266 73.6621 58.0957C73.6621 57.5648 74.0628 57.1465 74.6397 57.1465C75.2166 57.1545 75.6172 57.5648 75.6172 58.0957ZM73.7823 65.062V59.9217H75.489V65.062H73.7823Z" fill="#191825"/>
<path d="M79.8959 64.8118C79.4792 65.1014 78.9023 65.2381 78.4376 65.2381C77.2276 65.2381 76.6587 64.5544 76.6587 63.2673V61.0953H75.9937V59.9209H76.6587V58.8349L78.3654 58.6338V59.9289H79.5273L79.351 61.1034H78.3574V63.2512C78.3574 63.7338 78.5177 63.8867 78.7981 63.8867C78.9584 63.8867 79.1347 63.8465 79.319 63.7419L79.8959 64.8118Z" fill="#191825"/>
<path d="M55 76.7263C55 76.7263 25.2964 71.3287 24.7756 57.5811C23.7179 57.7661 22.6602 57.9672 21.6025 58.1683C22.7323 73.6856 51.1298 79.2925 54.4311 79.8958L55 80.0004L55.5689 79.8958C58.8702 79.3005 87.2676 73.6856 88.3974 58.1683C87.3397 57.9672 86.282 57.7661 85.2243 57.5811C84.7035 71.3287 55 76.7263 55 76.7263Z" fill="#3D72FC"/>
<path d="M24.7598 10.7954C24.7598 10.7954 34.7518 3.22574 55.0082 3.22574C75.2566 3.22574 85.2566 10.7954 85.2566 10.7954V36.915C86.3223 37.084 87.396 37.2529 88.4617 37.4379V9.18653L87.1877 8.22122C86.747 7.88336 76.098 0 55.0082 0C33.9185 0 23.2774 7.88336 22.8287 8.22122L21.5547 9.18653V37.4379C22.6204 37.2529 23.6941 37.0759 24.7598 36.915V10.7954Z" fill="#3D72FC"/>
<path d="M8.88623 40.0447C10.4648 46.6571 12.0513 53.2694 13.6298 59.8818C40.8253 53.3258 69.1747 53.3258 96.3702 59.8818C97.9487 53.2694 99.5353 46.6571 101.114 40.0447C70.8013 32.7325 39.1987 32.7325 8.88623 40.0447ZM82.3478 43.1176C82.8285 43.19 83.1571 43.6324 83.093 44.1151C83.0289 44.5978 82.5801 44.9195 82.0994 44.8471C81.6186 44.7747 81.2981 44.3403 81.3622 43.8657C81.4343 43.3911 81.867 43.0533 82.3478 43.1176ZM56.891 41.1387C57.3718 41.1468 57.7644 41.549 57.7564 42.0316C57.7484 42.5143 57.3478 42.8924 56.867 42.8843C56.3862 42.8763 56.0096 42.4821 56.0176 41.9995C56.0176 41.5249 56.4023 41.1307 56.891 41.1387ZM21.3542 51.6445C21.3221 53.366 20.8974 54.5324 19.1266 54.8783C18.101 55.0794 17.484 54.4278 17.3398 53.6877C17.1955 52.9557 17.508 52.1191 18.3574 51.9502C18.7901 51.8617 19.4151 51.7732 19.5513 52.465C19.5753 52.5857 19.5833 52.7385 19.5753 52.9075C19.2628 52.7305 19.0866 52.7144 18.8702 52.7546C18.3734 52.8511 18.1971 53.3258 18.2773 53.728C18.3494 54.106 18.6458 54.4198 19.1026 54.3313C19.5833 54.2348 19.8878 53.9532 19.9199 52.7868L19.968 50.7677C19.4071 51.2262 18.8301 51.3951 18.734 51.4193C16.9792 51.7652 16.1699 50.6068 15.8734 49.1106C15.4648 47.0512 16.4664 44.6702 18.8622 44.1955C19.8638 43.9944 20.9455 44.1955 21.1458 45.2493C21.258 45.8205 21.1378 46.287 20.5849 46.3916C20.4167 46.4238 20.0401 46.456 19.7837 46.2549C20.0401 46.1262 20.1362 45.547 20.0801 45.2735C20.0481 45.1045 19.8718 44.5173 19.1907 44.6541C18.0048 44.8873 17.2035 47.1478 17.5401 48.8692C17.7324 49.8265 18.2452 50.5827 19.1426 50.4057C19.5433 50.3253 19.8157 50.1724 19.976 49.8265L20.0401 47.6948L21.4263 47.4213L21.3542 51.6445ZM25.3926 47.4052C24.7837 47.5098 24.968 46.7375 24.6474 46.7938C24.3189 46.8501 24.1667 46.9949 23.9583 47.2684L23.7741 51.6767L22.2196 51.9421L22.4519 46.3192L24.0064 46.0538L23.9824 46.6169C24.3189 46.2468 24.7116 45.9331 25.1683 45.8607C25.6571 45.7803 25.9936 46.0135 26.0657 46.4238C26.1298 46.8019 25.9215 47.3167 25.3926 47.4052ZM41.7388 48.467C41.8109 48.459 41.9391 48.4509 42.0192 48.4107C41.7949 49.3841 41.3382 49.4806 40.9696 49.5128C40.3366 49.5691 39.968 49.2634 39.8157 48.7808C39.5273 49.2554 39.0705 49.738 38.4135 49.7943C37.7324 49.8506 37.3478 49.5691 37.1394 49.191C36.8029 49.5852 36.4263 49.923 36.0016 49.9713C35.1523 50.0678 34.6074 49.7541 34.5192 48.9336C34.5032 48.7566 34.5032 48.5797 34.5192 48.3705L34.7116 46.3514C34.7196 46.2468 34.7196 46.1503 34.7116 46.0618C34.6715 45.6676 34.4311 45.4424 34.1346 45.4746C33.8702 45.5068 33.6859 45.6033 33.4696 45.7803L33.0369 50.3092L31.4664 50.4861L31.5224 49.9391C31.1779 50.3011 30.8173 50.5907 30.4808 50.639C29.7757 50.7436 29.2628 50.5505 29.0385 50.0035C28.774 50.4942 28.3494 51.0171 27.6843 51.1136C26.6426 51.2664 26.234 50.5666 26.1378 49.923C25.8734 48.0487 26.226 45.6998 28.3974 45.3861C28.6619 45.3459 28.9423 45.4183 29.1667 45.555L29.1907 45.2654L30.7532 45.0402L30.4968 48.8612C30.4888 48.9819 30.4888 49.1106 30.5048 49.2071C30.5369 49.4484 30.6731 49.6093 31.1058 49.545C31.258 49.5208 31.4263 49.4163 31.5866 49.2715L32.0192 44.8793L33.5898 44.7023L33.5257 45.3056C33.9343 44.9276 34.4071 44.6058 34.8878 44.5575C35.4728 44.4932 36.2099 45.0482 36.2981 45.7883C36.3061 45.8768 36.3141 45.9653 36.3061 46.0538L36.0898 48.1935C36.0737 48.3142 36.0657 48.4429 36.0737 48.5475C36.0978 48.7888 36.242 48.9416 36.6667 48.8934C36.7949 48.8773 36.891 48.829 36.9792 48.7727C36.9632 48.6923 36.9471 48.6038 36.9391 48.5233C36.7789 46.6329 37.2676 44.3162 39.4551 44.1312C39.7196 44.1071 40 44.2036 40.2083 44.3403L40.4968 42.0397L42.0833 41.6857L41.3221 47.7189C41.2981 47.8557 41.2901 47.9763 41.2981 48.097C41.3301 48.3222 41.4263 48.4912 41.7388 48.467ZM47.7564 45.9814H47.7003L47.1555 49.1428L45.5769 49.2071L46.7869 42.1443L48.3975 41.8627L47.7644 45.5711C48.8542 45.4424 49.6234 43.9542 49.5753 42.7878C49.5433 41.9753 49.1186 41.3077 48.1571 41.3479C46.3782 41.4203 45.3526 42.466 45.4247 44.1392C45.4487 44.7023 45.593 44.7828 45.609 44.8793C44.8558 44.9115 44.4231 44.6541 44.391 43.8577C44.335 42.3936 46.2981 40.9135 48.125 40.8411C49.9199 40.7687 50.7532 41.7742 50.8013 42.9085C50.8654 44.3001 49.7356 45.9009 47.7564 45.9814ZM54.2148 45.0321C53.5978 45.0402 53.9023 44.3082 53.5737 44.3162C53.2452 44.3162 53.0689 44.4449 52.8205 44.6782L51.9551 49.006L50.3766 49.0221L51.4744 43.5037L53.0529 43.4876L52.9407 44.0427C53.3333 43.729 53.766 43.4796 54.2308 43.4796C54.7276 43.4716 55.0241 43.7531 55.0321 44.1714C55.0321 44.5495 54.7516 45.0321 54.2148 45.0321ZM60.0321 49.0382C59.1667 49.0221 58.9423 48.8129 58.6939 47.727C57.8125 48.4509 56.9151 48.9819 56.25 48.9738C55.3926 48.9577 54.8638 48.5716 54.8798 47.735C54.8798 47.5661 54.9119 47.3811 54.9519 47.188L55.7933 43.4555L57.3798 43.4876L56.5225 47.2202C56.4984 47.3167 56.4503 47.5259 56.4503 47.7028C56.4503 47.92 56.4984 48.1131 56.6987 48.1131C57.1474 48.1211 57.8606 47.735 58.5817 47.1639L57.8606 43.4957L59.4471 43.5279L59.9119 45.9251C60.5529 45.2333 61.0337 44.5173 61.1458 43.9864C61.0817 43.9944 61.0096 44.0025 60.9616 44.0025C60.5769 43.9944 60.4487 43.7209 60.4567 43.375C60.4648 42.9969 60.8173 42.8441 61.2099 42.8522C61.5305 42.8602 61.7548 43.182 61.7468 43.7209C61.7388 44.2518 61.2019 45.2091 60.0321 46.464L60.2003 47.3408C60.2885 47.7913 60.3446 48.0487 60.8333 48.0568C61.2741 48.0648 61.851 47.4615 62.2997 47.1156L62.6763 47.1236C62.1475 47.6143 60.8814 49.0543 60.0321 49.0382ZM69.6555 49.553C69.1907 49.6576 68.8221 49.6898 68.5577 49.6656C67.8446 49.6174 67.7244 49.2312 67.7484 48.8692C67.7965 48.1453 68.4535 46.8501 68.5096 46.0135C68.5417 45.5711 68.3974 45.2574 67.9007 45.2252C67.8045 45.2172 67.6843 45.2252 67.5481 45.2493L66.4023 49.3358L64.8237 49.2312L66.7709 42.3373L68.4055 42.2247L67.6923 44.7426L67.7885 44.7506C68.6939 44.8069 69.4151 43.7853 69.4712 42.9326C69.5112 42.3132 69.1987 41.7581 68.3414 41.7018C66.5705 41.5812 65.3205 42.5062 65.2083 44.1795C65.1683 44.7425 65.3125 44.8391 65.3125 44.9356C64.5593 44.8873 64.1587 44.5817 64.2067 43.7933C64.3029 42.3293 66.4103 41.0663 68.2372 41.187C69.968 41.2996 70.6651 42.2086 70.609 43.1096C70.5689 43.7772 70.0882 44.5254 69.3029 44.9115C69.8638 45.1126 70.0241 45.547 69.984 46.0618C69.9279 46.9628 69.3109 48.1292 69.2628 48.8129C69.2548 49.1267 69.3991 49.4323 69.6555 49.553ZM91.0577 53.4866C90.4327 54.9668 89.4471 55.0794 88.734 54.9346C88.0769 54.8059 87.5561 54.2187 87.6923 53.5188C87.8846 52.5374 88.7099 52.5294 89.7516 52.5294L89.992 51.9743C89.6154 52.1674 89.1587 52.28 88.6619 52.1835C87.9968 52.0548 87.7003 51.6767 87.5962 51.2584C87.1715 51.5399 86.7148 51.7571 86.3061 51.6847C85.4648 51.548 85.0241 51.0895 85.1603 50.277C85.1923 50.1 85.2404 49.9311 85.3205 49.73L86.0577 47.8396C86.0978 47.7431 86.1218 47.6465 86.1378 47.5661C86.2019 47.1719 86.0417 46.8904 85.7452 46.8421C85.4888 46.8019 85.2805 46.8421 85.0241 46.9547L83.3814 51.194L81.8269 50.9366L82.0753 50.2931C81.5785 50.6068 81.0657 50.8562 80.6731 50.7999C79.8718 50.6872 79.4151 50.2609 79.4792 49.5047C78.9423 49.9954 78.1891 50.462 76.9712 50.3092C76.3462 50.2287 75.9135 49.923 75.7452 49.3197C75.2164 49.7058 74.6474 50.0357 74.2148 49.9874C73.5016 49.915 73.0529 49.6093 72.9648 49.0221C72.5962 49.4404 72.0593 49.8426 71.3942 49.7702C70.3446 49.6656 70.1122 48.8934 70.1763 48.2418C70.3606 46.3594 71.258 44.1634 73.4455 44.3806C73.7099 44.4047 73.9664 44.5414 74.1507 44.7265L74.2468 44.4449L75.8173 44.5978L74.6635 48.2498C74.6314 48.3705 74.5994 48.4831 74.5834 48.5877C74.5593 48.829 74.6555 49.014 75.0882 49.0543C75.2644 49.0704 75.4648 48.9899 75.6731 48.8773C75.6651 48.7084 75.6651 48.5233 75.6891 48.3142C75.8894 46.7134 76.835 44.6943 78.9503 44.9597C79.5353 45.0321 80.1282 45.2654 80.0561 45.8607C80.0401 45.9814 80.016 46.0779 79.96 46.2146C79.9119 46.1744 79.8237 46.1342 79.6955 46.1181C79.5994 46.102 79.4872 46.1181 79.3349 46.1422C79.383 46.0296 79.4151 45.9331 79.4311 45.8446C79.4632 45.5791 79.3109 45.4504 79.0705 45.4263C78.1571 45.3137 77.3478 47.0191 77.1955 48.2016C77.1154 48.8451 77.1795 49.3921 77.8446 49.4726C78.5096 49.553 79.0946 49.2795 79.6154 48.8773C79.6154 48.8692 79.6154 48.8692 79.6154 48.8612L80.9295 45.2654L82.492 45.4907L81.1779 49.0864C81.1378 49.2071 81.0978 49.3197 81.0898 49.4163C81.0577 49.6576 81.1378 49.8426 81.5705 49.907C81.7789 49.9391 82.0273 49.8346 82.2917 49.6817L83.8542 45.6837L85.4167 45.9411L85.1923 46.5042C85.6891 46.2549 86.234 46.0779 86.7067 46.1503C87.2917 46.2468 87.8446 46.9869 87.7244 47.7189C87.7083 47.8074 87.6923 47.8959 87.6603 47.9763L86.875 49.9793C86.8189 50.092 86.7789 50.2126 86.7628 50.3172C86.7228 50.5585 86.8189 50.7355 87.2356 50.8079C87.3558 50.832 87.4599 50.816 87.5561 50.7838C87.5641 50.6953 87.5721 50.6068 87.5882 50.5264C87.8766 49.0301 88.9583 46.5525 91.0497 46.9628C91.4343 47.0432 91.7067 47.3248 91.8109 47.6385L92.0192 47.1397L93.5817 47.4454L91.0577 53.4866Z" fill="#FF8F1F"/>
<path d="M27.5641 49.408C27.6603 50.0595 28.0369 50.1319 28.3013 50.0917C28.5497 50.0595 28.758 49.778 28.9183 49.4482C28.9103 49.3356 28.9183 49.2149 28.9343 49.0781L29.1346 46.1018C28.9423 45.9731 28.726 45.957 28.5737 45.9811C27.7644 46.0937 27.3558 47.9198 27.5641 49.408Z" fill="#FF8F1F"/>
<path d="M91.0658 47.6132C90.0242 47.404 89.1508 49.6725 88.9665 50.6056C88.8623 51.1285 89.1427 51.3457 89.6235 51.4422C89.8318 51.4824 90.0722 51.3698 90.3206 51.2089L91.6027 48.2084C91.4905 47.8464 91.2501 47.6534 91.0658 47.6132Z" fill="#FF8F1F"/>
<path d="M71.6826 48.1042C71.6185 48.7638 71.963 48.9167 72.2435 48.9408C72.4919 48.9649 72.7563 48.7477 72.9967 48.4581C73.0207 48.3536 73.0528 48.2329 73.1009 48.1042L73.9983 45.2565C73.838 45.0876 73.6377 45.0232 73.4855 45.0072C72.6602 44.9348 71.8348 46.608 71.6826 48.1042Z" fill="#FF8F1F"/>
<path d="M38.3897 48.0963C38.4458 48.7559 38.8144 48.8444 39.0868 48.8203C39.3352 48.7962 39.5516 48.5387 39.7278 48.225C39.7278 48.1044 39.7439 47.9837 39.7599 47.8469L40.1445 44.8786C39.9602 44.7499 39.7439 44.7258 39.5916 44.7338C38.7743 44.8062 38.2695 46.6081 38.3897 48.0963Z" fill="#FF8F1F"/>
<path d="M110 53.5262L99.5031 51.0244L97.0993 61.0636L96.1457 60.8303C94.2066 60.3638 92.2595 59.9374 90.3044 59.5352L87.9727 69.2044L105.216 73.3472L102.868 61.6509L110 53.5262Z" fill="#FF8F1F"/>
<path d="M0 53.5262L10.4968 51.0244L12.9006 61.0636L13.8542 60.8303C15.7933 60.3638 17.7404 59.9374 19.6955 59.5352L22.0272 69.2044L4.78365 73.3472L7.13141 61.6509L0 53.5262Z" fill="#FF8F1F"/>
<path d="M88.7662 53.9451C88.9905 53.9934 89.303 53.8406 89.5675 53.2292L89.7117 52.8833C89.0066 52.8672 88.5178 52.9155 88.4056 53.5027C88.3736 53.6475 88.5258 53.8969 88.7662 53.9451Z" fill="#74757B"/>
</svg>
