<svg width="108" height="80" viewBox="0 0 108 80" fill="none" xmlns="http://www.w3.org/2000/svg">
<path d="M81.3493 40.2506C81.3493 55.4597 69.1076 67.7904 54.0082 67.7904C38.9087 67.7904 26.667 55.4597 26.667 40.2506C26.667 25.0416 38.9087 12.7109 54.0082 12.7109C69.1076 12.7029 81.3493 25.0416 81.3493 40.2506ZM54.0001 16.0422C40.7229 16.0422 29.9662 26.877 29.9662 40.2506C29.9662 53.6243 40.7229 64.4591 54.0001 64.4591C67.2774 64.4591 78.034 53.6243 78.034 40.2506C78.034 26.877 67.2774 16.0422 54.0001 16.0422Z" fill="#FF8F1F"/>
<path d="M55.0839 42.0773C54.0805 42.6837 52.7881 42.3522 52.186 41.3415C51.584 40.3308 51.9131 39.029 52.9165 38.4226C53.9199 37.8162 55.2123 38.1477 55.8144 39.1584C56.4164 40.1691 56.0873 41.4709 55.0839 42.0773Z" fill="#FF8F1F"/>
<path d="M54.2892 16.6152H53.7192V21.224H54.2892V16.6152Z" fill="#FF8F1F"/>
<path d="M52.3591 17.073L52.0229 17.0996L52.1704 18.9858L52.5065 18.9591L52.3591 17.073Z" fill="#FF8F1F"/>
<path d="M50.564 17.272L50.231 17.3252L50.5249 19.194L50.8579 19.1408L50.564 17.272Z" fill="#FF8F1F"/>
<path d="M48.7898 17.6141L48.4619 17.6934L48.9005 19.5332L49.2284 19.4539L48.7898 17.6141Z" fill="#FF8F1F"/>
<path d="M47.0448 18.1011L46.7241 18.2061L47.3045 20.0056L47.6252 19.9006L47.0448 18.1011Z" fill="#FF8F1F"/>
<path d="M43.6774 19.465L43.377 19.6191L44.2297 21.3049L44.5301 21.1508L43.6774 19.465Z" fill="#FF8F1F"/>
<path d="M42.0887 20.3626L41.8013 20.54L42.7827 22.1532L43.0702 21.9758L42.0887 20.3626Z" fill="#FF8F1F"/>
<path d="M40.576 21.3541L40.3032 21.5537L41.4073 23.0844L41.6801 22.8848L40.576 21.3541Z" fill="#FF8F1F"/>
<path d="M39.1568 22.4659L38.9004 22.6865L40.1204 24.1252L40.3768 23.9047L39.1568 22.4659Z" fill="#FF8F1F"/>
<path d="M36.569 25.0338L36.3501 25.292L37.7784 26.5207L37.9974 26.2625L36.569 25.0338Z" fill="#FF8F1F"/>
<path d="M35.4492 26.4655L35.251 26.7402L36.7706 27.8524L36.9688 27.5776L35.4492 26.4655Z" fill="#FF8F1F"/>
<path d="M34.4291 27.9741L34.2529 28.2637L35.8545 29.2523L36.0306 28.9627L34.4291 27.9741Z" fill="#FF8F1F"/>
<path d="M33.5349 29.5548L33.3818 29.8574L35.0555 30.7164L35.2086 30.4138L33.5349 29.5548Z" fill="#FF8F1F"/>
<path d="M32.1188 32.9055L32.0146 33.2285L33.8012 33.8132L33.9054 33.4902L32.1188 32.9055Z" fill="#FF8F1F"/>
<path d="M31.6095 34.6522L31.5308 34.9824L33.3573 35.424L33.436 35.0938L31.6095 34.6522Z" fill="#FF8F1F"/>
<path d="M31.2539 36.4429L31.2012 36.7783L33.0565 37.0742L33.1092 36.7388L31.2539 36.4429Z" fill="#FF8F1F"/>
<path d="M31.0274 38.263L31.001 38.6016L32.8736 38.7501L32.9 38.4115L31.0274 38.263Z" fill="#FF8F1F"/>
<path d="M32.8672 41.754L30.9946 41.9023L31.0211 42.2409L32.8936 42.0926L32.8672 41.754Z" fill="#FF8F1F"/>
<path d="M33.053 43.415L31.1978 43.7109L31.2505 44.0464L33.1058 43.7504L33.053 43.415Z" fill="#FF8F1F"/>
<path d="M33.3764 45.0582L31.5498 45.5L31.6285 45.8302L33.4551 45.3884L33.3764 45.0582Z" fill="#FF8F1F"/>
<path d="M33.8066 46.6839L32.02 47.2686L32.1242 47.5915L33.9108 47.0069L33.8066 46.6839Z" fill="#FF8F1F"/>
<path d="M35.053 49.7758L33.3794 50.6348L33.5325 50.9374L35.2061 50.0784L35.053 49.7758Z" fill="#FF8F1F"/>
<path d="M35.8476 51.2438L34.2461 52.2324L34.4223 52.522L36.0238 51.5334L35.8476 51.2438Z" fill="#FF8F1F"/>
<path d="M36.7633 52.6408L35.2437 53.7529L35.4418 54.0277L36.9615 52.9155L36.7633 52.6408Z" fill="#FF8F1F"/>
<path d="M37.7799 53.9774L36.3516 55.2061L36.5705 55.4643L37.9988 54.2356L37.7799 53.9774Z" fill="#FF8F1F"/>
<path d="M70.2165 53.9713L69.9976 54.2295L71.4259 55.4584L71.6449 55.2001L70.2165 53.9713Z" fill="#FF8F1F"/>
<path d="M71.2245 52.6452L71.0264 52.9199L72.546 54.0321L72.7442 53.7573L71.2245 52.6452Z" fill="#FF8F1F"/>
<path d="M72.1571 51.2417L71.981 51.5312L73.5827 52.5198L73.7588 52.2303L72.1571 51.2417Z" fill="#FF8F1F"/>
<path d="M72.9485 49.7853L72.7954 50.0879L74.4691 50.9469L74.6221 50.6443L72.9485 49.7853Z" fill="#FF8F1F"/>
<path d="M74.194 46.6682L74.0898 46.9912L75.8764 47.5759L75.9806 47.2529L74.194 46.6682Z" fill="#FF8F1F"/>
<path d="M74.6344 45.0555L74.5557 45.3857L76.3822 45.8273L76.4609 45.4971L74.6344 45.0555Z" fill="#FF8F1F"/>
<path d="M74.9482 43.4165L74.8955 43.752L76.7508 44.0479L76.8035 43.7124L74.9482 43.4165Z" fill="#FF8F1F"/>
<path d="M75.128 41.7581L75.1016 42.0967L76.9741 42.2452L77.0006 41.9067L75.128 41.7581Z" fill="#FF8F1F"/>
<path d="M76.9688 38.254L75.0962 38.4023L75.1226 38.7409L76.9952 38.5926L76.9688 38.254Z" fill="#FF8F1F"/>
<path d="M76.7532 36.4521L74.8979 36.748L74.9507 37.0835L76.806 36.7876L76.7532 36.4521Z" fill="#FF8F1F"/>
<path d="M76.39 34.6648L74.5635 35.1064L74.6422 35.4367L76.4687 34.9951L76.39 34.6648Z" fill="#FF8F1F"/>
<path d="M75.8881 32.9144L74.1016 33.499L74.2057 33.822L75.9923 33.2374L75.8881 32.9144Z" fill="#FF8F1F"/>
<path d="M74.4671 29.5502L72.7935 30.4092L72.9465 30.7118L74.6202 29.8528L74.4671 29.5502Z" fill="#FF8F1F"/>
<path d="M73.5678 27.9626L71.9663 28.9512L72.1425 29.2407L73.744 28.2521L73.5678 27.9626Z" fill="#FF8F1F"/>
<path d="M72.5519 26.4591L71.0322 27.5713L71.2304 27.846L72.75 26.7339L72.5519 26.4591Z" fill="#FF8F1F"/>
<path d="M71.4171 25.0438L69.9888 26.2725L70.2077 26.5307L71.636 25.302L71.4171 25.0438Z" fill="#FF8F1F"/>
<path d="M68.8548 22.4734L67.6348 23.9121L67.8911 24.1327L69.1112 22.694L68.8548 22.4734Z" fill="#FF8F1F"/>
<path d="M67.4171 21.358L66.313 22.8887L66.5857 23.0883L67.6899 21.5576L67.4171 21.358Z" fill="#FF8F1F"/>
<path d="M65.9042 20.3611L64.9233 21.9746L65.2109 22.1519L66.1918 20.5384L65.9042 20.3611Z" fill="#FF8F1F"/>
<path d="M64.317 19.4775L63.4639 21.1631L63.7642 21.3173L64.6174 19.6317L64.317 19.4775Z" fill="#FF8F1F"/>
<path d="M60.9667 18.096L60.3862 19.8955L60.7069 20.0004L61.2873 18.2009L60.9667 18.096Z" fill="#FF8F1F"/>
<path d="M59.226 17.6279L58.7876 19.4678L59.1154 19.547L59.5539 17.7072L59.226 17.6279Z" fill="#FF8F1F"/>
<path d="M57.4341 17.2767L57.1401 19.1455L57.4731 19.1987L57.7671 17.3299L57.4341 17.2767Z" fill="#FF8F1F"/>
<path d="M55.6453 17.0894L55.498 18.9756L55.8341 19.0022L55.9814 17.116L55.6453 17.0894Z" fill="#FF8F1F"/>
<path d="M45.2883 18.3008L44.7617 18.5205L46.5128 22.7786L47.0394 22.5589L45.2883 18.3008Z" fill="#FF8F1F"/>
<path d="M37.6066 23.3314L37.2036 23.7373L40.439 26.9962L40.842 26.5903L37.6066 23.3314Z" fill="#FF8F1F"/>
<path d="M32.432 30.9364L32.2139 31.4668L36.4413 33.2306L36.6594 32.7002L32.432 30.9364Z" fill="#FF8F1F"/>
<path d="M35.1117 39.959H30.5361V40.5331H35.1117V39.959Z" fill="#FF8F1F"/>
<path d="M36.4466 47.2626L32.2192 49.0264L32.4374 49.5568L36.6647 47.793L36.4466 47.2626Z" fill="#FF8F1F"/>
<path d="M40.4405 53.4926L37.2056 56.752L37.6086 57.1578L40.8436 53.8985L40.4405 53.4926Z" fill="#FF8F1F"/>
<path d="M67.5544 53.4993L67.1514 53.9053L70.3868 57.1642L70.7898 56.7582L67.5544 53.4993Z" fill="#FF8F1F"/>
<path d="M71.5716 47.2655L71.3535 47.7959L75.5809 49.5597L75.799 49.0293L71.5716 47.2655Z" fill="#FF8F1F"/>
<path d="M77.4721 39.959H72.8965V40.5331H77.4721V39.959Z" fill="#FF8F1F"/>
<path d="M75.5814 30.9374L71.354 32.7012L71.5721 33.2316L75.7995 31.4678L75.5814 30.9374Z" fill="#FF8F1F"/>
<path d="M70.396 23.3358L67.1606 26.5947L67.5637 27.0007L70.7991 23.7418L70.396 23.3358Z" fill="#FF8F1F"/>
<path d="M62.7325 18.2937L60.981 22.5518L61.5075 22.7715L63.2591 18.5134L62.7325 18.2937Z" fill="#FF8F1F"/>
<path d="M43.4363 52.5553C43.4363 53.3962 43.0911 53.8732 42.465 53.8732C41.8388 53.8732 41.4937 53.3962 41.4937 52.5553C41.4937 51.7063 41.8388 51.2373 42.465 51.2373C43.0911 51.2373 43.4363 51.7144 43.4363 52.5553ZM42.1599 52.5553C42.1599 53.2021 42.2402 53.3881 42.465 53.3881C42.6817 53.3881 42.77 53.2102 42.77 52.5553C42.77 51.8922 42.6897 51.7224 42.465 51.7224C42.2402 51.7224 42.1599 51.9165 42.1599 52.5553Z" fill="#FF8F1F"/>
<path d="M39.5348 46.8092C39.5348 47.0679 39.4304 47.262 38.8765 47.7471H39.5749L39.5187 48.1029H38.3547V47.7795C38.9327 47.2135 39.0612 47.0599 39.0612 46.8658C39.0612 46.7364 38.9809 46.6556 38.8605 46.6556C38.7401 46.6556 38.6518 46.7122 38.5554 46.8335L38.2905 46.6152C38.427 46.4292 38.6357 46.2998 38.9086 46.2998C39.318 46.3079 39.5348 46.5424 39.5348 46.8092Z" fill="#FF8F1F"/>
<path d="M41.0761 47.2216C41.0761 47.8118 40.8353 48.1433 40.3938 48.1433C39.9523 48.1433 39.7114 47.8118 39.7114 47.2216C39.7114 46.6313 39.9523 46.2998 40.3938 46.2998C40.8433 46.3079 41.0761 46.6313 41.0761 47.2216ZM40.185 47.2216C40.185 47.6744 40.2412 47.8037 40.4018 47.8037C40.5543 47.8037 40.6105 47.6825 40.6105 47.2216C40.6105 46.7526 40.5543 46.6394 40.4018 46.6394C40.2412 46.6394 40.185 46.7769 40.185 47.2216Z" fill="#FF8F1F"/>
<path d="M38.114 41.2366V41.7541H37.4718V41.2366H36.4282V40.8L37.1266 39.1748L37.6885 39.3769L37.1106 40.7434H37.4959L37.5681 40.1693H38.13V40.7434H38.3949V41.2286H38.114V41.2366Z" fill="#FF8F1F"/>
<path d="M40.5139 40.5006C40.5139 41.3415 40.1687 41.8185 39.5426 41.8185C38.9165 41.8185 38.5713 41.3415 38.5713 40.5006C38.5713 39.6516 38.9165 39.1826 39.5426 39.1826C40.1687 39.1907 40.5139 39.6597 40.5139 40.5006ZM39.2376 40.5006C39.2376 41.1474 39.3178 41.3334 39.5426 41.3334C39.7593 41.3334 39.8476 41.1555 39.8476 40.5006C39.8476 39.8376 39.7674 39.6678 39.5426 39.6678C39.3178 39.6678 39.2376 39.8618 39.2376 40.5006Z" fill="#FF8F1F"/>
<path d="M39.2781 35.1876C39.2781 35.5353 39.0372 35.8345 38.6279 35.8345C38.1542 35.8345 37.9375 35.4949 37.9375 34.9936C37.9375 34.3952 38.2425 33.999 38.7322 33.999C38.9008 33.999 39.0372 34.0475 39.1416 34.1122L38.973 34.3871C38.9008 34.3467 38.8366 34.3225 38.7402 34.3225C38.5636 34.3225 38.4432 34.468 38.4191 34.751C38.5235 34.654 38.6519 34.6135 38.7723 34.6135C39.0694 34.5974 39.2781 34.8157 39.2781 35.1876ZM38.8205 35.1957C38.8205 34.9855 38.7643 34.9127 38.6359 34.9127C38.5636 34.9127 38.4834 34.9531 38.4191 35.0178C38.4191 35.3817 38.4673 35.511 38.6279 35.511C38.7643 35.511 38.8205 35.3817 38.8205 35.1957Z" fill="#FF8F1F"/>
<path d="M40.7792 34.913C40.7792 35.5032 40.5384 35.8347 40.0969 35.8347C39.6554 35.8347 39.4146 35.5032 39.4146 34.913C39.4146 34.3227 39.6554 33.9912 40.0969 33.9912C40.5384 33.9912 40.7792 34.3227 40.7792 34.913ZM39.8801 34.913C39.8801 35.3658 39.9363 35.4951 40.0969 35.4951C40.2494 35.4951 40.3056 35.3739 40.3056 34.913C40.3056 34.444 40.2494 34.3308 40.0969 34.3308C39.9443 34.3308 39.8801 34.4683 39.8801 34.913Z" fill="#FF8F1F"/>
<path d="M42.3446 29.7785C42.3446 30.1747 41.9914 30.5224 41.3412 30.5224C40.715 30.5224 40.3618 30.1828 40.3618 29.7866C40.3618 29.4955 40.5304 29.2933 40.8114 29.1721C40.5545 29.0103 40.4582 28.792 40.4582 28.5737C40.4582 28.1775 40.8194 27.8945 41.3572 27.8945C41.887 27.8945 42.2563 28.1371 42.2563 28.5495C42.2563 28.7516 42.1359 28.9618 41.8629 29.1155C42.2001 29.2772 42.3446 29.4955 42.3446 29.7785ZM41.6944 29.7704C41.6944 29.5844 41.598 29.5036 41.3572 29.4065L41.2288 29.358C41.0843 29.447 41.012 29.5844 41.012 29.7542C41.012 29.9402 41.1485 30.0615 41.3572 30.0615C41.59 30.0615 41.6944 29.924 41.6944 29.7704ZM41.0843 28.5818C41.0843 28.7274 41.1646 28.8244 41.3412 28.9052L41.4214 28.9457C41.582 28.8244 41.6141 28.7112 41.6141 28.5818C41.6141 28.4363 41.5258 28.3312 41.3492 28.3312C41.1967 28.3312 41.0843 28.412 41.0843 28.5818Z" fill="#FF8F1F"/>
<path d="M44.4958 29.2047C44.4958 30.0456 44.1507 30.5226 43.5245 30.5226C42.8984 30.5226 42.5532 30.0456 42.5532 29.2047C42.5532 28.3557 42.8984 27.8867 43.5245 27.8867C44.1507 27.8867 44.4958 28.3638 44.4958 29.2047ZM43.2275 29.2047C43.2275 29.8515 43.3078 30.0375 43.5326 30.0375C43.7493 30.0375 43.8376 29.8596 43.8376 29.2047C43.8376 28.5417 43.7573 28.3719 43.5326 28.3719C43.3078 28.3719 43.2275 28.5659 43.2275 29.2047Z" fill="#FF8F1F"/>
<path d="M64.0103 30.458V28.5821L63.4885 28.9056L63.2075 28.4689L64.0664 27.9434H64.6444V30.4499H64.0103V30.458Z" fill="#FF8F1F"/>
<path d="M66.9481 29.6006C66.9481 30.1019 66.6029 30.5224 66.0169 30.5224C65.3346 30.5224 65.0376 30.0372 65.0376 29.3176C65.0376 28.4605 65.4711 27.8945 66.1695 27.8945C66.4103 27.8945 66.611 27.9673 66.7474 28.0643L66.5146 28.4524C66.4183 28.3958 66.3139 28.3554 66.1855 28.3554C65.9367 28.3554 65.7601 28.5656 65.728 28.9618C65.8805 28.8244 66.0571 28.7597 66.2337 28.7597C66.6511 28.7597 66.9481 29.067 66.9481 29.6006ZM66.2979 29.6087C66.2979 29.3014 66.2096 29.2044 66.033 29.2044C65.9367 29.2044 65.8163 29.2529 65.728 29.358C65.728 29.8755 65.8002 30.0615 66.025 30.0615C66.2096 30.0615 66.2979 29.8836 66.2979 29.6087Z" fill="#FF8F1F"/>
<path d="M69.0915 29.2047C69.0915 30.0456 68.7544 30.5226 68.1202 30.5226C67.4861 30.5226 67.1489 30.0456 67.1489 29.2047C67.1489 28.3557 67.4941 27.8867 68.1202 27.8867C68.7464 27.8867 69.0915 28.3638 69.0915 29.2047ZM67.8152 29.2047C67.8152 29.8515 67.8955 30.0375 68.1202 30.0375C68.337 30.0375 68.4253 29.8596 68.4253 29.2047C68.4253 28.5417 68.345 28.3719 68.1202 28.3719C67.8955 28.3719 67.8152 28.5659 67.8152 29.2047Z" fill="#FF8F1F"/>
<path d="M66.8116 35.7858V34.476L66.4424 34.7024L66.2417 34.3951L66.8438 34.0312H67.2531V35.7858H66.8116Z" fill="#FF8F1F"/>
<path d="M68.9068 35.3092C68.9068 35.5922 68.658 35.8347 68.2004 35.8347C67.7669 35.8347 67.5181 35.6003 67.5181 35.3173C67.5181 35.1151 67.6385 34.9696 67.8311 34.8887C67.6545 34.7755 67.5823 34.6219 67.5823 34.4683C67.5823 34.1933 67.8392 33.9912 68.2084 33.9912C68.5777 33.9912 68.8346 34.161 68.8346 34.444C68.8346 34.5895 68.7543 34.7351 68.5616 34.8402C68.8024 34.9615 68.9068 35.1151 68.9068 35.3092ZM68.4492 35.3092C68.4492 35.1798 68.385 35.1232 68.2165 35.0504L68.1282 35.0181C68.0238 35.0828 67.9756 35.1798 67.9756 35.293C67.9756 35.4224 68.072 35.5113 68.2165 35.5113C68.377 35.5113 68.4492 35.4143 68.4492 35.3092ZM68.0238 34.4763C68.0238 34.5815 68.08 34.6461 68.2004 34.7027L68.2566 34.727C68.369 34.6461 68.393 34.5653 68.393 34.4683C68.393 34.3631 68.3288 34.2985 68.2084 34.2985C68.1041 34.2985 68.0238 34.3551 68.0238 34.4763Z" fill="#FF8F1F"/>
<path d="M70.4159 34.913C70.4159 35.5032 70.1751 35.8347 69.7336 35.8347C69.2921 35.8347 69.0513 35.5032 69.0513 34.913C69.0513 34.3227 69.2921 33.9912 69.7336 33.9912C70.1751 33.9912 70.4159 34.3227 70.4159 34.913ZM69.5249 34.913C69.5249 35.3658 69.5811 35.4951 69.7416 35.4951C69.8941 35.4951 69.9503 35.3739 69.9503 34.913C69.9503 34.444 69.8941 34.3308 69.7416 34.3308C69.5811 34.3308 69.5249 34.4683 69.5249 34.913Z" fill="#FF8F1F"/>
<path d="M67.9193 39.9101C67.9193 40.2739 67.7668 40.5569 66.9801 41.2523H67.9755L67.9033 41.7536H66.2416V41.2927C67.0684 40.4922 67.2531 40.2658 67.2531 39.9828C67.2531 39.7968 67.1407 39.6836 66.9641 39.6836C66.7955 39.6836 66.6671 39.7645 66.5306 39.9424L66.1533 39.6351C66.354 39.3683 66.643 39.1904 67.0363 39.1904C67.6143 39.1904 67.9193 39.5219 67.9193 39.9101Z" fill="#FF8F1F"/>
<path d="M70.1267 40.5006C70.1267 41.3415 69.7896 41.8185 69.1554 41.8185C68.5212 41.8185 68.1841 41.3415 68.1841 40.5006C68.1841 39.6516 68.5293 39.1826 69.1554 39.1826C69.7815 39.1826 70.1267 39.6597 70.1267 40.5006ZM68.8504 40.5006C68.8504 41.1474 68.9306 41.3334 69.1554 41.3334C69.3721 41.3334 69.4604 41.1555 69.4604 40.5006C69.4604 39.8376 69.3802 39.6678 69.1554 39.6678C68.9306 39.6678 68.8504 39.8618 68.8504 40.5006Z" fill="#FF8F1F"/>
<path d="M72.3103 40.5006C72.3103 41.3415 71.9651 41.8185 71.339 41.8185C70.7129 41.8185 70.3677 41.3415 70.3677 40.5006C70.3677 39.6516 70.7129 39.1826 71.339 39.1826C71.9651 39.1907 72.3103 39.6597 72.3103 40.5006ZM71.0339 40.5006C71.0339 41.1474 71.1142 41.3334 71.339 41.3334C71.5638 41.3334 71.644 41.1555 71.644 40.5006C71.644 39.8376 71.5638 39.6678 71.339 39.6678C71.1142 39.6678 71.0339 39.8618 71.0339 40.5006Z" fill="#FF8F1F"/>
<path d="M67.0687 46.8092C67.0687 47.0679 66.9644 47.262 66.4105 47.7471H67.1089L67.0607 48.1029H65.8967V47.7795C66.4747 47.2135 66.6031 47.0599 66.6031 46.8658C66.6031 46.7364 66.5229 46.6556 66.4025 46.6556C66.282 46.6556 66.1938 46.7122 66.0974 46.8335L65.8325 46.6152C65.969 46.4292 66.1777 46.2998 66.4506 46.2998C66.86 46.3079 67.0687 46.5424 67.0687 46.8092Z" fill="#FF8F1F"/>
<path d="M68.4174 46.8092C68.4174 47.0679 68.313 47.262 67.7591 47.7471H68.4575L68.4093 48.1029H67.2454V47.7795C67.8233 47.2135 67.9518 47.0599 67.9518 46.8658C67.9518 46.7364 67.8715 46.6556 67.7511 46.6556C67.6307 46.6556 67.5424 46.7122 67.4461 46.8335L67.1812 46.6152C67.3176 46.4292 67.5263 46.2998 67.7993 46.2998C68.2006 46.3079 68.4174 46.5424 68.4174 46.8092Z" fill="#FF8F1F"/>
<path d="M69.9667 47.2216C69.9667 47.8118 69.7259 48.1433 69.2844 48.1433C68.8429 48.1433 68.6021 47.8118 68.6021 47.2216C68.6021 46.6313 68.8429 46.2998 69.2844 46.2998C69.7259 46.3079 69.9667 46.6313 69.9667 47.2216ZM69.0676 47.2216C69.0676 47.6744 69.1238 47.8037 69.2844 47.8037C69.4369 47.8037 69.4931 47.6825 69.4931 47.2216C69.4931 46.7526 69.4369 46.6394 69.2844 46.6394C69.1318 46.6394 69.0676 46.7769 69.0676 47.2216Z" fill="#FF8F1F"/>
<path d="M62.7099 51.9647C62.7099 52.3286 62.5573 52.6116 61.7707 53.307H62.7661L62.6938 53.8083H61.0321V53.3474C61.859 52.5469 62.0436 52.3205 62.0436 52.0375C62.0436 51.8515 61.9312 51.7383 61.7546 51.7383C61.586 51.7383 61.4576 51.8192 61.3211 51.9971L60.9438 51.6898C61.1445 51.423 61.4335 51.2451 61.8269 51.2451C62.4048 51.2451 62.7099 51.5766 62.7099 51.9647Z" fill="#FF8F1F"/>
<path d="M64.6364 53.2913V53.8088H63.9942V53.2913H62.9507V52.8547L63.6491 51.2295L64.211 51.4316L63.633 52.7981H64.0183L64.0906 52.224H64.6525V52.7981H64.9174V53.2832H64.6364V53.2913Z" fill="#FF8F1F"/>
<path d="M67.0364 52.5553C67.0364 53.3962 66.6992 53.8732 66.0651 53.8732C65.4309 53.8732 65.0938 53.3962 65.0938 52.5553C65.0938 51.7063 65.4389 51.2373 66.0651 51.2373C66.6912 51.2373 67.0364 51.7144 67.0364 52.5553ZM65.76 52.5553C65.76 53.2021 65.8403 53.3881 66.0651 53.3881C66.2818 53.3881 66.3701 53.2102 66.3701 52.5553C66.3701 51.8922 66.2898 51.7224 66.0651 51.7224C65.8403 51.7224 65.76 51.9165 65.76 52.5553Z" fill="#FF8F1F"/>
<path d="M45.6115 26.8034V25.4935L45.2422 25.7199L45.0415 25.4127L45.6436 25.0488H46.053V26.8034H45.6115Z" fill="#FF8F1F"/>
<path d="M47.6903 25.9306C47.6903 26.5208 47.4495 26.8523 47.008 26.8523C46.5665 26.8523 46.3257 26.5208 46.3257 25.9306C46.3257 25.3403 46.5665 25.0088 47.008 25.0088C47.4495 25.0088 47.6903 25.3403 47.6903 25.9306ZM46.7993 25.9306C46.7993 26.3834 46.8555 26.5127 47.016 26.5127C47.1686 26.5127 47.2247 26.3914 47.2247 25.9306C47.2247 25.4616 47.1686 25.3484 47.016 25.3484C46.8555 25.3484 46.7993 25.4778 46.7993 25.9306Z" fill="#FF8F1F"/>
<path d="M49.2157 25.9306C49.2157 26.5208 48.9749 26.8523 48.5334 26.8523C48.0919 26.8523 47.8511 26.5208 47.8511 25.9306C47.8511 25.3403 48.0919 25.0088 48.5334 25.0088C48.9829 25.0088 49.2157 25.3403 49.2157 25.9306ZM48.3247 25.9306C48.3247 26.3834 48.3809 26.5127 48.5414 26.5127C48.6939 26.5127 48.7501 26.3914 48.7501 25.9306C48.7501 25.4616 48.6939 25.3484 48.5414 25.3484C48.3809 25.3484 48.3247 25.4778 48.3247 25.9306Z" fill="#FF8F1F"/>
<path d="M51.7603 24.7197V22.8438L51.2385 23.1673L50.9575 22.7306L51.8164 22.2051H52.3944V24.7116H51.7603V24.7197Z" fill="#FF8F1F"/>
<path d="M54.4496 22.8829C54.4496 23.2467 54.2971 23.5297 53.5104 24.2251H54.5058L54.4336 24.7264H52.7719V24.2655C53.5987 23.465 53.7833 23.2386 53.7833 22.9556C53.7833 22.7697 53.671 22.6565 53.4944 22.6565C53.3258 22.6565 53.1973 22.7373 53.0609 22.9152L52.6836 22.6079C52.8843 22.3411 53.1733 22.1632 53.5666 22.1632C54.1446 22.1551 54.4496 22.4947 54.4496 22.8829Z" fill="#FF8F1F"/>
<path d="M56.657 23.4654C56.657 24.3063 56.3198 24.7834 55.6857 24.7834C55.0595 24.7834 54.7144 24.3063 54.7144 23.4654C54.7144 22.6164 55.0595 22.1475 55.6857 22.1475C56.3198 22.1555 56.657 22.6245 56.657 23.4654ZM55.3806 23.4654C55.3806 24.1123 55.4609 24.2982 55.6857 24.2982C55.9024 24.2982 55.9907 24.1204 55.9907 23.4654C55.9907 22.8024 55.9104 22.6326 55.6857 22.6326C55.4609 22.6326 55.3806 22.8267 55.3806 23.4654Z" fill="#FF8F1F"/>
<path d="M59.0817 26.8034V25.4935L58.7124 25.7199L58.5117 25.4127L59.1138 25.0488H59.5232V26.8034H59.0817Z" fill="#FF8F1F"/>
<path d="M60.9681 26.4395V26.8034H60.5186V26.4395H59.7881V26.1323L60.2778 24.9922L60.6711 25.1377L60.2617 26.0999H60.5266L60.5748 25.7037H60.9681V26.0999H61.1527V26.4395H60.9681Z" fill="#FF8F1F"/>
<path d="M62.6459 25.9296C62.6459 26.5198 62.4051 26.8513 61.9636 26.8513C61.5221 26.8513 61.2812 26.5198 61.2812 25.9296C61.2812 25.3393 61.5221 25.0078 61.9636 25.0078C62.4051 25.0078 62.6459 25.3393 62.6459 25.9296ZM61.7549 25.9296C61.7549 26.3824 61.811 26.5117 61.9716 26.5117C62.1241 26.5117 62.1803 26.3905 62.1803 25.9296C62.1803 25.4606 62.1241 25.3474 61.9716 25.3474C61.811 25.3474 61.7549 25.4768 61.7549 25.9296Z" fill="#FF8F1F"/>
<path d="M50.468 43.679L49.3281 41.7628L69.5972 30.3135L70.0708 31.114L50.468 43.679Z" fill="#FF8F1F"/>
<path d="M51.7362 59.5831L51.688 58.257C51.672 57.78 51.664 57.2948 51.7041 56.8016L51.2225 59.2111H50.3314L49.8177 56.8016C49.8658 57.3595 49.8739 57.7719 49.8578 58.257L49.8177 59.5831H48.8945L49.1514 56.0254H50.3234L50.797 58.3864L51.2225 56.0254H52.3945L52.6594 59.5831H51.7362Z" fill="#FF8F1F"/>
<path d="M54.2808 56.0254C55.2119 56.0254 55.7819 56.4135 55.7819 57.2059C55.7819 58.0387 55.2039 58.443 54.3771 58.443H54.0159V59.5912H53.0767V56.0335H54.2808V56.0254ZM54.2888 57.7638C54.6259 57.7638 54.8266 57.6021 54.8266 57.214C54.8266 56.8744 54.65 56.6965 54.2727 56.6965H54.0159V57.7638H54.2888Z" fill="#FF8F1F"/>
<path d="M57.0906 58.1034V59.5831H56.1514V56.0254H57.0906V57.3676H58.0298V56.0254H58.969V59.5831H58.0298V58.1034H57.0906Z" fill="#FF8F1F"/>
<path d="M27.1485 20.4813L21.9628 18.8804C22.5408 19.1876 23.3676 19.6 24.4031 20.3439L26.2815 21.6942L25.3423 23.0122L19.7954 19.0098L21.1039 17.1743L26.3377 18.7349C25.7196 18.4276 24.957 18.0395 24.0178 17.3603L22.0029 15.9049L22.9421 14.5869L28.489 18.5893L27.1485 20.4813Z" fill="#191825"/>
<path d="M30.7047 11.5784C32.246 13.1875 32.3744 14.9906 30.9456 16.3732C29.5167 17.764 27.7748 17.5942 26.2014 15.9528C24.6601 14.3437 24.5317 12.5568 25.9606 11.1661C27.3894 9.78342 29.1314 9.92896 30.7047 11.5784ZM27.558 14.6348C28.7059 15.8315 29.4444 16.0013 30.0385 15.4272C30.6566 14.8289 30.488 14.1012 29.3401 12.9045C28.1922 11.7078 27.4777 11.5299 26.8677 12.1202C26.2656 12.7023 26.4101 13.4381 27.558 14.6348Z" fill="#191825"/>
<path d="M38.0257 9.21762L38.5876 10.5356L34.9593 12.751L31.4272 6.87278L32.9846 5.92676L35.7861 10.5922L38.0257 9.21762Z" fill="#191825"/>
<path d="M39.0208 10.3899L36.147 4.15583L37.7926 3.3877L40.6664 9.62173L39.0208 10.3899Z" fill="#191825"/>
<path d="M46.1173 7.76252L45.3146 5.32874C45.0256 4.45549 44.7447 3.55798 44.552 2.62814L44.9694 7.36632L43.3238 7.85955L41.0601 3.67118C41.4454 4.68189 41.6862 5.43385 41.9271 6.33945L42.5692 8.82174L40.8514 9.33114L39.3984 2.5958L41.5658 1.94894L43.7252 6.05645L43.2355 1.44763L45.4109 0.800781L47.8352 7.25313L46.1173 7.76252Z" fill="#191825"/>
<path d="M48.1559 7.38228L47.2007 0.57417L48.9988 0.31543L49.9541 7.12354L48.1559 7.38228Z" fill="#191825"/>
<path d="M53.5422 1.43925L53.6947 6.91323L51.8805 6.96174L51.728 1.48776L50.0182 1.53627L49.978 0.145542L55.2921 0L55.1476 1.39882L53.5422 1.43925Z" fill="#191825"/>
<path d="M60.8395 1.3589L59.9083 2.22406C59.4909 1.79552 59.0494 1.55295 58.5115 1.48827C57.9817 1.42358 57.6687 1.59338 57.6205 1.96532C57.5723 2.36152 57.8132 2.52323 58.7845 2.98411C60.0688 3.56628 60.6709 4.2293 60.5264 5.46641C60.3739 6.75202 59.234 7.53633 57.5001 7.3261C56.2639 7.18056 55.4692 6.62265 54.9795 6.01623L55.9909 5.11872C56.4164 5.59578 56.9382 5.9192 57.5884 6.00006C58.2145 6.07283 58.5918 5.82217 58.64 5.37746C58.6962 4.92467 58.4794 4.69827 57.5804 4.30208C56.0632 3.6148 55.6297 2.89517 55.7501 1.89255C55.8946 0.647362 57.0746 -0.00757592 58.5276 0.162223C59.5872 0.291593 60.3097 0.703962 60.8395 1.3589Z" fill="#191825"/>
<path d="M69.003 3.82387L67.9033 4.46264C67.5902 3.95324 67.2129 3.62173 66.6992 3.43576C66.2015 3.25787 65.8563 3.3549 65.7279 3.71067C65.5994 4.08261 65.7921 4.30092 66.643 4.95586C67.7748 5.80485 68.2163 6.58108 67.8069 7.76158C67.3815 8.98251 66.0971 9.49191 64.4515 8.90974C63.2795 8.48929 62.6213 7.77775 62.2681 7.08239L63.4561 6.43554C63.7692 6.99344 64.2027 7.42198 64.8208 7.64029C65.4148 7.85052 65.8322 7.68881 65.9847 7.26836C66.1372 6.83982 65.9767 6.57299 65.182 5.99082C63.8494 4.98012 63.5846 4.18772 63.9137 3.23362C64.3311 2.05311 65.6155 1.665 66.9962 2.15823C68.0076 2.50591 68.6177 3.07191 69.003 3.82387Z" fill="#191825"/>
<path d="M72.6473 4.86707C74.2287 5.73223 74.8308 6.92082 74.1083 8.26304C73.3457 9.66994 71.9891 9.81548 70.5843 9.04735L69.9742 8.70775L68.9226 10.6564L67.3252 9.78314L70.5923 3.74316L72.6473 4.86707ZM71.0579 7.81833C71.6359 8.13367 72.1095 8.04473 72.4707 7.3817C72.7838 6.80762 72.6473 6.33866 72.0051 5.99097L71.5717 5.75649L70.5923 7.57576L71.0579 7.81833Z" fill="#191825"/>
<path d="M76.8539 9.11996L75.9708 10.2843L77.5924 11.5295L76.8378 12.5321L75.2243 11.2869L74.2851 12.5321L76.2598 14.0522L75.4812 15.0872L72.0615 12.4593L76.1956 6.98535L79.6393 9.62935L78.7082 10.543L76.8539 9.11996Z" fill="#191825"/>
<path d="M80.9399 12.7113L79.9044 13.7382L81.3333 15.1936L80.4503 16.0749L79.0214 14.6195L77.9136 15.7191L79.6556 17.498L78.7405 18.4117L75.7222 15.331L80.5707 10.5039L83.6131 13.6088L82.5695 14.385L80.9399 12.7113Z" fill="#191825"/>
<path d="M85.7159 16.2919C86.7916 17.8039 87.3294 19.5666 85.0496 21.2161C82.8261 22.817 81.3009 21.8952 80.2493 20.4075L78.981 18.6206L84.5359 14.6182L85.7159 16.2919ZM81.0841 19.3564L81.357 19.7445C81.9029 20.5126 82.5852 20.6743 83.9499 19.6879C85.3306 18.6933 85.3226 17.9899 84.7928 17.2541L84.5279 16.8741L81.0841 19.3564Z" fill="#191825"/>
<path d="M24.2665 56.4309L23.0062 55.9781C23.1587 55.4363 23.1668 55.032 22.95 54.5469C22.5567 53.6737 21.6496 53.4068 20.1966 54.0779C18.6233 54.8056 18.2941 55.4121 18.6554 56.2045C18.7838 56.4794 18.9444 56.6896 19.1691 56.8594L20.4375 56.2772L20.1163 55.5657L21.176 54.8784L22.3078 57.3607L19.2173 58.7838C18.4868 58.3229 17.8446 57.579 17.4834 56.7866C16.5763 54.7895 17.3068 53.3341 19.426 52.3557C21.5211 51.3854 23.2872 52.1859 24.0738 53.9081C24.4913 54.838 24.4993 55.7193 24.2665 56.4309Z" fill="#191825"/>
<path d="M22.5649 60.4249L20.4938 61.856L19.4663 60.344L25.0935 56.4629L26.4341 58.4277C27.5097 60.0125 27.5017 61.193 26.3056 62.0177C25.5751 62.519 24.9169 62.4867 24.066 62.0339L22.6773 65.066L21.5374 63.3842L22.8539 60.8453L22.5649 60.4249ZM23.9295 60.2308C24.2827 60.7483 24.7082 60.8453 25.246 60.4734C25.7357 60.1338 25.7517 59.6971 25.3664 59.1231L25.0774 58.7026L23.5843 59.7295L23.9295 60.2308Z" fill="#191825"/>
<path d="M25.3743 65.8988L24.1542 66.6508L22.8457 65.2762L29.1713 61.9854L30.6804 63.5701L27.1484 69.8042L25.8158 68.4054L26.6105 67.2087L25.3743 65.8988ZM28.9866 63.6672L26.5062 65.1954L27.3651 66.0929L28.9866 63.6672Z" fill="#191825"/>
<path d="M30.3672 72.2464L32.0449 67.0555C31.7318 67.6295 31.3064 68.4624 30.5518 69.4892L29.1791 71.357L27.8867 70.3867L31.9566 64.8643L33.7547 66.2065L32.1171 71.4541C32.4382 70.8395 32.8316 70.0714 33.5219 69.1335L34.999 67.1282L36.2914 68.0985L32.2215 73.621L30.3672 72.2464Z" fill="#191825"/>
<path d="M38.5072 69.2701C40.1608 70.0949 41.4612 71.3966 40.209 73.9355C38.9968 76.4017 37.2148 76.3046 35.5932 75.488L33.6426 74.5096L36.6849 68.3564L38.5072 69.2701ZM35.8421 74.1539L36.2675 74.3641C37.1024 74.7845 37.7847 74.6066 38.5312 73.0865C39.2858 71.5503 38.9487 70.9438 38.1459 70.5396L37.7365 70.3293L35.8421 74.1539Z" fill="#191825"/>
<path d="M46.133 72.1164C47.883 72.5288 48.7901 73.5071 48.4449 74.9949C48.0837 76.5554 46.8234 77.0648 45.258 76.7009L44.5757 76.5392L44.078 78.6981L42.312 78.2857L43.8533 71.5908L46.133 72.1164ZM45.3945 75.3911C46.0367 75.5447 46.4702 75.3264 46.6388 74.5825C46.7832 73.9437 46.5264 73.5314 45.82 73.3697L45.3383 73.2565L44.8727 75.2698L45.3945 75.3911Z" fill="#191825"/>
<path d="M50.6603 77.2261L50.4997 79.7569L48.6855 79.6437L49.111 72.7871L51.471 72.9327C53.3735 73.0539 54.2886 73.7816 54.2003 75.2451C54.1441 76.1346 53.7107 76.6278 52.8277 77.0321L54.3448 79.9995L52.33 79.8701L51.158 77.2585L50.6603 77.2261ZM51.3426 76.0214C51.9607 76.0618 52.2979 75.7869 52.346 75.1239C52.3862 74.5336 52.049 74.2425 51.3587 74.2021L50.8529 74.1698L50.7405 75.989L51.3426 76.0214Z" fill="#191825"/>
<path d="M55.1719 79.8621L54.7705 73.0055L56.5847 72.9004L56.9861 79.757L55.1719 79.8621Z" fill="#191825"/>
<path d="M61.8103 79.0618L60.3333 76.8059L59.7714 79.4257L57.8769 79.7653L59.073 75.8437L56.8013 72.9814L58.7278 72.6337L59.948 74.5339L60.5099 72.3103L62.3963 71.9707L61.2083 75.4152L63.761 78.7141L61.8103 79.0618Z" fill="#191825"/>
<path d="M67.7665 74.5908L68.7539 76.9194L67.0842 77.6391L64.395 71.3161L66.5704 70.3782C68.3204 69.6181 69.4683 69.8607 70.0463 71.2029C70.3915 72.0195 70.2309 72.6664 69.6208 73.4184L72.302 75.3832L70.4396 76.1836L68.2241 74.3886L67.7665 74.5908ZM67.8388 73.2081C68.4087 72.9656 68.5933 72.5613 68.3284 71.9549C68.0956 71.4131 67.6702 71.2999 67.036 71.5748L66.5704 71.777L67.2849 73.4507L67.8388 73.2081Z" fill="#191825"/>
<path d="M73.6267 72.8771L74.1244 74.2274L72.535 75.2543L70.5522 68.3653L72.3905 67.1768L77.7769 71.8664L76.1553 72.9095L75.1439 71.8907L73.6267 72.8771ZM72.1577 68.8828L73.1692 71.6239L74.2127 70.9528L72.1577 68.8828Z" fill="#191825"/>
<path d="M77.8812 63.4082L77.8973 64.7747C77.4397 64.7747 77.0464 64.8798 76.6932 65.1951C76.0831 65.7369 76.1232 66.6263 77.1507 67.8068C78.1702 68.9711 79.0372 69.1328 79.6793 68.5588C80.0647 68.2192 80.177 67.7664 80.2814 67.2651L81.5658 67.5076C81.5176 68.1949 81.2286 69.0277 80.5142 69.6584C79.0693 70.9359 77.2872 70.8308 75.7379 69.052C74.2368 67.3297 74.3652 65.47 75.7459 64.2572C76.4363 63.6427 77.1267 63.4325 77.8812 63.4082Z" fill="#191825"/>
<path d="M82.6492 67.3146L77.584 62.7139L78.8041 61.3555L83.8694 65.9562L82.6492 67.3146Z" fill="#191825"/>
<path d="M86.663 62.2687L81.4533 60.7486C82.0393 61.0477 82.8741 61.452 83.9096 62.1797L85.8041 63.5058L84.889 64.8399L79.2778 60.9184L80.5542 59.0667L85.8121 60.5464C85.194 60.2472 84.4234 59.8753 83.4681 59.2123L81.4372 57.7892L82.3523 56.4551L87.9634 60.3766L86.663 62.2687Z" fill="#191825"/>
<path d="M85.4832 51.3447L85.9729 52.6061C85.4672 52.8406 85.1541 53.0993 84.9374 53.5844C84.536 54.4577 84.9293 55.3229 86.3823 55.994C87.9557 56.7217 88.6219 56.5761 88.9832 55.7837C89.1116 55.5088 89.1598 55.2501 89.1437 54.9671L87.8754 54.3849L87.5543 55.0965L86.3502 54.7326L87.482 52.2503L90.5726 53.6734C90.701 54.5305 90.5565 55.5088 90.2033 56.3012C89.2962 58.2984 87.7229 58.6946 85.6036 57.7162C83.5085 56.7459 82.9466 54.8782 83.7333 53.1559C84.1346 52.218 84.7929 51.6439 85.4832 51.3447Z" fill="#191825"/>
<path d="M105.03 35.1965L108 30.4502H83.083C83.5968 31.9865 83.9901 33.5713 84.255 35.1965H105.03Z" fill="#3D72FC"/>
<path d="M84.6082 42.1818H100.663L103.633 37.4355H84.5439C84.6242 38.3654 84.6804 39.3033 84.6804 40.2494C84.6724 40.8962 84.6483 41.5431 84.6082 42.1818Z" fill="#3D72FC"/>
<path d="M96.2878 49.1603L99.2579 44.4141H84.3833C84.1665 46.0393 83.8213 47.6241 83.3638 49.1603H96.2878Z" fill="#3D72FC"/>
<path d="M2.97012 35.1965L0 30.4502H24.9169C24.4032 31.9865 24.0098 33.5713 23.7449 35.1965H2.97012Z" fill="#3D72FC"/>
<path d="M23.3998 42.1818H7.34513L4.375 37.4355H23.4641C23.3838 38.3654 23.3276 39.3033 23.3276 40.2494C23.3276 40.8962 23.3597 41.5431 23.3998 42.1818Z" fill="#3D72FC"/>
<path d="M11.7118 49.1603L8.7417 44.4141H23.6164C23.8331 46.0393 24.1783 47.6241 24.6359 49.1603H11.7118Z" fill="#3D72FC"/>
</svg>
