<svg width="100" height="80" viewBox="0 0 100 80" fill="none" xmlns="http://www.w3.org/2000/svg">
<path d="M58.5376 10.602L56.7466 9.61914L55.7764 11.4336L57.5674 12.4164L58.5376 10.602Z" fill="#3D72FC"/>
<path d="M59.3491 13.4067L57.5581 12.4238L56.5879 14.2382L58.379 15.221L59.3491 13.4067Z" fill="#3D72FC"/>
<path d="M62.1104 12.5746L60.3193 11.5918L59.3492 13.4062L61.1402 14.389L62.1104 12.5746Z" fill="#3D72FC"/>
<path d="M62.9356 15.3705L61.1445 14.3877L60.1743 16.2021L61.9654 17.1849L62.9356 15.3705Z" fill="#3D72FC"/>
<path d="M65.6988 14.5453L63.9077 13.5625L62.9375 15.3769L64.7286 16.3597L65.6988 14.5453Z" fill="#3D72FC"/>
<path d="M66.5279 17.3373L64.7368 16.3545L63.7666 18.1689L65.5577 19.1517L66.5279 17.3373Z" fill="#3D72FC"/>
<path d="M69.295 16.5043L67.5039 15.5215L66.5337 17.3359L68.3248 18.3187L69.295 16.5043Z" fill="#3D72FC"/>
<path d="M70.1167 19.308L68.3257 18.3252L67.3555 20.1396L69.1466 21.1224L70.1167 19.308Z" fill="#3D72FC"/>
<path d="M56.5821 14.2387L54.791 13.2559L53.8208 15.0703L55.6119 16.0531L56.5821 14.2387Z" fill="#3D72FC"/>
<path d="M57.4068 17.0346L55.6157 16.0518L54.6456 17.8662L56.4366 18.849L57.4068 17.0346Z" fill="#3D72FC"/>
<path d="M60.1743 16.2026L58.3833 15.2197L57.4131 17.0341L59.2042 18.017L60.1743 16.2026Z" fill="#3D72FC"/>
<path d="M61.0064 19.0043L59.2153 18.0215L58.2452 19.8359L60.0362 20.8187L61.0064 19.0043Z" fill="#3D72FC"/>
<path d="M63.7676 18.1723L61.9766 17.1895L61.0064 19.0039L62.7974 19.9867L63.7676 18.1723Z" fill="#3D72FC"/>
<path d="M64.5894 20.976L62.7983 19.9932L61.8282 21.8076L63.6192 22.7904L64.5894 20.976Z" fill="#3D72FC"/>
<path d="M67.3496 20.1401L65.5586 19.1572L64.5884 20.9716L66.3795 21.9545L67.3496 20.1401Z" fill="#3D72FC"/>
<path d="M68.1704 22.9438L66.3794 21.9609L65.4092 23.7753L67.2003 24.7582L68.1704 22.9438Z" fill="#3D72FC"/>
<path d="M54.6343 17.8676L52.8433 16.8848L51.8731 18.6992L53.6641 19.682L54.6343 17.8676Z" fill="#3D72FC"/>
<path d="M55.4663 20.6703L53.6753 19.6875L52.7051 21.5019L54.4962 22.4847L55.4663 20.6703Z" fill="#3D72FC"/>
<path d="M58.2393 19.8363L56.4482 18.8535L55.4781 20.6679L57.2691 21.6507L58.2393 19.8363Z" fill="#3D72FC"/>
<path d="M59.0611 22.6401L57.27 21.6572L56.2998 23.4716L58.0909 24.4544L59.0611 22.6401Z" fill="#3D72FC"/>
<path d="M61.8277 21.808L60.0366 20.8252L59.0665 22.6396L60.8575 23.6224L61.8277 21.808Z" fill="#3D72FC"/>
<path d="M62.6494 24.6108L60.8584 23.6279L59.8882 25.4423L61.6793 26.4252L62.6494 24.6108Z" fill="#3D72FC"/>
<path d="M65.4107 23.7797L63.6196 22.7969L62.6495 24.6113L64.4405 25.5941L65.4107 23.7797Z" fill="#3D72FC"/>
<path d="M66.2271 26.5834L64.436 25.6006L63.4659 27.415L65.2569 28.3978L66.2271 26.5834Z" fill="#3D72FC"/>
<path d="M50.4692 20.6494L56.6107 9.16406L71.5377 17.3556L65.3962 28.8409L50.4692 20.6494ZM71.0918 17.488L56.7413 9.61568L50.9151 20.517L65.2655 28.3893L71.0918 17.488Z" fill="#3D72FC"/>
<path d="M56.7123 9.0513L55.8945 8.60254L46.3722 26.4111L47.19 26.8598L56.7123 9.0513Z" fill="#3D72FC"/>
<path d="M42.438 12.4125L44.229 11.4297L43.2588 9.61527L41.4678 10.5981L42.438 12.4125Z" fill="#3D72FC"/>
<path d="M41.6103 15.2211L43.4014 14.2383L42.4312 12.4239L40.6402 13.4067L41.6103 15.2211Z" fill="#3D72FC"/>
<path d="M38.8491 14.3832L40.6401 13.4004L39.67 11.586L37.8789 12.5688L38.8491 14.3832Z" fill="#3D72FC"/>
<path d="M38.0303 17.1899L39.8213 16.207L38.8511 14.3926L37.0601 15.3754L38.0303 17.1899Z" fill="#3D72FC"/>
<path d="M35.2563 16.352L37.0474 15.3691L36.0772 13.5547L34.2861 14.5376L35.2563 16.352Z" fill="#3D72FC"/>
<path d="M34.4424 19.1498L36.2334 18.167L35.2632 16.3526L33.4722 17.3354L34.4424 19.1498Z" fill="#3D72FC"/>
<path d="M31.6787 18.3168L33.4697 17.334L32.4996 15.5196L30.7085 16.5024L31.6787 18.3168Z" fill="#3D72FC"/>
<path d="M30.8559 21.1166L32.647 20.1338L31.6768 18.3194L29.8858 19.3022L30.8559 21.1166Z" fill="#3D72FC"/>
<path d="M44.374 16.0551L46.165 15.0723L45.1949 13.2579L43.4038 14.2407L44.374 16.0551Z" fill="#3D72FC"/>
<path d="M43.5547 18.8608L45.3457 17.8779L44.3755 16.0635L42.5845 17.0464L43.5547 18.8608Z" fill="#3D72FC"/>
<path d="M40.791 18.0278L42.582 17.0449L41.6119 15.2305L39.8208 16.2134L40.791 18.0278Z" fill="#3D72FC"/>
<path d="M39.9736 20.8178L41.7646 19.835L40.7945 18.0206L39.0034 19.0034L39.9736 20.8178Z" fill="#3D72FC"/>
<path d="M37.2099 19.9848L39.001 19.002L38.0308 17.1876L36.2398 18.1704L37.2099 19.9848Z" fill="#3D72FC"/>
<path d="M36.3803 22.7885L38.1714 21.8057L37.2012 19.9913L35.4102 20.9741L36.3803 22.7885Z" fill="#3D72FC"/>
<path d="M33.6196 21.9496L35.4106 20.9668L34.4405 19.1524L32.6494 20.1352L33.6196 21.9496Z" fill="#3D72FC"/>
<path d="M32.7969 24.7494L34.5879 23.7666L33.6177 21.9522L31.8267 22.935L32.7969 24.7494Z" fill="#3D72FC"/>
<path d="M46.3183 19.6947L48.1094 18.7119L47.1392 16.8975L45.3482 17.8803L46.3183 19.6947Z" fill="#3D72FC"/>
<path d="M45.5034 22.4809L47.2944 21.498L46.3243 19.6836L44.5332 20.6665L45.5034 22.4809Z" fill="#3D72FC"/>
<path d="M42.7373 21.6518L44.5283 20.6689L43.5581 18.8545L41.7671 19.8374L42.7373 21.6518Z" fill="#3D72FC"/>
<path d="M41.9145 24.4506L43.7056 23.4678L42.7354 21.6534L40.9444 22.6362L41.9145 24.4506Z" fill="#3D72FC"/>
<path d="M39.1504 23.6186L40.9414 22.6357L39.9712 20.8213L38.1802 21.8042L39.1504 23.6186Z" fill="#3D72FC"/>
<path d="M38.3281 26.4174L40.1191 25.4346L39.149 23.6202L37.3579 24.603L38.3281 26.4174Z" fill="#3D72FC"/>
<path d="M35.5576 25.5873L37.3486 24.6045L36.3785 22.7901L34.5874 23.7729L35.5576 25.5873Z" fill="#3D72FC"/>
<path d="M34.7295 28.3969L36.5205 27.4141L35.5503 25.5997L33.7593 26.5825L34.7295 28.3969Z" fill="#3D72FC"/>
<path d="M34.6121 28.8409L28.4707 17.3556L43.3977 9.16406L49.5391 20.6494L34.6121 28.8409ZM34.7428 28.3893L49.0933 20.517L43.267 9.61568L28.9165 17.488L34.7428 28.3893Z" fill="#3D72FC"/>
<path d="M52.8199 26.856L53.6377 26.4072L44.1154 8.5987L43.2976 9.04746L52.8199 26.856Z" fill="#3D72FC"/>
<path d="M31.7371 48.9945C31.053 50.8944 29.3466 51.2838 28.1399 51.2838C26.8332 51.2838 25.3267 50.6297 25.3267 47.9666C25.3267 45.1323 26.2413 41.4492 29.6541 41.4492C30.8455 41.4492 31.8908 41.932 31.8908 43.1934C31.8908 43.8787 31.6449 44.3926 30.9915 44.3926C30.784 44.3926 30.4996 44.3381 30.2613 44.0577C30.5842 43.9643 30.8301 43.318 30.8301 42.991C30.8301 42.7807 30.7686 42.0644 29.9462 42.0644C28.3628 42.0644 27.3482 45.3659 27.3482 47.6863C27.3482 49.3916 27.6556 50.1236 29.0469 50.1236C30.0384 50.1236 30.9762 49.7031 31.445 48.8777L31.7371 48.9945Z" fill="#191825"/>
<path d="M36.5029 49.1271C36.4645 49.2828 36.4414 49.423 36.4414 49.5398C36.4414 49.8279 36.5798 50.0225 37.0871 50.0225C37.602 50.0225 38.2708 49.2906 38.7858 48.8779H39.2239C38.632 49.4775 37.1793 51.2061 36.1801 51.2061C35.1808 51.2061 34.589 50.7623 34.589 49.7889C34.589 49.5787 34.612 49.3763 34.6658 49.1271L35.1578 46.7833C35.1808 46.6665 35.1962 46.5497 35.1962 46.4485C35.1962 45.9813 34.9502 45.6776 34.6043 45.6776C34.2969 45.6776 34.0663 45.771 33.805 45.9501L32.6981 51.2061H30.8457L32.7058 42.3605L34.6043 42.1035L33.9126 45.3973C34.4429 45.0235 35.0271 44.7043 35.5805 44.7043C36.2723 44.7043 37.0563 45.4596 37.0563 46.3317C37.0563 46.4329 37.0563 46.5419 37.0333 46.6431L36.5029 49.1271Z" fill="#191825"/>
<path d="M43.9432 44.7041L43.0208 49.1269C42.9978 49.2671 42.967 49.415 42.967 49.5318C42.967 49.8199 43.0977 50.0224 43.6127 50.0224C44.1277 50.0224 44.7964 49.2904 45.3114 48.8778H45.7495C45.1576 49.4773 43.7049 51.206 42.7057 51.206C41.8679 51.206 41.3068 50.8945 41.1377 50.2171C40.7533 50.7466 40.1768 51.2838 39.3928 51.2838C38.163 51.2838 37.8018 50.3962 37.8018 49.6331C37.8018 47.3983 38.6011 44.7119 41.1684 44.7119C41.4758 44.7119 41.7987 44.8443 42.0293 45.0389L42.1061 44.7041H43.9432ZM39.5235 49.2827C39.5235 50.0613 39.9463 50.2093 40.2691 50.2093C40.5612 50.2093 40.8456 49.9212 41.0915 49.5552C41.1069 49.4228 41.13 49.2827 41.1684 49.1269L41.8909 45.6774C41.6834 45.4983 41.4451 45.4438 41.2606 45.4438C40.2922 45.4438 39.5235 47.5151 39.5235 49.2827Z" fill="#191825"/>
<path d="M52.7285 49.1269C52.6901 49.2826 52.667 49.4539 52.667 49.6097C52.667 49.9056 52.7823 50.1391 53.1974 50.1391C53.7124 50.1391 54.2504 49.3683 54.5425 48.8154H55.1497C54.5579 49.5162 53.4049 51.2059 52.398 51.2059C51.3988 51.2059 50.8069 50.7621 50.8069 49.7887C50.8069 49.5785 50.83 49.3761 50.8838 49.1269L51.368 46.7831C51.3911 46.6663 51.4065 46.5495 51.4065 46.4483C51.4065 45.9811 51.1605 45.6774 50.8146 45.6774C50.5302 45.6774 50.315 45.7553 50.069 45.911C50.1075 46.0667 50.1305 46.2069 50.1305 46.3626C50.1305 46.4561 50.1152 46.5417 50.1075 46.6352L49.1544 51.1981H47.2942L48.2166 46.7753C48.2397 46.6585 48.255 46.5417 48.255 46.4405C48.255 45.9733 48.0091 45.6696 47.6632 45.6696C47.3557 45.6696 47.1328 45.7631 46.8792 45.9422L45.7723 51.1981H43.9199L45.2804 44.6963H47.1328L46.9945 45.3893C47.5095 45.0155 48.1013 44.6963 48.6547 44.6963C49.1313 44.6963 49.6463 45.0467 49.923 45.5528C50.4918 45.1012 51.1682 44.6963 51.7985 44.6963C52.5056 44.6963 53.2743 45.4516 53.2743 46.3393C53.2743 46.4405 53.2589 46.5339 53.2512 46.6352L52.7285 49.1269Z" fill="#191825"/>
<path d="M56.7028 44.7041L56.649 44.9533C56.918 44.8131 57.2255 44.7197 57.5483 44.7197C58.8857 44.7197 59.516 45.2025 59.516 46.5418C59.516 46.8143 59.493 47.118 59.4391 47.4528C59.0395 50.2482 57.9326 51.1982 56.6259 51.1982C56.2032 51.1982 55.8035 51.058 55.4192 50.8089L54.7504 53.9936L52.8135 54.4608L54.8581 44.7041H56.7028ZM57.7943 47.6007C57.9096 47.0245 57.9634 46.5963 57.9634 46.2848C57.9634 45.5061 57.6559 45.3504 57.2408 45.3504C56.9949 45.3504 56.7566 45.4516 56.5106 45.6229L55.5883 49.9912C55.8957 50.2248 56.2185 50.2249 56.4261 50.2249C57.0641 50.2326 57.3715 49.672 57.7943 47.6007Z" fill="#191825"/>
<path d="M62.6135 44.7037L61.6911 49.1266C61.6681 49.2667 61.6373 49.4147 61.6373 49.5315C61.6373 49.8196 61.768 50.022 62.283 50.022C62.798 50.022 63.4667 49.2901 63.9817 48.8774H64.4198C63.8279 49.4769 62.3752 51.2056 61.376 51.2056C60.3844 51.2056 59.7695 50.7617 59.7695 49.7884C59.7695 49.5937 59.7926 49.3757 59.8464 49.1266L60.7688 44.7037H62.6135ZM62.0216 41.9473C62.5904 41.9473 63.0516 42.4145 63.0516 42.9907C63.0516 43.5669 62.5904 44.0185 62.0216 44.0185C61.4528 44.0185 61.007 43.5669 61.007 42.9907C61.007 42.4145 61.4528 41.9473 62.0216 41.9473Z" fill="#191825"/>
<path d="M68.2397 46.4868C68.3166 46.5647 68.4319 46.6036 68.6087 46.6036C69.2159 46.6036 69.4849 46.1598 69.9538 45.9651L70.0076 46.2376C69.6079 46.7438 68.9392 47.172 68.1936 47.3823C67.9476 49.9986 66.5487 51.2834 65.2651 51.2834C63.8892 51.2834 63.2974 50.6994 63.2974 49.1498C63.2974 45.9495 64.9038 44.5713 66.6717 44.5713C67.9015 44.5713 68.209 45.5368 68.2397 46.4868ZM67.2482 47.5146C66.8792 47.5146 66.7101 47.2421 66.7101 46.9306C66.7101 46.5569 66.9253 46.152 67.2789 46.0196C67.2405 45.5913 67.1021 45.3422 66.7409 45.3422C65.5341 45.3422 65.0191 47.9974 65.0191 49.0408C65.0191 49.8195 65.3804 50.0297 65.88 50.0297C66.6563 50.0219 67.0944 48.7761 67.2482 47.5146Z" fill="#191825"/>
<path d="M73.3512 51.206C72.5134 51.206 72.0445 50.7621 72.0445 49.7888C72.0445 49.5785 72.0676 49.3761 72.1214 49.1269L72.6057 46.7831C72.6287 46.6663 72.6441 46.5496 72.6441 46.4483C72.6441 45.9811 72.3981 45.6774 72.0522 45.6774C71.7448 45.6774 71.5142 45.7709 71.2452 45.95L70.1537 51.206H68.3013L69.6618 44.7041H71.5142L71.3605 45.4049C71.8908 45.0156 72.475 44.7041 73.0438 44.7041C73.7509 44.7041 74.5196 45.4594 74.5196 46.3471C74.5196 46.4483 74.5042 46.5418 74.4965 46.643C74.435 47.0713 73.8816 49.3605 73.8816 49.6486C73.8816 49.8667 73.9815 50.0535 74.3582 50.0535C74.4504 50.0535 74.5887 50.0535 74.6887 50.0146C74.3274 51.1281 73.7894 51.206 73.3512 51.206Z" fill="#191825"/>
<path d="M26.6643 36.799V38.6522H25.3423V33.6221H27.064C28.4476 33.6221 29.147 34.1126 29.147 35.1872C29.147 35.8412 28.855 36.2228 28.2324 36.5576L29.4699 38.66H28.0018L27.0333 36.8068H26.6643V36.799ZM27.1102 35.888C27.5637 35.888 27.7942 35.6699 27.7942 35.1872C27.7942 34.7511 27.5406 34.5565 27.041 34.5565H26.672V35.888H27.1102Z" fill="#191825"/>
<path d="M30.846 37.6244L30.6231 38.6522H29.2549L30.723 33.6221H32.3064L33.7745 38.6522H32.3756L32.1527 37.6244H30.846ZM31.4993 34.5798L31.0458 36.6744H31.9451L31.4993 34.5798Z" fill="#191825"/>
<path d="M37.4791 34.0663L36.8334 34.8294C36.5797 34.6036 36.3184 34.479 35.9725 34.479C35.3807 34.479 34.981 34.9851 34.981 36.1375C34.981 37.2744 35.3807 37.7805 36.0033 37.7805C36.3722 37.7805 36.6566 37.5859 36.9487 37.36L37.5329 38.1231C37.1793 38.4813 36.6259 38.7928 35.9341 38.7928C34.5352 38.7928 33.6128 37.8662 33.6128 36.1375C33.6128 34.4556 34.5736 33.5057 35.8957 33.5057C36.5797 33.4901 37.064 33.7081 37.4791 34.0663Z" fill="#191825"/>
<path d="M37.9404 38.6522V33.6221H39.2625V38.6522H37.9404Z" fill="#191825"/>
<path d="M42.2906 38.6522L41.03 34.8679C41.0915 35.3429 41.1991 36.0204 41.1991 36.9548V38.6522H40.0308V33.6221H41.6603L42.9593 37.422C42.8824 36.9236 42.7825 36.3007 42.7825 35.4441V33.6221H43.9508V38.6522H42.2906Z" fill="#191825"/>
<path d="M48.678 34.1287L48.0016 34.8373C47.6941 34.5726 47.4328 34.4402 47.0408 34.4402C46.349 34.4402 45.8955 34.9619 45.8955 36.1377C45.8955 37.4147 46.1953 37.8196 46.8256 37.8196C47.0485 37.8196 47.233 37.7729 47.4097 37.6717V36.6438H46.8486L46.718 35.725H48.6857V38.2245C48.163 38.5749 47.4789 38.7774 46.8486 38.7774C45.2652 38.7774 44.5273 37.843 44.5273 36.1299C44.5273 34.4324 45.5881 33.4902 46.9562 33.4902C47.6941 33.4902 48.2706 33.7628 48.678 34.1287Z" fill="#191825"/>
<path d="M54.2122 37.6088L54.0661 38.6522H50.9839V33.6221H52.3059V37.6088H54.2122Z" fill="#191825"/>
<path d="M55.9959 34.5721V35.6466H57.4717V36.5655H55.9959V37.7101H57.8022V38.6601H54.6738V33.6299H57.8252L57.6869 34.5799H55.9959V34.5721Z" fill="#191825"/>
<path d="M59.4778 37.6244L59.2549 38.6522H57.8867L59.3548 33.6221H60.9382L62.4063 38.6522H61.0074L60.7845 37.6244H59.4778ZM60.1388 34.5798L59.6853 36.6744H60.5847L60.1388 34.5798Z" fill="#191825"/>
<path d="M66.3953 34.1287L65.7189 34.8373C65.4114 34.5726 65.1501 34.4402 64.7581 34.4402C64.0663 34.4402 63.6128 34.9619 63.6128 36.1377C63.6128 37.4147 63.9126 37.8196 64.5429 37.8196C64.7658 37.8196 64.9502 37.7729 65.127 37.6717V36.6438H64.5659L64.4353 35.725H66.403V38.2245C65.8803 38.5749 65.1962 38.7774 64.5659 38.7774C62.9825 38.7774 62.2446 37.843 62.2446 36.1299C62.2446 34.4324 63.3054 33.4902 64.6735 33.4902C65.4191 33.4902 65.9956 33.7628 66.3953 34.1287Z" fill="#191825"/>
<path d="M71.0072 36.9704C71.0072 37.9904 70.3538 38.7847 69.0087 38.7847C67.6559 38.7847 67.0103 38.0449 67.0103 36.9704V33.6299H68.3323V36.9314C68.3323 37.5232 68.5245 37.8113 69.0087 37.8113C69.4853 37.8113 69.6774 37.5232 69.6774 36.9314V33.6299H71.0072V36.9704Z" fill="#191825"/>
<path d="M73.0213 34.5721V35.6466H74.4971V36.5655H73.0213V37.7101H74.8276V38.6601H71.6992V33.6299H74.8506L74.7123 34.5799H73.0213V34.5721Z" fill="#191825"/>
<path d="M81.9904 32.9993C82.4131 34.1907 83.0895 34.9694 83.6814 35.4755C84.2732 35.9816 84.7728 36.1996 84.7728 36.1996C84.7728 36.1996 85.211 35.857 85.5876 35.1484C85.9719 34.4399 86.3101 33.3497 86.0872 31.9404C85.8874 30.7023 84.9727 29.5187 84.0964 28.7245C83.2202 27.9224 82.3901 27.502 82.3901 27.502C82.3901 27.502 82.1518 28.3974 81.9596 29.5109C81.7675 30.6244 81.6137 31.9559 81.9904 32.9993ZM83.2433 29.7445C83.2433 29.7445 83.4892 30.2584 83.7736 31.0137C84.058 31.7613 84.3808 32.7502 84.5653 33.669C84.7421 34.5878 84.8113 35.2808 84.842 35.7714C84.8497 36.0128 84.6422 36.0439 84.5884 35.8103C84.4654 35.3431 84.304 34.6735 84.1041 33.7702C83.7121 31.9637 83.2433 29.7445 83.2433 29.7445Z" fill="#FF8F1F"/>
<path d="M82.1824 40.4668C82.9203 41.0197 83.6582 41.2532 84.2193 41.3233C84.7804 41.3934 85.1647 41.3078 85.1647 41.3078C85.1647 41.3078 85.2724 40.9262 85.2185 40.35C85.1647 39.7816 84.9342 39.0185 84.2577 38.341C83.6813 37.7415 82.6974 37.4767 81.8903 37.3599C81.0756 37.2431 80.4146 37.2743 80.4146 37.2743C80.4146 37.2743 80.4453 37.4144 80.5145 37.6403C80.5837 37.8661 80.6989 38.1697 80.8296 38.5046C81.1217 39.182 81.5444 39.9763 82.1824 40.4668ZM81.7289 38.2165C81.7289 38.2165 83.0817 39.0107 84.0271 39.9217C84.496 40.3734 84.8112 40.7549 85.0264 41.0274C85.134 41.1676 85.0187 41.2688 84.888 41.1598C84.6267 40.934 84.2501 40.607 83.7735 40.1631C82.8896 39.3144 81.7289 38.2165 81.7289 38.2165Z" fill="#FF8F1F"/>
<path d="M88.8468 33.5293C88.8468 33.5293 86.3333 34.378 85.4725 35.8497C84.9805 36.6907 84.8499 37.4616 84.8422 38.03C84.8345 38.5984 84.9498 38.9799 84.9498 38.9799C84.9498 38.9799 85.3341 39.0578 85.8952 38.9722C86.4563 38.8865 87.1942 38.6295 87.8706 37.8898C88.4778 37.2435 88.7469 36.1456 88.8314 35.2112C88.9236 34.2846 88.8468 33.5293 88.8468 33.5293ZM86.2488 37.6951C85.8107 38.2246 85.4648 38.5828 85.2111 38.8164C85.0805 38.9332 84.9728 38.832 85.0651 38.6918C85.2572 38.4037 85.557 38.0066 85.9721 37.4615C86.7945 36.3948 87.8783 35.0866 87.8783 35.0866C87.8783 35.0866 87.1097 36.6517 86.2488 37.6951Z" fill="#FF8F1F"/>
<path d="M81.8671 44.2897C82.4897 44.9516 83.1815 45.3176 83.7196 45.4889C84.2576 45.668 84.6496 45.6524 84.6496 45.6524C84.6496 45.6524 84.8187 45.2942 84.8725 44.718C84.9033 44.1418 84.811 43.3476 84.2499 42.5767C83.7734 41.8992 82.8356 41.4866 82.0593 41.2607C81.2753 41.0349 80.6143 40.9648 80.6143 40.9648C80.6143 40.9648 80.6681 41.5177 80.8449 42.2029C81.0293 42.8804 81.3137 43.7057 81.8671 44.2897ZM81.7826 42.055C81.7826 42.055 82.0824 42.2964 82.4821 42.6701C82.8894 43.0439 83.3814 43.5578 83.7657 44.0795C84.1654 44.609 84.396 45.0295 84.5651 45.3409C84.6419 45.4967 84.5189 45.5745 84.4113 45.4422C84.1884 45.1696 83.8963 44.7881 83.4967 44.2742C82.7511 43.3086 81.7826 42.055 81.7826 42.055Z" fill="#FF8F1F"/>
<path d="M89.477 38.4346C89.477 38.4346 86.879 38.9485 85.8182 40.2878C85.2187 41.0587 84.9651 41.7906 84.8805 42.3513C84.7729 42.9119 84.8344 43.3012 84.8344 43.3012C84.8344 43.3012 85.2033 43.4414 85.7721 43.4492C86.3409 43.4492 87.1019 43.3246 87.8936 42.6939C88.5853 42.141 89.0235 41.0665 89.2387 40.1321C89.4539 39.2132 89.477 38.4346 89.477 38.4346ZM86.3255 42.25C85.8182 42.7094 85.4109 43.0053 85.1265 43.2C84.9881 43.2934 84.8882 43.1766 85.0035 43.052C85.2341 42.8029 85.6184 42.4525 86.0873 41.9775C87.1172 41.0119 88.324 39.8751 88.324 39.8751C88.324 39.8751 87.3325 41.3468 86.3255 42.25Z" fill="#FF8F1F"/>
<path d="M80.8603 47.8715C81.3599 48.6502 81.9287 49.1408 82.4283 49.4289C82.9202 49.717 83.3045 49.787 83.3045 49.787C83.3045 49.787 83.5659 49.4834 83.7119 48.9227C83.881 48.3777 83.9195 47.5679 83.5351 46.7113C83.1662 45.9482 82.3668 45.3876 81.6212 45.0216C80.8833 44.6556 80.2454 44.4766 80.2454 44.4766C80.2454 44.4766 80.2377 44.6089 80.2377 44.8269C80.23 45.045 80.23 45.3409 80.2607 45.6835C80.3145 46.3609 80.4375 47.2019 80.8603 47.8715ZM81.1908 45.7302C81.1908 45.7302 81.4598 46.0183 81.7749 46.4621C82.0824 46.8982 82.4898 47.5056 82.7588 48.0896C83.0201 48.6736 83.1969 49.1563 83.2815 49.4912C83.3199 49.6547 83.1816 49.7092 83.1047 49.5534C82.9587 49.2498 82.7434 48.8137 82.4437 48.2141C82.1746 47.6457 81.8518 46.9994 81.6135 46.5322C81.4982 46.2986 81.3906 46.0962 81.3138 45.956C81.2369 45.8081 81.1908 45.7302 81.1908 45.7302Z" fill="#FF8F1F"/>
<path d="M89.3923 43.5195C89.3923 43.5195 88.7313 43.5351 87.9165 43.7064C87.1017 43.8777 86.1102 44.1892 85.4876 44.7654C84.7497 45.4195 84.3885 46.0969 84.1809 46.6264C84.0887 46.8989 84.0349 47.1247 83.9965 47.2883C83.9657 47.4518 83.958 47.553 83.958 47.553C83.958 47.553 84.2885 47.7633 84.8419 47.8879C85.3877 48.0047 86.1947 48.0358 87.0787 47.553C87.463 47.335 87.832 46.9846 88.1394 46.5641C88.4315 46.1436 88.6928 45.6686 88.8773 45.217C89.0618 44.7654 89.1925 44.3371 89.277 44.0335C89.3616 43.7142 89.3923 43.5195 89.3923 43.5195ZM85.6183 46.7899C85.0418 47.1559 84.5883 47.3661 84.2655 47.4907C84.104 47.553 84.0349 47.4206 84.1809 47.3194C84.4807 47.117 84.8957 46.8366 85.4492 46.4707C86.0333 46.0891 86.6713 45.6687 87.1632 45.3494C87.6782 45.0146 88.0241 44.7732 88.0241 44.7732C88.0241 44.7732 87.732 45.108 87.2708 45.5207C86.802 45.949 86.2101 46.4395 85.6183 46.7899Z" fill="#FF8F1F"/>
<path d="M79.1309 51.0951C79.423 51.9439 79.8765 52.5746 80.2916 52.9639C80.6989 53.361 81.0602 53.5168 81.0602 53.5168C81.0602 53.5168 81.383 53.2754 81.6597 52.7692C81.9288 52.2631 82.1824 51.5 81.9672 50.5656C81.8135 49.7558 81.0832 49.0083 80.453 48.51C79.815 47.996 79.2308 47.6846 79.2308 47.6846C79.2308 47.6846 79.1924 47.8091 79.1463 48.0116C79.0925 48.214 79.0617 48.5178 79.0002 48.837C78.9311 49.5067 78.8542 50.332 79.1309 51.0951ZM79.9226 49.1095C79.9226 49.1095 80.1071 49.4366 80.33 49.9349C80.4376 50.1841 80.5606 50.48 80.6759 50.7914C80.7758 51.0951 80.868 51.4221 80.9372 51.7336C81.0833 52.3799 81.1294 52.8705 81.1294 53.2131C81.1371 53.3844 80.9833 53.4078 80.9449 53.2365C80.8604 52.8938 80.7758 52.4266 80.6067 51.7881C80.453 51.1574 80.3146 50.4878 80.1686 49.9661C80.0148 49.4677 79.9226 49.1095 79.9226 49.1095Z" fill="#FF8F1F"/>
<path d="M88.3854 48.6505C88.3854 48.6505 87.7244 48.5414 86.8866 48.5492C86.0488 48.557 85.0495 48.6738 84.2886 49.1021C83.4584 49.6004 82.9281 50.1611 82.6283 50.6438C82.3055 51.111 82.2056 51.4926 82.2056 51.4926C82.2056 51.4926 82.4823 51.7729 82.9973 52.0221C83.5123 52.2635 84.2578 52.4659 85.2494 52.1856C86.1102 51.9442 86.9634 51.0799 87.5169 50.2467C87.809 49.834 88.0242 49.4369 88.1625 49.1332C88.3086 48.8451 88.3854 48.6505 88.3854 48.6505ZM84.0042 51.1344C83.3432 51.3524 82.8589 51.4536 82.5207 51.5159C82.3516 51.5393 82.3132 51.3914 82.4746 51.3291C82.7897 51.1967 83.2817 51.0332 83.9043 50.784C84.5269 50.5348 85.2724 50.2779 85.8182 50.0443C86.387 49.8107 86.779 49.6471 86.779 49.6471C86.779 49.6471 86.4023 49.9119 85.8797 50.2311C85.357 50.5582 84.6268 50.9008 84.0042 51.1344Z" fill="#FF8F1F"/>
<path d="M76.7022 53.8523C76.7637 54.7555 77.0866 55.4641 77.4094 55.9313C77.7322 56.4063 78.0474 56.6321 78.0474 56.6321C78.0474 56.6321 78.4163 56.4764 78.8083 56.0559C79.1696 55.612 79.6 54.9424 79.6 53.9768C79.6231 53.1515 79.1081 52.2716 78.6008 51.6253C78.0935 50.979 77.5939 50.5352 77.5939 50.5352C77.5939 50.5352 77.5324 50.6442 77.4401 50.8388C77.3556 51.0335 77.2403 51.306 77.1096 51.6097C76.8867 52.2482 76.5946 53.0347 76.7022 53.8523ZM77.9244 52.0691C77.9244 52.0691 78.032 52.4351 78.1319 52.9802C78.2472 53.533 78.3164 54.226 78.3087 54.8801C78.3164 55.5497 78.2318 56.0325 78.1627 56.3596C78.1319 56.5231 77.9782 56.5075 77.9705 56.344C77.9551 55.9936 77.9936 55.5342 77.9705 54.8645C77.9551 54.2027 77.9859 53.5252 77.9551 52.9802C77.9397 52.4507 77.9244 52.0691 77.9244 52.0691Z" fill="#FF8F1F"/>
<path d="M86.2869 53.5712C86.2869 53.5712 85.672 53.3143 84.8573 53.1429C84.0502 52.9716 83.0048 52.8315 82.1978 53.0884C81.7443 53.2364 81.3292 53.3999 81.0141 53.6024C80.6989 53.8048 80.4376 54.015 80.23 54.2019C79.815 54.5835 79.6382 54.9417 79.6382 54.9417C79.6382 54.9417 79.8457 55.2765 80.2915 55.6347C80.7373 55.9851 81.4214 56.351 82.436 56.3121C83.343 56.2887 84.3423 55.6347 85.0878 54.9572C85.4491 54.6146 85.7642 54.272 85.9795 54.015C86.1716 53.7425 86.2869 53.5712 86.2869 53.5712ZM81.4445 54.9884C80.7527 55.0507 80.2608 55.0429 79.9226 55.0195C79.7535 55.0117 79.7458 54.856 79.9149 54.8248C80.2531 54.7703 80.745 54.708 81.4291 54.6302C82.1286 54.5367 82.8818 54.4355 83.4583 54.3577C84.0579 54.2564 84.4806 54.1864 84.4806 54.1864C84.4806 54.1864 84.0732 54.3732 83.4737 54.5523C82.8665 54.7314 82.1286 54.9339 81.4445 54.9884Z" fill="#FF8F1F"/>
<path d="M73.6278 56.2119C73.5663 57.1386 73.7815 57.8939 74.0352 58.4078C74.2811 58.9217 74.5655 59.202 74.5655 59.202C74.5655 59.202 74.9422 59.0774 75.388 58.7192C75.6109 58.5401 75.8492 58.3066 76.0644 58.0029C76.2719 57.6914 76.4256 57.2709 76.5179 56.8037C76.8484 55.1296 75.2727 52.9883 75.2727 52.9883C75.2727 52.9883 74.8807 53.3854 74.4964 54.0005C74.2965 54.3042 74.1197 54.6858 73.9506 55.0517C73.7815 55.4099 73.6508 55.7992 73.6278 56.2119ZM75.2266 54.5923C75.2266 54.5923 75.2496 54.9895 75.2496 55.5501C75.2496 55.8304 75.2419 56.1575 75.2189 56.5001C75.1958 56.8349 75.142 57.1541 75.0805 57.4734C74.9575 58.1119 74.8192 58.5869 74.7116 58.9217C74.6578 59.0852 74.5117 59.0541 74.5271 58.8828C74.5655 58.5324 74.6347 58.0418 74.7423 57.4033C74.8499 56.7726 75.0037 56.0952 75.0728 55.5267C75.1651 54.9817 75.2266 54.5923 75.2266 54.5923Z" fill="#FF8F1F"/>
<path d="M83.1204 57.893C83.1204 57.893 82.5823 57.5037 81.829 57.1455C81.0681 56.7717 80.0996 56.4136 79.2541 56.4758C78.2779 56.5226 77.5554 56.8029 77.0865 57.1221C76.6177 57.4336 76.3794 57.7528 76.3794 57.7528C76.3794 57.7528 76.5254 58.1266 76.9021 58.5549C77.2787 58.9753 77.8859 59.4581 78.8621 59.6139C79.723 59.7384 80.7991 59.4192 81.6523 58.9442C82.075 58.695 82.444 58.4303 82.713 58.2356C82.982 58.0487 83.1204 57.893 83.1204 57.893ZM78.1319 58.1344C77.4632 58.0643 76.9789 57.9709 76.6484 57.893C76.487 57.8541 76.5024 57.6983 76.6715 57.6983C77.0097 57.7061 77.5016 57.7295 78.1703 57.7762C78.839 57.8307 79.6 57.9164 80.2072 57.9942C80.7991 58.0487 81.2295 58.0643 81.2295 58.0643C81.2295 58.0643 81.1219 58.0799 80.9297 58.111C80.7453 58.1344 80.4839 58.1811 80.1765 58.1811C79.5769 58.2045 78.8006 58.2045 78.1319 58.1344Z" fill="#FF8F1F"/>
<path d="M70.2531 58.1268C70.0763 59.069 70.1531 59.7932 70.3299 60.3538C70.499 60.8989 70.7373 61.2181 70.7373 61.2181C70.7373 61.2181 71.1447 61.187 71.6136 60.8599C72.0978 60.5485 72.682 60.0112 73.0202 59.1469C73.3276 58.3838 73.1278 57.3326 72.8895 56.5462C72.6435 55.7519 72.3361 55.1523 72.3361 55.1523C72.3361 55.1523 72.2285 55.2458 72.0671 55.4015C71.898 55.5573 71.6981 55.8142 71.4445 56.0712C70.9602 56.5773 70.4222 57.3015 70.2531 58.1268ZM72.0978 56.7797C72.0978 56.7797 71.9287 58.3137 71.5059 59.5752C71.2984 60.1981 71.1063 60.6886 70.9448 60.9845C70.868 61.1325 70.7219 61.0702 70.7681 60.9067C70.8603 60.5796 70.9987 60.1047 71.1908 59.4584C71.5751 58.1891 72.0978 56.7797 72.0978 56.7797Z" fill="#FF8F1F"/>
<path d="M79.2999 61.2882C79.2999 61.2882 78.8387 60.8054 78.17 60.3149C77.509 59.8399 76.6097 59.287 75.7565 59.2014C74.7803 59.0924 74.0578 59.326 73.5505 59.5674C73.0201 59.7776 72.728 60.0345 72.728 60.0345C72.728 60.0345 72.8203 60.4239 73.1277 60.8989C73.4429 61.3816 73.9732 61.9501 74.934 62.2927C75.7641 62.573 76.8479 62.316 77.7472 62.0201C78.1931 61.8644 78.5927 61.7087 78.8618 61.5529C79.1462 61.3972 79.2999 61.2882 79.2999 61.2882ZM74.4421 60.7198C73.7887 60.5485 73.3122 60.346 72.9894 60.2136C72.8279 60.1436 72.8741 59.9956 73.0432 60.0345C73.3814 60.0968 73.8887 60.2448 74.5266 60.3694C75.8026 60.6497 77.4705 61.1013 77.4705 61.1013C77.4705 61.1013 75.7103 61.039 74.4421 60.7198Z" fill="#FF8F1F"/>
<path d="M66.6097 59.5128C66.2869 60.3849 66.2869 61.1792 66.3868 61.7398C66.4867 62.3082 66.6789 62.6508 66.6789 62.6508C66.6789 62.6508 67.0709 62.6353 67.6012 62.4172C67.8626 62.3082 68.1623 62.1525 68.4544 61.9189C68.7388 61.6697 69.0079 61.3271 69.2384 60.9144C70.0378 59.4194 69.1693 56.9043 69.1693 56.9043C69.1693 56.9043 68.6697 57.1691 68.1162 57.644C67.8395 57.8776 67.5474 58.1735 67.2784 58.4928C66.9863 58.7809 66.7557 59.1235 66.6097 59.5128ZM68.6312 58.4227C68.6312 58.4227 68.539 58.8043 68.3776 59.3493C68.2162 59.8944 67.9702 60.5874 67.6627 61.148C67.363 61.7242 67.1016 62.1447 66.9018 62.4328C66.8019 62.573 66.6712 62.5029 66.7404 62.3394C66.871 62.0123 67.0786 61.5607 67.363 60.9767C67.6474 60.4005 67.9856 59.7776 68.2162 59.2636C68.4544 58.7731 68.6312 58.4227 68.6312 58.4227Z" fill="#FF8F1F"/>
<path d="M75.1112 63.9822C75.1112 63.9822 73.5585 61.7785 71.929 61.397C71.6984 61.3425 71.4755 61.3114 71.268 61.2958C71.0528 61.2646 70.8529 61.2568 70.6608 61.2568C70.2841 61.2568 69.9536 61.3191 69.6846 61.397C69.1389 61.5527 68.8237 61.7863 68.8237 61.7863C68.8237 61.7863 68.8622 62.1835 69.1004 62.7052C69.3387 63.2191 69.7845 63.8576 70.6761 64.3092C71.0681 64.5039 71.5447 64.5973 72.0366 64.6285C72.2826 64.6363 72.5363 64.644 72.7899 64.6207C73.0359 64.5895 73.2742 64.5428 73.4971 64.4883C74.4041 64.278 75.1112 63.9822 75.1112 63.9822ZM70.3917 62.6662C69.7692 62.3937 69.3387 62.1601 69.0389 61.9888C68.8929 61.9031 68.9544 61.763 69.1158 61.8097C69.4386 61.9187 69.8998 62.0822 70.5301 62.3392C71.1527 62.5806 71.8675 62.931 72.3979 63.1334C72.9436 63.3592 73.328 63.515 73.328 63.515C73.328 63.515 72.8975 63.4449 72.321 63.3203C71.7522 63.1879 71.0067 62.931 70.3917 62.6662Z" fill="#FF8F1F"/>
<path d="M62.7899 60.4396C62.3517 61.2495 62.2595 62.0281 62.2826 62.6043C62.3056 63.1805 62.4593 63.5465 62.4593 63.5465C62.4593 63.5465 62.8514 63.5932 63.4048 63.4531C63.9505 63.2896 64.65 62.9158 65.2111 62.1605C65.7107 61.5064 65.826 60.4708 65.8106 59.6376C65.8029 58.8045 65.6723 58.1426 65.6723 58.1426C65.6723 58.1426 65.5416 58.1971 65.3341 58.3139C65.1265 58.4307 64.8421 58.5942 64.527 58.7655C63.8967 59.1237 63.1742 59.7077 62.7899 60.4396ZM64.9574 59.622C64.9574 59.622 64.3656 61.0704 63.6277 62.1838C63.2664 62.7523 62.9436 63.1027 62.713 63.3674C62.5977 63.492 62.4747 63.3986 62.5593 63.2506C62.7284 62.9469 62.9974 62.542 63.351 61.9892C64.0581 60.8523 64.9574 59.622 64.9574 59.622Z" fill="#FF8F1F"/>
<path d="M70.6069 66.0221C70.6069 66.0221 70.3071 65.4225 69.8075 64.7529C69.3156 64.0988 68.6161 63.3201 67.8244 62.9853C66.9251 62.596 66.1718 62.6427 65.603 62.6972C65.0419 62.7595 64.6884 62.9386 64.6884 62.9386C64.6884 62.9386 64.673 63.3357 64.8421 63.8808C65.0189 64.4258 65.3801 65.1266 66.1949 65.7106C66.9174 66.2557 68.0089 66.2868 68.9389 66.2635C69.8844 66.2557 70.6069 66.0221 70.6069 66.0221ZM66.1411 64.0677C65.5569 63.7017 65.1572 63.4058 64.8882 63.18C64.7575 63.071 64.8344 62.9464 64.9881 63.0242C65.2956 63.18 65.7414 63.4291 66.3256 63.764C67.4785 64.3947 68.9236 65.3057 68.9236 65.3057C68.9236 65.3057 67.2787 64.7451 66.1411 64.0677Z" fill="#FF8F1F"/>
<path d="M58.8389 60.8754C58.3162 61.6619 58.1317 62.4016 58.0933 62.9778C58.0549 63.5462 58.1702 63.9356 58.1702 63.9356C58.1702 63.9356 58.2701 63.9589 58.4315 63.9745C58.6006 63.9901 58.8389 63.9901 59.1156 63.9356C59.6767 63.8344 60.4146 63.5696 61.0679 62.8844C62.2132 61.6152 62.021 58.9443 62.021 58.9443C62.021 58.9443 61.4599 59.0923 60.7912 59.4271C60.1071 59.7386 59.3077 60.1746 58.8389 60.8754ZM61.1064 60.3148C61.1064 60.3148 60.9219 60.6808 60.6221 61.148C60.3224 61.6152 59.9073 62.1992 59.4845 62.7053C59.0541 63.2036 58.7005 63.5774 58.4392 63.7876C58.3085 63.8966 58.2009 63.7954 58.3008 63.6553C58.5084 63.3905 58.8081 63.0012 59.2232 62.4717C59.6383 61.9578 60.1148 61.4283 60.4838 61.0234C60.6682 60.8287 60.822 60.6496 60.9296 60.5173C61.0449 60.3927 61.1064 60.3148 61.1064 60.3148Z" fill="#FF8F1F"/>
<path d="M65.926 67.3924C65.926 67.3924 65.0344 64.854 63.5663 64.0519C62.7208 63.5458 61.9598 63.4446 61.3987 63.4679C61.1143 63.4835 60.8837 63.5224 60.7223 63.5458C60.5609 63.5769 60.4687 63.6081 60.4687 63.6081C60.4687 63.6081 60.4072 63.9974 60.5148 64.5658C60.6224 65.1187 60.9068 65.8818 61.637 66.5359C62.2827 67.1043 63.3588 67.3613 64.2734 67.4469C65.1804 67.4858 65.926 67.3924 65.926 67.3924ZM61.7677 64.8695C61.2373 64.4646 60.876 64.122 60.6301 63.8651C60.5071 63.7405 60.607 63.6237 60.7531 63.7249C61.0452 63.9351 61.4448 64.1921 61.9906 64.5892C62.5286 64.9863 63.1205 65.4613 63.5817 65.8351C64.0428 66.2244 64.3734 66.4658 64.3734 66.4658C64.3734 66.4658 63.9814 66.2945 63.4664 65.983C62.936 65.6871 62.2903 65.2822 61.7677 64.8695Z" fill="#FF8F1F"/>
<path d="M54.8497 60.8991C54.2425 61.6155 53.9888 62.3474 53.8966 62.9158C53.8044 63.4843 53.8735 63.8736 53.8735 63.8736C53.8735 63.8736 54.2502 64.0138 54.819 63.9748C55.3878 63.9281 56.1487 63.7646 56.8712 63.1261C58.1472 62.0048 58.2548 59.334 58.2548 59.334C58.2548 59.334 57.6706 59.4119 56.9635 59.661C56.2333 59.9024 55.3801 60.245 54.8497 60.8991ZM57.171 60.5721C57.171 60.5721 56.9481 60.8991 56.5945 61.3507C56.2486 61.7868 55.7721 62.3241 55.2955 62.7757C54.819 63.2351 54.427 63.5466 54.1502 63.7412C54.0119 63.8425 53.912 63.7257 54.0273 63.6011C54.2579 63.3441 54.6037 63.0015 55.0726 62.5265C55.5415 62.0593 56.0718 61.5843 56.4792 61.2184C56.8789 60.8446 57.171 60.5721 57.171 60.5721Z" fill="#FF8F1F"/>
<path d="M61.1678 68.1712C61.1678 68.1712 60.5837 65.5393 59.2155 64.5504C58.4315 63.9976 57.6859 63.764 57.1248 63.7328C56.5637 63.6939 56.1871 63.7795 56.1871 63.7795C56.1871 63.7795 56.0871 64.1611 56.1333 64.7373C56.1871 65.3057 56.3792 66.0844 57.0403 66.8085C57.6167 67.4393 58.6467 67.8597 59.5383 67.9999C60.4223 68.1634 61.1678 68.1712 61.1678 68.1712ZM57.34 65.1733C56.8558 64.6984 56.533 64.3402 56.3177 64.0521C56.2101 63.9119 56.3177 63.8107 56.4484 63.9197C56.7174 64.1455 57.0864 64.457 57.586 64.9164C58.0779 65.368 58.6083 65.9286 59.0233 66.3335C59.4384 66.754 59.7382 67.0421 59.7382 67.0421C59.7382 67.0421 59.3769 66.8163 58.8927 66.4737C58.4084 66.1311 57.8166 65.6405 57.34 65.1733Z" fill="#FF8F1F"/>
<path d="M84.8804 35.7637C84.8804 35.7637 85.0265 36.6124 85.1571 38.1152C85.2724 39.6103 85.3647 41.7827 84.9727 44.3445C84.5883 46.8908 83.689 49.8575 81.8674 52.5439C80.0918 55.2536 77.4246 57.5351 74.5269 59.3183C71.6214 61.117 68.4085 62.3629 65.3109 63.087C62.2056 63.819 59.2232 64.0681 56.679 64.0603C54.1272 64.0526 52.0134 63.819 50.5453 63.5931C49.0772 63.3673 48.2471 63.1571 48.2471 63.1571L48.3316 62.8145C48.3316 62.8145 49.1387 63.0247 50.5991 63.2428C52.0518 63.4608 54.1502 63.6944 56.679 63.7022C59.2002 63.7177 62.1595 63.4608 65.234 62.7444C68.3086 62.028 71.483 60.7899 74.3501 59.0146C77.2171 57.2548 79.8382 54.9967 81.583 52.3414C83.3662 49.7096 84.2501 46.7974 84.6268 44.2823C85.0111 41.7594 84.9189 39.6103 84.8113 38.1308C84.6883 36.6436 84.5422 35.8026 84.5422 35.8026L84.8804 35.7637Z" fill="#FF8F1F"/>
<path d="M13.9813 31.9404C13.7584 33.3497 14.0966 34.4399 14.4809 35.1484C14.8652 35.857 15.2957 36.1996 15.2957 36.1996C15.2957 36.1996 15.7876 35.9816 16.3871 35.4755C16.979 34.9694 17.6554 34.1907 18.0781 32.9993C18.4471 31.9559 18.301 30.6244 18.1089 29.5109C17.9167 28.3974 17.6784 27.502 17.6784 27.502C17.6784 27.502 16.8483 27.9224 15.9721 28.7245C15.0958 29.5187 14.1811 30.7023 13.9813 31.9404ZM16.8176 29.7445C16.8176 29.7445 16.3487 31.9637 15.9644 33.7702C15.7645 34.6735 15.6031 35.3431 15.4801 35.8103C15.4186 36.0439 15.2111 36.0128 15.2265 35.7714C15.2495 35.2886 15.3187 34.5878 15.5032 33.669C15.6877 32.7579 16.0105 31.769 16.2949 31.0137C16.5716 30.2662 16.8176 29.7445 16.8176 29.7445Z" fill="#FF8F1F"/>
<path d="M12.0829 40.4583C12.8131 41.1436 13.5741 41.3382 14.1429 41.3772C14.7117 41.4161 15.0883 41.3071 15.0883 41.3071C15.0883 41.3071 15.1728 40.9255 15.119 40.3571C15.0652 39.7887 14.8731 39.0334 14.3273 38.2313C13.8354 37.5228 12.9669 37.0011 12.2059 36.6585C11.4449 36.3081 10.7993 36.1445 10.7993 36.1445C10.7993 36.1445 10.7916 36.3392 10.807 36.6429C10.8147 36.9544 10.8454 37.3748 10.93 37.842C11.076 38.7686 11.4296 39.8588 12.0829 40.4583ZM11.86 37.6396C11.86 37.6396 13.036 38.8777 13.9353 39.8821C14.3965 40.3883 14.7194 40.7698 14.9346 41.0345C15.0422 41.1669 14.9423 41.2759 14.8039 41.1747C14.5272 40.9567 14.1582 40.6374 13.6817 40.1391C13.2128 39.6485 12.7516 39.0334 12.4134 38.5272C12.0829 38.0211 11.86 37.6396 11.86 37.6396Z" fill="#FF8F1F"/>
<path d="M19.9691 35.2807C19.9691 35.2807 17.325 34.9692 16.0644 36.0749C15.3495 36.7056 15.0575 37.4454 14.9575 38.006C14.8576 38.5744 14.9345 38.9638 14.9345 38.9638C14.9345 38.9638 15.3111 39.0805 15.8722 39.0572C16.4333 39.0338 17.1943 38.8625 17.9706 38.3642C18.647 37.9204 19.1313 37.1495 19.4618 36.4876C19.7923 35.8335 19.9691 35.2807 19.9691 35.2807ZM16.3949 37.9359C15.8876 38.3408 15.4956 38.6367 15.2112 38.8392C15.0728 38.9404 14.9729 38.8236 15.0882 38.699C15.3265 38.442 15.6724 38.0917 16.1797 37.679C17.1866 36.838 18.5932 36.1372 18.5932 36.1372C18.5932 36.1372 17.4172 37.1261 16.3949 37.9359Z" fill="#FF8F1F"/>
<path d="M12.4825 45.3016C13.3357 45.8623 14.112 45.909 14.6731 45.8467C15.2342 45.7844 15.5878 45.6053 15.5878 45.6053C15.5878 45.6053 15.6109 45.2082 15.4494 44.6631C15.3111 44.1103 14.9959 43.4017 14.3272 42.6931C13.7277 42.0702 12.8053 41.6808 11.9906 41.4472C11.1835 41.2136 10.5225 41.1436 10.5225 41.1436C10.5225 41.1436 10.607 41.93 10.9068 42.8488C11.2066 43.7677 11.7446 44.8111 12.4825 45.3016ZM11.7984 42.4984C11.7984 42.4984 13.1051 43.5263 14.2196 44.3984C14.7346 44.8188 15.1266 45.1381 15.4033 45.3639C15.534 45.4729 15.4494 45.6053 15.2957 45.5196C14.9959 45.3561 14.5501 45.107 14.0044 44.6943C12.9129 43.8922 11.7984 42.4984 11.7984 42.4984Z" fill="#FF8F1F"/>
<path d="M19.4845 38.9951C19.4845 38.9951 16.825 39.0263 15.7259 40.3033C15.1033 41.0274 14.9342 41.8061 14.9111 42.3823C14.9111 42.9585 15.0418 43.3323 15.0418 43.3323C15.0418 43.3323 15.4261 43.3868 15.9872 43.27C16.5406 43.1532 17.2709 42.8651 17.9473 42.2577C18.5545 41.7282 18.9157 40.9184 19.1463 40.2332C19.3923 39.5558 19.4845 38.9951 19.4845 38.9951ZM16.3254 42.0864C15.8796 42.5614 15.5491 42.9196 15.2955 43.161C15.1725 43.2856 15.0572 43.1843 15.1494 43.0442C15.3493 42.7483 15.6183 42.3512 16.0641 41.8684C16.5022 41.3856 17.0326 40.9106 17.4707 40.568C17.9088 40.2254 18.224 40.0074 18.224 40.0074C18.224 40.0074 17.1556 41.1832 16.3254 42.0864Z" fill="#FF8F1F"/>
<path d="M13.8274 50.0753C14.7575 50.4646 15.5569 50.3323 16.0872 50.1454C16.6253 49.9585 16.925 49.7093 16.925 49.7093C16.925 49.7093 16.8405 49.3278 16.5945 48.8216C16.3255 48.3155 15.9027 47.6848 15.0957 47.1164C14.4116 46.6102 13.3893 46.4078 12.5668 46.3143C11.7367 46.2287 11.0757 46.2754 11.0757 46.2754C11.0757 46.2754 11.1295 46.4701 11.2371 46.7738C11.3524 47.0774 11.5369 47.4901 11.7675 47.934C12.2517 48.8061 12.9896 49.7483 13.8274 50.0753ZM12.5899 47.4123C12.5899 47.4123 12.9665 47.6147 13.5046 47.895C14.0273 48.1598 14.7037 48.5024 15.3339 48.8216C15.9258 49.1253 16.3716 49.3589 16.6868 49.5224C16.8405 49.6003 16.7867 49.7405 16.6253 49.7015C16.2794 49.6159 15.8259 49.4524 15.1956 49.1643C14.5653 48.8839 13.9273 48.4479 13.42 48.0819C13.1664 47.9028 12.9588 47.7315 12.8128 47.6069C12.6744 47.4823 12.5899 47.4123 12.5899 47.4123Z" fill="#FF8F1F"/>
<path d="M19.5463 42.6162C19.5463 42.6162 18.893 42.733 18.1244 43.0211C17.3557 43.3092 16.4872 43.7842 16.0414 44.5084C15.5648 45.3182 15.5187 46.128 15.6186 46.6886C15.657 46.9767 15.7339 47.2025 15.8108 47.3583C15.8799 47.514 15.9337 47.5997 15.9337 47.5997C15.9337 47.5997 16.3257 47.5763 16.8484 47.3505C17.3788 47.1247 18.0014 46.7042 18.5779 45.9878C18.8315 45.6686 19.0006 45.3104 19.1313 44.9366C19.2773 44.5629 19.3465 44.1891 19.408 43.8465C19.4772 43.5039 19.5079 43.2002 19.5233 42.9744C19.531 42.7564 19.5463 42.6162 19.5463 42.6162ZM16.956 46.1358C16.5948 46.6964 16.3334 47.1013 16.149 47.3894C16.0567 47.5296 15.9184 47.4595 15.9799 47.3038C16.0952 46.9845 16.3257 46.5251 16.6563 45.9723C16.9791 45.4272 17.4556 44.8588 17.8092 44.4616C18.1628 44.0567 18.4626 43.792 18.4626 43.792C18.4626 43.792 18.2397 44.1035 17.9629 44.5551C17.6709 44.9989 17.2942 45.5907 16.956 46.1358Z" fill="#FF8F1F"/>
<path d="M16.2026 54.4906C17.2249 54.6308 17.9474 54.3349 18.424 54.0312C18.9005 53.7275 19.1465 53.4083 19.1465 53.4083C19.1465 53.4083 18.9851 53.0501 18.6161 52.6218C18.2549 52.178 17.6707 51.6796 16.7791 51.2981C15.9643 50.9711 14.9805 50.9711 14.135 51.0645C13.2971 51.1579 12.6592 51.3448 12.6592 51.3448C12.6592 51.3448 12.7591 51.5239 12.9436 51.8042C13.128 52.0768 13.3663 52.4661 13.7199 52.8399C14.3656 53.6107 15.3264 54.3505 16.2026 54.4906ZM14.3809 52.1469C14.3809 52.1469 14.796 52.2559 15.3955 52.4194C15.6799 52.4972 16.0104 52.5829 16.3563 52.6686C16.6945 52.7464 17.0481 52.8321 17.3863 52.9099C18.0397 53.0812 18.5239 53.1903 18.8698 53.2759C19.0389 53.3148 19.0158 53.4706 18.8467 53.4628C18.5085 53.4472 17.9859 53.4238 17.3325 53.2681C16.6715 53.1202 15.9105 52.871 15.3571 52.614C14.7883 52.3649 14.3809 52.1469 14.3809 52.1469Z" fill="#FF8F1F"/>
<path d="M20.207 46.0107C20.207 46.0107 19.5921 46.2521 18.8926 46.6804C18.1932 47.1086 17.4092 47.7627 17.1478 48.5414C16.8173 49.4447 16.9864 50.2233 17.1863 50.7684C17.4169 51.2979 17.6859 51.586 17.6859 51.586C17.6859 51.586 18.0625 51.477 18.516 51.1343C18.9772 50.7995 19.5152 50.2233 19.9073 49.4213C20.2608 48.7049 20.2916 47.8717 20.2916 47.1943C20.2762 46.8595 20.2531 46.5636 20.2378 46.3534C20.2301 46.1353 20.207 46.0107 20.207 46.0107ZM18.3623 49.9274C18.1317 50.5504 17.9703 51.0098 17.855 51.3212C17.7935 51.4847 17.6474 51.4458 17.6782 51.2745C17.7397 50.9241 17.8165 50.4569 18.0471 49.834C18.27 49.2111 18.5698 48.5959 18.8619 48.1209C19.1463 47.6537 19.3692 47.3423 19.3692 47.3423C19.3692 47.3423 19.2232 47.6927 19.0233 48.1754C18.8235 48.6738 18.6082 49.3201 18.3623 49.9274Z" fill="#FF8F1F"/>
<path d="M19.485 58.2199C20.4996 58.0953 21.1453 57.6515 21.5527 57.2544C21.96 56.8573 22.1291 56.4991 22.1291 56.4991C22.1291 56.4991 21.8909 56.1954 21.4297 55.8606C20.9916 55.5024 20.2998 55.1676 19.3544 54.9885C18.5012 54.8561 17.5173 55.0975 16.7256 55.3778C15.9339 55.6581 15.3574 55.9929 15.3574 55.9929C15.3574 55.9929 15.4958 56.1487 15.7341 56.3822C15.9647 56.6236 16.3105 56.9196 16.7179 57.2077C17.5173 57.7994 18.6165 58.2744 19.485 58.2199ZM17.2175 56.3667C17.2175 56.3667 17.648 56.3823 18.2552 56.3978C18.847 56.429 19.6311 56.4056 20.2998 56.4134C20.9685 56.4368 21.4758 56.4212 21.8294 56.429C22.0062 56.429 22.0138 56.5847 21.8447 56.6159C21.5065 56.6704 20.9839 56.7872 20.3152 56.7794C19.6464 56.7794 18.847 56.7249 18.2552 56.6003C17.6557 56.4835 17.2175 56.3667 17.2175 56.3667Z" fill="#FF8F1F"/>
<path d="M21.5062 49.0635C21.5062 49.0635 20.9528 49.4372 20.3686 50.0212C19.7691 50.6052 19.1926 51.3917 19.085 52.2326C19.0235 52.7076 19.1003 53.1125 19.2003 53.4863C19.3002 53.8523 19.4616 54.156 19.6307 54.3818C19.9689 54.849 20.2917 55.067 20.2917 55.067C20.2917 55.067 20.6376 54.8645 20.9989 54.4363C21.3678 54.0002 21.7752 53.3228 21.975 52.4351C22.1365 51.6642 22.0058 50.8233 21.8444 50.1848C21.7752 49.8577 21.6753 49.5852 21.6061 49.3905C21.5523 49.1803 21.5062 49.0635 21.5062 49.0635ZM20.5915 53.2838C20.5146 53.9224 20.4531 54.4207 20.407 54.7633C20.384 54.9346 20.2302 54.9268 20.2226 54.7555C20.1995 54.4051 20.1995 53.9068 20.2533 53.2683C20.3379 52.6142 20.507 51.9212 20.6607 51.4073C20.8375 50.8856 20.9912 50.5274 20.9912 50.5274C20.9912 50.5274 20.9143 50.8934 20.8375 51.4151C20.7683 51.9368 20.6607 52.6531 20.5915 53.2838Z" fill="#FF8F1F"/>
<path d="M23.2587 61.1171C24.2272 60.8601 24.796 60.3306 25.1419 59.879C25.4878 59.4196 25.6031 59.038 25.6031 59.038C25.6031 59.038 25.3341 58.7499 24.8344 58.4852C24.5808 58.3528 24.2733 58.236 23.8967 58.1504C23.5354 58.0569 23.1281 57.9791 22.6438 57.9869C20.9605 58.018 18.9697 59.8167 18.9697 59.8167C18.9697 59.8167 19.6077 60.2528 20.4609 60.6499C20.8913 60.8446 21.3525 61.047 21.8444 61.1327C22.3364 61.2183 22.8283 61.2261 23.2587 61.1171ZM20.8068 59.7544C20.8068 59.7544 21.2142 59.6843 21.806 59.5831C22.0904 59.5364 22.4132 59.4819 22.7591 59.4274C23.0973 59.3651 23.4509 59.295 23.7968 59.2327C24.4732 59.1159 24.9651 59.0458 25.3033 59.0069C25.4724 58.9836 25.5032 59.1393 25.3417 59.1938C25.0189 59.3028 24.5424 59.443 23.8736 59.5831C23.2049 59.7233 22.4286 59.8012 21.8444 59.7856C21.2449 59.7856 20.8068 59.7544 20.8068 59.7544Z" fill="#FF8F1F"/>
<path d="M23.451 51.7266C23.451 51.7266 22.9975 52.2171 22.5594 52.9179C22.129 53.6109 21.7216 54.522 21.8061 55.3707C21.9291 56.3051 22.4057 56.9358 22.8054 57.3407C23.2127 57.7456 23.5663 57.9092 23.5663 57.9092C23.5663 57.9092 23.8661 57.66 24.1582 57.1616C24.4503 56.6633 24.727 55.9236 24.75 54.9892C24.7808 54.156 24.3657 53.3618 24.0506 52.7544C23.9045 52.4429 23.7508 52.1938 23.6355 52.0147C23.5202 51.8356 23.451 51.7266 23.451 51.7266ZM23.5433 56.0793C23.5894 56.7334 23.6124 57.2395 23.6278 57.5977C23.6355 57.7768 23.4818 57.7924 23.4433 57.6211C23.3665 57.2784 23.2742 56.7801 23.2051 56.126C23.1359 55.4719 23.1436 54.7633 23.1666 54.2261C23.2051 53.6732 23.2896 53.2917 23.2896 53.2917C23.2896 53.2917 23.2973 53.3851 23.305 53.5486C23.3127 53.7122 23.3203 53.9458 23.3588 54.2027C23.4126 54.7244 23.4971 55.4252 23.5433 56.0793Z" fill="#FF8F1F"/>
<path d="M27.3788 63.4533C28.2781 63.0951 28.7931 62.4254 29.0621 61.9427C29.3388 61.4365 29.3926 61.0472 29.3926 61.0472C29.3926 61.0472 29.0698 60.837 28.5548 60.6189C28.0321 60.4165 27.2789 60.2685 26.3104 60.4632C25.4572 60.6423 24.6501 61.1796 24.0198 61.7402C23.3895 62.2853 22.9668 62.807 22.9668 62.807C22.9668 62.807 23.1359 62.9004 23.4203 63.025C23.7047 63.1418 24.0813 63.3365 24.5425 63.4377C25.4572 63.6557 26.5794 63.7803 27.3788 63.4533ZM24.75 62.5033C24.75 62.5033 26.3796 61.8959 27.6401 61.4988C28.2704 61.3197 28.747 61.1796 29.0852 61.0783C29.2543 61.0316 29.3081 61.164 29.1543 61.2497C28.8392 61.4287 28.3934 61.6234 27.7631 61.8336C26.5102 62.2697 24.75 62.5033 24.75 62.5033Z" fill="#FF8F1F"/>
<path d="M26.0949 54.0537C26.0949 54.0537 25.7414 54.6221 25.4339 55.4008C25.1111 56.195 24.8882 57.145 25.1188 57.947C25.3878 58.8503 25.9105 59.4576 26.3716 59.8003C26.8482 60.1117 27.2402 60.1974 27.2402 60.1974C27.2402 60.1974 27.5015 59.9015 27.7168 59.372C27.932 58.8425 28.0934 58.0794 27.955 57.1762C27.7552 55.5098 26.0565 54.116 26.0949 54.0537ZM26.9097 58.4454C27.0557 59.0839 27.171 59.5511 27.2402 59.8937C27.271 60.0572 27.1249 60.1117 27.0634 59.9482C26.9328 59.6212 26.7329 59.2007 26.5946 58.531C26.2871 57.2229 26.2487 55.6656 26.2487 55.6656C26.2487 55.6656 26.633 57.1217 26.9097 58.4454Z" fill="#FF8F1F"/>
<path d="M31.7678 65.1273C32.621 64.6056 33.0207 63.9359 33.2205 63.3987C33.4204 62.8614 33.4281 62.4643 33.4281 62.4643C33.4281 62.4643 33.0899 62.2618 32.5364 62.1528C32.2597 62.0983 31.9292 62.0672 31.5449 62.0983C31.1683 62.1139 30.7609 62.1606 30.2997 62.3163C28.6932 62.8536 27.3174 65.174 27.3174 65.174C27.3174 65.174 28.0476 65.3998 28.97 65.5166C29.4311 65.5711 29.9384 65.6179 30.4227 65.5634C30.93 65.4933 31.3989 65.3609 31.7678 65.1273ZM29.0622 64.5511C29.0622 64.5511 30.5149 63.8114 31.7601 63.1729C32.3673 62.8692 32.8208 62.6589 33.136 62.5266C33.2897 62.4565 33.3666 62.5966 33.2282 62.6901C32.9438 62.8925 32.5288 63.1573 31.9292 63.4765C31.3297 63.8036 30.6148 64.0995 30.0537 64.2552C29.4849 64.4421 29.0622 64.5511 29.0622 64.5511Z" fill="#FF8F1F"/>
<path d="M29.154 56.0166C29.154 56.0166 28.0856 58.4616 28.762 60.0345C28.8542 60.2603 28.9618 60.455 29.0848 60.6419C29.2078 60.8054 29.3385 60.9533 29.4768 61.0779C29.7459 61.3349 30.0303 61.514 30.2839 61.6464C30.7912 61.9111 31.1832 61.9578 31.1832 61.9578C31.1832 61.9578 31.3984 61.6308 31.5368 61.0702C31.6751 60.5095 31.7289 59.7231 31.4753 58.8198C31.3677 58.4227 31.1602 58.0567 30.9065 57.7375C30.7835 57.5739 30.6452 57.426 30.5145 57.2858C30.3838 57.1301 30.2532 56.9822 30.1302 56.8576C29.6229 56.3281 29.154 56.0166 29.154 56.0166ZM30.6221 60.2214C30.8604 60.8288 31.0295 61.3037 31.1371 61.6386C31.1909 61.8021 31.0525 61.8644 30.968 61.7164C30.7912 61.4128 30.5606 60.9689 30.307 60.3616C30.061 59.7542 29.8381 59.1079 29.7228 58.5317C29.5998 57.9788 29.546 57.5817 29.546 57.5817C29.546 57.5817 29.6921 57.9555 29.8842 58.4616C30.0917 58.9833 30.3915 59.6141 30.6221 60.2214Z" fill="#FF8F1F"/>
<path d="M36.3026 66.2249C37.079 65.5863 37.3941 64.8622 37.5325 64.3093C37.6708 63.7487 37.6247 63.3594 37.6247 63.3594C37.6247 63.3594 37.2634 63.2114 36.7023 63.1881C36.1412 63.1336 35.3803 63.1803 34.5117 63.6319C33.7431 64.0368 33.1128 64.8077 32.6593 65.5163C32.2058 66.2171 31.9521 66.84 31.9521 66.84C31.9521 66.84 32.1366 66.8789 32.4364 66.9179C32.7362 66.9646 33.1512 67.0035 33.6124 66.9802C34.5348 66.9257 35.6262 66.7777 36.3026 66.2249ZM33.5663 66.0146C33.5663 66.0146 34.9498 64.9946 36.0567 64.2782C36.6178 63.9356 37.0405 63.6319 37.3403 63.4606C37.4863 63.3749 37.5786 63.4917 37.4556 63.6085C37.2019 63.8421 36.8176 64.1848 36.2642 64.5741C35.1651 65.3138 33.5663 66.0146 33.5663 66.0146Z" fill="#FF8F1F"/>
<path d="M32.4977 57.5273C32.4977 57.5273 32.3209 58.1736 32.2517 59.0146C32.1748 59.8633 32.2286 60.8523 32.6821 61.5531C33.1971 62.3395 33.8582 62.7989 34.4039 62.9624C34.9419 63.1337 35.3416 63.1182 35.3416 63.1182C35.3416 63.1182 35.5184 62.76 35.5799 62.1916C35.6414 61.6231 35.5953 60.8367 35.2187 59.9957C34.8728 59.2793 34.2117 58.6097 33.6122 58.2126C32.9896 57.8155 32.4977 57.5273 32.4977 57.5273ZM34.5422 61.5141C34.8651 62.0748 35.0957 62.5108 35.2494 62.8223C35.3263 62.978 35.1956 63.0559 35.0957 62.9235C34.8805 62.651 34.5884 62.2616 34.2579 61.701C33.5968 60.533 33.1203 59.038 33.1203 59.038C33.1203 59.038 33.3201 59.3728 33.5968 59.84C33.8659 60.3072 34.2271 60.9457 34.5422 61.5141Z" fill="#FF8F1F"/>
<path d="M40.8992 66.7388C41.5909 66.0458 41.8292 65.2671 41.9061 64.7065C41.9829 64.1381 41.8984 63.7488 41.8984 63.7488C41.8984 63.7488 41.8062 63.7254 41.6371 63.702C41.4756 63.6865 41.2374 63.6631 40.9607 63.6631C40.3996 63.6709 39.6463 63.8344 38.8315 64.3795C37.4172 65.2827 36.687 67.8757 36.687 67.8757C36.687 67.8757 37.4326 67.9146 38.3319 67.8056C39.2389 67.681 40.2843 67.3462 40.8992 66.7388ZM38.1782 66.8478C38.1782 66.8478 38.4856 66.5675 38.9238 66.1704C39.3619 65.7655 39.923 65.2516 40.4303 64.8233C40.9453 64.3873 41.3373 64.1069 41.614 63.8811C41.7523 63.7721 41.8523 63.8889 41.7447 64.0213C41.5141 64.2938 41.1759 64.6598 40.6686 65.0958C40.169 65.5397 39.5464 65.9835 39.0467 66.3183C38.8008 66.4896 38.5779 66.622 38.4241 66.7077C38.2704 66.8011 38.1782 66.8478 38.1782 66.8478Z" fill="#FF8F1F"/>
<path d="M36.0645 58.5713C36.0645 58.5713 35.6956 61.2265 36.7563 62.5658C37.3635 63.2822 38.0861 63.5937 38.6395 63.7338C38.9162 63.8039 39.1545 63.8195 39.3236 63.8117C39.4927 63.8039 39.5849 63.7883 39.5849 63.7883C39.5849 63.7883 39.7156 63.4146 39.7156 62.8384C39.7156 62.2544 39.5695 61.5146 39.093 60.697C38.6779 59.9729 37.9016 59.4667 37.2482 59.1319C36.6103 58.7581 36.0645 58.5713 36.0645 58.5713ZM38.6164 62.2622C39.0007 62.815 39.2775 63.2199 39.4696 63.5002C39.5619 63.6404 39.4466 63.7416 39.3236 63.6248C39.0776 63.399 38.7471 63.0019 38.3474 62.4802C37.9554 61.9507 37.5788 61.3355 37.302 60.8528C37.033 60.3778 36.8716 59.9962 36.8716 59.9962C36.8716 59.9962 37.1022 60.3155 37.4481 60.736C37.794 61.1642 38.2321 61.7249 38.6164 62.2622Z" fill="#FF8F1F"/>
<path d="M45.4956 66.7629C46.1105 65.9842 46.2719 65.2056 46.2873 64.6371C46.3026 64.0609 46.1796 63.6872 46.1796 63.6872C46.1796 63.6872 45.7953 63.6327 45.2342 63.7028C44.6731 63.7651 43.9429 64.022 43.1896 64.6371C41.8753 65.7039 41.4448 68.367 41.4448 68.367C41.4448 68.367 42.1827 68.3202 43.059 68.1022C43.9506 67.8764 44.9498 67.4248 45.4956 66.7629ZM42.813 67.16C42.813 67.16 43.0897 66.8486 43.4817 66.4125C43.8737 65.9687 44.3733 65.3925 44.8422 64.9175C45.3111 64.4347 45.6647 64.0999 45.926 63.8507C46.049 63.7339 46.1643 63.8351 46.0644 63.9753C45.8645 64.2634 45.5647 64.6683 45.1036 65.1589C44.6501 65.6494 44.0813 66.1633 43.6278 66.5449C43.1666 66.9109 42.813 67.16 42.813 67.16Z" fill="#FF8F1F"/>
<path d="M39.7844 59.1777C39.7844 59.1777 39.7383 61.8563 40.9451 63.0477C41.6291 63.7329 42.3824 63.9276 42.9435 64.0054C43.5123 64.0833 43.8889 63.9665 43.8889 63.9665C43.8889 63.9665 43.9812 63.5772 43.9197 63.0088C43.8582 62.4325 43.643 61.7006 43.0742 60.9375C42.5746 60.2601 41.7444 59.8863 41.0527 59.5826C40.3532 59.2867 39.7844 59.1777 39.7844 59.1777ZM42.759 62.5493C43.1972 63.0399 43.52 63.4292 43.7429 63.6862C43.8505 63.8186 43.7429 63.9276 43.6122 63.8264C43.3432 63.6083 42.9743 63.2657 42.5208 62.7907C42.0673 62.308 41.6214 61.7629 41.2986 61.2957C40.9758 60.8285 40.7683 60.4859 40.7683 60.4859C40.7683 60.4859 41.045 60.774 41.4293 61.1711C41.8136 61.5604 42.3209 62.0588 42.759 62.5493Z" fill="#FF8F1F"/>
<path d="M15.5187 35.8182C15.5187 35.8182 15.3727 36.6591 15.2497 38.1464C15.1344 39.6258 15.0499 41.7749 15.4342 44.2978C15.8108 46.8051 16.7024 49.7251 18.4857 52.357C20.2305 55.0122 22.8516 57.2626 25.7186 59.0224C28.5856 60.7977 31.7678 62.028 34.8346 62.7444C37.9092 63.4685 40.8685 63.7177 43.3896 63.7021C45.9184 63.6944 48.0168 63.4608 49.4695 63.2349C50.93 63.0091 51.737 62.8067 51.737 62.8067L51.8216 63.1493C51.8216 63.1493 50.9915 63.3595 49.5233 63.5853C48.0552 63.8111 45.9415 64.0447 43.3896 64.0525C40.8454 64.0681 37.8631 63.8112 34.7578 63.087C31.6525 62.3628 28.4396 61.117 25.5341 59.3183C22.6363 57.5351 19.9692 55.2536 18.1936 52.5439C16.3719 49.8575 15.4726 46.8908 15.0883 44.3445C14.6963 41.7827 14.7885 39.6102 14.9038 38.1074C15.0268 36.6046 15.1805 35.7559 15.1805 35.7559L15.5187 35.8182Z" fill="#FF8F1F"/>
<path d="M50.0001 75.9982C24.881 75.9982 4.44287 59.8487 4.44287 39.9928C4.44287 20.1368 24.881 3.9873 50.0001 3.9873C75.1193 3.9873 95.5574 20.1368 95.5574 39.9928C95.5574 59.8487 75.127 75.9982 50.0001 75.9982ZM50.0001 6.16756C26.0186 6.16756 6.57969 21.3126 6.57969 40.0005C6.57969 58.6885 26.0186 73.8335 50.0001 73.8335C73.9817 73.8335 93.4206 58.6885 93.4206 40.0005C93.4206 21.3126 73.9817 6.16756 50.0001 6.16756Z" fill="#FF8F1F"/>
<path d="M50 80C22.4289 80 0 62.0596 0 40C0 17.9404 22.4289 0 50 0C77.5711 0 100 17.9404 100 40C100 62.0596 77.5711 80 50 80ZM50 2.40607C23.6818 2.40607 2.35204 19.233 2.35204 39.9922C2.35204 60.7514 23.6818 77.5783 50 77.5783C76.3182 77.5783 97.648 60.7514 97.648 39.9922C97.648 19.233 76.3182 2.40607 50 2.40607Z" fill="#FF8F1F"/>
</svg>
