<svg width="90" height="80" viewBox="0 0 90 80" fill="none" xmlns="http://www.w3.org/2000/svg">
<path d="M26.642 6.65639C26.5097 7.01849 26.4785 7.24191 26.4785 7.24191C26.4785 7.24191 26.6654 7.33436 27.0157 7.46533C29.0711 8.23575 31.2354 8.50539 33.4309 8.09707C37.059 7.18027 40.0797 3.94453 41.45 0C33.5866 0 28.4794 1.68721 26.642 6.65639ZM39.0053 1.54083C35.4084 4.33744 32.3799 4.40678 27.2259 7.08782C26.8211 7.2342 26.6887 6.94914 27.0624 6.73343C30.9707 4.56086 35.0192 3.81356 39.0053 1.54083Z" fill="#FF8F1F"/>
<path d="M17.3228 8.09714C17.0114 9.75354 17.4629 10.8938 17.9145 11.5948C18.3816 12.3036 18.8799 12.6118 18.8799 12.6118C18.8799 12.6118 19.0356 12.5193 19.277 12.3421C19.5183 12.1495 19.8609 11.8876 20.2424 11.5332C20.6161 11.1711 21.0287 10.7166 21.4413 10.1773C21.6437 9.90762 21.8384 9.59946 22.033 9.26818C22.2276 8.9446 22.4145 8.59791 22.5936 8.205C22.8894 7.51933 23.0529 6.79514 23.1074 6.06325C23.1697 5.33905 23.1308 4.60716 23.0607 3.96771C22.9206 2.68882 22.6091 1.74121 22.6091 1.74121C22.6091 1.74121 22.5313 1.78744 22.3989 1.87989C22.2588 1.96464 22.0641 2.0956 21.8384 2.2728C21.379 2.6349 20.7406 3.10485 20.1178 3.72889C19.8064 4.03705 19.4872 4.36833 19.1757 4.71502C18.8721 5.0617 18.5918 5.44692 18.3349 5.81672C17.8289 6.55632 17.4629 7.36525 17.3228 8.09714ZM21.2545 4.62257C21.2545 4.62257 21.052 5.30824 20.7718 6.28667C20.4759 7.23428 20.1723 8.50546 19.8453 9.59945C19.5417 10.732 19.2925 11.5255 19.129 12.1187C19.0512 12.4038 18.7943 12.4115 18.8176 12.1341C18.841 11.8491 18.8799 11.4947 18.9422 11.0709C19.0122 10.6549 19.1135 10.1696 19.2536 9.60716C19.386 9.03706 19.5728 8.45154 19.783 7.88143C19.9932 7.31132 20.2112 6.74121 20.437 6.27126C20.8808 5.30824 21.2545 4.62257 21.2545 4.62257Z" fill="#FF8F1F"/>
<path d="M31.8113 12.1496C31.8113 12.1496 31.3831 11.2559 30.6123 10.2852C29.7481 9.20662 28.6737 8.28213 27.3269 8.0433C26.5483 7.92774 25.8165 7.96625 25.1547 8.09722C24.5085 8.2513 23.9324 8.45932 23.4653 8.70586C23.0059 8.96009 22.6478 9.21432 22.4064 9.40693C22.1651 9.59183 22.0405 9.73051 22.0405 9.73051C22.0405 9.73051 22.2118 10.3083 22.7568 10.9478C23.294 11.5872 24.2282 12.3037 25.6296 12.6889C26.2369 12.8507 26.9454 12.9123 27.6227 12.8584C28.3156 12.8353 29.0007 12.7274 29.6158 12.6196C30.2386 12.5271 30.768 12.373 31.1651 12.3037C31.5777 12.2267 31.8113 12.1496 31.8113 12.1496ZM24.8589 10.3622C23.8156 10.1773 23.0371 10.0464 22.4843 9.92311C22.2118 9.86919 22.2897 9.62264 22.5777 9.62264C23.1694 9.63035 23.9791 9.63035 25.0457 9.82296C25.5751 9.91541 26.1045 10.0156 26.6184 10.1696C27.1322 10.316 27.6149 10.4778 28.0276 10.6319C28.4324 10.7783 28.7827 10.9324 29.0241 11.0402C29.2654 11.1481 29.4056 11.2174 29.4056 11.2174C29.4056 11.2174 29.2499 11.1866 28.9929 11.125C28.7282 11.0633 28.3623 10.994 27.9263 10.9092C27.4904 10.8322 26.9765 10.7243 26.4549 10.6396C25.9333 10.5549 25.3805 10.4624 24.8589 10.3622Z" fill="#FF8F1F"/>
<path d="M11.1098 14.4606C11.1721 16.1632 11.8183 17.1493 12.4256 17.7425C13.0328 18.328 13.5778 18.5206 13.5778 18.5206C13.5778 18.5206 13.7024 18.3897 13.9126 18.1663C14.1228 17.9351 14.3953 17.6039 14.6834 17.157C14.9714 16.7179 15.2984 16.2017 15.5709 15.5623C15.8512 14.9382 16.1159 14.2217 16.2794 13.382C16.5986 11.9413 16.2482 10.362 15.8512 9.1524C15.4463 7.93514 14.9403 7.07227 14.9403 7.07227C14.9403 7.07227 14.6834 7.33421 14.3019 7.76565C13.9048 8.18938 13.4221 8.84423 12.9238 9.56842C12.4334 10.308 11.9662 11.1555 11.6315 11.9952C11.2967 12.8735 11.0709 13.6979 11.1098 14.4606ZM14.2162 10.2002C14.2162 10.2002 14.2007 10.3774 14.1773 10.6855C14.1539 10.986 14.115 11.4174 14.0917 11.9259C14.0605 12.4267 14.0216 12.9968 13.9904 13.59C13.9593 14.1755 13.9282 14.7841 13.897 15.3696C13.8036 16.5176 13.788 17.3958 13.7257 17.9814C13.7024 18.2741 13.461 18.3435 13.4221 18.0584C13.3598 17.496 13.2898 16.664 13.3131 15.4929C13.3365 14.9228 13.391 14.3065 13.4688 13.6901C13.5467 13.0815 13.6635 12.5037 13.7725 11.9798C13.8815 11.4559 13.9904 11.0091 14.0761 10.6932C14.1617 10.3851 14.2162 10.2002 14.2162 10.2002Z" fill="#FF8F1F"/>
<path d="M26.1126 15.1696C26.1126 15.1696 25.9569 14.9769 25.6844 14.6842C25.4119 14.3914 25.0148 13.9985 24.5399 13.621C24.065 13.2358 23.4966 12.8583 22.866 12.581C22.2354 12.2959 21.5503 12.1341 20.8652 12.188C20.4759 12.2189 20.0866 12.2728 19.7363 12.3652C19.3859 12.4654 19.0589 12.5887 18.7553 12.7273C18.1325 12.9893 17.642 13.3668 17.2371 13.6981C16.8245 14.0293 16.5442 14.3683 16.3496 14.6149C16.155 14.8614 16.0615 15.0155 16.0615 15.0155C16.0615 15.0155 16.3418 15.5393 17.0191 16.0401C17.6887 16.5563 18.7319 17.0263 20.1878 17.0956C21.4802 17.1649 22.8972 16.6025 24.0728 16.1326C24.6411 15.8706 25.1627 15.6549 25.5209 15.47C25.8946 15.2851 26.1126 15.1696 26.1126 15.1696ZM18.9499 14.9923C17.8755 15.0386 17.0892 15.0771 16.5442 15.1002C16.2717 15.1079 16.2873 14.8537 16.5676 14.7843C17.1204 14.638 17.9534 14.4993 19.0122 14.4222C19.5338 14.376 20.1022 14.3914 20.6316 14.4145C21.161 14.4376 21.6593 14.4762 22.0953 14.5455C22.975 14.6688 23.5667 14.7997 23.5667 14.7997C23.5667 14.7997 22.9361 14.8152 22.0485 14.8383C21.1688 14.8768 19.9854 14.9307 18.9499 14.9923Z" fill="#FF8F1F"/>
<path d="M6.38419 22.0644C6.79682 23.7054 7.661 24.5375 8.3617 24.9766C9.07017 25.4157 9.65409 25.4774 9.65409 25.4774C9.65409 25.4774 9.75529 25.331 9.90322 25.0613C10.0511 24.7917 10.2302 24.3911 10.4404 23.9057C10.8297 22.9196 11.1956 21.5559 11.2034 19.8687C11.18 18.3664 10.5572 16.9412 9.88765 15.8318C9.22589 14.7301 8.55633 14.0059 8.55633 14.0059C8.55633 14.0059 8.35391 14.3063 8.08142 14.8302C7.80893 15.3464 7.42745 16.0629 7.11603 16.9026C6.45426 18.5436 6.02606 20.6314 6.38419 22.0644ZM8.5174 17.2108C8.5174 17.2108 8.61862 17.9196 8.75876 18.9211C8.82105 19.4142 8.92225 19.992 9.01567 20.5698C9.1091 21.1476 9.20253 21.7485 9.28817 22.3264C9.45945 23.4589 9.5918 24.314 9.67744 24.9227C9.71637 25.2154 9.49838 25.331 9.39717 25.069C9.20253 24.5297 8.94561 23.7285 8.75097 22.5883C8.52519 21.4481 8.46291 20.123 8.44734 19.0444C8.45512 17.9966 8.5174 17.2108 8.5174 17.2108Z" fill="#FF8F1F"/>
<path d="M21.1841 19.4065C21.1841 19.4065 20.4289 18.7902 19.3234 18.2432C18.2178 17.6885 16.7853 17.2724 15.4229 17.6576C13.9125 18.1199 12.8381 19.0983 12.2074 19.9458C11.896 20.3695 11.6703 20.7547 11.5301 21.0321C11.3978 21.3171 11.3433 21.4866 11.3433 21.4866C11.3433 21.4866 11.7325 21.9335 12.4955 22.2724C13.2507 22.6191 14.3718 22.8425 15.8121 22.596C17.0656 22.3572 18.3735 21.5251 19.3934 20.7855C19.9228 20.4311 20.351 20.069 20.6702 19.8225C20.9972 19.576 21.1841 19.4065 21.1841 19.4065ZM14.146 20.8318C13.1417 21.1322 12.3554 21.3325 11.8182 21.4789C11.5535 21.5482 11.5145 21.294 11.7792 21.163C12.3164 20.9165 13.0639 20.5698 14.0993 20.2694C14.6132 20.123 15.1504 19.992 15.672 19.8918C16.2014 19.7994 16.7074 19.7378 17.1434 19.6992C18.0076 19.6068 18.6305 19.6222 18.6305 19.6222C18.6305 19.6222 18.0154 19.7609 17.159 19.9997C16.2715 20.2077 15.1737 20.5544 14.146 20.8318Z" fill="#FF8F1F"/>
<path d="M3.39442 30.5619C4.14961 32.0719 5.14614 32.6806 5.94026 32.9502C6.73437 33.2199 7.31051 33.1428 7.31051 33.1428C7.31051 33.1428 7.32607 33.0966 7.34942 33.0195C7.37278 32.9425 7.41171 32.8192 7.45842 32.6729C7.55185 32.3724 7.66084 31.9487 7.7387 31.4248C7.80877 30.9009 7.9022 30.2923 7.87884 29.5912C7.86327 28.8978 7.81656 28.1428 7.61414 27.3108C7.3105 25.8701 6.33732 24.5835 5.48092 23.6667C4.60894 22.7422 3.79925 22.1875 3.79925 22.1875C3.79925 22.1875 3.67469 22.5342 3.50341 23.0966C3.33213 23.659 3.16085 24.4602 2.99735 25.3308C2.73264 27.1105 2.71708 29.2291 3.39442 30.5619ZM4.43767 25.3385C4.43767 25.3385 4.66344 26.0088 5.03714 26.9564C5.2162 27.4186 5.41863 27.9502 5.62884 28.5049C5.85462 29.0596 6.0804 29.622 6.28282 30.1613C6.67988 31.2399 7.02244 32.0411 7.20929 32.6035C7.30272 32.8809 7.12365 33.0427 6.96794 32.8038C6.6721 32.3185 6.27503 31.602 5.8079 30.5311C5.3797 29.4833 4.98264 28.1813 4.77244 27.149C4.53109 26.1089 4.43767 25.3385 4.43767 25.3385Z" fill="#FF8F1F"/>
<path d="M17.2602 24.6377C17.2602 24.6377 16.3882 24.2063 15.2048 23.9213C14.0292 23.6439 12.4955 23.5284 11.281 24.2217C9.88737 24.9998 9.06211 26.2094 8.61834 27.1724C8.37699 27.6501 8.27578 28.0892 8.19793 28.3897C8.12786 28.6978 8.10449 28.875 8.10449 28.875C8.10449 28.875 8.57941 29.2217 9.3891 29.3835C10.2066 29.553 11.3588 29.5222 12.6901 28.9521C13.8891 28.4513 14.9401 27.3265 15.8121 26.3866C16.2247 25.9089 16.5907 25.4775 16.8476 25.1539C17.1123 24.8458 17.2602 24.6377 17.2602 24.6377ZM10.7048 27.6116C9.75502 28.1123 9.06989 28.5052 8.57162 28.7595C8.32249 28.8904 8.23685 28.6439 8.46263 28.459C8.68841 28.2741 8.96869 28.0584 9.30346 27.8196C9.65381 27.5884 10.0586 27.3265 10.5258 27.0646C10.9773 26.7949 11.4912 26.5561 11.9817 26.3481C12.4721 26.1401 12.9393 25.9629 13.3597 25.8242C14.2083 25.5546 14.8 25.4159 14.8 25.4159C14.8 25.4159 14.2317 25.7086 13.4375 26.1092C12.6434 26.5484 11.6157 27.1108 10.7048 27.6116Z" fill="#FF8F1F"/>
<path d="M2.28089 39.5229C2.79474 40.1777 3.3475 40.5937 3.86912 40.8634C4.38297 41.133 4.86567 41.2486 5.2783 41.2871C6.10356 41.3719 6.65632 41.1715 6.65632 41.1715C6.65632 41.1715 6.68748 40.9943 6.70305 40.6862C6.71083 40.378 6.74197 39.9389 6.71083 39.4073C6.67969 38.8757 6.59404 38.2594 6.46169 37.5891C6.38383 37.2501 6.29041 36.9034 6.15805 36.5413C6.04127 36.1792 5.90114 35.8094 5.72207 35.4242C5.07588 34.076 3.92362 33.0591 2.84923 32.3503C1.79041 31.6415 0.887301 31.2871 0.887301 31.2871C0.887301 31.2871 0.871724 31.3796 0.856153 31.5413C0.840582 31.7031 0.825017 31.9497 0.801661 32.2424C0.770519 32.8356 0.716013 33.6446 0.793868 34.5383C0.825009 34.9851 0.863935 35.4474 0.926219 35.9096C1.00407 36.3719 1.10529 36.8341 1.22207 37.2732C1.44785 38.1438 1.82934 38.945 2.28089 39.5229ZM2.18747 34.1993C2.18747 34.1993 2.57674 34.8002 3.12173 35.64C3.38643 36.056 3.70563 36.5336 4.04041 37.019C4.35961 37.5044 4.69439 38.0051 5.01359 38.4828C5.67535 39.4458 6.10356 40.1546 6.44612 40.6554C6.60962 40.9019 6.45391 41.1099 6.25927 40.9096C5.84664 40.5013 5.30944 39.8927 4.64767 38.9527C4.48418 38.7216 4.3129 38.4751 4.1494 38.2131C3.99369 37.9589 3.84578 37.697 3.69786 37.4273C3.40979 36.8957 3.12173 36.3642 2.90373 35.8865C2.46775 34.9312 2.18747 34.1993 2.18747 34.1993Z" fill="#FF8F1F"/>
<path d="M14.5589 30.6243C14.5589 30.6243 13.6169 30.3931 12.3946 30.3854C11.1645 30.37 9.693 30.6166 8.62639 31.5642C7.45079 32.6428 6.88246 33.9987 6.66446 35.0387C6.55547 35.5626 6.51654 36.0095 6.50876 36.3253C6.49318 36.6412 6.52432 36.8184 6.52432 36.8184C6.52432 36.8184 7.06152 37.0495 7.89457 37.0264C8.3072 37.011 8.78989 36.9417 9.3193 36.7568C9.85649 36.5719 10.4404 36.2868 11.0321 35.8554C12.0676 35.0927 12.9084 33.7599 13.5157 32.6427C13.8427 32.088 14.0918 31.5796 14.2709 31.2098C14.4577 30.8554 14.5589 30.6243 14.5589 30.6243ZM8.78211 34.9925C7.99578 35.7013 7.38073 36.2406 6.94474 36.6027C6.74232 36.7876 6.5866 36.5642 6.78124 36.333C7.17051 35.8708 7.69214 35.2313 8.50183 34.4995C8.90668 34.1374 9.34266 33.783 9.76307 33.4671C10.1991 33.1512 10.6351 32.8739 11.0088 32.6505C11.7562 32.1882 12.3167 31.9263 12.3167 31.9263C12.3167 31.9263 12.1921 32.0264 11.9819 32.1959C11.7795 32.3731 11.4837 32.6196 11.1489 32.9124C10.4404 33.4902 9.59958 34.2914 8.78211 34.9925Z" fill="#FF8F1F"/>
<path d="M3.12197 48.5517C4.46107 49.5764 5.61331 49.6765 6.43857 49.561C7.25605 49.4454 7.75432 49.1218 7.75432 49.1218C7.75432 49.1218 7.74654 48.9369 7.69983 48.6287C7.6609 48.3206 7.5519 47.8892 7.41955 47.3807C7.2872 46.8722 7.0692 46.2867 6.77335 45.6704C6.50086 45.0463 6.08044 44.3915 5.58996 43.7289C5.14619 43.1434 4.57007 42.6734 3.9628 42.2805C3.3711 41.8953 2.7327 41.5949 2.141 41.3714C0.965398 40.9169 0 40.7705 0 40.7705C0 40.7705 0.0311371 41.1403 0.116777 41.7258C0.186846 42.3113 0.358123 43.1203 0.599472 43.9831C0.817465 44.846 1.19896 45.7628 1.6038 46.5794C2.03201 47.3961 2.56141 48.0972 3.12197 48.5517ZM1.88408 43.3437C1.88408 43.3437 2.38234 43.8445 3.09082 44.5455C3.83044 45.2389 4.71799 46.1095 5.5666 46.8953C5.97923 47.2882 6.33736 47.6349 6.64878 47.9277C6.96799 48.2204 7.2327 48.467 7.4429 48.675C7.65311 48.8753 7.54412 49.1141 7.31055 48.9677C6.85121 48.6673 6.13495 48.205 5.3019 47.4423C4.88149 47.0648 4.43771 46.6257 4.03287 46.1788C3.63581 45.7243 3.2621 45.262 2.93511 44.846C2.60034 44.43 2.35899 44.0525 2.17214 43.7828C1.98529 43.5055 1.88408 43.3437 1.88408 43.3437Z" fill="#FF8F1F"/>
<path d="M13.1805 37.0655C13.1805 37.0655 12.2073 37.0577 11.0239 37.3274C9.85612 37.597 8.40024 38.1671 7.60612 39.3305C7.37256 39.6618 7.17792 40.0007 7.02221 40.3397C6.87429 40.6787 6.75751 41.0177 6.67187 41.349C6.47723 42.0115 6.43052 42.6356 6.4383 43.1748C6.4383 43.7141 6.48502 44.1533 6.56287 44.4614C6.62516 44.7696 6.68744 44.9391 6.68744 44.9391C6.68744 44.9391 7.26357 45.0393 8.06547 44.8235C8.47032 44.7157 8.92965 44.5308 9.40456 44.238C9.87948 43.9376 10.37 43.5292 10.876 42.9822C11.312 42.4969 11.6312 41.8883 11.9271 41.2411C12.0672 40.9175 12.1918 40.594 12.3008 40.2704C12.4253 39.9391 12.5343 39.6155 12.62 39.3074C12.7835 38.691 12.9547 38.1363 13.0482 37.7357C13.126 37.312 13.1805 37.0655 13.1805 37.0655ZM8.48588 42.6279C7.83969 43.5138 7.36478 44.161 7.03779 44.6078C6.87429 44.8312 6.68745 44.6541 6.81201 44.3844C7.04558 43.8451 7.48935 43.0978 8.08883 42.2118C8.40025 41.765 8.76616 41.3258 9.11651 40.9252C9.46685 40.5246 9.8172 40.1548 10.152 39.8467C10.806 39.2303 11.2809 38.8451 11.2809 38.8451C11.2809 38.8451 10.8916 39.3613 10.3388 40.0701C10.0586 40.4322 9.77048 40.8482 9.44349 41.295C9.12429 41.7342 8.78952 42.1964 8.48588 42.6279Z" fill="#FF8F1F"/>
<path d="M5.98723 57.1421C7.48982 57.8355 8.65765 57.6429 9.43619 57.3424C10.2147 57.0342 10.6118 56.6028 10.6118 56.6028C10.6118 56.6028 10.5573 56.4256 10.4405 56.1483C10.3315 55.8555 10.1602 55.4549 9.89553 55.0004C9.37391 54.0836 8.58758 52.9279 7.28741 51.8802C6.1663 50.9557 4.64035 50.5705 3.39468 50.4087C2.15679 50.2392 1.18359 50.3239 1.18359 50.3239C1.18359 50.3239 1.2926 50.6783 1.49502 51.233C1.72858 51.78 2.04779 52.535 2.4682 53.3208C3.35575 54.8771 4.63255 56.5566 5.98723 57.1421ZM3.59709 52.3809C3.59709 52.3809 3.74502 52.4734 4.00194 52.6352C4.25886 52.7893 4.62478 53.005 5.06077 53.2592C5.48897 53.5135 5.95609 53.7985 6.46993 54.0913C6.98377 54.3763 7.49762 54.6691 7.98032 54.9618C8.96128 55.5319 9.7009 55.948 10.1914 56.2561C10.4483 56.4025 10.4016 56.649 10.1369 56.5643C9.5919 56.3948 8.86007 56.0789 7.84017 55.5551C7.3419 55.2931 6.83585 54.9618 6.33758 54.6228C5.83153 54.2839 5.36439 53.9218 4.96733 53.5905C4.56249 53.2592 4.21993 52.9587 3.97079 52.743C3.72944 52.5196 3.59709 52.3809 3.59709 52.3809Z" fill="#FF8F1F"/>
<path d="M13.2197 43.6357C13.2197 43.6357 12.2776 43.8437 11.1721 44.3753C10.6193 44.645 10.0276 44.9917 9.50601 45.4462C8.99996 45.8931 8.55619 46.4478 8.27591 47.1103C7.9567 47.8576 7.8555 48.5972 7.80879 49.2906C7.78543 49.9763 7.87885 50.5926 7.98785 51.1165C8.24477 52.1565 8.62625 52.7806 8.62625 52.7806C8.62625 52.7806 9.20238 52.7498 9.942 52.3414C10.6738 51.9408 11.5692 51.1781 12.2543 49.8761C12.5735 49.2983 12.7681 48.6203 12.8927 47.9347C13.0562 47.2336 13.0795 46.5402 13.1496 45.9008C13.2041 45.2613 13.2041 44.7066 13.2275 44.2906C13.2275 43.8823 13.2197 43.6357 13.2197 43.6357ZM9.86415 50.1149C9.42038 51.1165 9.14788 51.8638 8.89875 52.3877C8.78197 52.6496 8.57176 52.5109 8.63405 52.2259C8.7664 51.6404 8.9766 50.8237 9.39702 49.8068C9.77851 48.7975 10.3936 47.7652 10.8607 47.0256C11.3512 46.2783 11.7482 45.7929 11.7482 45.7929C11.7482 45.7929 11.6782 45.9393 11.5614 46.1858C11.4446 46.4324 11.2655 46.7867 11.102 47.1951C10.9152 47.6188 10.705 48.0965 10.4948 48.5972C10.2846 49.098 10.0666 49.6219 9.86415 50.1149Z" fill="#FF8F1F"/>
<path d="M10.6349 64.822C12.2621 65.1378 13.352 64.691 14.0371 64.2287C14.7223 63.7588 15.0337 63.2426 15.0337 63.2426C15.0337 63.2426 14.948 63.0808 14.7768 62.8266C14.6055 62.5646 14.3252 62.2334 13.9904 61.8328C13.2975 61.0469 12.2543 60.1224 10.775 59.3982C9.45929 58.7742 7.91777 58.7434 6.66431 58.8821C5.41085 59.0207 4.48438 59.3289 4.48438 59.3289C4.48438 59.3289 4.67901 59.6448 5.01378 60.1301C5.17728 60.369 5.3797 60.654 5.61327 60.9699C5.84683 61.2781 6.12711 61.5939 6.42296 61.9252C7.57521 63.2503 9.22572 64.5369 10.6349 64.822ZM7.28715 60.7542C7.28715 60.7542 7.94891 60.9699 8.89095 61.2704C9.81742 61.5477 11.0164 61.9098 12.1141 62.2334C13.1807 62.5569 13.9904 62.8035 14.5588 62.9807C14.8313 63.0654 14.839 63.3274 14.5666 63.3042C14.0138 63.2426 13.1885 63.1502 12.1141 62.842C11.0164 62.5647 9.82521 62.0562 8.87538 61.6093C7.94891 61.1471 7.28715 60.7542 7.28715 60.7542Z" fill="#FF8F1F"/>
<path d="M14.6991 49.9697C14.6991 49.9697 13.8272 50.4012 12.8618 51.1793C11.9197 51.9497 10.892 53.1053 10.6585 54.5229C10.5417 55.3164 10.5495 56.0868 10.6896 56.7571C10.8142 57.4274 11.0244 58.0283 11.2657 58.4982C11.5071 58.9759 11.7329 59.3534 11.9275 59.5999C12.1221 59.8465 12.2467 59.9697 12.2467 59.9697C12.2467 59.9697 12.8073 59.8002 13.4301 59.2378C14.0607 58.6754 14.7303 57.7432 15.1429 56.2948C15.2285 55.979 15.283 55.64 15.2986 55.301C15.3298 54.9543 15.3375 54.5999 15.322 54.2455C15.2753 53.5522 15.2208 52.828 15.104 52.2039C15.0028 51.5722 14.9093 51.0098 14.8159 50.6169C14.7536 50.2163 14.6991 49.9697 14.6991 49.9697ZM12.8851 57.0807C12.7138 58.1438 12.5426 58.9682 12.4491 59.5229C12.3946 59.8002 12.1611 59.7232 12.1533 59.4304C12.1533 58.8295 12.2 57.9743 12.3557 56.8958C12.5426 55.8018 12.8462 54.6847 13.1732 53.8295C13.3289 53.4058 13.469 53.0591 13.5702 52.8126C13.6715 52.566 13.7415 52.4274 13.7415 52.4274C13.7415 52.4274 13.7026 52.5891 13.6481 52.8511C13.5936 53.1207 13.5235 53.4982 13.4301 53.9451C13.3367 54.3996 13.2433 54.9158 13.1576 55.4474C13.0798 55.979 12.963 56.5568 12.8851 57.0807Z" fill="#FF8F1F"/>
<path d="M16.7775 71.2397C17.6028 71.2165 18.249 71.0393 18.7706 70.7928C19.2923 70.5386 19.6815 70.2227 19.9774 69.9145C20.5535 69.2982 20.7481 68.7358 20.7481 68.7358C20.7481 68.7358 20.6236 68.6048 20.4056 68.3891C20.1876 68.1734 19.8606 67.8884 19.4402 67.5879C18.5916 66.9793 17.4004 66.2859 15.7888 65.9238C14.3952 65.5848 12.8537 65.9392 11.6781 66.3475C10.4947 66.7558 9.66162 67.272 9.66162 67.272C9.66162 67.272 9.91076 67.534 10.3312 67.9423C10.7594 68.3352 11.3744 68.8437 12.0751 69.3676C13.4843 70.3691 15.3217 71.2936 16.7775 71.2397ZM12.6668 68.0347C12.6668 68.0347 13.3597 68.1041 14.3407 68.1734C14.8234 68.2119 15.3762 68.2504 15.9523 68.2889C16.5284 68.3198 17.1201 68.3506 17.6807 68.3968C18.794 68.4893 19.6426 68.5278 20.2187 68.5971C20.499 68.628 20.5691 68.8668 20.2888 68.913C19.736 68.9823 18.9341 69.0286 17.7974 69.0055C16.6919 68.9438 15.3917 68.7589 14.3952 68.5047C13.8969 68.3891 13.4532 68.2736 13.1495 68.1888C12.8459 68.0887 12.6668 68.0347 12.6668 68.0347Z" fill="#FF8F1F"/>
<path d="M17.5564 55.8164C17.5564 55.8164 16.8012 56.4404 16.0461 57.4189C15.6724 57.9119 15.2909 58.4897 15.0184 59.1369C14.7459 59.784 14.598 60.4697 14.6291 61.1939C14.6602 62.0183 14.886 62.727 15.1351 63.3665C15.3999 63.9982 15.7502 64.5067 16.0694 64.9304C16.3886 65.3542 16.7234 65.6392 16.957 65.8472C17.1905 66.0475 17.3384 66.1477 17.3384 66.1477C17.3384 66.1477 17.8445 65.8626 18.3428 65.1693C18.841 64.4836 19.3237 63.3973 19.386 61.9104C19.4327 61.2401 19.3082 60.5468 19.1213 59.8611C18.9578 59.16 18.6853 58.5129 18.4673 57.9042C18.3505 57.6038 18.2338 57.3264 18.117 57.0799C18.0158 56.8257 17.9223 56.5945 17.8367 56.4096C17.681 56.0321 17.5564 55.8164 17.5564 55.8164ZM17.354 63.1816C17.3852 64.2833 17.4396 65.0845 17.4474 65.6623C17.4552 65.9474 17.2061 65.9243 17.1438 65.6315C17.0815 65.3388 17.0115 64.9844 16.9414 64.5683C16.8791 64.1446 16.8402 63.6515 16.8012 63.1045C16.7156 62.026 16.8324 60.8087 16.9258 59.9381C17.0582 59.029 17.1905 58.4204 17.1905 58.4204C17.1905 58.4204 17.1905 58.5822 17.1983 58.8595C17.2061 59.1292 17.1983 59.5375 17.2217 59.9844C17.2372 60.4466 17.2606 60.9782 17.2839 61.5175C17.2995 62.0799 17.3307 62.65 17.354 63.1816Z" fill="#FF8F1F"/>
<path d="M24.0493 76.1866C25.6375 75.8091 26.4706 74.9231 26.9143 74.2221C27.3581 73.4979 27.436 72.9047 27.436 72.9047C27.436 72.9047 27.2958 72.7968 27.0311 72.635C26.7664 72.4886 26.3927 72.2652 25.9256 72.0495C25.4507 71.8415 24.8746 71.6412 24.2361 71.4717C23.9092 71.3869 23.5588 71.3253 23.1929 71.2868C22.827 71.2406 22.4377 71.202 22.0251 71.1943C20.5692 71.202 19.1756 71.8261 18.0934 72.504C17.019 73.1743 16.3105 73.86 16.3105 73.86C16.3105 73.86 16.3806 73.9139 16.5207 73.9986C16.6609 74.0834 16.8555 74.199 17.1047 74.353C17.6029 74.6381 18.2803 75.0387 19.0822 75.3623C19.4792 75.5318 19.8996 75.6936 20.3279 75.8399C20.7638 75.9709 21.2076 76.0865 21.6358 76.1712C22.4844 76.3484 23.3486 76.3484 24.0493 76.1866ZM19.4014 73.9293C19.4014 73.9293 20.0865 73.8369 21.0597 73.6982C22.0095 73.5595 23.2396 73.3746 24.3685 73.2128C25.4974 73.0356 26.2993 72.9586 26.891 72.8661C27.1791 72.8276 27.2881 73.0587 27.0233 73.1512C26.7586 73.2436 26.4239 73.3515 26.0268 73.4594C25.6297 73.5595 25.1626 73.6597 24.6021 73.7598C24.3218 73.806 24.0337 73.8523 23.7379 73.8908C23.4498 73.9216 23.154 73.9447 22.8581 73.9601C22.2742 73.9909 21.6825 74.0218 21.1687 74.0141C20.1566 73.9987 19.4014 73.9293 19.4014 73.9293Z" fill="#FF8F1F"/>
<path d="M21.659 60.9092C21.659 60.9092 21.0518 61.6873 20.5146 62.8198C19.9774 63.9523 19.557 65.4315 19.9229 66.826C20.3589 68.3899 21.2931 69.4993 22.1028 70.1619C22.5154 70.4932 22.8814 70.7243 23.1538 70.8784C23.4263 71.0247 23.5976 71.0787 23.5976 71.0787C23.5976 71.0787 24.0414 70.6858 24.3839 69.9076C24.5552 69.5224 24.7109 69.0371 24.781 68.4747C24.8589 67.8969 24.8666 67.2343 24.7499 66.4947C24.5319 65.2004 23.7222 63.8291 23.0059 62.7736C22.6556 62.2266 22.3208 61.7643 22.0639 61.4485C21.8225 61.1018 21.659 60.9092 21.659 60.9092ZM22.9981 68.1896C23.2784 69.2297 23.4653 70.0386 23.5898 70.601C23.6599 70.8706 23.403 70.9092 23.2862 70.6395C23.0526 70.0771 22.7334 69.3067 22.4454 68.2435C22.3052 67.7119 22.1884 67.1496 22.095 66.618C22.0094 66.0787 21.9549 65.5471 21.916 65.1002C21.877 64.6457 21.8537 64.2682 21.8459 63.9986C21.8459 63.7212 21.8459 63.5671 21.8459 63.5671C21.8459 63.5671 21.877 63.7289 21.9393 63.9986C22.0016 64.2682 22.095 64.6457 22.204 65.0848C22.4064 65.9862 22.7412 67.1187 22.9981 68.1896Z" fill="#FF8F1F"/>
<path d="M32.0997 79.53C33.5867 78.8135 34.2329 77.8042 34.5365 77.0184C34.8324 76.2249 34.8012 75.624 34.8012 75.624C34.8012 75.624 34.6455 75.5469 34.3574 75.4391C34.0772 75.3312 33.6567 75.2234 33.1585 75.1001C32.6602 74.9768 32.0529 74.9075 31.3834 74.8767C30.7216 74.8381 29.9664 74.9075 29.1645 75.0616C28.456 75.1925 27.7865 75.5084 27.1792 75.8936C26.572 76.2711 26.0348 76.718 25.5754 77.1571C24.6567 78.0277 24.0962 78.852 24.0962 78.852C24.0962 78.852 24.4232 78.983 24.9604 79.1679C25.4898 79.3682 26.2528 79.5685 27.0858 79.738C27.9189 79.9306 28.8609 79.9922 29.7329 79.9999C30.6126 79.9845 31.4457 79.8304 32.0997 79.53ZM27.1325 78.2665C27.1325 78.2665 27.7865 78.0354 28.7052 77.7118C29.6083 77.3728 30.7839 76.9414 31.8505 76.5485C32.9015 76.1787 33.6957 75.9013 34.2562 75.701C34.5287 75.6086 34.6844 75.8166 34.4431 75.9552C33.9604 76.2326 33.2363 76.6486 32.1931 77.0415C31.6714 77.2418 31.0953 77.4499 30.527 77.6039C29.9586 77.758 29.3903 77.889 28.8842 77.9892C28.3782 78.1047 27.9422 78.1586 27.6308 78.2049C27.3194 78.2434 27.1325 78.2665 27.1325 78.2665Z" fill="#FF8F1F"/>
<path d="M26.7585 65.0459C26.7585 65.0459 26.3225 65.9396 26.0345 67.1491C25.7542 68.351 25.6063 69.938 26.2602 71.1938C26.4471 71.5559 26.6495 71.8949 26.8753 72.1877C27.1011 72.4727 27.3424 72.7346 27.5915 72.9658C28.0742 73.4434 28.5959 73.767 29.063 74.0136C29.5223 74.2601 29.9272 74.4219 30.2308 74.4912C30.5267 74.576 30.698 74.5991 30.698 74.5991C30.698 74.5991 31.0561 74.1214 31.2429 73.2894C31.3364 72.8733 31.3909 72.3726 31.3519 71.7948C31.313 71.2246 31.1807 70.5852 30.9315 69.8687C30.7057 69.237 30.3087 68.6668 29.8727 68.0967C29.6547 67.8194 29.4133 67.5497 29.172 67.3032C28.9384 67.0413 28.7049 66.7948 28.4713 66.5713C28.0042 66.1322 27.5916 65.7316 27.2724 65.4619C26.9531 65.2077 26.7585 65.0459 26.7585 65.0459ZM29.5379 71.8949C30.005 72.8887 30.3476 73.6206 30.589 74.1368C30.7057 74.3911 30.4644 74.4758 30.2931 74.237C29.9428 73.7747 29.499 73.0274 29.0007 72.0644C28.518 71.0706 28.1132 69.9766 27.864 69.0983C27.6149 68.22 27.4903 67.6037 27.4903 67.6037C27.4903 67.6037 27.7628 68.1969 28.1443 69.0212C28.3467 69.4373 28.5803 69.9072 28.8139 70.4003C28.9307 70.6545 29.0552 70.9088 29.1798 71.1553C29.2966 71.4095 29.4211 71.6561 29.5379 71.8949Z" fill="#FF8F1F"/>
<path d="M27.2494 7.14162C27.2494 7.14162 26.8913 7.29569 26.2607 7.64238C25.6145 7.97366 24.688 8.48983 23.5435 9.21402C22.3991 9.93822 21.06 10.9089 19.6119 12.1262C18.1716 13.3589 16.6456 14.8689 15.1508 16.6794C13.6638 18.4898 12.2157 20.5931 10.97 22.9891C9.72434 25.3851 8.6733 28.0584 7.93368 30.9167C7.19406 33.7826 6.80478 36.8411 6.76586 39.9459C6.72693 43.0584 7.13957 46.2171 7.91811 49.268C8.7278 52.3111 9.93455 55.2464 11.4683 57.9274C13.0254 60.5931 14.8472 63.043 16.8948 65.1231C20.9666 69.3296 25.6923 72.2032 29.9821 73.9136C34.2875 75.6393 38.1101 76.2941 40.7806 76.5715C42.1197 76.6948 43.1707 76.7641 43.8947 76.7641C44.6188 76.7795 45.0003 76.7872 45.0003 76.7872V77.3111C45.0003 77.3111 44.611 77.3034 43.8792 77.288C43.1474 77.288 42.0807 77.211 40.7261 77.0954C38.0245 76.8103 34.1473 76.1478 29.7953 74.3989C25.451 72.6655 20.6629 69.7533 16.5366 65.4852C14.4579 63.3743 12.6128 60.8935 11.0323 58.1817C9.46742 55.4698 8.25289 52.4883 7.42763 49.3912C6.64129 46.2942 6.22088 43.0815 6.25981 39.9305C6.29873 36.7795 6.6958 33.6747 7.4432 30.7703C8.19839 27.8658 9.26499 25.1539 10.5262 22.7271C11.7875 20.3003 13.2589 18.1586 14.7693 16.325C16.2797 14.4914 17.829 12.9583 19.2927 11.7102C20.7641 10.4775 22.1188 9.49908 23.2788 8.75948C24.4389 8.02759 25.3809 7.49601 26.0349 7.16473C26.6811 6.81034 27.0392 6.65625 27.0392 6.65625L27.2494 7.14162Z" fill="#FF8F1F"/>
<path d="M48.542 0C49.9122 3.93683 52.933 7.18027 56.561 8.09707C58.7565 8.50539 60.9209 8.23575 62.9763 7.46533C63.3266 7.33436 63.5134 7.24191 63.5134 7.24191C63.5134 7.24191 63.4823 7.01849 63.35 6.65639C61.5126 1.68721 56.3975 0 48.542 0ZM62.9218 6.73343C63.3032 6.94914 63.1631 7.2342 62.7583 7.08782C57.6043 4.40678 54.5757 4.34515 50.9788 1.54083C54.9728 3.81356 59.0212 4.56086 62.9218 6.73343Z" fill="#FF8F1F"/>
<path d="M71.6494 5.81672C71.3925 5.43921 71.12 5.0617 70.8086 4.71502C70.5049 4.36833 70.1857 4.03705 69.8665 3.72889C69.2437 3.10485 68.5975 2.6349 68.1459 2.2728C67.9202 2.0956 67.7177 1.96464 67.5854 1.87989C67.4453 1.79515 67.3752 1.74121 67.3752 1.74121C67.3752 1.74121 67.0638 2.68882 66.9236 3.96771C66.8536 4.61486 66.8146 5.33905 66.8769 6.06325C66.9392 6.78744 67.0949 7.51163 67.3908 8.205C67.562 8.59021 67.7489 8.9446 67.9513 9.26818C68.1459 9.59946 68.3406 9.89991 68.543 10.1773C68.9556 10.7166 69.3683 11.1711 69.742 11.5332C70.1235 11.8876 70.466 12.1495 70.7074 12.3421C70.9487 12.527 71.1044 12.6118 71.1044 12.6118C71.1044 12.6118 71.6027 12.3036 72.0698 11.5948C72.5214 10.8938 72.9729 9.75354 72.6615 8.09714C72.5214 7.36525 72.1632 6.55632 71.6494 5.81672ZM69.5551 6.26356C69.7809 6.73351 69.9989 7.30362 70.2091 7.87373C70.4193 8.44384 70.6062 9.02934 70.7385 9.59945C70.8786 10.1619 70.9721 10.6472 71.0499 11.0632C71.12 11.487 71.1511 11.8414 71.1745 12.1264C71.1978 12.4115 70.9487 12.3961 70.8631 12.111C70.7074 11.5178 70.4504 10.7243 70.1468 9.59175C69.8198 8.50547 69.5084 7.22657 69.2203 6.27896C68.9401 5.30053 68.7376 4.61486 68.7376 4.61486C68.7376 4.61486 69.1113 5.30825 69.5551 6.26356Z" fill="#FF8F1F"/>
<path d="M58.8034 12.3115C59.2005 12.3808 59.7299 12.5349 60.3527 12.6274C60.9678 12.7352 61.6529 12.8431 62.3458 12.8662C63.0231 12.9201 63.7316 12.8585 64.3389 12.6967C65.7403 12.3115 66.6745 11.5873 67.2117 10.9556C67.7567 10.3161 67.928 9.73832 67.928 9.73832C67.928 9.73832 67.8112 9.59965 67.5621 9.41475C67.3207 9.22214 66.9626 8.9679 66.5032 8.71366C66.0439 8.46713 65.46 8.25912 64.8138 8.10504C64.1598 7.97407 63.4202 7.93554 62.6417 8.05111C61.2948 8.28994 60.2126 9.21444 59.3562 10.293C58.5854 11.2637 58.1572 12.1574 58.1572 12.1574C58.1572 12.1574 58.4141 12.2268 58.8034 12.3115ZM63.537 10.6397C63.0154 10.7245 62.5015 10.8323 62.0655 10.9094C61.6295 10.9864 61.2636 11.0557 60.9989 11.1251C60.7342 11.179 60.5863 11.2175 60.5863 11.2175C60.5863 11.2175 60.7264 11.1559 60.9678 11.0403C61.2091 10.9325 61.5595 10.7784 61.9643 10.632C62.3769 10.4856 62.8596 10.3238 63.3735 10.1698C63.8873 10.0234 64.4167 9.91552 64.9462 9.82307C66.0128 9.63046 66.8225 9.63816 67.4141 9.62275C67.7022 9.62275 67.7801 9.86929 67.5076 9.92322C66.9548 10.0465 66.1763 10.1775 65.133 10.3624C64.6036 10.4625 64.0586 10.555 63.537 10.6397Z" fill="#FF8F1F"/>
<path d="M78.3685 12.003C78.0337 11.1556 77.5588 10.3081 77.0761 9.57622C76.5779 8.85203 76.0952 8.19718 75.6981 7.77345C75.3088 7.33431 75.0597 7.08008 75.0597 7.08008C75.0597 7.08008 74.5536 7.94294 74.1488 9.1602C73.7517 10.3698 73.4014 11.9491 73.7206 13.3898C73.8841 14.2295 74.141 14.946 74.4291 15.5701C74.7016 16.2095 75.0286 16.7257 75.3166 17.1648C75.6047 17.604 75.8772 17.9429 76.0874 18.1741C76.2976 18.3975 76.4221 18.5285 76.4221 18.5285C76.4221 18.5285 76.9749 18.3436 77.5744 17.7503C78.1817 17.1571 78.8279 16.171 78.8901 14.4684C78.9213 13.6979 78.6877 12.8736 78.3685 12.003ZM75.9161 10.701C76.0095 11.0092 76.1185 11.4637 76.2197 11.9876C76.3287 12.5115 76.4455 13.0893 76.5234 13.6979C76.6012 14.3066 76.6557 14.9306 76.6791 15.5007C76.7102 16.664 76.6401 17.4961 76.5701 18.0662C76.5311 18.3513 76.2898 18.2819 76.2664 17.9892C76.2042 17.4036 76.1886 16.5177 76.0952 15.3774C76.064 14.7919 76.0329 14.1833 76.0017 13.5978C75.9628 13.0046 75.9317 12.4345 75.9005 11.9337C75.8772 11.4252 75.8382 10.9938 75.8149 10.6933C75.7915 10.3852 75.776 10.208 75.776 10.208C75.776 10.208 75.8305 10.3852 75.9161 10.701Z" fill="#FF8F1F"/>
<path d="M64.4559 15.47C64.8141 15.6549 65.3357 15.8706 65.904 16.1326C67.0797 16.6025 68.4966 17.1649 69.789 17.0956C71.2449 17.0186 72.2881 16.5486 72.9577 16.0401C73.6272 15.5393 73.9153 15.0155 73.9153 15.0155C73.9153 15.0155 73.8219 14.8614 73.6272 14.6149C73.4326 14.3683 73.1523 14.0293 72.7397 13.6981C72.3349 13.3668 71.8444 12.9893 71.2215 12.7273C70.9179 12.5887 70.5909 12.4654 70.2405 12.3652C69.8902 12.2728 69.5087 12.2189 69.1117 12.188C68.4188 12.1341 67.7414 12.2959 67.1108 12.581C66.4802 12.8583 65.9196 13.2358 65.4369 13.621C64.962 13.9985 64.5649 14.3914 64.2924 14.6842C64.02 14.9769 63.8643 15.1696 63.8643 15.1696C63.8643 15.1696 64.0978 15.2851 64.4559 15.47ZM67.9438 14.8383C67.0641 14.8152 66.4257 14.7997 66.4257 14.7997C66.4257 14.7997 67.0174 14.6688 67.8971 14.5455C68.3409 14.4762 68.8392 14.4376 69.3608 14.4145C69.8824 14.3991 70.4585 14.376 70.9802 14.4222C72.039 14.4993 72.872 14.638 73.4248 14.7843C73.7051 14.8537 73.7284 15.1079 73.4482 15.1002C72.9032 15.0771 72.1091 15.0386 71.0424 14.9923C69.9992 14.9307 68.8158 14.8768 67.9438 14.8383Z" fill="#FF8F1F"/>
<path d="M82.8686 16.8948C82.565 16.0551 82.1835 15.3463 81.9032 14.8224C81.6307 14.2985 81.4283 13.998 81.4283 13.998C81.4283 13.998 80.7665 14.7145 80.097 15.8239C79.4274 16.9333 78.8046 18.3663 78.7812 19.8609C78.7812 21.5481 79.155 22.9118 79.5442 23.8979C79.7467 24.3833 79.9335 24.7839 80.0814 25.0535C80.2294 25.3232 80.3306 25.4695 80.3306 25.4695C80.3306 25.4695 80.9145 25.4079 81.6229 24.9688C82.3236 24.5296 83.1878 23.7053 83.6005 22.0566C83.9586 20.6313 83.5382 18.5435 82.8686 16.8948ZM81.5451 19.052C81.5295 20.1229 81.4672 21.448 81.2415 22.5959C81.039 23.7284 80.7821 24.5296 80.5953 25.0766C80.5019 25.3386 80.2761 25.223 80.315 24.9303C80.4084 24.3293 80.533 23.4742 80.7043 22.3339C80.7899 21.7638 80.8911 21.1552 80.9768 20.5774C81.0702 19.9919 81.1714 19.4141 81.2337 18.9287C81.3738 17.9272 81.475 17.2184 81.475 17.2184C81.475 17.2184 81.5295 17.9965 81.5451 19.052Z" fill="#FF8F1F"/>
<path d="M69.3141 19.8225C69.6411 20.069 70.0616 20.4311 70.591 20.7855C71.6031 21.5328 72.9188 22.3649 74.1723 22.596C75.6126 22.8425 76.7337 22.6191 77.4889 22.2724C78.2519 21.9335 78.6411 21.4866 78.6411 21.4866C78.6411 21.4866 78.5866 21.3094 78.4543 21.0321C78.3142 20.7547 78.0884 20.3695 77.7769 19.9458C77.1463 19.0983 76.0719 18.1276 74.5616 17.6576C73.2069 17.2724 71.7744 17.6885 70.661 18.2432C69.5633 18.7824 68.8003 19.4065 68.8003 19.4065C68.8003 19.4065 68.9949 19.576 69.3141 19.8225ZM72.841 19.992C71.9846 19.7532 71.3695 19.6145 71.3695 19.6145C71.3695 19.6145 71.9924 19.5991 72.8565 19.6915C73.2925 19.7378 73.7986 19.7917 74.328 19.8841C74.8418 19.9843 75.379 20.1076 75.9007 20.2617C76.9361 20.5698 77.6757 20.9088 78.2207 21.1553C78.4776 21.2863 78.4387 21.5405 78.1818 21.4712C77.6446 21.3325 76.8583 21.1245 75.8539 20.8241C74.8107 20.5544 73.7207 20.2077 72.841 19.992Z" fill="#FF8F1F"/>
<path d="M86.9872 25.3474C86.8315 24.4768 86.6524 23.6756 86.4811 23.1132C86.3099 22.5508 86.1853 22.2041 86.1853 22.2041C86.1853 22.2041 85.3756 22.7588 84.5036 23.6833C83.6472 24.6001 82.674 25.8867 82.3704 27.3274C82.168 28.1594 82.1213 28.9144 82.1057 29.6078C82.0824 30.3012 82.1758 30.9098 82.2458 31.4414C82.3237 31.9653 82.4327 32.389 82.5261 32.6895C82.5728 32.8358 82.6118 32.9514 82.6351 33.0362C82.6663 33.1132 82.674 33.1594 82.674 33.1594C82.674 33.1594 83.2502 33.2288 84.0443 32.9668C84.8384 32.6972 85.8349 32.0885 86.5901 30.5785C87.2752 29.2303 87.2597 27.1117 86.9872 25.3474ZM85.2199 27.1579C85.0097 28.1902 84.6126 29.4845 84.1844 30.54C83.7173 31.6109 83.3202 32.3274 83.0244 32.8127C82.8687 33.0516 82.6896 32.8821 82.783 32.6124C82.9699 32.0577 83.3125 31.2488 83.7095 30.1702C83.9119 29.6309 84.1377 29.0685 84.3635 28.5138C84.5737 27.9591 84.7761 27.4275 84.9552 26.9653C85.3289 26.0177 85.5547 25.3474 85.5547 25.3474C85.5547 25.3474 85.4612 26.1101 85.2199 27.1579Z" fill="#FF8F1F"/>
<path d="M73.129 25.1614C73.3859 25.4773 73.7518 25.9087 74.1644 26.3941C75.0286 27.3263 76.0874 28.4588 77.2864 28.9596C78.6255 29.5297 79.77 29.5605 80.5874 29.391C81.4049 29.2292 81.872 28.8825 81.872 28.8825C81.872 28.8825 81.8487 28.6976 81.7786 28.3972C81.7007 28.0967 81.5995 27.6576 81.3582 27.1799C80.9144 26.2169 80.0969 25.015 78.6956 24.2292C77.481 23.5281 75.9473 23.6514 74.7717 23.9287C73.5883 24.2061 72.7163 24.6452 72.7163 24.6452C72.7163 24.6452 72.872 24.8455 73.129 25.1614ZM76.5468 26.109C75.7527 25.7084 75.1843 25.4156 75.1843 25.4156C75.1843 25.4156 75.776 25.5543 76.6246 25.824C77.045 25.9626 77.5122 26.1398 78.0026 26.3478C78.4931 26.5559 79.007 26.7947 79.4585 27.0643C79.9257 27.334 80.3305 27.5882 80.6809 27.8193C81.0156 28.0582 81.2959 28.2739 81.5217 28.4588C81.7475 28.6437 81.6618 28.8825 81.4127 28.7592C80.9066 28.505 80.2293 28.1121 79.2795 27.6113C78.3764 27.1106 77.3487 26.5482 76.5468 26.109Z" fill="#FF8F1F"/>
<path d="M88.762 37.2645C88.8788 36.8253 88.98 36.3631 89.0579 35.9008C89.1202 35.4386 89.1591 34.9763 89.1902 34.5295C89.2603 33.6358 89.2136 32.8269 89.1825 32.2336C89.1591 31.9409 89.1435 31.7021 89.128 31.5326C89.1046 31.3708 89.0968 31.2783 89.0968 31.2783C89.0968 31.2783 88.1937 31.6327 87.1349 32.3415C86.0683 33.0503 84.916 34.0672 84.262 35.4155C84.083 35.8007 83.9428 36.1705 83.8261 36.5326C83.6937 36.8947 83.6003 37.2491 83.5224 37.5803C83.3823 38.2506 83.2967 38.8669 83.2733 39.3985C83.2499 39.9301 83.2733 40.3692 83.2811 40.6774C83.2966 40.9856 83.3278 41.1628 83.3278 41.1628C83.3278 41.1628 83.8806 41.3631 84.7058 41.2783C85.1185 41.2321 85.6012 41.1165 86.115 40.8546C86.6366 40.585 87.1894 40.1689 87.7032 39.5141C88.1626 38.944 88.5441 38.1427 88.762 37.2645ZM87.0959 35.8854C86.878 36.3631 86.5899 36.9024 86.3018 37.4262C86.1539 37.6882 86.006 37.9578 85.8503 38.2121C85.6868 38.4663 85.5155 38.7128 85.352 38.9517C84.6902 39.8916 84.153 40.5002 83.7404 40.9085C83.538 41.1088 83.3901 40.9008 83.5536 40.6543C83.8961 40.1535 84.3243 39.4447 84.9861 38.4817C85.3053 38.0041 85.6401 37.5033 85.9593 37.0179C86.2863 36.5326 86.6132 36.0549 86.878 35.6389C87.4229 34.7914 87.8122 34.1982 87.8122 34.1982C87.8122 34.1982 87.5241 34.9301 87.0959 35.8854Z" fill="#FF8F1F"/>
<path d="M75.729 31.2176C75.9081 31.5874 76.1494 32.0959 76.4842 32.6506C77.0915 33.7677 77.9323 35.0928 78.9678 35.8632C79.5595 36.2946 80.1433 36.5797 80.6805 36.7646C81.21 36.9495 81.6927 37.0188 82.1053 37.0342C82.9306 37.0573 83.4755 36.8262 83.4755 36.8262C83.4755 36.8262 83.5067 36.6413 83.4911 36.3332C83.4755 36.0173 83.4366 35.5704 83.3354 35.0466C83.1174 34.0065 82.5569 32.6506 81.3735 31.572C80.3069 30.6244 78.8354 30.3778 77.6053 30.3932C76.383 30.401 75.4409 30.6321 75.4409 30.6321C75.4409 30.6321 75.5344 30.8555 75.729 31.2176ZM78.8432 32.9125C78.5084 32.6198 78.2126 32.3732 78.0101 32.196C77.7999 32.0265 77.6754 31.9264 77.6754 31.9264C77.6754 31.9264 78.2437 32.1883 78.9833 32.6506C79.357 32.8817 79.793 33.159 80.229 33.4672C80.6494 33.7831 81.0854 34.1375 81.4902 34.4996C82.2999 35.2315 82.8293 35.8709 83.2108 36.3332C83.3977 36.5643 83.2498 36.78 83.0473 36.6028C82.6113 36.2407 81.9963 35.7091 81.21 34.9926C80.3847 34.2916 79.5439 33.4903 78.8432 32.9125Z" fill="#FF8F1F"/>
<path d="M88.3961 46.5794C88.801 45.7628 89.1825 44.8537 89.4005 43.9831C89.6418 43.1203 89.8131 42.3113 89.8831 41.7258C89.9688 41.1403 89.9999 40.7705 89.9999 40.7705C89.9999 40.7705 89.0345 40.9169 87.8589 41.3714C87.275 41.5949 86.6366 41.8953 86.0371 42.2805C85.4221 42.6657 84.846 43.1434 84.41 43.7289C83.9117 44.3992 83.499 45.0463 83.2266 45.6704C82.9307 46.2944 82.7127 46.8722 82.5804 47.3807C82.4402 47.8892 82.339 48.3206 82.3001 48.6287C82.2534 48.9369 82.2456 49.1218 82.2456 49.1218C82.2456 49.1218 82.7361 49.4454 83.5614 49.561C84.3788 49.6688 85.5311 49.5764 86.8779 48.5517C87.4307 48.0972 87.9523 47.3961 88.3961 46.5794ZM87.82 43.7828C87.6332 44.0525 87.3918 44.43 87.057 44.846C86.73 45.262 86.3563 45.7243 85.9593 46.1788C85.5544 46.6257 85.1106 47.0648 84.6902 47.4423C83.8572 48.205 83.1487 48.6673 82.6816 48.9677C82.448 49.1141 82.339 48.8753 82.5492 48.675C82.7594 48.467 83.0242 48.2204 83.3434 47.9277C83.6548 47.6272 84.0129 47.2882 84.4255 46.8953C85.2741 46.1172 86.1617 45.2389 86.9013 44.5455C87.6098 43.8368 88.1081 43.3437 88.1081 43.3437C88.1081 43.3437 87.9991 43.5055 87.82 43.7828Z" fill="#FF8F1F"/>
<path d="M76.9517 37.7123C77.0451 38.1129 77.2164 38.6676 77.3799 39.2839C77.4733 39.5921 77.5745 39.9157 77.6991 40.2469C77.8081 40.5705 77.9249 40.9018 78.0728 41.2177C78.3764 41.8648 78.6878 42.4734 79.1238 42.9588C79.6299 43.5135 80.1204 43.9218 80.5953 44.2146C81.0702 44.515 81.5295 44.6999 81.9344 44.8001C82.7363 45.0158 83.3124 44.9157 83.3124 44.9157C83.3124 44.9157 83.3747 44.7462 83.437 44.438C83.5148 44.1298 83.5616 43.683 83.5616 43.1514C83.5693 42.6198 83.5226 41.9881 83.328 41.3255C83.2345 40.9942 83.1256 40.6553 82.9776 40.3163C82.8219 39.9773 82.6195 39.6383 82.3937 39.307C81.5996 38.1437 80.1437 37.5736 78.9759 37.304C77.8003 37.0343 76.8193 37.042 76.8193 37.042C76.8193 37.042 76.866 37.3117 76.9517 37.7123ZM80.5408 41.2947C80.2138 40.8556 79.9257 40.4395 79.6455 40.0697C79.1005 39.3533 78.7034 38.8448 78.7034 38.8448C78.7034 38.8448 79.1783 39.23 79.8323 39.8463C80.1671 40.1545 80.5174 40.5243 80.8678 40.9249C81.2181 41.3255 81.584 41.7647 81.8955 42.2115C82.4949 43.1052 82.9387 43.8525 83.1723 44.3841C83.2968 44.6537 83.11 44.8309 82.9465 44.6075C82.6195 44.1607 82.1446 43.5058 81.4984 42.6275C81.2026 42.1961 80.8678 41.7338 80.5408 41.2947Z" fill="#FF8F1F"/>
<path d="M87.5084 53.3208C87.9288 52.535 88.2558 51.7877 88.4815 51.233C88.684 50.6783 88.793 50.3239 88.793 50.3239C88.793 50.3239 87.8198 50.2392 86.5819 50.4087C85.3362 50.5782 83.8181 50.9557 82.6892 51.8802C81.389 52.9279 80.6027 54.0836 80.081 55.0004C79.8241 55.4549 79.6528 55.8632 79.5438 56.1483C79.4193 56.4333 79.3726 56.6028 79.3726 56.6028C79.3726 56.6028 79.7774 57.0342 80.5482 57.3424C81.3267 57.6429 82.4945 57.8355 83.9971 57.1421C85.3518 56.5566 86.6286 54.8771 87.5084 53.3208ZM86.0214 52.743C85.78 52.9587 85.4297 53.2592 85.0248 53.5905C84.6278 53.9218 84.1606 54.2839 83.6546 54.6228C83.1563 54.9618 82.6502 55.2931 82.152 55.5551C81.1321 56.0789 80.4002 56.3948 79.8553 56.5643C79.5905 56.649 79.5438 56.3948 79.8007 56.2561C80.2912 55.948 81.0309 55.5319 82.0118 54.9618C82.4945 54.6768 83.0161 54.3763 83.5222 54.0913C84.036 53.8062 84.5032 53.5135 84.9314 53.2592C85.3596 53.005 85.7255 52.7893 85.9902 52.6352C86.2471 52.4734 86.395 52.3809 86.395 52.3809C86.395 52.3809 86.2549 52.5196 86.0214 52.743Z" fill="#FF8F1F"/>
<path d="M76.7803 44.2906C76.8114 44.6989 76.8036 45.2613 76.8581 45.9008C76.9282 46.5402 76.9516 47.2336 77.115 47.9347C77.2318 48.6203 77.4264 49.2983 77.7534 49.8761C78.4386 51.1781 79.3261 51.9485 80.0657 52.3414C80.7976 52.7421 81.3815 52.7806 81.3815 52.7806C81.3815 52.7806 81.763 52.1565 82.0199 51.1165C82.1289 50.5926 82.2223 49.9686 82.199 49.2906C82.1522 48.5972 82.0432 47.8653 81.7318 47.1103C81.4515 46.4478 81.0078 45.8931 80.5017 45.4462C79.9723 44.9917 79.3806 44.645 78.8356 44.3753C77.7379 43.8437 76.788 43.6357 76.788 43.6357C76.788 43.6357 76.7647 43.8823 76.7803 44.2906ZM79.4974 48.5895C79.2794 48.0964 79.0692 47.6111 78.8901 47.1874C78.7189 46.7713 78.5398 46.4247 78.4308 46.1781C78.314 45.9316 78.2439 45.7852 78.2439 45.7852C78.2439 45.7852 78.641 46.2706 79.1315 47.0179C79.5986 47.7575 80.2137 48.7898 80.5952 49.7991C81.0156 50.8237 81.2258 51.6327 81.3581 52.2182C81.4204 52.5109 81.2102 52.6419 81.0934 52.38C80.8521 51.8561 80.5718 51.1088 80.128 50.1072C79.9178 49.6219 79.7076 49.098 79.4974 48.5895Z" fill="#FF8F1F"/>
<path d="M83.577 61.9184C83.8729 61.5871 84.1454 61.2712 84.3867 60.9631C84.6203 60.6549 84.8149 60.3698 84.9862 60.1233C85.321 59.6379 85.5078 59.3221 85.5078 59.3221C85.5078 59.3221 84.5813 59.0062 83.3279 58.8752C82.0744 58.7365 80.5329 58.7674 79.2171 59.3914C77.7379 60.1156 76.6947 61.0478 76.0017 61.8259C75.667 62.2265 75.3867 62.5578 75.2154 62.8198C75.0441 63.074 74.9585 63.2358 74.9585 63.2358C74.9585 63.2358 75.2621 63.7519 75.955 64.2219C76.6402 64.6919 77.7301 65.131 79.3573 64.8151C80.7665 64.5378 82.417 63.2512 83.577 61.9184ZM81.1168 61.6102C80.167 62.057 78.9758 62.5655 77.878 62.8429C76.8037 63.1433 75.9784 63.2435 75.4256 63.3051C75.1531 63.3282 75.1609 63.074 75.4334 62.9815C76.0018 62.8043 76.8037 62.5578 77.878 62.2342C78.9758 61.903 80.1748 61.5486 81.1012 61.2712C82.0433 60.9708 82.705 60.755 82.705 60.755C82.705 60.755 82.0433 61.148 81.1168 61.6102Z" fill="#FF8F1F"/>
<path d="M75.153 50.6169C75.0518 51.0098 74.9661 51.5722 74.8649 52.2039C74.7482 52.828 74.6937 53.5445 74.6469 54.2455C74.6314 54.5999 74.6392 54.9543 74.6703 55.301C74.6937 55.64 74.7404 55.979 74.826 56.2948C75.2386 57.7432 75.9004 58.6831 76.5388 59.2378C77.1616 59.8002 77.7222 59.9697 77.7222 59.9697C77.7222 59.9697 77.8468 59.8388 78.0414 59.5999C78.2361 59.3534 78.4696 58.9759 78.7032 58.4982C78.9523 58.0283 79.1547 57.4351 79.2793 56.7571C79.4194 56.0945 79.435 55.3241 79.3104 54.5229C79.0769 53.1053 78.057 51.9497 77.1072 51.1793C76.1495 50.4012 75.2698 49.9697 75.2698 49.9697C75.2698 49.9697 75.2386 50.2163 75.153 50.6169ZM76.8191 55.4397C76.7335 54.9004 76.64 54.3842 76.5466 53.9374C76.461 53.4905 76.3831 53.113 76.3286 52.8434C76.2819 52.5814 76.2352 52.4196 76.2352 52.4196C76.2352 52.4196 76.313 52.566 76.4065 52.8049C76.5077 53.0514 76.6478 53.3981 76.8035 53.8218C77.1305 54.6693 77.4341 55.7941 77.621 56.8881C77.7845 57.9666 77.8234 58.8218 77.8234 59.4227C77.8156 59.7155 77.5743 59.7925 77.5276 59.5152C77.4342 58.9682 77.2629 58.1361 77.0916 57.073C77.0215 56.5568 76.9047 55.979 76.8191 55.4397Z" fill="#FF8F1F"/>
<path d="M77.9401 69.3682C78.633 68.852 79.2558 68.3358 79.684 67.9429C80.1045 67.5423 80.3536 67.2727 80.3536 67.2727C80.3536 67.2727 79.5205 66.7565 78.3372 66.3482C77.1615 65.9475 75.62 65.5855 74.2264 65.9244C72.6148 66.2865 71.4159 66.9799 70.575 67.5885C70.1468 67.889 69.8276 68.174 69.6097 68.3898C69.3917 68.6055 69.2671 68.7365 69.2671 68.7365C69.2671 68.7365 69.454 69.2989 70.0379 69.9152C70.3259 70.2234 70.7152 70.5392 71.2446 70.7935C71.7662 71.04 72.4124 71.2172 73.2377 71.2403C74.6702 71.2942 76.4998 70.3697 77.9401 69.3682ZM76.8346 68.1818C76.5309 68.2665 76.0872 68.3821 75.5889 68.4976C74.5923 68.7442 73.2922 68.9368 72.1866 68.9984C71.05 69.0292 70.2481 68.9753 69.6953 68.9059C69.415 68.8674 69.4851 68.6286 69.7654 68.5901C70.3337 68.5207 71.1823 68.4822 72.3034 68.3898C72.8562 68.3435 73.4479 68.3127 74.0318 68.2819C74.6079 68.2357 75.1607 68.1972 75.6434 68.1664C76.6244 68.1047 77.3173 68.0277 77.3173 68.0277C77.3173 68.0277 77.1382 68.0893 76.8346 68.1818Z" fill="#FF8F1F"/>
<path d="M72.1398 56.4096C72.0542 56.5945 71.9608 56.8257 71.8595 57.0799C71.7428 57.3264 71.626 57.6038 71.5092 57.9042C71.2912 58.5129 71.0187 59.1677 70.8552 59.8611C70.6761 60.5468 70.5438 61.2401 70.5905 61.9104C70.6528 63.3973 71.1355 64.4836 71.6338 65.1693C72.1242 65.8549 72.6381 66.1477 72.6381 66.1477C72.6381 66.1477 72.786 66.0475 73.0196 65.8472C73.2531 65.6392 73.5879 65.3542 73.9071 64.9304C74.2263 64.5067 74.5767 63.9982 74.8414 63.3665C75.0905 62.727 75.3241 62.0183 75.3474 61.1939C75.3786 60.4697 75.2306 59.784 74.9581 59.1369C74.6857 58.4897 74.3042 57.9042 73.9305 57.4189C73.1753 56.4404 72.4201 55.8164 72.4201 55.8164C72.4201 55.8164 72.3111 56.0321 72.1398 56.4096ZM72.7159 61.5252C72.7393 60.9782 72.7549 60.4543 72.7782 59.9921C72.8016 59.5375 72.7938 59.1369 72.8016 58.8673C72.8016 58.5899 72.8094 58.4281 72.8094 58.4281C72.8094 58.4281 72.9417 59.0367 73.0741 59.9458C73.1675 60.8241 73.2843 62.0337 73.1986 63.1122C73.1597 63.6592 73.1208 64.1523 73.0585 64.576C72.9962 64.9921 72.9262 65.3465 72.8561 65.6392C72.7938 65.932 72.5447 65.9551 72.5524 65.67C72.5524 65.0922 72.6147 64.291 72.6459 63.1893C72.6614 62.65 72.6848 62.0799 72.7159 61.5252Z" fill="#FF8F1F"/>
<path d="M68.3641 76.1634C68.8001 76.0787 69.2361 75.9631 69.6721 75.8321C70.1003 75.6858 70.5207 75.524 70.9178 75.3545C71.7197 75.0309 72.4048 74.638 72.8953 74.3452C73.1444 74.1989 73.339 74.0756 73.4792 73.9908C73.6193 73.9061 73.6894 73.8522 73.6894 73.8522C73.6894 73.8522 72.9809 73.1665 71.9065 72.4962C70.8243 71.8183 69.4307 71.1942 67.9749 71.1865C67.5622 71.1865 67.1807 71.225 66.807 71.279C66.4333 71.3175 66.083 71.3868 65.7638 71.4639C65.1176 71.6334 64.5415 71.8337 64.0743 72.0417C63.6072 72.2574 63.2335 72.4731 62.9688 72.6272C62.7041 72.7813 62.564 72.8968 62.564 72.8968C62.564 72.8968 62.6418 73.4901 63.0856 74.2143C63.5294 74.923 64.3624 75.809 65.9506 76.1788C66.6435 76.3483 67.4999 76.3483 68.3641 76.1634ZM68.8079 74.0216C68.2941 74.0294 67.7024 74.0063 67.1185 73.9677C66.8226 73.9523 66.5268 73.9292 66.2387 73.8984C65.9428 73.8599 65.6548 73.8136 65.3745 73.7674C64.8217 73.6673 64.3468 73.5671 63.9498 73.4669C63.5527 73.3591 63.2179 73.2512 62.9532 73.1588C62.6885 73.0663 62.7975 72.8352 63.0856 72.8737C63.6773 72.9585 64.487 73.0432 65.6081 73.2204C66.7292 73.3822 67.9593 73.5671 68.9169 73.7058C69.8901 73.8367 70.5752 73.9369 70.5752 73.9369C70.5752 73.9369 69.8278 73.9985 68.8079 74.0216Z" fill="#FF8F1F"/>
<path d="M67.9281 61.4407C67.6712 61.7642 67.3364 62.2265 66.9861 62.7658C66.262 63.8212 65.4601 65.1926 65.2421 66.4869C65.1254 67.2265 65.1332 67.8967 65.211 68.4668C65.2811 69.0293 65.4368 69.5146 65.6081 69.8998C65.9506 70.678 66.3944 71.0709 66.3944 71.0709C66.3944 71.0709 66.5657 71.0169 66.8382 70.8705C67.1029 70.7165 67.4766 70.4853 67.8892 70.1541C68.6989 69.4915 69.6409 68.3821 70.0691 66.8182C70.4428 65.4237 70.0146 63.9445 69.4774 62.812C68.9403 61.6795 68.333 60.9014 68.333 60.9014C68.333 60.9014 68.1695 61.1017 67.9281 61.4407ZM67.7802 65.0847C67.8892 64.6456 67.9826 64.2681 68.0449 63.9984C68.1072 63.7288 68.1383 63.567 68.1383 63.567C68.1383 63.567 68.1383 63.7288 68.1383 63.9984C68.1306 64.2681 68.1072 64.6456 68.0683 65.1001C68.0294 65.547 67.9748 66.0786 67.8892 66.6179C67.7958 67.1494 67.679 67.7041 67.5389 68.2434C67.2508 69.3143 66.9316 70.0847 66.698 70.6394C66.5812 70.9168 66.3243 70.8705 66.3944 70.6009C66.519 70.0462 66.7058 69.2296 66.9861 68.1895C67.243 67.1186 67.5778 65.9861 67.7802 65.0847Z" fill="#FF8F1F"/>
<path d="M60.2594 79.9993C61.1314 79.9916 62.0734 79.9223 62.9065 79.7374C63.7395 79.5679 64.5025 79.3599 65.0319 79.1673C65.5691 78.9824 65.8961 78.8514 65.8961 78.8514C65.8961 78.8514 65.3355 78.0271 64.4168 77.1565C63.9575 76.7174 63.4125 76.2705 62.813 75.893C62.2058 75.5078 61.5362 75.1996 60.8277 75.061C60.0258 74.9146 59.2707 74.8375 58.6089 74.8761C57.9393 74.8992 57.3399 74.9762 56.8338 75.0995C56.3355 75.2305 55.9151 75.3306 55.6348 75.4385C55.3468 75.5386 55.1911 75.6234 55.1911 75.6234C55.1911 75.6234 55.1521 76.2243 55.4558 77.0178C55.7594 77.8114 56.3978 78.8129 57.8926 79.5294C58.5388 79.8298 59.3797 79.9839 60.2594 79.9993ZM62.3537 78.2043C62.0423 78.158 61.6063 78.1041 61.1002 77.9886C60.5942 77.8807 60.0258 77.7497 59.4575 77.6033C58.8892 77.4493 58.313 77.2412 57.7914 77.0409C56.7482 76.648 56.0241 76.232 55.5336 75.9546C55.2923 75.816 55.448 75.608 55.7205 75.7004C56.281 75.9007 57.0751 76.1781 58.1262 76.5479C59.1928 76.9408 60.3684 77.3799 61.2715 77.7112C62.198 78.0348 62.8442 78.2659 62.8442 78.2659C62.8442 78.2659 62.6729 78.2428 62.3537 78.2043Z" fill="#FF8F1F"/>
<path d="M62.7197 65.4775C62.4083 65.7472 61.9957 66.1478 61.5208 66.5869C61.2872 66.8104 61.0536 67.0569 60.8201 67.3188C60.5787 67.5654 60.3452 67.835 60.1194 68.1124C59.6834 68.6825 59.2864 69.2603 59.0606 69.8843C58.8037 70.6008 58.6791 71.2402 58.6402 71.8104C58.6012 72.3805 58.6557 72.8889 58.7491 73.305C58.936 74.137 59.2941 74.6147 59.2941 74.6147C59.2941 74.6147 59.4732 74.5838 59.7613 74.5068C60.0571 74.4298 60.462 74.268 60.9291 74.0292C61.3884 73.7826 61.91 73.4591 62.4005 72.9814C62.6419 72.7503 62.8832 72.4883 63.1168 72.2033C63.3426 71.9105 63.545 71.5715 63.7319 71.2094C64.3858 69.9536 64.2457 68.3666 63.9576 67.1647C63.6696 65.9552 63.2336 65.0615 63.2336 65.0615C63.2336 65.0615 63.0389 65.2079 62.7197 65.4775ZM60.8201 71.1632C60.9369 70.909 61.0614 70.6547 61.1782 70.4082C61.4196 69.9228 61.6453 69.4452 61.8478 69.0292C62.2292 68.2048 62.5017 67.6116 62.5017 67.6116C62.5017 67.6116 62.3772 68.2279 62.128 69.1062C61.8789 69.9845 61.4741 71.0862 60.9914 72.0723C60.4931 73.0353 60.0493 73.7826 59.699 74.2449C59.5277 74.4837 59.2863 74.3989 59.4031 74.1447C59.6445 73.6362 59.987 72.9043 60.4542 71.9028C60.5709 71.6563 60.6955 71.4097 60.8201 71.1632Z" fill="#FF8F1F"/>
<path d="M62.7352 7.14162C62.7352 7.14162 63.0934 7.29569 63.724 7.64238C64.3702 7.97366 65.2967 8.48983 66.4411 9.21402C67.5856 9.93822 68.9247 10.9089 70.3728 12.1262C71.8131 13.3589 73.339 14.8689 74.8338 16.6794C76.3209 18.4898 77.769 20.5931 79.0147 22.9891C80.2603 25.3851 81.3114 28.0584 82.051 30.9167C82.7906 33.7826 83.1799 36.8411 83.2188 39.9459C83.2577 43.0584 82.8451 46.2171 82.0665 49.268C81.2569 52.3111 80.0501 55.2464 78.5164 57.9274C76.9593 60.5931 75.1375 63.043 73.0899 65.1231C69.0181 69.3296 64.2923 72.2032 60.0025 73.9136C55.6972 75.6393 51.8745 76.2941 49.2041 76.5715C47.865 76.6948 46.814 76.7641 46.0899 76.7641C45.3659 76.7795 44.9844 76.7872 44.9844 76.7872V77.3111C44.9844 77.3111 45.3736 77.3034 46.1055 77.288C46.8373 77.288 47.9039 77.211 49.2586 77.0954C51.9601 76.8103 55.8373 76.1478 60.1894 74.3989C64.5337 72.6655 69.3217 69.7533 73.448 65.4852C75.5267 63.3743 77.3719 60.8935 78.9524 58.1817C80.5172 55.4698 81.7318 52.4883 82.557 49.3912C83.3434 46.2942 83.7638 43.0815 83.7249 39.9305C83.6859 36.7795 83.2889 33.6747 82.5415 30.7703C81.7863 27.8658 80.7197 25.1539 79.4584 22.7271C78.1972 20.3003 76.7179 18.1586 75.2153 16.325C73.705 14.4914 72.1557 12.9583 70.692 11.7102C69.2205 10.4775 67.8659 9.49908 66.7058 8.75948C65.5458 8.02759 64.6038 7.49601 63.9498 7.16473C63.3036 6.81034 62.9454 6.65625 62.9454 6.65625L62.7352 7.14162Z" fill="#FF8F1F"/>
<path d="M34.1393 20.7709L33.353 21.5798C32.8547 21.1715 32.4265 20.9789 31.7803 20.9789C30.7137 20.9789 29.795 21.7801 29.795 23.7832C29.795 25.8248 30.4023 26.5875 31.5857 26.5875C32.0139 26.5875 32.4265 26.5028 32.7846 26.2947V24.3533H31.648L31.4923 23.2978H34.1938V26.9419C33.462 27.3964 32.5666 27.6738 31.5467 27.6738C29.4525 27.6738 28.2769 26.3333 28.2769 23.7755C28.2769 21.2485 29.8573 19.8926 31.7102 19.8926C32.7924 19.9003 33.5087 20.2316 34.1393 20.7709Z" fill="#191825"/>
<path d="M37.0897 24.5299V27.5192H35.6494V20.0615H37.8994C39.8769 20.0615 40.889 20.7703 40.889 22.2495C40.889 23.2665 40.3908 23.8674 39.3631 24.268L41.3406 27.5192H39.6823L38.0162 24.5299H37.0897ZM37.9851 23.5053C38.8804 23.5053 39.3786 23.1509 39.3786 22.2495C39.3786 21.4406 38.9115 21.0939 37.8605 21.0939H37.0819V23.4976H37.9851V23.5053Z" fill="#191825"/>
<path d="M43.3413 25.7934L42.8742 27.5192H41.3794L43.7228 20.0615H45.4979L47.8335 27.5192H46.3076L45.8405 25.7934H43.3413ZM44.5792 21.1478L43.6216 24.7071H45.5446L44.5792 21.1478Z" fill="#191825"/>
<path d="M52.3651 27.519L49.7803 21.4867C49.8582 22.1415 49.9749 23.0969 49.9749 24.4759V27.519H48.667V20.0614H50.4888L53.1203 26.1015C53.058 25.6932 52.9256 24.6146 52.9256 23.5514V20.0537H54.2336V27.5113H52.3651V27.519Z" fill="#191825"/>
<path d="M57.8456 20.0615C59.8309 20.0615 61.7072 20.6702 61.7072 23.7518C61.7072 26.7719 59.8387 27.5192 58.0402 27.5192H55.9927V20.0615H57.8456ZM57.433 26.4483H58.1415C59.2626 26.4483 60.189 25.9552 60.189 23.7518C60.189 21.5099 59.2081 21.1324 58.0947 21.1324H57.433V26.4483Z" fill="#191825"/>
<path d="M36.8795 30.8477C38.7791 30.8477 39.9314 31.6181 39.9314 33.2205C39.9314 34.9386 38.6779 35.7013 36.9729 35.7013H36.0931V38.3053H34.6528V30.8477H36.8795ZM36.8717 34.6381C37.8293 34.6381 38.4288 34.3145 38.4288 33.2283C38.4288 32.2883 37.8527 31.9031 36.8717 31.9031H36.0931V34.6458H36.8717V34.6381Z" fill="#191825"/>
<path d="M42.5394 35.3161V38.3053H41.0991V30.8477H43.3491C45.3266 30.8477 46.3387 31.5564 46.3387 33.0356C46.3387 34.0526 45.8405 34.6535 44.8128 35.0541L46.7903 38.3053H45.132L43.4659 35.3161H42.5394ZM43.4348 34.2914C44.3301 34.2914 44.8284 33.937 44.8284 33.0356C44.8284 32.2267 44.3612 31.88 43.3102 31.88H42.5316V34.2837H43.4348V34.2914Z" fill="#191825"/>
<path d="M47.7559 38.3053V30.8477H49.204V38.3053H47.7559Z" fill="#191825"/>
<path d="M54.6308 38.3053L53.1282 35.2544L51.6333 38.3053H50.0996L52.2795 34.3299L50.2709 30.8477H51.8747L53.1515 33.4286L54.4828 30.8477H56.0244L54.0079 34.2837L56.2423 38.3053H54.6308Z" fill="#191825"/>
<path d="M24.4384 42.2578L23.6988 43.1129C23.2706 42.7585 22.8268 42.5736 22.3052 42.5736C21.2698 42.5736 20.4601 43.3286 20.4601 45.3471C20.4601 47.3117 21.2464 48.1129 22.3208 48.1129C22.967 48.1129 23.4108 47.8125 23.8467 47.4889L24.5241 48.3518C24.0647 48.814 23.2784 49.2609 22.2585 49.2609C20.3044 49.2609 18.9419 47.8895 18.9419 45.3548C18.9419 42.851 20.3822 41.4796 22.2118 41.4796C23.2083 41.4719 23.8312 41.7493 24.4384 42.2578Z" fill="#191825"/>
<path d="M26.9921 45.7555V49.0914H25.5518V41.6338H26.9921V44.623H29.6781V41.6338H31.1262V49.0914H29.6781V45.7555H26.9921Z" fill="#191825"/>
<path d="M33.898 47.3657L33.4308 49.0914H31.936L34.2795 41.6338H36.0546L38.3902 49.0914H36.8642L36.3971 47.3657H33.898ZM35.1437 42.7201L34.186 46.2794H36.109L35.1437 42.7201Z" fill="#191825"/>
<path d="M44.9685 49.0914L44.7739 45.9712C44.7116 44.8695 44.6571 43.7139 44.6726 42.9281L43.3024 48.2825H41.94L40.4763 42.9204C40.523 43.9219 40.4996 44.9466 40.4296 46.0175L40.2427 49.0914H38.8491L39.4486 41.6338H41.3015L42.6406 46.8572L43.9097 41.6338H45.786L46.3777 49.0914H44.9685Z" fill="#191825"/>
<path d="M50.107 41.6338C52.0067 41.6338 53.1589 42.4042 53.1589 44.0067C53.1589 45.7247 51.9055 46.4874 50.2004 46.4874H49.3207V49.0914H47.8804V41.6338H50.107ZM50.0992 45.4165C51.0568 45.4165 51.6563 45.093 51.6563 44.0067C51.6563 43.0668 51.0802 42.6816 50.0992 42.6816H49.3207V45.4242H50.0992V45.4165Z" fill="#191825"/>
<path d="M54.3267 49.0914V41.6338H55.7748V49.0914H54.3267Z" fill="#191825"/>
<path d="M63.7237 45.3546C63.7237 47.8122 62.4469 49.2529 60.4304 49.2529C58.414 49.2529 57.1294 47.8584 57.1294 45.37C57.1294 42.9201 58.414 41.4717 60.4304 41.4717C62.4469 41.4717 63.7237 42.8661 63.7237 45.3546ZM58.6398 45.3623C58.6398 47.3731 59.3249 48.1589 60.4304 48.1589C61.5515 48.1589 62.2055 47.3731 62.2055 45.3546C62.2055 43.3592 61.5593 42.558 60.4304 42.558C59.3093 42.558 58.6398 43.3592 58.6398 45.3623Z" fill="#191825"/>
<path d="M68.7689 49.0913L66.1841 43.059C66.262 43.7138 66.3788 44.6691 66.3788 46.0482V49.0913H65.0708V41.6337H66.8926L69.5241 47.6737C69.4618 47.2654 69.3295 46.1868 69.3295 45.1237V41.626H70.6374V49.0836H68.7689V49.0913Z" fill="#191825"/>
<path d="M58.5703 60.4387L60.54 65.9087H44.9924H29.4448L31.4145 60.4387L29.4448 54.9688H44.9924H60.54L58.5703 60.4387ZM36.2571 57.0489C35.245 57.0489 34.4664 57.4803 33.8825 58.2353L34.7467 58.9056C35.1905 58.374 35.572 58.1352 36.1559 58.1352C36.7865 58.1352 37.2147 58.5204 37.2147 59.1906C37.2147 60.2153 36.6075 60.8933 34.0927 63.4202V64.4372H38.6628L38.8185 63.3509H35.681C37.9465 61.2168 38.655 60.3154 38.655 59.0905C38.6395 57.958 37.7675 57.0489 36.2571 57.0489ZM42.3609 57.0489C40.6403 57.0489 39.7294 58.3971 39.7294 60.8162C39.7294 63.243 40.6325 64.6067 42.3609 64.6067C44.0971 64.6067 44.9924 63.2507 44.9924 60.8162C44.9846 58.3971 44.0893 57.0489 42.3609 57.0489ZM42.3609 58.0966C43.1706 58.0966 43.5521 58.7746 43.5521 60.8162C43.5521 62.8655 43.1706 63.5589 42.3609 63.5589C41.5512 63.5589 41.1697 62.8501 41.1697 60.8162C41.1697 58.8131 41.5512 58.0966 42.3609 58.0966ZM49.2511 64.4449V57.1799H48.0209L45.6308 58.6282L46.2381 59.5527L47.873 58.5743V64.4449H49.2511ZM56.0088 62.7808V61.7253H55.1291V59.8994H53.9146L53.7744 61.7253H52.0927L53.969 57.488L52.7779 57.0489L50.6369 61.8409V62.7885H53.7588V64.4526H55.1213V62.7885H56.0088V62.7808Z" fill="#3D72FC"/>
</svg>
