<svg width="84" height="80" viewBox="0 0 84 80" fill="none" xmlns="http://www.w3.org/2000/svg">
<path d="M33.4874 53.9331H31.5356V54.8773H33.4874V53.9331Z" fill="#FF8F1F"/>
<path d="M33.4874 64.1216H31.5356V65.0657H33.4874V64.1216Z" fill="#FF8F1F"/>
<path d="M49.1537 54.8755H51.1055V53.9313H49.1537V54.8755Z" fill="#FF8F1F"/>
<path d="M49.1537 65.0728H51.1055V64.1286H49.1537V65.0728Z" fill="#FF8F1F"/>
<path d="M46.2187 59.4995C46.2187 62.4798 44.0285 64.9018 41.3168 64.9018C38.6126 64.9018 36.415 62.488 36.415 59.4995C36.415 56.5193 38.6052 54.0973 41.3168 54.0973C44.0285 54.1055 46.2187 56.5193 46.2187 59.4995ZM41.3168 53.0464C38.0837 53.0464 35.4614 55.9363 35.4614 59.4995C35.4614 63.0627 38.0837 65.9527 41.3168 65.9527C44.55 65.9527 47.1723 63.0627 47.1723 59.4995C47.1723 55.9363 44.5574 53.0464 41.3168 53.0464Z" fill="#FF8F1F"/>
<path d="M51.277 57.5372V55.0659C51.277 55.0659 49.8094 55.0659 49.1091 55.0659C48.4089 55.0659 45.4588 50.1563 44.4829 43.8756C43.8646 39.9019 43.6635 36.9955 43.6039 35.3945H39.0447C38.9777 36.9955 38.7765 39.8937 38.1656 43.8756C37.1897 50.1563 34.2397 55.0659 33.5394 55.0659C32.8391 55.0659 31.3716 55.0659 31.3716 55.0659V57.5372C31.3716 57.5372 30.5894 58.1119 30.5894 58.7441C30.5894 59.015 30.5894 59.5076 30.5894 59.5076C30.5894 59.5076 30.5894 59.992 30.5894 60.2711C30.5894 60.9033 31.3716 61.478 31.3716 61.478V63.9493C31.3716 63.9493 32.8391 63.9493 33.5394 63.9493C33.897 63.9493 34.4259 64.7128 34.5824 64.9509C36.1021 67.2415 38.5605 68.7275 41.3243 68.7275C44.0956 68.7275 46.5465 67.2415 48.0662 64.9509C48.2226 64.7128 48.759 63.9493 49.1091 63.9493C49.8094 63.9493 51.277 63.9493 51.277 63.9493V61.478C51.277 61.478 52.0592 60.9033 52.0592 60.2711C52.0592 60.0002 52.0592 59.5076 52.0592 59.5076C52.0592 59.5076 52.0592 59.0232 52.0592 58.7441C52.0592 58.1119 51.277 57.5372 51.277 57.5372ZM41.3168 66.9213C37.5995 66.9213 34.5898 63.6044 34.5898 59.5076C34.5898 55.4108 37.5995 52.0939 41.3168 52.0939C45.0342 52.0939 48.0439 55.4108 48.0439 59.5076C48.0513 63.5962 45.0342 66.9213 41.3168 66.9213ZM41.3168 50.534C41.0188 50.534 40.0132 50.6817 39.1564 50.8213C38.8883 50.8624 38.6275 50.7474 38.4636 50.5175C38.2997 50.2877 38.255 49.9757 38.3593 49.7047C39.0372 47.841 39.5662 45.8296 39.8344 44.1219C40.3856 40.5669 40.5868 37.9232 40.6538 36.3715H41.9873C42.0543 37.9315 42.2555 40.5751 42.8068 44.1219C43.0749 45.8296 43.6039 47.841 44.2818 49.6965C44.3786 49.9675 44.3414 50.2794 44.1775 50.5093C44.0136 50.7392 43.7454 50.8542 43.4847 50.8131C42.6429 50.6817 41.6595 50.534 41.3168 50.534Z" fill="#FF8F1F"/>
<path d="M33.2485 38.2682V39.4668H34.1797V38.2682C34.1797 35.7969 35.7069 34.6475 37.7928 34.6475C37.4725 34.6475 37.1596 34.6475 36.8616 34.6475C34.7831 34.6393 33.2485 35.7887 33.2485 38.2682Z" fill="#FF8F1F"/>
<path d="M49.3846 38.2682V39.4668H48.4534V38.2682C48.4534 35.7969 46.9262 34.6475 44.8403 34.6475C45.1607 34.6475 45.4736 34.6475 45.7715 34.6475C47.8574 34.6393 49.3846 35.7887 49.3846 38.2682Z" fill="#FF8F1F"/>
<path d="M30.3433 22.8989H52.2899V39.4587H50.1221V38.26C50.1221 35.7888 48.5949 34.6394 46.509 34.6394C44.4231 34.6394 41.3166 34.6394 41.3166 34.6394C41.3166 34.6394 38.2101 34.6394 36.1242 34.6394C34.0383 34.6394 32.5111 35.7888 32.5111 38.26V39.4587H30.3433V22.8989ZM41.3166 25.9777C39.633 25.9777 38.2697 27.4802 38.2697 29.3356C38.2697 31.1911 39.633 32.6936 41.3166 32.6936C43.0002 32.6936 44.3635 31.1911 44.3635 29.3356C44.3635 27.4802 43.0002 25.9777 41.3166 25.9777Z" fill="#FF8F1F"/>
<path d="M41.3171 26.979C40.1401 26.979 39.1865 28.0299 39.1865 29.3271C39.1865 30.6243 40.1401 31.6752 41.3171 31.6752C42.4942 31.6752 43.4477 30.6243 43.4477 29.3271C43.4552 28.0299 42.4942 26.979 41.3171 26.979Z" fill="#FF8F1F"/>
<path d="M52.2899 21.2734H30.3433V21.9959H52.2899V21.2734Z" fill="#FF8F1F"/>
<path d="M52.2899 16.6758H41.3166H30.3433V18.6873H52.2899V16.6758Z" fill="#FF8F1F"/>
<path d="M52.2899 19.5161H30.3433V20.2386H52.2899V19.5161Z" fill="#FF8F1F"/>
<path d="M55.0687 33.5966C55.0687 33.5966 56.5139 28.6623 61.8181 26.5769C67.1222 24.4916 69.9978 27.4965 69.9978 27.4965C69.9978 27.4965 72.2476 26.7247 74.2441 27.4801C76.3151 28.2682 77.0675 29.6557 77.0675 29.6557C77.0675 29.6557 74.7953 28.4981 72.1358 28.8101C69.7147 29.0892 68.3291 30.3043 68.3291 30.3043C68.3291 30.3043 66.4592 28.6623 63.524 29.9841C60.5889 31.306 60.574 33.7362 62.5779 34.1302C65.446 34.6885 66.9881 31.4127 71.0109 30.9447C74.5272 30.5342 75.6073 32.3158 75.6073 32.3158C75.6073 32.3158 75.5701 33.7279 77.2761 34.5654C78.9746 35.4028 81.4777 34.9595 81.4777 34.9595C81.4777 34.9595 79.9728 36.4044 76.8068 36.0596C74.0504 35.7558 72.7541 33.7033 70.4001 34.6311C68.4483 35.4028 68.1726 37.3896 70.6459 37.7509C72.7169 38.0547 75.1082 36.7903 75.1082 36.7903C75.1082 36.7903 74.1323 38.8839 70.9737 39.3601C68.8505 39.6803 67.368 38.7525 67.368 38.7525C67.368 38.7525 66.936 36.0842 64.1275 36.2484C61.3264 36.4126 60.7006 38.457 61.304 39.9266C61.751 41.0103 62.6152 41.2402 62.6152 41.2402C62.6152 41.2402 63.1515 39.8363 64.4031 39.4175C65.6621 38.9988 66.6827 39.4914 66.6827 39.4914C66.6827 39.4914 65.7366 39.6967 65.2672 40.4684C64.7979 41.2402 65.1555 42.1515 66.2878 42.3978C67.4202 42.6441 68.8356 42.1843 69.7147 41.6589C70.5937 41.1335 71.4058 40.3863 71.4058 40.3863C71.4058 40.3863 70.9066 41.8724 69.9829 42.4717C69.0591 43.071 68.046 43.3666 67.9938 43.7032C67.9342 44.0316 68.3067 44.2615 68.3067 44.2615C68.3067 44.2615 65.4535 45.6901 63.1217 44.7131C60.1195 43.4569 60.0823 41.0842 58.2124 41.6589C56.3128 42.25 57.244 44.8198 59.3597 45.805C61.4754 46.7902 65.081 46.6589 67.1893 45.805C69.305 44.9512 70.8545 43.5144 73.2756 43.7935C75.7042 44.0727 76.5758 45.8953 76.5758 45.8953C76.5758 45.8953 75.0263 44.9758 73.1788 45.5751C71.3312 46.1745 70.5043 48.2106 71.9943 49.8197C73.4842 51.4289 76.8291 51.4782 79.1906 49.9511C81.1722 48.6621 81.582 46.6096 81.582 46.6096C81.582 46.6096 82.2226 48.9741 80.6507 50.7393C78.1775 53.5143 74.475 52.9888 74.3484 53.4568C74.2143 53.9248 74.8549 54.4502 74.8549 54.4502C74.8549 54.4502 71.7633 55.0085 68.9176 53.2926C66.2208 51.667 66.5411 50.1399 65.0065 49.3518C63.4719 48.5636 60.8496 49.3518 60.7155 50.8706C60.5814 52.3895 62.7195 52.5455 63.8518 52.3731C64.9842 52.2007 65.6993 51.6013 65.6993 51.6013C65.6993 51.6013 65.23 53.3829 66.3251 54.1547C67.4128 54.9264 68.9697 55.1809 68.9697 55.1809C68.9697 55.1809 67.6362 55.6325 66.5635 55.4355C65.4982 55.2466 64.9395 54.2696 63.4644 54.2614C62.0416 54.2532 60.0451 55.4765 57.6239 53.933C55.4635 52.5537 55.8658 49.9018 55.8658 49.9018C55.8658 49.9018 54.4429 48.1203 51.9026 48.5964C49.2133 49.0973 48.3864 51.1498 48.3864 51.1498C48.3864 51.1498 47.1646 48.7606 48.1107 46.5685C49.176 44.1055 52.6625 43.3912 54.2716 40.6655C56.6108 36.6754 55.0687 33.5966 55.0687 33.5966Z" fill="#3D72FC"/>
<path d="M27.5718 33.5966C27.5718 33.5966 26.1266 28.6623 20.8224 26.5769C15.5183 24.4916 12.6427 27.4965 12.6427 27.4965C12.6427 27.4965 10.3929 26.7247 8.39642 27.4801C6.32542 28.2682 5.573 29.6557 5.573 29.6557C5.573 29.6557 7.84516 28.4981 10.5047 28.8101C12.9258 29.0892 14.3114 30.3043 14.3114 30.3043C14.3114 30.3043 16.1813 28.6623 19.1165 29.9841C22.0516 31.306 22.0665 33.7362 20.0626 34.1302C17.1944 34.6885 15.6524 31.4127 11.6296 30.9447C8.11333 30.5342 7.03314 32.3158 7.03314 32.3158C7.03314 32.3158 7.07038 33.7279 5.36441 34.5654C3.66589 35.4028 1.16282 34.9595 1.16282 34.9595C1.16282 34.9595 2.66764 36.4044 5.83374 36.0596C8.59011 35.7558 9.88635 33.7033 12.2404 34.6311C14.1922 35.4028 14.4679 37.3896 11.9946 37.7509C9.92361 38.0547 7.53226 36.7903 7.53226 36.7903C7.53226 36.7903 8.50817 38.8839 11.6668 39.3601C13.79 39.6803 15.2724 38.7525 15.2724 38.7525C15.2724 38.7525 15.7045 36.0842 18.513 36.2484C21.3141 36.4126 21.9399 38.457 21.3364 39.9266C20.8895 41.0103 20.0253 41.2402 20.0253 41.2402C20.0253 41.2402 19.4889 39.8363 18.2374 39.4175C16.9784 38.9988 15.9578 39.4914 15.9578 39.4914C15.9578 39.4914 16.9039 39.6967 17.3732 40.4684C17.8426 41.2402 17.485 42.1515 16.3526 42.3978C15.2203 42.6441 13.8049 42.1843 12.9258 41.6589C12.0468 41.1335 11.2347 40.3863 11.2347 40.3863C11.2347 40.3863 11.7339 41.8724 12.6576 42.4717C13.5814 43.071 14.5945 43.3666 14.6467 43.7032C14.7063 44.0316 14.3338 44.2615 14.3338 44.2615C14.3338 44.2615 17.187 45.6901 19.5187 44.7131C22.5209 43.4569 22.5582 41.0842 24.4206 41.6589C26.3203 42.25 25.389 44.8198 23.2733 45.805C21.1577 46.7902 17.552 46.6589 15.4438 45.805C13.3281 44.9512 11.7786 43.5144 9.35743 43.7935C6.92885 44.0727 6.05724 45.8953 6.05724 45.8953C6.05724 45.8953 7.60677 44.9758 9.45428 45.5751C11.3018 46.1745 12.1287 48.2106 10.6388 49.8197C9.14884 51.4289 5.80395 51.4782 3.44241 49.9511C1.46081 48.6621 1.05108 46.6096 1.05108 46.6096C1.05108 46.6096 0.410415 48.9741 1.98229 50.7393C4.45557 53.5143 8.15803 52.9888 8.28468 53.4568C8.41877 53.9248 7.77811 54.4502 7.77811 54.4502C7.77811 54.4502 10.8697 55.0085 13.7155 53.2926C16.4122 51.667 16.0919 50.1399 17.6265 49.3518C19.1612 48.5554 21.7834 49.3518 21.9175 50.8706C22.0516 52.3895 19.9136 52.5455 18.7812 52.3731C17.6489 52.2007 16.9337 51.6013 16.9337 51.6013C16.9337 51.6013 17.403 53.3829 16.3079 54.1547C15.2203 54.9264 13.6633 55.1809 13.6633 55.1809C13.6633 55.1809 14.9968 55.6325 16.0696 55.4355C17.1349 55.2466 17.6936 54.2696 19.1686 54.2614C20.5915 54.2532 22.588 55.4765 25.0091 53.933C27.1695 52.5537 26.7672 49.9018 26.7672 49.9018C26.7672 49.9018 28.1901 48.1203 30.7304 48.5964C33.4198 49.0973 34.2467 51.1498 34.2467 51.1498C34.2467 51.1498 35.4684 48.7606 34.5223 46.5685C33.457 44.1055 29.9706 43.3912 28.3615 40.6655C26.0223 36.6754 27.5718 33.5966 27.5718 33.5966Z" fill="#3D72FC"/>
<path d="M4.46338 13.7446L4.31438 15.6329C3.73331 15.5672 3.2342 15.6657 2.74998 16.0434C1.91562 16.7084 1.856 17.9317 3.0107 19.7051C4.15049 21.4539 5.22326 21.7823 6.10231 21.0844C6.62379 20.6657 6.82493 20.0581 7.01117 19.3849L8.59793 19.8939C8.45638 20.8299 7.98707 21.9465 7.01117 22.7182C5.02957 24.2864 2.80212 23.8923 1.06635 21.2322C-0.617269 18.6542 -0.222431 16.1091 1.65488 14.6231C2.61588 13.8759 3.50983 13.6707 4.46338 13.7446Z" fill="#191825"/>
<path d="M9.79764 16.2811L11.3919 19.3189L9.40281 20.5832L5.08203 12.3403L7.67449 10.6901C9.76039 9.36003 11.2429 9.4996 12.1592 11.2483C12.7179 12.3157 12.6062 13.227 11.958 14.3682L15.6233 16.626L13.4033 18.0381L10.3489 15.9363L9.79764 16.2811ZM9.67845 14.36C10.3564 13.9248 10.5277 13.3501 10.1105 12.5538C9.73806 11.8395 9.17933 11.7656 8.42691 12.25L7.86819 12.603L9.01544 14.7869L9.67845 14.36Z" fill="#191825"/>
<path d="M16.6951 14.0071L17.0676 15.9528L14.8923 17.0284L13.6929 7.18446L16.2108 5.93652L22.0886 13.4734L19.8686 14.5736L18.7959 12.9726L16.6951 14.0071ZM15.5925 8.22714L16.3524 12.1926L17.7827 11.4866L15.5925 8.22714Z" fill="#191825"/>
<path d="M23.6386 10.8624L27.1474 9.58984L27.49 11.5685L21.6197 13.6949L21.0908 11.9133L22.983 5.22206L19.8169 6.37148L19.2656 4.52421L24.9199 2.47168L25.4637 4.2779L23.6386 10.8624Z" fill="#191825"/>
<path d="M32.2874 10.4273L30.0377 10.9363L29.3895 7.47166L25.5977 2.21719L28.0561 1.65891L30.1941 5.30419L30.872 1.02673L33.2559 0.484863L31.6393 6.94621L32.2874 10.4273Z" fill="#191825"/>
<path d="M40.4005 0.000769541C42.6801 -0.0320709 44.0806 0.985981 44.1104 3.09598C44.1402 5.3127 42.7322 6.42107 40.7059 6.45391L39.8194 6.47033L39.8567 9.54091L37.5547 9.57375L37.4355 0.0500297L40.4005 0.000769541ZM40.4676 4.64769C41.3019 4.63127 41.7712 4.20434 41.7563 3.14524C41.7414 2.24213 41.3019 1.76594 40.3856 1.78236L39.7598 1.79057L39.7971 4.6559L40.4676 4.64769Z" fill="#191825"/>
<path d="M44.6172 9.63159L45.4068 0.148926L47.6939 0.378809L46.9042 9.86148L44.6172 9.63159Z" fill="#191825"/>
<path d="M55.2397 2.80849L53.9882 3.90864C53.504 3.27646 52.9601 2.8988 52.2897 2.75922C51.6341 2.61965 51.2169 2.82491 51.1275 3.34214C51.0307 3.88401 51.3212 4.13852 52.5131 4.86101C54.085 5.78875 54.7927 6.75755 54.5022 8.45704C54.1968 10.2222 52.6919 11.1828 50.5166 10.7312C48.9671 10.4028 48.0136 9.5654 47.4399 8.67871L48.8032 7.5375C49.3023 8.24357 49.9281 8.73618 50.7401 8.90859C51.5223 9.07279 52.0215 8.76081 52.1258 8.15326C52.2301 7.5375 51.9842 7.20089 50.8817 6.56871C49.0193 5.46856 48.5425 4.43409 48.7809 3.063C49.0789 1.3553 50.6135 0.558917 52.4386 0.944792C53.7498 1.20752 54.6214 1.85611 55.2397 2.80849Z" fill="#191825"/>
<path d="M60.06 5.34538L58.0188 12.5949L55.8212 11.8478L57.8624 4.59826L55.7988 3.89219L56.3203 2.04492L62.7568 4.24523L62.0118 6.0104L60.06 5.34538Z" fill="#191825"/>
<path d="M68.6047 12.1766C67.4872 15.0173 65.4609 16.1421 63.159 15.0419C60.8571 13.9418 60.194 11.6183 61.3338 8.71195C62.4513 5.87126 64.4552 4.75468 66.7646 5.84663C69.074 6.94678 69.7445 9.27024 68.6047 12.1766ZM63.524 9.75463C62.6971 11.8646 62.8536 12.9155 63.8146 13.3671C64.8054 13.8433 65.5727 13.2357 66.3996 11.1175C67.2265 9.00752 67.085 7.98125 66.1091 7.51328C65.1406 7.06172 64.3584 7.63643 63.524 9.75463Z" fill="#191825"/>
<path d="M70.7508 18.9988L72.0843 11.5851C71.7714 12.4307 71.3617 13.6376 70.5646 15.1729L69.1119 17.9643L67.3389 16.8477L71.6373 8.58838L74.0957 10.1401L72.8144 17.6195C73.1198 16.7246 73.4997 15.608 74.2298 14.2041L75.7868 11.2074L77.5598 12.324L73.2613 20.5833L70.7508 18.9988Z" fill="#191825"/>
<path d="M83.4368 18.1286L81.8799 18.5474C81.6787 17.751 81.336 17.1516 80.7773 16.7165C80.2335 16.2814 79.7791 16.2814 79.5034 16.7001C79.2129 17.1434 79.3768 17.5047 80.1739 18.7198C81.2466 20.2961 81.5148 21.503 80.5985 22.8987C79.645 24.3601 77.9092 24.5325 76.1138 23.1122C74.8325 22.0941 74.2887 20.8872 74.1099 19.8199L75.7786 19.4176C75.9648 20.2879 76.3373 21.0268 77.0152 21.5605C77.6634 22.0695 78.2295 22.0202 78.5573 21.5194C78.8925 21.0104 78.7957 20.5917 78.0358 19.4997C76.7694 17.636 76.7321 16.4784 77.4697 15.3454C78.3934 13.9333 80.0919 13.9333 81.5968 15.1237C82.6919 15.9858 83.2357 16.9792 83.4368 18.1286Z" fill="#191825"/>
<path d="M22.5588 79.9178L23.8029 73.4318L21.4413 79.9178H19.7354V74.064L18.0964 79.9178H17.0982L19.8844 70.5008C18.6403 70.9359 17.8804 72.0197 17.8804 73.596C17.8804 74.2939 18.0443 74.4006 18.0517 74.5237C17.195 74.5237 16.7183 74.1789 16.7183 73.1937C16.7183 71.5188 18.8191 69.688 20.7634 69.688C21.0465 69.688 21.3445 69.729 21.6201 69.8276V77.7257L24.3467 69.8276H26.2985L24.3467 79.9178H22.5588Z" fill="#191825"/>
<path d="M30.7161 74.9425C30.7906 75.0246 30.9024 75.0657 31.0737 75.0657C31.6548 75.0657 31.9155 74.5977 32.3774 74.3925L32.4295 74.6798C32.0422 75.2135 31.4015 75.665 30.6789 75.8867C30.4405 78.6453 29.0847 80 27.8406 80C26.5071 80 25.9409 79.3842 25.9409 77.7504C25.9409 74.376 27.4979 72.9229 29.2113 72.9229C30.3958 72.9311 30.6938 73.9409 30.7161 74.9425ZM29.7551 76.0263C29.3975 76.0263 29.2336 75.7389 29.2336 75.4105C29.2336 75.0164 29.4422 74.5895 29.7775 74.4499C29.7402 73.9984 29.6061 73.7356 29.256 73.7356C28.0864 73.7356 27.5873 76.5353 27.5873 77.6272C27.5873 78.4483 27.9374 78.6699 28.4216 78.6699C29.189 78.6699 29.6061 77.3563 29.7551 76.0263Z" fill="#191825"/>
<path d="M34.5822 70.9033C34.5822 70.9033 34.396 71.8311 34.1576 73.0708H34.9026L34.8057 73.6209H34.0608C33.2041 77.9476 33.2115 78.0872 33.2115 78.1611C33.2115 78.473 33.3381 78.6783 33.8373 78.6783C34.3364 78.6783 34.9845 77.9065 35.4762 77.4714H35.9008C35.3272 78.1036 33.9267 79.9262 32.9507 79.9262C31.9897 79.9262 31.4087 79.4582 31.4087 78.432C31.4087 77.7095 32.0568 74.8031 32.2654 73.6209H31.8557L31.9525 73.0708H32.3622L32.7347 71.1825L34.5822 70.9033Z" fill="#191825"/>
<path d="M39.5804 74.9425C39.6549 75.0246 39.7666 75.0657 39.938 75.0657C40.519 75.0657 40.7798 74.5977 41.2417 74.3925L41.2938 74.6798C40.9064 75.2135 40.2658 75.665 39.5431 75.8867C39.3047 78.6453 37.9489 80 36.7048 80C35.3713 80 34.8052 79.3842 34.8052 77.7504C34.8052 74.376 36.3621 72.9229 38.0756 72.9229C39.2526 72.9311 39.558 73.9409 39.5804 74.9425ZM38.6194 76.0263C38.2618 76.0263 38.0979 75.7389 38.0979 75.4105C38.0979 75.0164 38.3065 74.5895 38.6417 74.4499C38.6045 73.9984 38.4704 73.7356 38.1203 73.7356C36.9507 73.7356 36.4515 76.5353 36.4515 77.6272C36.4515 78.4483 36.8017 78.6699 37.2859 78.6699C38.0532 78.6699 38.4704 77.3563 38.6194 76.0263Z" fill="#191825"/>
<path d="M42.7994 73.0624L42.6653 73.7438C43.1122 73.358 43.6114 73.0624 44.1329 73.0624C44.6916 73.0624 45.0268 73.4154 45.0268 73.9409C45.0268 74.4171 44.7065 75.0082 44.0956 75.0082C43.4028 75.0082 43.7455 74.1051 43.373 74.1051C43.0005 74.1051 42.7994 74.2529 42.5163 74.5402L41.4808 79.9096H39.6929L41.0114 73.0542H42.7994V73.0624Z" fill="#191825"/>
<path d="M51.4785 77.5861C50.8229 79.5893 49.1691 79.9998 47.9995 79.9998C46.7331 79.9998 45.2729 79.3184 45.2729 76.5023C45.2729 73.5138 46.1595 69.6387 49.4671 69.6387C50.6218 69.6387 51.6275 70.1477 51.6275 71.4777C51.6275 72.2002 51.3891 72.7421 50.7559 72.7421C50.5548 72.7421 50.2866 72.6846 50.0482 72.3891C50.3611 72.2905 50.592 71.6091 50.592 71.2643C50.592 71.0426 50.5324 70.2873 49.7353 70.2873C48.2081 70.2873 47.2248 73.7684 47.2248 76.2068C47.2248 78.0048 47.5227 78.7683 48.8637 78.7683C49.8247 78.7683 50.7261 78.3332 51.188 77.4547L51.4785 77.5861Z" fill="#191825"/>
<path d="M54.3759 70.3203L52.9456 77.7176C52.9083 77.9229 52.8859 78.046 52.8859 78.1528C52.8859 78.4565 53.02 78.6618 53.5043 78.6618C54.0034 78.6618 54.6515 77.89 55.1432 77.4549H55.5678C54.9942 78.0871 53.5937 79.9097 52.6178 79.9097C51.6568 79.9097 51.0757 79.4417 51.0757 78.4155C51.0757 78.2102 51.098 77.9803 51.1502 77.7176L52.5283 70.5912L54.3759 70.3203Z" fill="#191825"/>
<path d="M60.4696 73.0625L59.5757 77.7258C59.5534 77.8736 59.5235 78.0296 59.5235 78.1528C59.5235 78.4565 59.6502 78.67 60.1419 78.67C60.641 78.67 61.2891 77.8983 61.7808 77.4631H62.2054C61.6318 78.0953 60.2313 79.9179 59.2553 79.9179C58.4135 79.9179 57.8399 79.5649 57.7282 78.7685C57.1471 79.3679 56.4692 79.9179 55.9403 79.9179C54.9793 79.9179 54.3833 79.45 54.3833 78.4237C54.3833 78.2184 54.4057 77.9886 54.4578 77.7258L55.3517 73.0625H57.1397L56.2457 77.7258C56.2234 77.8736 56.1936 78.0296 56.1936 78.1528C56.1936 78.4565 56.3202 78.67 56.8119 78.67C57.0726 78.67 57.3855 78.4483 57.6984 78.1774C57.7133 78.0378 57.7356 77.89 57.7729 77.7258L58.6668 73.0625H60.4696Z" fill="#191825"/>
<path d="M64.0978 70.3203L63.5018 73.4319C63.7849 73.2021 64.1574 73.0379 64.5746 73.0379C65.7665 73.0379 66.1539 73.9738 66.1539 74.7784C66.1539 76.9294 65.0811 79.959 62.8612 79.959C61.632 79.959 60.8125 79.5731 60.8125 78.399C60.8125 78.2102 60.8348 77.9721 60.887 77.7258L62.2652 70.5995L64.0978 70.3203ZM64.0456 73.8589C63.919 73.8589 63.4869 73.9574 63.3752 74.0477L62.6675 77.7176C62.6079 78.046 62.5706 78.2923 62.5706 78.4729C62.5706 78.8834 62.742 78.982 63.1144 78.982C64.135 78.982 64.7533 75.8539 64.7533 74.8687C64.7533 74.0477 64.3585 73.8589 64.0456 73.8589Z" fill="#191825"/>
<path d="M81.7163 79.2529H67.6514V79.918H81.7163V79.2529Z" fill="#FF8F1F"/>
<path d="M81.7163 77.9561H67.6514V78.6211H81.7163V77.9561Z" fill="#FF8F1F"/>
<path d="M81.7163 76.6504H67.6514V77.3154H81.7163V76.6504Z" fill="#FF8F1F"/>
<path d="M81.7163 75.353H67.6514V76.018H81.7163V75.353Z" fill="#FF8F1F"/>
<path d="M81.7163 74.0562H67.6514V74.7212H81.7163V74.0562Z" fill="#FF8F1F"/>
<path d="M81.7163 72.7505H67.6514V73.4155H81.7163V72.7505Z" fill="#FF8F1F"/>
<path d="M81.7163 71.4531H67.6514V72.1181H81.7163V71.4531Z" fill="#FF8F1F"/>
<path d="M81.7163 70.1479H67.6514V70.813H81.7163V70.1479Z" fill="#FF8F1F"/>
<path d="M0.921893 79.918H14.9868V79.2529H0.921893V79.918Z" fill="#FF8F1F"/>
<path d="M0.921893 78.6143H14.9868V77.9492H0.921893V78.6143Z" fill="#FF8F1F"/>
<path d="M0.921893 77.3188H14.9868V76.6538H0.921893V77.3188Z" fill="#FF8F1F"/>
<path d="M0.921893 76.0151H14.9868V75.3501H0.921893V76.0151Z" fill="#FF8F1F"/>
<path d="M0.921893 74.7119H14.9868V74.0469H0.921893V74.7119Z" fill="#FF8F1F"/>
<path d="M0.921893 73.4165H14.9868V72.7515H0.921893V73.4165Z" fill="#FF8F1F"/>
<path d="M0.921893 72.1128H14.9868V71.4478H0.921893V72.1128Z" fill="#FF8F1F"/>
<path d="M0.921893 70.8179H14.9868V70.1529H0.921893V70.8179Z" fill="#FF8F1F"/>
</svg>
