<svg width="104" height="80" viewBox="0 0 104 80" fill="none" xmlns="http://www.w3.org/2000/svg">
<path d="M38.3798 60.1512L32.4165 54.2236L31.4298 55.2044L37.3931 61.132L38.3798 60.1512Z" fill="#FF8F1F"/>
<path d="M50.3675 52.2499L40.3604 42.3027L38.786 43.8677L48.7931 53.8149L50.3675 52.2499Z" fill="#FF8F1F"/>
<path d="M35.8681 59.6202L32.9512 56.7207L32.5252 57.1441L35.4422 60.0436L35.8681 59.6202Z" fill="#FF8F1F"/>
<path d="M34.6945 59.306L33.2549 57.875L32.6402 58.486L34.0798 59.917L34.6945 59.306Z" fill="#FF8F1F"/>
<path d="M39.2849 59.8103L32.3384 53.7997L32.407 53.4511L32.7349 53.3525L39.6814 59.3555L39.6281 59.689L39.2849 59.8103Z" fill="#FF8F1F"/>
<path d="M40.1619 58.9382L33.2153 52.9277L33.2763 52.5866L33.6118 52.4805L40.5508 58.491L40.4974 58.8245L40.1619 58.9382Z" fill="#FF8F1F"/>
<path d="M41.031 58.074L34.0845 52.0634L34.1531 51.7147L34.481 51.6162L41.4275 57.6268L41.3742 57.9527L41.031 58.074Z" fill="#FF8F1F"/>
<path d="M41.908 57.2019L34.9614 51.1913L35.0224 50.8503L35.3579 50.7441L42.2969 56.7547L42.2435 57.0882L41.908 57.2019Z" fill="#FF8F1F"/>
<path d="M42.7771 56.3386L35.8306 50.3281L35.8992 49.9794L36.2271 49.8809L43.1736 55.8914L43.1203 56.2173L42.7771 56.3386Z" fill="#FF8F1F"/>
<path d="M43.6541 55.4665L36.7075 49.4636L36.7685 49.1149L37.104 49.0088L44.043 55.0194L43.9896 55.3528L43.6541 55.4665Z" fill="#FF8F1F"/>
<path d="M44.5237 54.6023L37.5771 48.5917L37.6458 48.2431L37.9737 48.1445L44.9202 54.1551L44.8668 54.481L44.5237 54.6023Z" fill="#FF8F1F"/>
<path d="M45.4002 53.7388L38.4536 47.7282L38.5146 47.3796L38.8501 47.2734L45.7891 53.284L45.7357 53.6175L45.4002 53.7388Z" fill="#FF8F1F"/>
<path d="M46.2698 52.8669L39.3232 46.8564L39.3842 46.5077L39.7198 46.4092L46.6663 52.4197L46.6129 52.7457L46.2698 52.8669Z" fill="#FF8F1F"/>
<path d="M31.6137 58.5066C31.1714 58.067 31.1714 57.3621 31.6137 56.9301L32.3838 56.1645L31.728 55.5127L30.752 56.4829C30.0657 57.165 30.0657 58.2792 30.752 58.9614L33.1921 61.3868L33.8478 60.735L31.6137 58.5066Z" fill="#FF8F1F"/>
<path d="M63.3496 35.6242C61.3137 33.5019 59.2244 31.4251 57.0893 29.4014C56.4336 29.4241 56.0981 29.7652 56.0752 30.4094C58.1111 32.5317 60.2004 34.6085 62.3355 36.6322C62.9836 36.6095 63.3268 36.2684 63.3496 35.6242Z" fill="#FF8F1F"/>
<path d="M65.1035 33.881C63.0676 31.7587 60.9783 29.6819 58.8432 27.6582C58.1875 27.6809 57.852 28.022 57.8291 28.6663C59.865 30.7885 61.9543 32.8653 64.0894 34.8891C64.7375 34.8663 65.073 34.5328 65.1035 33.881Z" fill="#FF8F1F"/>
<path d="M66.8496 32.1447C64.8137 30.0224 62.7244 27.9456 60.5893 25.9219C59.9336 25.9446 59.5981 26.2857 59.5752 26.9299C61.6111 29.0522 63.7004 31.129 65.8355 33.1527C66.4912 33.13 66.8267 32.7889 66.8496 32.1447Z" fill="#FF8F1F"/>
<path d="M68.6035 30.4015C66.5676 28.2792 64.4783 26.2024 62.3433 24.1787C61.6875 24.2014 61.352 24.5425 61.3291 25.1868C63.365 27.3091 65.4543 29.3858 67.5894 31.4096C68.2375 31.3868 68.5807 31.0458 68.6035 30.4015Z" fill="#FF8F1F"/>
<path d="M69.3431 29.6666C69.3431 29.6666 70.1056 28.3856 69.0991 27.3776C68.0926 26.3771 67.2385 25.5281 67.2385 25.5281C67.2385 25.5281 66.3845 24.6792 65.378 23.6787C64.3715 22.6782 63.0752 23.4362 63.0752 23.4362L66.2244 26.5286L69.3431 29.6666Z" fill="#FF8F1F"/>
<path d="M71.0358 25.0909L67.6875 21.7627L65.9621 23.4777L69.3104 26.806L71.0358 25.0909Z" fill="#FF8F1F"/>
<path d="M72.537 23.1437L69.6416 20.2656L68.2451 21.6537L71.1405 24.5318L72.537 23.1437Z" fill="#FF8F1F"/>
<path d="M73.9489 22.1857L70.6006 18.8574L69.7217 19.731L73.07 23.0592L73.9489 22.1857Z" fill="#FF8F1F"/>
<path d="M73.949 22.193L70.6016 18.8656L71.1277 18.6231C71.3183 18.5321 71.5471 18.57 71.692 18.7216L74.1015 21.1167C74.2464 21.2607 74.2922 21.4881 74.2006 21.6776L73.949 22.193Z" fill="#FF8F1F"/>
<path d="M66.6168 61.1336L72.5801 55.2061L71.5934 54.2253L65.6301 60.1529L66.6168 61.1336Z" fill="#FF8F1F"/>
<path d="M55.2028 53.8144L65.21 43.8672L63.0317 41.702L53.0245 51.6491L55.2028 53.8144Z" fill="#FF8F1F"/>
<path d="M53.1586 50.5967L61.9741 41.834L60.6208 40.4888L51.8052 49.2515L53.1586 50.5967Z" fill="#FF8F1F"/>
<path d="M46.5365 44.0143L55.3512 35.2524C54.9013 34.8052 54.1617 34.8052 53.7118 35.2524L46.5365 42.3847C46.079 42.8319 46.079 43.5671 46.5365 44.0143Z" fill="#FF8F1F"/>
<path d="M68.5621 60.0469L71.479 57.1475L71.0531 56.7241L68.1361 59.6235L68.5621 60.0469Z" fill="#FF8F1F"/>
<path d="M69.9124 59.9339L71.3521 58.5029L70.7374 57.8919L69.2978 59.3229L69.9124 59.9339Z" fill="#FF8F1F"/>
<path d="M64.7072 59.8103L71.6538 53.7997L71.5928 53.4511L71.2573 53.3525L64.3184 59.3555L64.3717 59.689L64.7072 59.8103Z" fill="#FF8F1F"/>
<path d="M63.8379 58.9382L70.7845 52.9277L70.7158 52.5866L70.388 52.4805L63.4414 58.491L63.4948 58.8245L63.8379 58.9382Z" fill="#FF8F1F"/>
<path d="M62.9607 58.074L69.9072 52.0634L69.8462 51.7147L69.5107 51.6162L62.5718 57.6268L62.6252 57.9527L62.9607 58.074Z" fill="#FF8F1F"/>
<path d="M62.0918 57.2019L69.0384 51.1913L68.9774 50.8503L68.6419 50.7441L61.6953 56.7547L61.7487 57.0882L62.0918 57.2019Z" fill="#FF8F1F"/>
<path d="M61.2146 56.3386L68.1611 50.3281L68.1001 49.9794L67.7646 49.8809L60.8257 55.8914L60.8791 56.2173L61.2146 56.3386Z" fill="#FF8F1F"/>
<path d="M60.3452 55.4665L67.2918 49.4636L67.2308 49.1149L66.8953 49.0088L59.9487 55.0194L60.0021 55.3528L60.3452 55.4665Z" fill="#FF8F1F"/>
<path d="M59.4685 54.6023L66.415 48.5917L66.354 48.2431L66.0261 48.1445L59.0796 54.1551L59.133 54.481L59.4685 54.6023Z" fill="#FF8F1F"/>
<path d="M58.5991 53.7388L65.5457 47.7282L65.4847 47.3796L65.1492 47.2734L58.2026 53.284L58.2636 53.6175L58.5991 53.7388Z" fill="#FF8F1F"/>
<path d="M57.73 52.8669L64.6689 46.8564L64.6079 46.5077L64.28 46.4092L57.3335 52.4197L57.3869 52.7457L57.73 52.8669Z" fill="#FF8F1F"/>
<path d="M72.3855 58.5066C72.8278 58.067 72.8278 57.3621 72.3855 56.9301L71.6154 56.1645L72.2712 55.5127L73.2472 56.4829C73.9335 57.165 73.9335 58.2792 73.2472 58.9614L70.8071 61.3868L70.1514 60.735L72.3855 58.5066Z" fill="#FF8F1F"/>
<path d="M46.7006 41.6423L52.9604 35.4199L48.6686 31.1538L42.4087 37.3761L46.7006 41.6423Z" fill="#FF8F1F"/>
<path d="M40.6421 35.6242C42.678 33.5019 44.7673 31.4251 46.9024 29.4014C47.5581 29.4241 47.8936 29.7652 47.9165 30.4094C45.8806 32.5317 43.7913 34.6085 41.6562 36.6322C41.0081 36.6095 40.6726 36.2684 40.6421 35.6242Z" fill="#FF8F1F"/>
<path d="M38.896 33.881C40.9319 31.7587 43.0212 29.6819 45.1563 27.6582C45.812 27.6809 46.1476 28.022 46.1704 28.6663C44.1345 30.7885 42.0452 32.8653 39.9101 34.8891C39.262 34.8663 38.9189 34.5328 38.896 33.881Z" fill="#FF8F1F"/>
<path d="M37.1421 32.1447C39.178 30.0224 41.2673 27.9456 43.4024 25.9219C44.0581 25.9446 44.3936 26.2857 44.4165 26.9299C42.3806 29.0522 40.2913 31.129 38.1562 33.1527C37.5081 33.13 37.1726 32.7889 37.1421 32.1447Z" fill="#FF8F1F"/>
<path d="M35.396 30.4015C37.4319 28.2792 39.5212 26.2024 41.6563 24.1787C42.312 24.2014 42.6476 24.5425 42.6704 25.1868C40.6345 27.3091 38.5452 29.3858 36.4101 31.4096C35.7544 31.3868 35.4189 31.0458 35.396 30.4015Z" fill="#FF8F1F"/>
<path d="M34.6561 29.6666C34.6561 29.6666 33.8936 28.3856 34.9001 27.3776C35.9066 26.3771 36.7607 25.5281 36.7607 25.5281C36.7607 25.5281 37.6147 24.6792 38.6212 23.6787C39.6277 22.6782 40.924 23.4362 40.924 23.4362L37.7748 26.5286L34.6561 29.6666Z" fill="#FF8F1F"/>
<path d="M46.4448 47.2439C47.1387 47.9336 47.8402 48.6309 48.5341 49.3207C49.9524 48.737 50.9818 47.7138 51.569 46.304C53.9938 44.7199 56.0678 42.6583 57.6539 40.2556C59.0721 39.6719 60.1015 38.6487 60.6887 37.2389C59.9948 36.5492 59.2933 35.8518 58.5994 35.1621C57.1811 35.7457 56.1517 36.769 55.5646 38.1788C53.1397 39.7629 51.0657 41.8245 49.4796 44.2272C48.0614 44.8108 47.032 45.8417 46.4448 47.2439ZM56.4872 38.0196C56.7083 37.5951 56.9905 37.2237 57.3107 36.8978C57.6386 36.5719 58.0122 36.299 58.4392 36.0792L59.7737 37.4057C59.5525 37.8301 59.2704 38.2015 58.9501 38.5274C58.6223 38.8533 58.2486 39.1262 57.8216 39.346L56.4872 38.0196ZM50.4633 44.1363C51.1419 43.1737 51.9121 42.2641 52.7509 41.4304C53.5896 40.5966 54.5046 39.8311 55.473 39.1565L56.6702 40.3465C55.9916 41.3091 55.2214 42.2186 54.3826 43.0524C53.5439 43.8861 52.6289 44.6517 51.6605 45.3263L50.4633 44.1363ZM47.3675 47.0847C47.5886 46.6603 47.8707 46.2889 48.191 45.9629C48.5189 45.637 48.8925 45.3641 49.3195 45.1443L50.6539 46.4708C50.4328 46.8952 50.1507 47.2666 49.8304 47.5925C49.5025 47.9185 49.1289 48.1913 48.7019 48.4111L47.3675 47.0847Z" fill="#FF8F1F"/>
<path d="M52.0111 46.7428C54.4359 45.1587 56.51 43.0971 58.096 40.6944C59.5143 40.1108 60.5437 39.0875 61.1308 37.6777L60.5894 40.4973L51.8205 49.2138L48.9839 49.7519C50.3945 49.1759 51.4239 48.1526 52.0111 46.7428Z" fill="#FF8F1F"/>
<path d="M55.13 37.7464C52.7052 39.3305 50.6311 41.3921 49.0451 43.7948C47.6268 44.3785 46.5974 45.4017 46.0103 46.8115L46.5516 43.9919L55.3206 35.2755L58.1572 34.7373C56.7465 35.3133 55.7171 36.3366 55.13 37.7464Z" fill="#FF8F1F"/>
<path d="M34.6864 26.8038L38.0347 23.4756L36.3093 21.7606L32.961 25.0888L34.6864 26.8038Z" fill="#FF8F1F"/>
<path d="M32.8517 24.5353L35.7471 21.6572L34.3506 20.2691L31.4552 23.1472L32.8517 24.5353Z" fill="#FF8F1F"/>
<path d="M30.932 23.0685L34.2803 19.7402L33.4014 18.8666L30.0531 22.1949L30.932 23.0685Z" fill="#FF8F1F"/>
<path d="M30.043 22.193L33.3905 18.8656L32.8644 18.6231C32.6737 18.5321 32.445 18.57 32.3001 18.7216L29.8905 21.1167C29.7457 21.2607 29.6999 21.4881 29.7914 21.6776L30.043 22.193Z" fill="#FF8F1F"/>
<path d="M47.0626 65.0163C47.0702 65.1679 47.0702 65.3043 47.0702 65.4408C47.0702 66.3882 46.8796 66.8809 45.9188 66.8809C44.8665 66.8809 44.5081 66.5322 43.5245 66.5322C43.3033 66.5322 42.9526 66.7369 42.7619 66.7975C42.7391 66.6914 42.7314 66.5853 42.7314 66.4867C42.7314 64.3872 45.9188 63.4322 45.9188 60.8779C45.9188 60.408 45.6061 60.0896 45.3316 60.0896C44.6835 60.0896 44.5462 60.3852 44.5462 60.8703C44.5462 61.0901 44.6454 61.4464 44.9123 61.5222C44.6606 61.742 44.4014 61.8481 44.1726 61.8481C43.7837 61.8481 43.4863 61.5373 43.4863 60.984C43.4863 60.3322 44.0201 59.5742 45.4765 59.5742C46.7957 59.5742 47.3142 60.1882 47.3142 61.1204C47.3142 63.2579 44.6759 64.2053 43.8752 65.5014C44.287 65.5014 44.8436 65.6378 45.6138 65.6757C46.3153 65.6757 46.5212 65.5241 47.0626 65.0163Z" fill="#191825"/>
<path d="M52.9643 62.0755C52.9643 63.9855 51.8739 66.8581 49.8914 66.8581C48.2291 66.8581 47.8936 65.9259 47.8936 64.3342C47.8936 61.7116 49.167 59.5742 51.241 59.5742C52.4534 59.5742 52.9643 60.4686 52.9643 62.0755ZM49.3728 64.607C49.3728 65.3195 49.4796 66.0547 49.9447 66.0547C51.0428 66.0547 51.7062 63.6899 51.7062 61.4691C51.7062 60.6808 51.6375 60.0745 51.1876 60.0745C50.6081 60.0745 49.594 61.4918 49.4338 63.652C49.3957 63.9097 49.3728 64.2508 49.3728 64.607Z" fill="#191825"/>
<path d="M54.4664 66.7745H53.0786L54.352 60.7867H53.437L53.5514 60.3471C54.0851 60.3471 54.8324 60.2864 56.0067 59.5967L54.4664 66.7745Z" fill="#191825"/>
<path d="M60.7804 59.9004C60.7804 60.5446 60.4525 61.0146 59.7205 61.0146C59.1105 61.0146 58.4929 60.8251 58.0582 60.772L57.6694 62.5077C58.1116 62.2955 58.5234 62.2121 58.8665 62.2121C60.0484 62.2121 60.5745 63.1141 60.5745 64.2207C60.5745 65.5168 59.6671 66.8205 57.8981 66.8205C56.9907 66.8205 56.0757 66.6765 56.0757 65.3804C56.0757 64.4784 56.7543 64.0767 57.2957 64.0767C57.7303 64.0767 57.9439 64.2207 58.0201 64.5694C57.5092 64.6376 57.1508 64.8877 57.1508 65.5471C57.1508 66.1156 57.5855 66.2975 58.0201 66.2975C58.8208 66.2975 59.1715 65.2591 59.1715 64.2813C59.1715 63.6826 58.8436 63.0231 58.1192 63.0231C57.5855 63.0231 57.0365 63.3339 56.6704 63.5613L57.4635 59.7336C58.1421 59.8094 58.6682 59.8928 59.202 59.8928C59.6976 59.8928 60.178 59.817 60.7652 59.582C60.7728 59.6881 60.7804 59.7943 60.7804 59.9004Z" fill="#191825"/>
<path d="M23.44 12.499L23.6612 13.8482C23.2037 13.9164 22.8224 14.0831 22.5174 14.4394C21.9836 15.0685 22.159 15.9401 23.3638 16.9558C24.5609 17.9563 25.4531 17.9866 26.0097 17.3272C26.3452 16.933 26.391 16.4631 26.4215 15.9553L27.7483 16.0083C27.8093 16.6905 27.6415 17.5621 27.0163 18.2974C25.7581 19.7829 23.9509 19.9345 22.1361 18.4111C20.3671 16.9255 20.2298 15.0685 21.427 13.6663C22.0294 12.9538 22.6851 12.6355 23.44 12.499Z" fill="#191825"/>
<path d="M27.8779 13.1279L29.7384 15.3108L28.3277 16.4932L23.8594 11.233L25.27 10.0506L26.9628 12.0364L28.3659 10.8616L26.6731 8.87576L28.0837 7.69336L32.5521 12.9536L31.1414 14.136L29.2809 11.953L27.8779 13.1279Z" fill="#191825"/>
<path d="M33.5283 10.7333L33.9782 12.0976L32.3311 13.0602L30.585 6.09466L32.4913 4.98047L37.7755 9.87684L36.0904 10.8622L35.1067 9.80862L33.5283 10.7333ZM32.1863 6.67827L33.1089 9.45997L34.1917 8.82328L32.1863 6.67827Z" fill="#191825"/>
<path d="M42.4724 8.20916L41.5193 5.82162C41.1761 4.96513 40.8406 4.0859 40.589 3.16119L41.2829 7.86808L39.6435 8.45171L37.1119 4.39666C37.5618 5.382 37.8515 6.1248 38.1413 7.01918L38.9343 9.45979L37.2263 10.0661L35.3657 3.41891L37.5237 2.65337L39.9485 6.64021L39.1859 2.06217L41.3515 1.28906L44.1804 7.59522L42.4724 8.20916Z" fill="#191825"/>
<path d="M45.6598 0.507017C47.4593 0.226575 48.6794 0.802622 48.9157 2.31095C49.1597 3.89507 48.1608 4.84251 46.5596 5.08506L45.858 5.19117L46.2012 7.38165L44.3788 7.66209L43.3188 0.863256L45.6598 0.507017ZM46.1859 3.81928C46.8493 3.72074 47.1696 3.35692 47.0552 2.60655C46.9561 1.96229 46.5596 1.67427 45.8275 1.78038L45.3319 1.85618L45.6522 3.90265L46.1859 3.81928Z" fill="#191825"/>
<path d="M49.9451 6.94285L49.7163 0.0606376L51.5616 0L51.7904 6.88221L49.9451 6.94285Z" fill="#191825"/>
<path d="M58.7903 3.92558C58.5692 6.15396 57.2805 7.41974 55.2751 7.22267C53.2697 7.0256 52.2555 5.5855 52.4766 3.31164C52.6978 1.08326 53.9788 -0.174947 55.9842 0.0221209C57.982 0.219188 59.0114 1.65173 58.7903 3.92558ZM54.3753 3.50113C54.2152 5.15347 54.5659 5.83562 55.3971 5.91899C56.2587 6.00236 56.7086 5.39601 56.8688 3.74367C57.0289 2.09133 56.6934 1.41676 55.847 1.33339C55.0082 1.25759 54.5354 1.84879 54.3753 3.50113Z" fill="#191825"/>
<path d="M61.6498 8.29936L61.4057 2.84209C61.3066 3.49393 61.1999 4.41864 60.8415 5.64652L60.1933 7.88248L58.6226 7.43528L60.5365 0.818359L62.7173 1.43989L63.0147 6.93504C63.0985 6.2453 63.2053 5.38881 63.5256 4.26705L64.2194 1.87191L65.7902 2.3191L63.8763 8.93604L61.6498 8.29936Z" fill="#191825"/>
<path d="M71.4179 5.6919L70.2437 6.2073C69.9844 5.66916 69.6336 5.29018 69.1456 5.05521C68.6576 4.82025 68.2992 4.88088 68.1391 5.22196C67.9637 5.5782 68.1391 5.81317 68.9245 6.56354C69.9692 7.53372 70.3352 8.35989 69.7938 9.48166C69.2295 10.6489 67.8798 11.0203 66.2786 10.2548C65.1348 9.70904 64.5553 8.92835 64.2808 8.19313L65.5465 7.67773C65.7982 8.26894 66.1947 8.74644 66.7971 9.03446C67.369 9.30733 67.8189 9.19364 68.0095 8.79192C68.2077 8.38263 68.0781 8.10218 67.3385 7.42761C66.1032 6.27552 65.9278 5.45693 66.3624 4.54739C66.9114 3.41046 68.2535 3.17549 69.5955 3.81217C70.5563 4.27452 71.1129 4.90363 71.4179 5.6919Z" fill="#191825"/>
<path d="M72.2108 10.1185L70.5486 12.453L69.0464 11.3918L73.0496 5.77539L74.5518 6.83652L73.0344 8.96636L74.5289 10.0199L76.0463 7.89007L77.5485 8.9512L73.5453 14.5676L72.0431 13.5065L73.7054 11.172L72.2108 10.1185Z" fill="#191825"/>
<path d="M73.9492 15.0456L78.6387 9.98242L79.996 11.2255L75.3065 16.2886L73.9492 15.0456Z" fill="#191825"/>
<path d="M82.642 14.0227C83.8239 15.4021 83.9764 16.7361 82.8098 17.7215C81.5821 18.7599 80.2477 18.4112 79.1954 17.1833L78.7379 16.6452L77.0375 18.0853L75.8403 16.6907L81.1017 12.2188L82.642 14.0227ZM80.0799 16.2056C80.5146 16.7134 80.995 16.7968 81.5745 16.3041C82.0777 15.8797 82.1159 15.3946 81.6355 14.8337L81.3152 14.4547L79.7292 15.7963L80.0799 16.2056Z" fill="#191825"/>
<path d="M23.8212 64.8806L21.953 66.6087L20.6948 65.2672L25.7656 60.583L27.3974 62.3339C28.7165 63.7437 28.8843 64.9109 27.8015 65.9038C27.1457 66.5102 26.4823 66.5708 25.5521 66.2525L24.6065 69.4662L23.2111 67.973L24.1567 65.2596L23.8212 64.8806ZM25.1556 64.4865C25.5826 64.9412 26.0248 64.9791 26.5128 64.5319C26.9475 64.1302 26.9017 63.683 26.429 63.1752L26.0782 62.7962L24.7362 64.0393L25.1556 64.4865Z" fill="#191825"/>
<path d="M27.4429 69.8832L26.3296 70.8079L24.8198 69.6407L30.6836 65.4492L32.4298 66.7984L29.8143 73.4911L28.274 72.3011L28.8993 71.005L27.4429 69.8832ZM30.737 67.147L28.4799 69.0268L29.4712 69.7923L30.737 67.147Z" fill="#191825"/>
<path d="M37.8817 70.7468L36.5855 71.2243C36.433 70.7847 36.1966 70.4512 35.7772 70.2238C35.0528 69.8221 34.2293 70.1632 33.4591 71.5351C32.6966 72.8918 32.8415 73.771 33.604 74.1879C34.0539 74.438 34.5267 74.3925 35.0376 74.3243L35.2434 75.628C34.58 75.8175 33.6879 75.8175 32.8415 75.3551C31.1335 74.4077 30.6378 72.6796 31.7968 70.6104C32.9254 68.6018 34.7325 68.1091 36.3491 69.0035C37.1726 69.4583 37.6072 70.0419 37.8817 70.7468Z" fill="#191825"/>
<path d="M35.8081 76.5905L38.4464 70.2236L40.1545 70.921L37.5161 77.2878L35.8081 76.5905Z" fill="#191825"/>
<path d="M41.9541 78.6831L41.6033 73.2334C41.5194 73.8852 41.4279 74.8175 41.0924 76.0454L40.49 78.2965L38.9116 77.8797L40.6959 71.2324L42.892 71.816L43.2961 77.3036C43.3647 76.6139 43.4562 75.7574 43.7612 74.628L44.4094 72.2178L45.9878 72.6346L44.2035 79.2819L41.9541 78.6831Z" fill="#191825"/>
<path d="M51.8893 73.8622L50.8675 74.749C50.471 74.3473 50.1202 74.1427 49.5865 74.0972C48.6257 74.0138 47.9394 74.6732 47.8022 76.2801C47.6573 78.0158 48.0233 78.607 48.9002 78.6752C49.2052 78.698 49.4721 78.6601 49.7313 78.5464L49.8534 77.1442L49.068 77.0759L48.9993 75.8102L51.7368 76.0375L51.447 79.4483C50.6845 79.8576 49.7085 80.0547 48.8316 79.9865C46.6279 79.8046 45.7129 78.4403 45.9111 76.1058C46.1094 73.7864 47.6878 72.6268 49.5941 72.7859C50.6006 72.8845 51.3784 73.3165 51.8893 73.8622Z" fill="#191825"/>
<path d="M59.324 73.1045L58.6301 74.1808C58.1116 73.87 57.616 73.7563 57.0746 73.8321C56.5408 73.9079 56.274 74.1505 56.3273 74.5294C56.3807 74.9236 56.6628 75.0221 57.7304 75.2116C59.141 75.4466 59.9036 75.9241 60.0789 77.1595C60.2619 78.448 59.3469 79.494 57.5855 79.7441C56.335 79.9185 55.4123 79.5925 54.7718 79.1302L55.5343 78.0008C56.0757 78.3571 56.6705 78.5314 57.3262 78.4404C57.9591 78.3495 58.2641 78.0084 58.1955 77.5688C58.1345 77.1216 57.8676 76.9549 56.8764 76.8033C55.2064 76.5304 54.5964 75.9392 54.4592 74.9387C54.2838 73.6957 55.2674 72.7558 56.7391 72.5512C57.8143 72.392 58.6302 72.6118 59.324 73.1045Z" fill="#191825"/>
<path d="M61.7564 72.9756L62.1758 74.3778L64.1508 73.7942L64.5091 74.9993L62.5342 75.5829L62.9841 77.0837L65.4013 76.3636L65.7749 77.6067L61.5963 78.8497L59.6138 72.2555L63.8229 71.0049L64.0135 72.301L61.7564 72.9756Z" fill="#191825"/>
<path d="M67.6507 74.0521L68.7487 76.3411L67.0864 77.1294L64.105 70.9141L66.2705 69.8833C68.0167 69.0572 69.191 69.2467 69.8239 70.5655C70.2128 71.3689 70.0679 72.0208 69.4807 72.8015L72.2792 74.6584L70.4263 75.5377L68.1082 73.8323L67.6507 74.0521ZM67.6659 72.6575C68.2302 72.3846 68.398 71.9829 68.1158 71.3841C67.8566 70.8459 67.4219 70.7626 66.7891 71.0582L66.3239 71.278L67.1169 72.9227L67.6659 72.6575Z" fill="#191825"/>
<path d="M72.9502 74.1274L69.2139 68.3291L70.7694 67.3438L74.5057 73.1421L72.9502 74.1274Z" fill="#191825"/>
<path d="M73.6365 66.8361L74.5591 67.973L76.1604 66.6845L76.9534 67.6623L75.3521 68.9508L76.3434 70.1711L78.3031 68.5946L79.1266 69.6026L75.7334 72.3313L71.3794 66.9801L74.7955 64.2363L75.4665 65.3657L73.6365 66.8361Z" fill="#191825"/>
<path d="M78.8596 60.9697L79.0121 62.2355C78.4174 62.3265 77.9522 62.5463 77.5786 62.948C77.2126 63.3421 77.1668 63.6984 77.4413 63.9561C77.7311 64.2213 78.0132 64.1304 78.9664 63.5998C80.2093 62.8873 81.1014 62.7812 82.0241 63.6301C82.9848 64.5094 82.9467 65.8964 81.7419 67.1925C80.8879 68.1172 79.9576 68.4431 79.1723 68.4886L79.0426 67.1319C79.6908 67.0637 80.255 66.8287 80.7125 66.3436C81.1472 65.8737 81.1624 65.4189 80.8345 65.1157C80.499 64.805 80.1864 64.8504 79.3248 65.3507C77.8607 66.192 77.0143 66.1162 76.2671 65.4341C75.3368 64.5852 75.4969 63.236 76.5034 62.1521C77.2431 61.3714 78.0056 61.0304 78.8596 60.9697Z" fill="#191825"/>
<path d="M72.4546 46.698H69.4121L69.6027 43.8633H72.8358L72.4546 46.698Z" fill="#3D72FC"/>
<path d="M74.9327 49.532H72.0732L72.4545 46.6973H75.5046L74.9327 49.532Z" fill="#3D72FC"/>
<path d="M78.5467 46.698H75.4966L76.0685 43.8633H79.3016L78.5467 46.698Z" fill="#3D72FC"/>
<path d="M80.6438 49.532H77.792L78.5469 46.6973H81.5893L80.6438 49.532Z" fill="#3D72FC"/>
<path d="M84.6394 46.698H81.5894L82.5349 43.8633H85.7756L84.6394 46.698Z" fill="#3D72FC"/>
<path d="M86.3552 49.532H83.5034L84.6396 46.6973H87.682L86.3552 49.532Z" fill="#3D72FC"/>
<path d="M90.7241 46.698H87.6816L89.0084 43.8633H92.2415L90.7241 46.698Z" fill="#3D72FC"/>
<path d="M92.0738 49.532H89.2144L90.7318 46.6973H93.7742L92.0738 49.532Z" fill="#3D72FC"/>
<path d="M69.6025 43.8628H66.3618V41.0205H69.7855L69.6025 43.8628Z" fill="#3D72FC"/>
<path d="M73.2094 41.0203H69.7856L69.9763 38.1855H73.5906L73.2094 41.0203Z" fill="#3D72FC"/>
<path d="M76.0685 43.8628H72.8354L73.2091 41.0205H76.6404L76.0685 43.8628Z" fill="#3D72FC"/>
<path d="M80.0565 41.0203H76.6328L77.2047 38.1855H80.819L80.0565 41.0203Z" fill="#3D72FC"/>
<path d="M82.5348 43.8628H79.3018L80.0643 41.0205H83.488L82.5348 43.8628Z" fill="#3D72FC"/>
<path d="M86.912 41.0203H83.4883L84.4338 38.1855H88.0481L86.912 41.0203Z" fill="#3D72FC"/>
<path d="M89.0085 43.8628H85.7754L86.9115 41.0205H90.3353L89.0085 43.8628Z" fill="#3D72FC"/>
<path d="M93.7592 41.0203H90.3354L91.6546 38.1855H95.269L93.7592 41.0203Z" fill="#3D72FC"/>
<path d="M95.4748 43.8628H92.2417L93.7591 41.0205H97.1828L95.4748 43.8628Z" fill="#3D72FC"/>
<path d="M69.9762 38.1851H66.3618V35.3428H70.1668L69.9762 38.1851Z" fill="#3D72FC"/>
<path d="M73.972 35.3511H70.167L70.3576 32.5088H74.3456L73.972 35.3511Z" fill="#3D72FC"/>
<path d="M77.2047 38.1851H73.5903L73.9716 35.3428H77.7689L77.2047 38.1851Z" fill="#3D72FC"/>
<path d="M81.574 35.3511H77.769L78.3409 32.5088H82.3289L81.574 35.3511Z" fill="#3D72FC"/>
<path d="M84.4337 38.1851H80.8193L81.5742 35.3428H85.3792L84.4337 38.1851Z" fill="#3D72FC"/>
<path d="M89.1763 35.3511H85.3789L86.3244 32.5088H90.32L89.1763 35.3511Z" fill="#3D72FC"/>
<path d="M91.6546 38.1851H88.0479L89.184 35.3428H92.9814L91.6546 38.1851Z" fill="#3D72FC"/>
<path d="M96.7864 35.3511H92.9814L94.3082 32.5088H98.3038L96.7864 35.3511Z" fill="#3D72FC"/>
<path d="M98.8834 38.1851H95.269L96.7865 35.3428H100.591L98.8834 38.1851Z" fill="#3D72FC"/>
<path d="M78.3408 32.5083H74.3452L74.7265 29.666H78.9051L78.3408 32.5083Z" fill="#3D72FC"/>
<path d="M86.3247 32.5083H82.3291L83.0916 29.666H87.2702L86.3247 32.5083Z" fill="#3D72FC"/>
<path d="M94.3083 32.5083H90.3203L91.4565 29.666H95.6351L94.3083 32.5083Z" fill="#3D72FC"/>
<path d="M102.292 32.5083H98.3037L99.8135 29.666H104L102.292 32.5083Z" fill="#3D72FC"/>
<path d="M31.5453 46.698H34.5878L34.3971 43.8633H31.1641L31.5453 46.698Z" fill="#3D72FC"/>
<path d="M29.0675 49.532H31.9193L31.5381 46.6973H28.4956L29.0675 49.532Z" fill="#3D72FC"/>
<path d="M25.4529 46.698H28.4954L27.9311 43.8633H24.6904L25.4529 46.698Z" fill="#3D72FC"/>
<path d="M23.3484 49.532H26.2078L25.4529 46.6973H22.4028L23.3484 49.532Z" fill="#3D72FC"/>
<path d="M19.3603 46.698H22.4027L21.4572 43.8633H18.2241L19.3603 46.698Z" fill="#3D72FC"/>
<path d="M17.6368 49.532H20.4963L19.3601 46.6973H16.3101L17.6368 49.532Z" fill="#3D72FC"/>
<path d="M13.2679 46.698H16.318L14.9912 43.8633H11.7505L13.2679 46.698Z" fill="#3D72FC"/>
<path d="M11.926 49.532H14.7855L13.268 46.6973H10.2256L11.926 49.532Z" fill="#3D72FC"/>
<path d="M34.3972 43.8628H37.6303V41.0205H34.2065L34.3972 43.8628Z" fill="#3D72FC"/>
<path d="M30.7828 41.0203H34.2065L34.0159 38.1855H30.4092L30.7828 41.0203Z" fill="#3D72FC"/>
<path d="M27.9313 43.8628H31.1643L30.7831 41.0205H27.3594L27.9313 43.8628Z" fill="#3D72FC"/>
<path d="M23.9356 41.0203H27.3593L26.795 38.1855H23.1807L23.9356 41.0203Z" fill="#3D72FC"/>
<path d="M21.4572 43.8628H24.6903L23.9354 41.0205H20.5117L21.4572 43.8628Z" fill="#3D72FC"/>
<path d="M17.0878 41.0203H20.5115L19.566 38.1855H15.9517L17.0878 41.0203Z" fill="#3D72FC"/>
<path d="M14.9913 43.8628H18.2244L17.0883 41.0205H13.6646L14.9913 43.8628Z" fill="#3D72FC"/>
<path d="M10.2406 41.0203H13.6643L12.3375 38.1855H8.72314L10.2406 41.0203Z" fill="#3D72FC"/>
<path d="M8.51731 43.8628H11.7504L10.2406 41.0205H6.81689L8.51731 43.8628Z" fill="#3D72FC"/>
<path d="M34.016 38.1851H37.6304V35.3428H33.833L34.016 38.1851Z" fill="#3D72FC"/>
<path d="M30.0282 35.3511H33.8332L33.6426 32.5088H29.647L30.0282 35.3511Z" fill="#3D72FC"/>
<path d="M26.795 38.1851H30.4094L30.0281 35.3428H26.2231L26.795 38.1851Z" fill="#3D72FC"/>
<path d="M22.4256 35.3511H26.223L25.6587 32.5088H21.6631L22.4256 35.3511Z" fill="#3D72FC"/>
<path d="M19.5661 38.1851H23.1805L22.418 35.3428H18.6206L19.5661 38.1851Z" fill="#3D72FC"/>
<path d="M14.8158 35.3511H18.6208L17.6753 32.5088H13.6797L14.8158 35.3511Z" fill="#3D72FC"/>
<path d="M12.3375 38.1851H15.9519L14.8157 35.3428H11.0107L12.3375 38.1851Z" fill="#3D72FC"/>
<path d="M7.21321 35.3511H11.0106L9.6914 32.5088H5.6958L7.21321 35.3511Z" fill="#3D72FC"/>
<path d="M5.10862 38.1851H8.72296L7.21317 35.3428H3.4082L5.10862 38.1851Z" fill="#3D72FC"/>
<path d="M25.6588 32.5083H29.6468L29.2731 29.666H25.0869L25.6588 32.5083Z" fill="#3D72FC"/>
<path d="M17.6753 32.5083H21.6633L20.9084 29.666H16.7222L17.6753 32.5083Z" fill="#3D72FC"/>
<path d="M9.69153 32.5083H13.6795L12.5434 29.666H8.36475L9.69153 32.5083Z" fill="#3D72FC"/>
<path d="M1.70042 32.5083H5.69602L4.17861 29.666H0L1.70042 32.5083Z" fill="#3D72FC"/>
</svg>
